<svg width="448" height="80" viewBox="0 0 448 80" fill="none" xmlns="http://www.w3.org/2000/svg">
<path d="M11.08 11.34H3.64L2.06 15H0.36L6.62 0.76H8.06L14.32 15H12.64L11.08 11.34ZM10.5 9.98L7.36 2.66L4.22 9.98H10.5ZM29.0718 0.279999V15H27.4718V13.18C27.1785 13.8067 26.7318 14.2933 26.1318 14.64C25.5452 14.9733 24.8585 15.14 24.0718 15.14C23.1918 15.14 22.4118 14.92 21.7318 14.48C21.0652 14.04 20.5452 13.4267 20.1718 12.64C19.7985 11.84 19.6118 10.92 19.6118 9.88C19.6118 8.84 19.7918 7.93333 20.1518 7.16C20.5252 6.37333 21.0518 5.76667 21.7318 5.34C22.4118 4.91333 23.1918 4.7 24.0718 4.7C24.8585 4.7 25.5452 4.87333 26.1318 5.22C26.7185 5.55333 27.1585 6.02667 27.4518 6.64V0.279999H29.0718ZM24.3918 13.8C25.3785 13.8 26.1385 13.4667 26.6718 12.8C27.2052 12.12 27.4718 11.16 27.4718 9.92C27.4718 8.69333 27.2052 7.74667 26.6718 7.08C26.1385 6.4 25.3785 6.06 24.3918 6.06C23.4052 6.06 22.6318 6.39333 22.0718 7.06C21.5252 7.72667 21.2518 8.66667 21.2518 9.88C21.2518 11.12 21.5252 12.0867 22.0718 12.78C22.6318 13.46 23.4052 13.8 24.3918 13.8ZM40.4387 4.94V15H38.8387V13.18C38.5454 13.8067 38.0987 14.2933 37.4987 14.64C36.9121 14.9733 36.2254 15.14 35.4387 15.14C34.5454 15.14 33.7587 14.9267 33.0787 14.5C32.4121 14.0733 31.8921 13.4733 31.5187 12.7C31.1587 11.9133 30.9787 11 30.9787 9.96C30.9787 8.92 31.1654 8.00667 31.5387 7.22C31.9121 6.42 32.4321 5.8 33.0987 5.36C33.7787 4.92 34.5587 4.7 35.4387 4.7C36.2254 4.7 36.9121 4.87333 37.4987 5.22C38.0854 5.56667 38.5321 6.05333 38.8387 6.68V4.94H40.4387ZM35.7587 13.8C36.7454 13.8 37.5054 13.4667 38.0387 12.8C38.5721 12.12 38.8387 11.16 38.8387 9.92C38.8387 8.68 38.5721 7.72667 38.0387 7.06C37.5054 6.39333 36.7454 6.06 35.7587 6.06C34.7721 6.06 33.9987 6.40667 33.4387 7.1C32.8921 7.78 32.6187 8.73333 32.6187 9.96C32.6187 11.1867 32.8921 12.1333 33.4387 12.8C33.9854 13.4667 34.7587 13.8 35.7587 13.8ZM42.9457 4.94H44.5657V15H42.9457V4.94ZM44.7657 0.68V2.52H42.7857V0.68H44.7657ZM47.086 0.279999H48.706V15H47.086V0.279999ZM60.0664 4.94L55.3664 15.92C54.8731 17.0667 54.2531 17.9067 53.5064 18.44C52.7597 18.9733 51.8397 19.34 50.7464 19.54L50.4064 18.28C51.3531 18.0667 52.0664 17.78 52.5464 17.42C53.0397 17.0733 53.4464 16.5333 53.7664 15.8L54.1664 14.9L49.9064 4.94H51.6064L55.0064 13.24L58.4464 4.94H60.0664ZM74.6757 0.279999V15H73.0757V13.18C72.7824 13.8067 72.3357 14.2933 71.7357 14.64C71.149 14.9733 70.4624 15.14 69.6757 15.14C68.7957 15.14 68.0157 14.92 67.3357 14.48C66.669 14.04 66.149 13.4267 65.7757 12.64C65.4024 11.84 65.2157 10.92 65.2157 9.88C65.2157 8.84 65.3957 7.93333 65.7557 7.16C66.129 6.37333 66.6557 5.76667 67.3357 5.34C68.0157 4.91333 68.7957 4.7 69.6757 4.7C70.4624 4.7 71.149 4.87333 71.7357 5.22C72.3224 5.55333 72.7624 6.02667 73.0557 6.64V0.279999H74.6757ZM69.9957 13.8C70.9824 13.8 71.7424 13.4667 72.2757 12.8C72.809 12.12 73.0757 11.16 73.0757 9.92C73.0757 8.69333 72.809 7.74667 72.2757 7.08C71.7424 6.4 70.9824 6.06 69.9957 6.06C69.009 6.06 68.2357 6.39333 67.6757 7.06C67.129 7.72667 66.8557 8.66667 66.8557 9.88C66.8557 11.12 67.129 12.0867 67.6757 12.78C68.2357 13.46 69.009 13.8 69.9957 13.8ZM86.0426 4.94V15H84.4426V13.18C84.1493 13.8067 83.7026 14.2933 83.1026 14.64C82.516 14.9733 81.8293 15.14 81.0426 15.14C80.1493 15.14 79.3626 14.9267 78.6826 14.5C78.016 14.0733 77.496 13.4733 77.1226 12.7C76.7626 11.9133 76.5826 11 76.5826 9.96C76.5826 8.92 76.7693 8.00667 77.1426 7.22C77.516 6.42 78.036 5.8 78.7026 5.36C79.3826 4.92 80.1626 4.7 81.0426 4.7C81.8293 4.7 82.516 4.87333 83.1026 5.22C83.6893 5.56667 84.136 6.05333 84.4426 6.68V4.94H86.0426ZM81.3626 13.8C82.3493 13.8 83.1093 13.4667 83.6426 12.8C84.176 12.12 84.4426 11.16 84.4426 9.92C84.4426 8.68 84.176 7.72667 83.6426 7.06C83.1093 6.39333 82.3493 6.06 81.3626 6.06C80.376 6.06 79.6026 6.40667 79.0426 7.1C78.496 7.78 78.2226 8.73333 78.2226 9.96C78.2226 11.1867 78.496 12.1333 79.0426 12.8C79.5893 13.4667 80.3626 13.8 81.3626 13.8ZM90.7096 6.22V11.72C90.7096 12.4667 90.8629 12.9933 91.1696 13.3C91.4762 13.5933 91.9096 13.74 92.4696 13.74C92.8429 13.74 93.2029 13.68 93.5496 13.56V14.94C93.1362 15.0733 92.6696 15.14 92.1496 15.14C91.1896 15.14 90.4362 14.8733 89.8896 14.34C89.3562 13.7933 89.0896 12.9933 89.0896 11.94V6.22H87.1296V4.94H89.0896V2.36L90.7096 1.78V4.94H93.5896V6.22H90.7096ZM103.776 4.94V15H102.176V13.18C101.883 13.8067 101.436 14.2933 100.836 14.64C100.25 14.9733 99.5631 15.14 98.7765 15.14C97.8831 15.14 97.0965 14.9267 96.4165 14.5C95.7498 14.0733 95.2298 13.4733 94.8565 12.7C94.4965 11.9133 94.3165 11 94.3165 9.96C94.3165 8.92 94.5031 8.00667 94.8765 7.22C95.2498 6.42 95.7698 5.8 96.4365 5.36C97.1165 4.92 97.8965 4.7 98.7765 4.7C99.5631 4.7 100.25 4.87333 100.836 5.22C101.423 5.56667 101.87 6.05333 102.176 6.68V4.94H103.776ZM99.0965 13.8C100.083 13.8 100.843 13.4667 101.376 12.8C101.91 12.12 102.176 11.16 102.176 9.92C102.176 8.68 101.91 7.72667 101.376 7.06C100.843 6.39333 100.083 6.06 99.0965 6.06C98.1098 6.06 97.3365 6.40667 96.7765 7.1C96.2298 7.78 95.9565 8.73333 95.9565 9.96C95.9565 11.1867 96.2298 12.1333 96.7765 12.8C97.3231 13.4667 98.0965 13.8 99.0965 13.8ZM109.683 15.14C107.99 15.14 106.65 14.7067 105.663 13.84L106.203 12.64C106.75 13.0667 107.303 13.3733 107.863 13.56C108.423 13.7467 109.05 13.84 109.743 13.84C110.503 13.84 111.077 13.7133 111.463 13.46C111.863 13.1933 112.063 12.8133 112.063 12.32C112.063 11.92 111.93 11.6 111.663 11.36C111.397 11.12 110.957 10.9333 110.343 10.8L108.643 10.4C107.803 10.2133 107.15 9.88 106.683 9.4C106.23 8.92 106.003 8.34667 106.003 7.68C106.003 6.8 106.357 6.08667 107.063 5.54C107.77 4.98 108.703 4.7 109.863 4.7C110.57 4.7 111.237 4.81333 111.863 5.04C112.49 5.26667 113.017 5.59333 113.443 6.02L112.903 7.2C111.957 6.41333 110.943 6.02 109.863 6.02C109.143 6.02 108.583 6.16 108.183 6.44C107.797 6.70667 107.603 7.08667 107.603 7.58C107.603 7.99333 107.723 8.32 107.963 8.56C108.217 8.8 108.617 8.98667 109.163 9.12L110.863 9.54C111.797 9.75333 112.49 10.0867 112.943 10.54C113.397 10.98 113.623 11.56 113.623 12.28C113.623 13.1467 113.27 13.84 112.563 14.36C111.857 14.88 110.897 15.14 109.683 15.14ZM124 9.92H116.62C116.633 11.2 116.927 12.1667 117.5 12.82C118.087 13.4733 118.933 13.8 120.04 13.8C121.213 13.8 122.293 13.4067 123.28 12.62L123.82 13.8C123.38 14.2133 122.813 14.54 122.12 14.78C121.44 15.02 120.74 15.14 120.02 15.14C118.447 15.14 117.213 14.68 116.32 13.76C115.427 12.8267 114.98 11.5533 114.98 9.94C114.98 8.91333 115.18 8.00667 115.58 7.22C115.98 6.42 116.54 5.8 117.26 5.36C117.98 4.92 118.8 4.7 119.72 4.7C121.053 4.7 122.1 5.14 122.86 6.02C123.62 6.88667 124 8.08667 124 9.62V9.92ZM119.74 5.96C118.9 5.96 118.213 6.21333 117.68 6.72C117.16 7.22667 116.827 7.94 116.68 8.86H122.54C122.46 7.91333 122.18 7.19333 121.7 6.7C121.233 6.20667 120.58 5.96 119.74 5.96ZM127.935 6.22V11.72C127.935 12.4667 128.088 12.9933 128.395 13.3C128.702 13.5933 129.135 13.74 129.695 13.74C130.068 13.74 130.428 13.68 130.775 13.56V14.94C130.362 15.0733 129.895 15.14 129.375 15.14C128.415 15.14 127.662 14.8733 127.115 14.34C126.582 13.7933 126.315 12.9933 126.315 11.94V6.22H124.355V4.94H126.315V2.36L127.935 1.78V4.94H130.815V6.22H127.935ZM138.892 6.22V11.72C138.892 12.4667 139.045 12.9933 139.352 13.3C139.658 13.5933 140.092 13.74 140.652 13.74C141.025 13.74 141.385 13.68 141.732 13.56V14.94C141.318 15.0733 140.852 15.14 140.332 15.14C139.372 15.14 138.618 14.8733 138.072 14.34C137.538 13.7933 137.272 12.9933 137.272 11.94V6.22H135.312V4.94H137.272V2.36L138.892 1.78V4.94H141.772V6.22H138.892ZM147.258 15.14C146.312 15.14 145.478 14.9267 144.758 14.5C144.038 14.0733 143.478 13.4667 143.078 12.68C142.692 11.8933 142.498 10.9733 142.498 9.92C142.498 8.86667 142.692 7.94667 143.078 7.16C143.478 6.37333 144.038 5.76667 144.758 5.34C145.478 4.91333 146.312 4.7 147.258 4.7C148.205 4.7 149.038 4.91333 149.758 5.34C150.478 5.76667 151.032 6.37333 151.418 7.16C151.818 7.94667 152.018 8.86667 152.018 9.92C152.018 10.9733 151.818 11.8933 151.418 12.68C151.032 13.4667 150.478 14.0733 149.758 14.5C149.038 14.9267 148.205 15.14 147.258 15.14ZM147.258 13.8C148.258 13.8 149.025 13.4733 149.558 12.82C150.092 12.1533 150.358 11.1867 150.358 9.92C150.358 8.69333 150.085 7.74667 149.538 7.08C148.992 6.4 148.232 6.06 147.258 6.06C146.272 6.06 145.505 6.4 144.958 7.08C144.412 7.74667 144.138 8.69333 144.138 9.92C144.138 11.1867 144.405 12.1533 144.938 12.82C145.485 13.4733 146.258 13.8 147.258 13.8ZM165.288 15L160.128 10.16V15H158.508V0.279999H160.128V9.56L164.868 4.96H166.928L161.888 9.78L167.408 15H165.288ZM176.42 9.92H169.04C169.053 11.2 169.347 12.1667 169.92 12.82C170.507 13.4733 171.353 13.8 172.46 13.8C173.633 13.8 174.713 13.4067 175.7 12.62L176.24 13.8C175.8 14.2133 175.233 14.54 174.54 14.78C173.86 15.02 173.16 15.14 172.44 15.14C170.867 15.14 169.633 14.68 168.74 13.76C167.847 12.8267 167.4 11.5533 167.4 9.94C167.4 8.91333 167.6 8.00667 168 7.22C168.4 6.42 168.96 5.8 169.68 5.36C170.4 4.92 171.22 4.7 172.14 4.7C173.473 4.7 174.52 5.14 175.28 6.02C176.04 6.88667 176.42 8.08667 176.42 9.62V9.92ZM172.16 5.96C171.32 5.96 170.633 6.21333 170.1 6.72C169.58 7.22667 169.247 7.94 169.1 8.86H174.96C174.88 7.91333 174.6 7.19333 174.12 6.7C173.653 6.20667 173 5.96 172.16 5.96ZM186.674 9.92H179.294C179.307 11.2 179.6 12.1667 180.174 12.82C180.76 13.4733 181.607 13.8 182.714 13.8C183.887 13.8 184.967 13.4067 185.954 12.62L186.494 13.8C186.054 14.2133 185.487 14.54 184.794 14.78C184.114 15.02 183.414 15.14 182.694 15.14C181.12 15.14 179.887 14.68 178.994 13.76C178.1 12.8267 177.654 11.5533 177.654 9.94C177.654 8.91333 177.854 8.00667 178.254 7.22C178.654 6.42 179.214 5.8 179.934 5.36C180.654 4.92 181.474 4.7 182.394 4.7C183.727 4.7 184.774 5.14 185.534 6.02C186.294 6.88667 186.674 8.08667 186.674 9.62V9.92ZM182.414 5.96C181.574 5.96 180.887 6.21333 180.354 6.72C179.834 7.22667 179.5 7.94 179.354 8.86H185.214C185.134 7.91333 184.854 7.19333 184.374 6.7C183.907 6.20667 183.254 5.96 182.414 5.96ZM193.527 4.7C194.407 4.7 195.187 4.92 195.867 5.36C196.547 5.8 197.074 6.42 197.447 7.22C197.821 8.00667 198.007 8.92 198.007 9.96C198.007 11 197.821 11.9133 197.447 12.7C197.074 13.4733 196.547 14.0733 195.867 14.5C195.201 14.9267 194.421 15.14 193.527 15.14C192.741 15.14 192.054 14.9667 191.467 14.62C190.881 14.2733 190.434 13.78 190.127 13.14V19.32H188.507V7.76C188.507 6.72 188.454 5.78 188.347 4.94H189.887L190.047 6.88C190.327 6.18667 190.767 5.65333 191.367 5.28C191.981 4.89333 192.701 4.7 193.527 4.7ZM193.227 13.8C194.214 13.8 194.974 13.4667 195.507 12.8C196.054 12.1333 196.327 11.1867 196.327 9.96C196.327 8.73333 196.054 7.78 195.507 7.1C194.961 6.40667 194.201 6.06 193.227 6.06C192.227 6.06 191.461 6.39333 190.927 7.06C190.394 7.72667 190.127 8.68 190.127 9.92C190.127 11.16 190.394 12.12 190.927 12.8C191.461 13.4667 192.227 13.8 193.227 13.8ZM213.304 4.94L208.604 15.92C208.111 17.0667 207.491 17.9067 206.744 18.44C205.997 18.9733 205.077 19.34 203.984 19.54L203.644 18.28C204.591 18.0667 205.304 17.78 205.784 17.42C206.277 17.0733 206.684 16.5333 207.004 15.8L207.404 14.9L203.144 4.94H204.844L208.244 13.24L211.684 4.94H213.304ZM218.506 15.14C217.56 15.14 216.726 14.9267 216.006 14.5C215.286 14.0733 214.726 13.4667 214.326 12.68C213.94 11.8933 213.746 10.9733 213.746 9.92C213.746 8.86667 213.94 7.94667 214.326 7.16C214.726 6.37333 215.286 5.76667 216.006 5.34C216.726 4.91333 217.56 4.7 218.506 4.7C219.453 4.7 220.286 4.91333 221.006 5.34C221.726 5.76667 222.28 6.37333 222.666 7.16C223.066 7.94667 223.266 8.86667 223.266 9.92C223.266 10.9733 223.066 11.8933 222.666 12.68C222.28 13.4667 221.726 14.0733 221.006 14.5C220.286 14.9267 219.453 15.14 218.506 15.14ZM218.506 13.8C219.506 13.8 220.273 13.4733 220.806 12.82C221.34 12.1533 221.606 11.1867 221.606 9.92C221.606 8.69333 221.333 7.74667 220.786 7.08C220.24 6.4 219.48 6.06 218.506 6.06C217.52 6.06 216.753 6.4 216.206 7.08C215.66 7.74667 215.386 8.69333 215.386 9.92C215.386 11.1867 215.653 12.1533 216.186 12.82C216.733 13.4733 217.506 13.8 218.506 13.8ZM233.586 4.94V15H232.006V13.26C231.686 13.8733 231.24 14.34 230.666 14.66C230.093 14.98 229.446 15.14 228.726 15.14C227.54 15.14 226.64 14.8067 226.026 14.14C225.413 13.4733 225.106 12.4867 225.106 11.18V4.94H226.726V11.14C226.726 12.0467 226.913 12.7133 227.286 13.14C227.66 13.5667 228.226 13.78 228.986 13.78C229.88 13.78 230.6 13.4933 231.146 12.92C231.693 12.3333 231.966 11.5667 231.966 10.62V4.94H233.586ZM249.094 4.94V15H247.514V13.26C247.194 13.8733 246.747 14.34 246.174 14.66C245.6 14.98 244.954 15.14 244.234 15.14C243.047 15.14 242.147 14.8067 241.534 14.14C240.92 13.4733 240.614 12.4867 240.614 11.18V4.94H242.234V11.14C242.234 12.0467 242.42 12.7133 242.794 13.14C243.167 13.5667 243.734 13.78 244.494 13.78C245.387 13.78 246.107 13.4933 246.654 12.92C247.2 12.3333 247.474 11.5667 247.474 10.62V4.94H249.094ZM256.611 4.7C257.491 4.7 258.271 4.92 258.951 5.36C259.631 5.8 260.158 6.42 260.531 7.22C260.905 8.00667 261.091 8.92 261.091 9.96C261.091 11 260.905 11.9133 260.531 12.7C260.158 13.4733 259.631 14.0733 258.951 14.5C258.285 14.9267 257.505 15.14 256.611 15.14C255.825 15.14 255.138 14.9667 254.551 14.62C253.965 14.2733 253.518 13.78 253.211 13.14V19.32H251.591V7.76C251.591 6.72 251.538 5.78 251.431 4.94H252.971L253.131 6.88C253.411 6.18667 253.851 5.65333 254.451 5.28C255.065 4.89333 255.785 4.7 256.611 4.7ZM256.311 13.8C257.298 13.8 258.058 13.4667 258.591 12.8C259.138 12.1333 259.411 11.1867 259.411 9.96C259.411 8.73333 259.138 7.78 258.591 7.1C258.045 6.40667 257.285 6.06 256.311 6.06C255.311 6.06 254.545 6.39333 254.011 7.06C253.478 7.72667 253.211 8.68 253.211 9.92C253.211 11.16 253.478 12.12 254.011 12.8C254.545 13.4667 255.311 13.8 256.311 13.8ZM269.708 6.22V11.72C269.708 12.4667 269.861 12.9933 270.168 13.3C270.475 13.5933 270.908 13.74 271.468 13.74C271.841 13.74 272.201 13.68 272.548 13.56V14.94C272.135 15.0733 271.668 15.14 271.148 15.14C270.188 15.14 269.435 14.8733 268.888 14.34C268.355 13.7933 268.088 12.9933 268.088 11.94V6.22H266.128V4.94H268.088V2.36L269.708 1.78V4.94H272.588V6.22H269.708ZM278.075 15.14C277.128 15.14 276.295 14.9267 275.575 14.5C274.855 14.0733 274.295 13.4667 273.895 12.68C273.508 11.8933 273.315 10.9733 273.315 9.92C273.315 8.86667 273.508 7.94667 273.895 7.16C274.295 6.37333 274.855 5.76667 275.575 5.34C276.295 4.91333 277.128 4.7 278.075 4.7C279.022 4.7 279.855 4.91333 280.575 5.34C281.295 5.76667 281.848 6.37333 282.235 7.16C282.635 7.94667 282.835 8.86667 282.835 9.92C282.835 10.9733 282.635 11.8933 282.235 12.68C281.848 13.4667 281.295 14.0733 280.575 14.5C279.855 14.9267 279.022 15.14 278.075 15.14ZM278.075 13.8C279.075 13.8 279.842 13.4733 280.375 12.82C280.908 12.1533 281.175 11.1867 281.175 9.92C281.175 8.69333 280.902 7.74667 280.355 7.08C279.808 6.4 279.048 6.06 278.075 6.06C277.088 6.06 276.322 6.4 275.775 7.08C275.228 7.74667 274.955 8.69333 274.955 9.92C274.955 11.1867 275.222 12.1533 275.755 12.82C276.302 13.4733 277.075 13.8 278.075 13.8ZM298.184 0.279999V15H296.584V13.18C296.291 13.8067 295.844 14.2933 295.244 14.64C294.658 14.9733 293.971 15.14 293.184 15.14C292.304 15.14 291.524 14.92 290.844 14.48C290.178 14.04 289.658 13.4267 289.284 12.64C288.911 11.84 288.724 10.92 288.724 9.88C288.724 8.84 288.904 7.93333 289.264 7.16C289.638 6.37333 290.164 5.76667 290.844 5.34C291.524 4.91333 292.304 4.7 293.184 4.7C293.971 4.7 294.658 4.87333 295.244 5.22C295.831 5.55333 296.271 6.02667 296.564 6.64V0.279999H298.184ZM293.504 13.8C294.491 13.8 295.251 13.4667 295.784 12.8C296.318 12.12 296.584 11.16 296.584 9.92C296.584 8.69333 296.318 7.74667 295.784 7.08C295.251 6.4 294.491 6.06 293.504 6.06C292.518 6.06 291.744 6.39333 291.184 7.06C290.638 7.72667 290.364 8.66667 290.364 9.88C290.364 11.12 290.638 12.0867 291.184 12.78C291.744 13.46 292.518 13.8 293.504 13.8ZM309.551 4.94V15H307.951V13.18C307.658 13.8067 307.211 14.2933 306.611 14.64C306.025 14.9733 305.338 15.14 304.551 15.14C303.658 15.14 302.871 14.9267 302.191 14.5C301.525 14.0733 301.005 13.4733 300.631 12.7C300.271 11.9133 300.091 11 300.091 9.96C300.091 8.92 300.278 8.00667 300.651 7.22C301.025 6.42 301.545 5.8 302.211 5.36C302.891 4.92 303.671 4.7 304.551 4.7C305.338 4.7 306.025 4.87333 306.611 5.22C307.198 5.56667 307.645 6.05333 307.951 6.68V4.94H309.551ZM304.871 13.8C305.858 13.8 306.618 13.4667 307.151 12.8C307.685 12.12 307.951 11.16 307.951 9.92C307.951 8.68 307.685 7.72667 307.151 7.06C306.618 6.39333 305.858 6.06 304.871 6.06C303.885 6.06 303.111 6.40667 302.551 7.1C302.005 7.78 301.731 8.73333 301.731 9.96C301.731 11.1867 302.005 12.1333 302.551 12.8C303.098 13.4667 303.871 13.8 304.871 13.8ZM314.218 6.22V11.72C314.218 12.4667 314.372 12.9933 314.678 13.3C314.985 13.5933 315.418 13.74 315.978 13.74C316.352 13.74 316.712 13.68 317.058 13.56V14.94C316.645 15.0733 316.178 15.14 315.658 15.14C314.698 15.14 313.945 14.8733 313.398 14.34C312.865 13.7933 312.598 12.9933 312.598 11.94V6.22H310.638V4.94H312.598V2.36L314.218 1.78V4.94H317.098V6.22H314.218ZM326.845 9.92H319.465C319.479 11.2 319.772 12.1667 320.345 12.82C320.932 13.4733 321.779 13.8 322.885 13.8C324.059 13.8 325.139 13.4067 326.125 12.62L326.665 13.8C326.225 14.2133 325.659 14.54 324.965 14.78C324.285 15.02 323.585 15.14 322.865 15.14C321.292 15.14 320.059 14.68 319.165 13.76C318.272 12.8267 317.825 11.5533 317.825 9.94C317.825 8.91333 318.025 8.00667 318.425 7.22C318.825 6.42 319.385 5.8 320.105 5.36C320.825 4.92 321.645 4.7 322.565 4.7C323.899 4.7 324.945 5.14 325.705 6.02C326.465 6.88667 326.845 8.08667 326.845 9.62V9.92ZM322.585 5.96C321.745 5.96 321.059 6.21333 320.525 6.72C320.005 7.22667 319.672 7.94 319.525 8.86H325.385C325.305 7.91333 325.025 7.19333 324.545 6.7C324.079 6.20667 323.425 5.96 322.585 5.96ZM337.428 15.14C336.482 15.14 335.648 14.9267 334.928 14.5C334.208 14.0733 333.648 13.4667 333.248 12.68C332.862 11.8933 332.668 10.9733 332.668 9.92C332.668 8.86667 332.862 7.94667 333.248 7.16C333.648 6.37333 334.208 5.76667 334.928 5.34C335.648 4.91333 336.482 4.7 337.428 4.7C338.375 4.7 339.208 4.91333 339.928 5.34C340.648 5.76667 341.202 6.37333 341.588 7.16C341.988 7.94667 342.188 8.86667 342.188 9.92C342.188 10.9733 341.988 11.8933 341.588 12.68C341.202 13.4667 340.648 14.0733 339.928 14.5C339.208 14.9267 338.375 15.14 337.428 15.14ZM337.428 13.8C338.428 13.8 339.195 13.4733 339.728 12.82C340.262 12.1533 340.528 11.1867 340.528 9.92C340.528 8.69333 340.255 7.74667 339.708 7.08C339.162 6.4 338.402 6.06 337.428 6.06C336.442 6.06 335.675 6.4 335.128 7.08C334.582 7.74667 334.308 8.69333 334.308 9.92C334.308 11.1867 334.575 12.1533 335.108 12.82C335.655 13.4733 336.428 13.8 337.428 13.8ZM349.109 4.7C351.522 4.7 352.729 6.02667 352.729 8.68V15H351.109V8.76C351.109 7.82667 350.922 7.14667 350.549 6.72C350.175 6.28 349.589 6.06 348.789 6.06C347.855 6.06 347.109 6.34667 346.549 6.92C345.989 7.49333 345.709 8.26667 345.709 9.24V15H344.089V7.76C344.089 6.72 344.035 5.78 343.929 4.94H345.469L345.629 6.74C345.935 6.08667 346.395 5.58667 347.009 5.24C347.622 4.88 348.322 4.7 349.109 4.7ZM4.96 45.14C3.26667 45.14 1.92667 44.7067 0.94 43.84L1.48 42.64C2.02667 43.0667 2.58 43.3733 3.14 43.56C3.7 43.7467 4.32667 43.84 5.02 43.84C5.78 43.84 6.35333 43.7133 6.74 43.46C7.14 43.1933 7.34 42.8133 7.34 42.32C7.34 41.92 7.20667 41.6 6.94 41.36C6.67333 41.12 6.23333 40.9333 5.62 40.8L3.92 40.4C3.08 40.2133 2.42667 39.88 1.96 39.4C1.50667 38.92 1.28 38.3467 1.28 37.68C1.28 36.8 1.63333 36.0867 2.34 35.54C3.04667 34.98 3.98 34.7 5.14 34.7C5.84667 34.7 6.51333 34.8133 7.14 35.04C7.76667 35.2667 8.29333 35.5933 8.72 36.02L8.18 37.2C7.23333 36.4133 6.22 36.02 5.14 36.02C4.42 36.02 3.86 36.16 3.46 36.44C3.07333 36.7067 2.88 37.0867 2.88 37.58C2.88 37.9933 3 38.32 3.24 38.56C3.49333 38.8 3.89333 38.9867 4.44 39.12L6.14 39.54C7.07333 39.7533 7.76667 40.0867 8.22 40.54C8.67333 40.98 8.9 41.56 8.9 42.28C8.9 43.1467 8.54667 43.84 7.84 44.36C7.13333 44.88 6.17333 45.14 4.96 45.14ZM19.2766 34.94V45H17.6966V43.26C17.3766 43.8733 16.9299 44.34 16.3566 44.66C15.7833 44.98 15.1366 45.14 14.4166 45.14C13.2299 45.14 12.3299 44.8067 11.7166 44.14C11.1033 43.4733 10.7966 42.4867 10.7966 41.18V34.94H12.4166V41.14C12.4166 42.0467 12.6033 42.7133 12.9766 43.14C13.3499 43.5667 13.9166 43.78 14.6766 43.78C15.5699 43.78 16.2899 43.4933 16.8366 42.92C17.3833 42.3333 17.6566 41.5667 17.6566 40.62V34.94H19.2766ZM26.7943 34.7C27.6743 34.7 28.4543 34.9133 29.1343 35.34C29.8143 35.7667 30.341 36.3733 30.7143 37.16C31.0877 37.9333 31.2743 38.84 31.2743 39.88C31.2743 40.92 31.0877 41.84 30.7143 42.64C30.341 43.4267 29.8143 44.04 29.1343 44.48C28.4543 44.92 27.6743 45.14 26.7943 45.14C26.0077 45.14 25.321 44.9667 24.7343 44.62C24.1477 44.2733 23.701 43.78 23.3943 43.14V45H21.7743V30.28H23.3943V36.72C23.6877 36.0667 24.1277 35.5667 24.7143 35.22C25.3143 34.8733 26.0077 34.7 26.7943 34.7ZM26.4943 43.8C27.4677 43.8 28.2277 43.46 28.7743 42.78C29.321 42.0867 29.5943 41.12 29.5943 39.88C29.5943 38.6667 29.321 37.7267 28.7743 37.06C28.241 36.3933 27.481 36.06 26.4943 36.06C25.4943 36.06 24.7277 36.3933 24.1943 37.06C23.661 37.7267 23.3943 38.68 23.3943 39.92C23.3943 41.16 23.661 42.12 24.1943 42.8C24.7277 43.4667 25.4943 43.8 26.4943 43.8ZM36.5412 45.14C34.8479 45.14 33.5079 44.7067 32.5212 43.84L33.0612 42.64C33.6079 43.0667 34.1612 43.3733 34.7212 43.56C35.2812 43.7467 35.9079 43.84 36.6012 43.84C37.3612 43.84 37.9346 43.7133 38.3212 43.46C38.7212 43.1933 38.9212 42.8133 38.9212 42.32C38.9212 41.92 38.7879 41.6 38.5212 41.36C38.2546 41.12 37.8146 40.9333 37.2012 40.8L35.5012 40.4C34.6612 40.2133 34.0079 39.88 33.5412 39.4C33.0879 38.92 32.8612 38.3467 32.8612 37.68C32.8612 36.8 33.2146 36.0867 33.9212 35.54C34.6279 34.98 35.5612 34.7 36.7212 34.7C37.4279 34.7 38.0946 34.8133 38.7212 35.04C39.3479 35.2667 39.8746 35.5933 40.3012 36.02L39.7612 37.2C38.8146 36.4133 37.8012 36.02 36.7212 36.02C36.0012 36.02 35.4412 36.16 35.0412 36.44C34.6546 36.7067 34.4612 37.0867 34.4612 37.58C34.4612 37.9933 34.5812 38.32 34.8212 38.56C35.0746 38.8 35.4746 38.9867 36.0212 39.12L37.7212 39.54C38.6546 39.7533 39.3479 40.0867 39.8012 40.54C40.2546 40.98 40.4812 41.56 40.4812 42.28C40.4812 43.1467 40.1279 43.84 39.4212 44.36C38.7146 44.88 37.7546 45.14 36.5412 45.14ZM46.6579 45.14C45.6845 45.14 44.8312 44.9267 44.0979 44.5C43.3779 44.0733 42.8179 43.4733 42.4179 42.7C42.0312 41.9133 41.8379 41 41.8379 39.96C41.8379 38.92 42.0379 38.0067 42.4379 37.22C42.8379 36.42 43.4045 35.8 44.1379 35.36C44.8845 34.92 45.7512 34.7 46.7379 34.7C47.4179 34.7 48.0712 34.82 48.6979 35.06C49.3379 35.2867 49.8645 35.6067 50.2779 36.02L49.7379 37.22C49.2312 36.82 48.7379 36.5267 48.2579 36.34C47.7912 36.1533 47.3112 36.06 46.8179 36.06C45.7912 36.06 44.9845 36.4067 44.3979 37.1C43.8112 37.78 43.5179 38.7333 43.5179 39.96C43.5179 41.1733 43.8045 42.12 44.3779 42.8C44.9645 43.4667 45.7779 43.8 46.8179 43.8C47.3112 43.8 47.7912 43.7067 48.2579 43.52C48.7379 43.3333 49.2312 43.04 49.7379 42.64L50.2779 43.84C49.8512 44.24 49.3112 44.56 48.6579 44.8C48.0179 45.0267 47.3512 45.14 46.6579 45.14ZM56.3949 34.7C56.7283 34.7 57.0349 34.74 57.3149 34.82L57.2749 36.3C56.9683 36.1933 56.6149 36.14 56.2149 36.14C55.2416 36.14 54.5149 36.4467 54.0349 37.06C53.5683 37.66 53.3349 38.3933 53.3349 39.26V45H51.7149V37.76C51.7149 36.72 51.6616 35.78 51.5549 34.94H53.0949L53.2549 36.8C53.5083 36.12 53.9149 35.6 54.4749 35.24C55.0349 34.88 55.6749 34.7 56.3949 34.7ZM58.3358 34.94H59.9558V45H58.3358V34.94ZM60.1558 30.68V32.52H58.1758V30.68H60.1558ZM67.4961 34.7C68.3761 34.7 69.1561 34.92 69.8361 35.36C70.5161 35.8 71.0428 36.42 71.4161 37.22C71.7895 38.0067 71.9761 38.92 71.9761 39.96C71.9761 41 71.7895 41.9133 71.4161 42.7C71.0428 43.4733 70.5161 44.0733 69.8361 44.5C69.1695 44.9267 68.3895 45.14 67.4961 45.14C66.7095 45.14 66.0228 44.9667 65.4361 44.62C64.8495 44.2733 64.4028 43.78 64.0961 43.14V49.32H62.4761V37.76C62.4761 36.72 62.4228 35.78 62.3161 34.94H63.8561L64.0161 36.88C64.2961 36.1867 64.7361 35.6533 65.3361 35.28C65.9495 34.8933 66.6695 34.7 67.4961 34.7ZM67.1961 43.8C68.1828 43.8 68.9428 43.4667 69.4761 42.8C70.0228 42.1333 70.2961 41.1867 70.2961 39.96C70.2961 38.7333 70.0228 37.78 69.4761 37.1C68.9295 36.4067 68.1695 36.06 67.1961 36.06C66.1961 36.06 65.4295 36.3933 64.8961 37.06C64.3628 37.7267 64.0961 38.68 64.0961 39.92C64.0961 41.16 64.3628 42.12 64.8961 42.8C65.4295 43.4667 66.1961 43.8 67.1961 43.8ZM75.9835 36.22V41.72C75.9835 42.4667 76.1369 42.9933 76.4435 43.3C76.7502 43.5933 77.1835 43.74 77.7435 43.74C78.1169 43.74 78.4769 43.68 78.8235 43.56V44.94C78.4102 45.0733 77.9435 45.14 77.4235 45.14C76.4635 45.14 75.7102 44.8733 75.1635 44.34C74.6302 43.7933 74.3635 42.9933 74.3635 41.94V36.22H72.4035V34.94H74.3635V32.36L75.9835 31.78V34.94H78.8635V36.22H75.9835ZM80.1904 34.94H81.8104V45H80.1904V34.94ZM82.0104 30.68V32.52H80.0304V30.68H82.0104ZM88.4908 45.14C87.5441 45.14 86.7108 44.9267 85.9908 44.5C85.2708 44.0733 84.7108 43.4667 84.3108 42.68C83.9241 41.8933 83.7308 40.9733 83.7308 39.92C83.7308 38.8667 83.9241 37.9467 84.3108 37.16C84.7108 36.3733 85.2708 35.7667 85.9908 35.34C86.7108 34.9133 87.5441 34.7 88.4908 34.7C89.4375 34.7 90.2708 34.9133 90.9908 35.34C91.7108 35.7667 92.2641 36.3733 92.6508 37.16C93.0508 37.9467 93.2508 38.8667 93.2508 39.92C93.2508 40.9733 93.0508 41.8933 92.6508 42.68C92.2641 43.4667 91.7108 44.0733 90.9908 44.5C90.2708 44.9267 89.4375 45.14 88.4908 45.14ZM88.4908 43.8C89.4908 43.8 90.2575 43.4733 90.7908 42.82C91.3241 42.1533 91.5908 41.1867 91.5908 39.92C91.5908 38.6933 91.3175 37.7467 90.7708 37.08C90.2241 36.4 89.4641 36.06 88.4908 36.06C87.5041 36.06 86.7375 36.4 86.1908 37.08C85.6441 37.7467 85.3708 38.6933 85.3708 39.92C85.3708 41.1867 85.6375 42.1533 86.1708 42.82C86.7175 43.4733 87.4908 43.8 88.4908 43.8ZM100.171 34.7C102.584 34.7 103.791 36.0267 103.791 38.68V45H102.171V38.76C102.171 37.8267 101.984 37.1467 101.611 36.72C101.238 36.28 100.651 36.06 99.8509 36.06C98.9175 36.06 98.1709 36.3467 97.6109 36.92C97.0509 37.4933 96.7709 38.2667 96.7709 39.24V45H95.1509V37.76C95.1509 36.72 95.0975 35.78 94.9909 34.94H96.5309L96.6909 36.74C96.9975 36.0867 97.4575 35.5867 98.0709 35.24C98.6842 34.88 99.3842 34.7 100.171 34.7ZM121.974 34.7C124.201 34.7 125.314 36.0267 125.314 38.68V45H123.694V38.76C123.694 37.8133 123.528 37.1267 123.194 36.7C122.874 36.2733 122.348 36.06 121.614 36.06C120.761 36.06 120.094 36.3467 119.614 36.92C119.134 37.4933 118.894 38.2733 118.894 39.26V45H117.274V38.76C117.274 37.8267 117.108 37.1467 116.774 36.72C116.441 36.28 115.908 36.06 115.174 36.06C114.321 36.06 113.648 36.3467 113.154 36.92C112.674 37.4933 112.434 38.2733 112.434 39.26V45H110.814V37.76C110.814 36.72 110.761 35.78 110.654 34.94H112.194L112.354 36.7C112.634 36.06 113.048 35.5667 113.594 35.22C114.154 34.8733 114.801 34.7 115.534 34.7C116.334 34.7 116.988 34.86 117.494 35.18C118.001 35.5 118.374 35.9933 118.614 36.66C118.921 36.06 119.368 35.5867 119.954 35.24C120.554 34.88 121.228 34.7 121.974 34.7ZM136.627 34.94V45H135.027V43.18C134.734 43.8067 134.287 44.2933 133.687 44.64C133.101 44.9733 132.414 45.14 131.627 45.14C130.734 45.14 129.947 44.9267 129.267 44.5C128.601 44.0733 128.081 43.4733 127.707 42.7C127.347 41.9133 127.167 41 127.167 39.96C127.167 38.92 127.354 38.0067 127.727 37.22C128.101 36.42 128.621 35.8 129.287 35.36C129.967 34.92 130.747 34.7 131.627 34.7C132.414 34.7 133.101 34.8733 133.687 35.22C134.274 35.5667 134.721 36.0533 135.027 36.68V34.94H136.627ZM131.947 43.8C132.934 43.8 133.694 43.4667 134.227 42.8C134.761 42.12 135.027 41.16 135.027 39.92C135.027 38.68 134.761 37.7267 134.227 37.06C133.694 36.3933 132.934 36.06 131.947 36.06C130.961 36.06 130.187 36.4067 129.627 37.1C129.081 37.78 128.807 38.7333 128.807 39.96C128.807 41.1867 129.081 42.1333 129.627 42.8C130.174 43.4667 130.947 43.8 131.947 43.8ZM143.814 34.7C144.148 34.7 144.454 34.74 144.734 34.82L144.694 36.3C144.388 36.1933 144.034 36.14 143.634 36.14C142.661 36.14 141.934 36.4467 141.454 37.06C140.988 37.66 140.754 38.3933 140.754 39.26V45H139.134V37.76C139.134 36.72 139.081 35.78 138.974 34.94H140.514L140.674 36.8C140.928 36.12 141.334 35.6 141.894 35.24C142.454 34.88 143.094 34.7 143.814 34.7ZM152.535 45L147.375 40.16V45H145.755V30.28H147.375V39.56L152.115 34.96H154.175L149.135 39.78L154.655 45H152.535ZM163.667 39.92H156.287C156.3 41.2 156.594 42.1667 157.167 42.82C157.754 43.4733 158.6 43.8 159.707 43.8C160.88 43.8 161.96 43.4067 162.947 42.62L163.487 43.8C163.047 44.2133 162.48 44.54 161.787 44.78C161.107 45.02 160.407 45.14 159.687 45.14C158.114 45.14 156.88 44.68 155.987 43.76C155.094 42.8267 154.647 41.5533 154.647 39.94C154.647 38.9133 154.847 38.0067 155.247 37.22C155.647 36.42 156.207 35.8 156.927 35.36C157.647 34.92 158.467 34.7 159.387 34.7C160.72 34.7 161.767 35.14 162.527 36.02C163.287 36.8867 163.667 38.0867 163.667 39.62V39.92ZM159.407 35.96C158.567 35.96 157.88 36.2133 157.347 36.72C156.827 37.2267 156.494 37.94 156.347 38.86H162.207C162.127 37.9133 161.847 37.1933 161.367 36.7C160.9 36.2067 160.247 35.96 159.407 35.96ZM167.602 36.22V41.72C167.602 42.4667 167.755 42.9933 168.062 43.3C168.369 43.5933 168.802 43.74 169.362 43.74C169.735 43.74 170.095 43.68 170.442 43.56V44.94C170.029 45.0733 169.562 45.14 169.042 45.14C168.082 45.14 167.329 44.8733 166.782 44.34C166.249 43.7933 165.982 42.9933 165.982 41.94V36.22H164.022V34.94H165.982V32.36L167.602 31.78V34.94H170.482V36.22H167.602ZM178.558 36.22V41.72C178.558 42.4667 178.712 42.9933 179.018 43.3C179.325 43.5933 179.758 43.74 180.318 43.74C180.692 43.74 181.052 43.68 181.398 43.56V44.94C180.985 45.0733 180.518 45.14 179.998 45.14C179.038 45.14 178.285 44.8733 177.738 44.34C177.205 43.7933 176.938 42.9933 176.938 41.94V36.22H174.978V34.94H176.938V32.36L178.558 31.78V34.94H181.438V36.22H178.558ZM187.445 34.7C187.779 34.7 188.085 34.74 188.365 34.82L188.325 36.3C188.019 36.1933 187.665 36.14 187.265 36.14C186.292 36.14 185.565 36.4467 185.085 37.06C184.619 37.66 184.385 38.3933 184.385 39.26V45H182.765V37.76C182.765 36.72 182.712 35.78 182.605 34.94H184.145L184.305 36.8C184.559 36.12 184.965 35.6 185.525 35.24C186.085 34.88 186.725 34.7 187.445 34.7ZM197.611 39.92H190.231C190.244 41.2 190.538 42.1667 191.111 42.82C191.698 43.4733 192.544 43.8 193.651 43.8C194.824 43.8 195.904 43.4067 196.891 42.62L197.431 43.8C196.991 44.2133 196.424 44.54 195.731 44.78C195.051 45.02 194.351 45.14 193.631 45.14C192.058 45.14 190.824 44.68 189.931 43.76C189.038 42.8267 188.591 41.5533 188.591 39.94C188.591 38.9133 188.791 38.0067 189.191 37.22C189.591 36.42 190.151 35.8 190.871 35.36C191.591 34.92 192.411 34.7 193.331 34.7C194.664 34.7 195.711 35.14 196.471 36.02C197.231 36.8867 197.611 38.0867 197.611 39.62V39.92ZM193.351 35.96C192.511 35.96 191.824 36.2133 191.291 36.72C190.771 37.2267 190.438 37.94 190.291 38.86H196.151C196.071 37.9133 195.791 37.1933 195.311 36.7C194.844 36.2067 194.191 35.96 193.351 35.96ZM204.465 34.7C206.878 34.7 208.085 36.0267 208.085 38.68V45H206.465V38.76C206.465 37.8267 206.278 37.1467 205.905 36.72C205.531 36.28 204.945 36.06 204.145 36.06C203.211 36.06 202.465 36.3467 201.905 36.92C201.345 37.4933 201.065 38.2667 201.065 39.24V45H199.445V37.76C199.445 36.72 199.391 35.78 199.285 34.94H200.825L200.985 36.74C201.291 36.0867 201.751 35.5867 202.365 35.24C202.978 34.88 203.678 34.7 204.465 34.7ZM219.379 30.28V45H217.779V43.18C217.485 43.8067 217.039 44.2933 216.439 44.64C215.852 44.9733 215.165 45.14 214.379 45.14C213.499 45.14 212.719 44.92 212.039 44.48C211.372 44.04 210.852 43.4267 210.479 42.64C210.105 41.84 209.919 40.92 209.919 39.88C209.919 38.84 210.099 37.9333 210.459 37.16C210.832 36.3733 211.359 35.7667 212.039 35.34C212.719 34.9133 213.499 34.7 214.379 34.7C215.165 34.7 215.852 34.8733 216.439 35.22C217.025 35.5533 217.465 36.0267 217.759 36.64V30.28H219.379ZM214.699 43.8C215.685 43.8 216.445 43.4667 216.979 42.8C217.512 42.12 217.779 41.16 217.779 39.92C217.779 38.6933 217.512 37.7467 216.979 37.08C216.445 36.4 215.685 36.06 214.699 36.06C213.712 36.06 212.939 36.3933 212.379 37.06C211.832 37.7267 211.559 38.6667 211.559 39.88C211.559 41.12 211.832 42.0867 212.379 42.78C212.939 43.46 213.712 43.8 214.699 43.8ZM225.285 45.14C223.592 45.14 222.252 44.7067 221.265 43.84L221.805 42.64C222.352 43.0667 222.905 43.3733 223.465 43.56C224.025 43.7467 224.652 43.84 225.345 43.84C226.105 43.84 226.679 43.7133 227.065 43.46C227.465 43.1933 227.665 42.8133 227.665 42.32C227.665 41.92 227.532 41.6 227.265 41.36C226.999 41.12 226.559 40.9333 225.945 40.8L224.245 40.4C223.405 40.2133 222.752 39.88 222.285 39.4C221.832 38.92 221.605 38.3467 221.605 37.68C221.605 36.8 221.959 36.0867 222.665 35.54C223.372 34.98 224.305 34.7 225.465 34.7C226.172 34.7 226.839 34.8133 227.465 35.04C228.092 35.2667 228.619 35.5933 229.045 36.02L228.505 37.2C227.559 36.4133 226.545 36.02 225.465 36.02C224.745 36.02 224.185 36.16 223.785 36.44C223.399 36.7067 223.205 37.0867 223.205 37.58C223.205 37.9933 223.325 38.32 223.565 38.56C223.819 38.8 224.219 38.9867 224.765 39.12L226.465 39.54C227.399 39.7533 228.092 40.0867 228.545 40.54C228.999 40.98 229.225 41.56 229.225 42.28C229.225 43.1467 228.872 43.84 228.165 44.36C227.459 44.88 226.499 45.14 225.285 45.14ZM244.632 34.94V45H243.032V43.18C242.738 43.8067 242.292 44.2933 241.692 44.64C241.105 44.9733 240.418 45.14 239.632 45.14C238.738 45.14 237.952 44.9267 237.272 44.5C236.605 44.0733 236.085 43.4733 235.712 42.7C235.352 41.9133 235.172 41 235.172 39.96C235.172 38.92 235.358 38.0067 235.732 37.22C236.105 36.42 236.625 35.8 237.292 35.36C237.972 34.92 238.752 34.7 239.632 34.7C240.418 34.7 241.105 34.8733 241.692 35.22C242.278 35.5667 242.725 36.0533 243.032 36.68V34.94H244.632ZM239.952 43.8C240.938 43.8 241.698 43.4667 242.232 42.8C242.765 42.12 243.032 41.16 243.032 39.92C243.032 38.68 242.765 37.7267 242.232 37.06C241.698 36.3933 240.938 36.06 239.952 36.06C238.965 36.06 238.192 36.4067 237.632 37.1C237.085 37.78 236.812 38.7333 236.812 39.96C236.812 41.1867 237.085 42.1333 237.632 42.8C238.178 43.4667 238.952 43.8 239.952 43.8ZM252.159 34.7C254.572 34.7 255.779 36.0267 255.779 38.68V45H254.159V38.76C254.159 37.8267 253.972 37.1467 253.599 36.72C253.225 36.28 252.639 36.06 251.839 36.06C250.905 36.06 250.159 36.3467 249.599 36.92C249.039 37.4933 248.759 38.2667 248.759 39.24V45H247.139V37.76C247.139 36.72 247.085 35.78 246.979 34.94H248.519L248.679 36.74C248.985 36.0867 249.445 35.5867 250.059 35.24C250.672 34.88 251.372 34.7 252.159 34.7ZM267.073 30.28V45H265.473V43.18C265.179 43.8067 264.733 44.2933 264.133 44.64C263.546 44.9733 262.859 45.14 262.073 45.14C261.193 45.14 260.413 44.92 259.733 44.48C259.066 44.04 258.546 43.4267 258.173 42.64C257.799 41.84 257.613 40.92 257.613 39.88C257.613 38.84 257.793 37.9333 258.153 37.16C258.526 36.3733 259.053 35.7667 259.733 35.34C260.413 34.9133 261.193 34.7 262.073 34.7C262.859 34.7 263.546 34.8733 264.133 35.22C264.719 35.5533 265.159 36.0267 265.453 36.64V30.28H267.073ZM262.393 43.8C263.379 43.8 264.139 43.4667 264.673 42.8C265.206 42.12 265.473 41.16 265.473 39.92C265.473 38.6933 265.206 37.7467 264.673 37.08C264.139 36.4 263.379 36.06 262.393 36.06C261.406 36.06 260.633 36.3933 260.073 37.06C259.526 37.7267 259.253 38.6667 259.253 39.88C259.253 41.12 259.526 42.0867 260.073 42.78C260.633 43.46 261.406 43.8 262.393 43.8ZM289.449 34.94L285.729 45H284.169L281.289 37.14L278.429 45H276.869L273.149 34.94H274.849L277.689 43.06L280.629 34.94H282.049L284.949 43.08L287.849 34.94H289.449ZM295.947 34.7C298.36 34.7 299.567 36.0267 299.567 38.68V45H297.947V38.76C297.947 37.8267 297.76 37.1467 297.387 36.72C297.013 36.28 296.427 36.06 295.627 36.06C294.693 36.06 293.947 36.3467 293.387 36.92C292.827 37.4933 292.547 38.2667 292.547 39.24V45H290.927V30.28H292.547V36.58C292.867 35.9667 293.32 35.5 293.907 35.18C294.507 34.86 295.187 34.7 295.947 34.7ZM310.861 34.94V45H309.261V43.18C308.967 43.8067 308.521 44.2933 307.921 44.64C307.334 44.9733 306.647 45.14 305.861 45.14C304.967 45.14 304.181 44.9267 303.501 44.5C302.834 44.0733 302.314 43.4733 301.941 42.7C301.581 41.9133 301.401 41 301.401 39.96C301.401 38.92 301.587 38.0067 301.961 37.22C302.334 36.42 302.854 35.8 303.521 35.36C304.201 34.92 304.981 34.7 305.861 34.7C306.647 34.7 307.334 34.8733 307.921 35.22C308.507 35.5667 308.954 36.0533 309.261 36.68V34.94H310.861ZM306.181 43.8C307.167 43.8 307.927 43.4667 308.461 42.8C308.994 42.12 309.261 41.16 309.261 39.92C309.261 38.68 308.994 37.7267 308.461 37.06C307.927 36.3933 307.167 36.06 306.181 36.06C305.194 36.06 304.421 36.4067 303.861 37.1C303.314 37.78 303.041 38.7333 303.041 39.96C303.041 41.1867 303.314 42.1333 303.861 42.8C304.407 43.4667 305.181 43.8 306.181 43.8ZM315.527 36.22V41.72C315.527 42.4667 315.681 42.9933 315.987 43.3C316.294 43.5933 316.727 43.74 317.287 43.74C317.661 43.74 318.021 43.68 318.367 43.56V44.94C317.954 45.0733 317.487 45.14 316.967 45.14C316.007 45.14 315.254 44.8733 314.707 44.34C314.174 43.7933 313.907 42.9933 313.907 41.94V36.22H311.947V34.94H313.907V32.36L315.527 31.78V34.94H318.407V36.22H315.527ZM319.434 30.76H321.354L320.954 36.36H319.874L319.434 30.76ZM326.943 45.14C325.249 45.14 323.909 44.7067 322.923 43.84L323.463 42.64C324.009 43.0667 324.563 43.3733 325.123 43.56C325.683 43.7467 326.309 43.84 327.003 43.84C327.763 43.84 328.336 43.7133 328.723 43.46C329.123 43.1933 329.323 42.8133 329.323 42.32C329.323 41.92 329.189 41.6 328.923 41.36C328.656 41.12 328.216 40.9333 327.603 40.8L325.903 40.4C325.063 40.2133 324.409 39.88 323.943 39.4C323.489 38.92 323.263 38.3467 323.263 37.68C323.263 36.8 323.616 36.0867 324.323 35.54C325.029 34.98 325.963 34.7 327.123 34.7C327.829 34.7 328.496 34.8133 329.123 35.04C329.749 35.2667 330.276 35.5933 330.703 36.02L330.163 37.2C329.216 36.4133 328.203 36.02 327.123 36.02C326.403 36.02 325.843 36.16 325.443 36.44C325.056 36.7067 324.863 37.0867 324.863 37.58C324.863 37.9933 324.983 38.32 325.223 38.56C325.476 38.8 325.876 38.9867 326.423 39.12L328.123 39.54C329.056 39.7533 329.749 40.0867 330.203 40.54C330.656 40.98 330.883 41.56 330.883 42.28C330.883 43.1467 330.529 43.84 329.823 44.36C329.116 44.88 328.156 45.14 326.943 45.14ZM342.449 34.7C344.862 34.7 346.069 36.0267 346.069 38.68V45H344.449V38.76C344.449 37.8267 344.262 37.1467 343.889 36.72C343.516 36.28 342.929 36.06 342.129 36.06C341.196 36.06 340.449 36.3467 339.889 36.92C339.329 37.4933 339.049 38.2667 339.049 39.24V45H337.429V30.28H339.049V36.58C339.369 35.9667 339.822 35.5 340.409 35.18C341.009 34.86 341.689 34.7 342.449 34.7ZM357.363 34.94V45H355.763V43.18C355.47 43.8067 355.023 44.2933 354.423 44.64C353.836 44.9733 353.15 45.14 352.363 45.14C351.47 45.14 350.683 44.9267 350.003 44.5C349.336 44.0733 348.816 43.4733 348.443 42.7C348.083 41.9133 347.903 41 347.903 39.96C347.903 38.92 348.09 38.0067 348.463 37.22C348.836 36.42 349.356 35.8 350.023 35.36C350.703 34.92 351.483 34.7 352.363 34.7C353.15 34.7 353.836 34.8733 354.423 35.22C355.01 35.5667 355.456 36.0533 355.763 36.68V34.94H357.363ZM352.683 43.8C353.67 43.8 354.43 43.4667 354.963 42.8C355.496 42.12 355.763 41.16 355.763 39.92C355.763 38.68 355.496 37.7267 354.963 37.06C354.43 36.3933 353.67 36.06 352.683 36.06C351.696 36.06 350.923 36.4067 350.363 37.1C349.816 37.78 349.543 38.7333 349.543 39.96C349.543 41.1867 349.816 42.1333 350.363 42.8C350.91 43.4667 351.683 43.8 352.683 43.8ZM364.89 34.7C365.77 34.7 366.55 34.92 367.23 35.36C367.91 35.8 368.436 36.42 368.81 37.22C369.183 38.0067 369.37 38.92 369.37 39.96C369.37 41 369.183 41.9133 368.81 42.7C368.436 43.4733 367.91 44.0733 367.23 44.5C366.563 44.9267 365.783 45.14 364.89 45.14C364.103 45.14 363.416 44.9667 362.83 44.62C362.243 44.2733 361.796 43.78 361.49 43.14V49.32H359.87V37.76C359.87 36.72 359.816 35.78 359.71 34.94H361.25L361.41 36.88C361.69 36.1867 362.13 35.6533 362.73 35.28C363.343 34.8933 364.063 34.7 364.89 34.7ZM364.59 43.8C365.576 43.8 366.336 43.4667 366.87 42.8C367.416 42.1333 367.69 41.1867 367.69 39.96C367.69 38.7333 367.416 37.78 366.87 37.1C366.323 36.4067 365.563 36.06 364.59 36.06C363.59 36.06 362.823 36.3933 362.29 37.06C361.756 37.7267 361.49 38.68 361.49 39.92C361.49 41.16 361.756 42.12 362.29 42.8C362.823 43.4667 363.59 43.8 364.59 43.8ZM376.257 34.7C377.137 34.7 377.917 34.92 378.597 35.36C379.277 35.8 379.803 36.42 380.177 37.22C380.55 38.0067 380.737 38.92 380.737 39.96C380.737 41 380.55 41.9133 380.177 42.7C379.803 43.4733 379.277 44.0733 378.597 44.5C377.93 44.9267 377.15 45.14 376.257 45.14C375.47 45.14 374.783 44.9667 374.197 44.62C373.61 44.2733 373.163 43.78 372.857 43.14V49.32H371.237V37.76C371.237 36.72 371.183 35.78 371.077 34.94H372.617L372.777 36.88C373.057 36.1867 373.497 35.6533 374.097 35.28C374.71 34.8933 375.43 34.7 376.257 34.7ZM375.957 43.8C376.943 43.8 377.703 43.4667 378.237 42.8C378.783 42.1333 379.057 41.1867 379.057 39.96C379.057 38.7333 378.783 37.78 378.237 37.1C377.69 36.4067 376.93 36.06 375.957 36.06C374.957 36.06 374.19 36.3933 373.657 37.06C373.123 37.7267 372.857 38.68 372.857 39.92C372.857 41.16 373.123 42.12 373.657 42.8C374.19 43.4667 374.957 43.8 375.957 43.8ZM391.024 39.92H383.644C383.657 41.2 383.95 42.1667 384.524 42.82C385.11 43.4733 385.957 43.8 387.064 43.8C388.237 43.8 389.317 43.4067 390.304 42.62L390.844 43.8C390.404 44.2133 389.837 44.54 389.144 44.78C388.464 45.02 387.764 45.14 387.044 45.14C385.47 45.14 384.237 44.68 383.344 43.76C382.45 42.8267 382.004 41.5533 382.004 39.94C382.004 38.9133 382.204 38.0067 382.604 37.22C383.004 36.42 383.564 35.8 384.284 35.36C385.004 34.92 385.824 34.7 386.744 34.7C388.077 34.7 389.124 35.14 389.884 36.02C390.644 36.8867 391.024 38.0867 391.024 39.62V39.92ZM386.764 35.96C385.924 35.96 385.237 36.2133 384.704 36.72C384.184 37.2267 383.85 37.94 383.704 38.86H389.564C389.484 37.9133 389.204 37.1933 388.724 36.7C388.257 36.2067 387.604 35.96 386.764 35.96ZM397.877 34.7C400.291 34.7 401.497 36.0267 401.497 38.68V45H399.877V38.76C399.877 37.8267 399.691 37.1467 399.317 36.72C398.944 36.28 398.357 36.06 397.557 36.06C396.624 36.06 395.877 36.3467 395.317 36.92C394.757 37.4933 394.477 38.2667 394.477 39.24V45H392.857V37.76C392.857 36.72 392.804 35.78 392.697 34.94H394.237L394.397 36.74C394.704 36.0867 395.164 35.5867 395.777 35.24C396.391 34.88 397.091 34.7 397.877 34.7ZM403.931 34.94H405.551V45H403.931V34.94ZM405.751 30.68V32.52H403.771V30.68H405.751ZM413.092 34.7C415.505 34.7 416.712 36.0267 416.712 38.68V45H415.092V38.76C415.092 37.8267 414.905 37.1467 414.532 36.72C414.158 36.28 413.572 36.06 412.772 36.06C411.838 36.06 411.092 36.3467 410.532 36.92C409.972 37.4933 409.692 38.2667 409.692 39.24V45H408.072V37.76C408.072 36.72 408.018 35.78 407.912 34.94H409.452L409.612 36.74C409.918 36.0867 410.378 35.5867 410.992 35.24C411.605 34.88 412.305 34.7 413.092 34.7ZM428.106 34.94V44.92C428.106 46.4133 427.719 47.54 426.946 48.3C426.186 49.0733 425.059 49.46 423.566 49.46C422.032 49.46 420.712 49.1133 419.606 48.42L419.886 47.1C420.526 47.46 421.126 47.72 421.686 47.88C422.259 48.04 422.886 48.12 423.566 48.12C424.539 48.12 425.272 47.86 425.766 47.34C426.259 46.8333 426.506 46.0733 426.506 45.06V42.68C426.199 43.32 425.746 43.82 425.146 44.18C424.559 44.5267 423.859 44.7 423.046 44.7C422.166 44.7 421.379 44.4933 420.686 44.08C420.006 43.6667 419.479 43.08 419.106 42.32C418.732 41.56 418.546 40.6867 418.546 39.7C418.546 38.7133 418.732 37.84 419.106 37.08C419.479 36.32 420.006 35.7333 420.686 35.32C421.379 34.9067 422.166 34.7 423.046 34.7C423.846 34.7 424.539 34.8733 425.126 35.22C425.726 35.5667 426.179 36.0533 426.486 36.68V34.94H428.106ZM423.366 43.34C424.339 43.34 425.099 43.02 425.646 42.38C426.206 41.7267 426.486 40.8333 426.486 39.7C426.486 38.5667 426.206 37.68 425.646 37.04C425.099 36.3867 424.339 36.06 423.366 36.06C422.379 36.06 421.599 36.3867 421.026 37.04C420.466 37.68 420.186 38.5667 420.186 39.7C420.186 40.8333 420.466 41.7267 421.026 42.38C421.599 43.02 422.379 43.34 423.366 43.34ZM435.18 34.94H436.8V45H435.18V34.94ZM437 30.68V32.52H435.02V30.68H437ZM444.341 34.7C446.754 34.7 447.961 36.0267 447.961 38.68V45H446.341V38.76C446.341 37.8267 446.154 37.1467 445.781 36.72C445.407 36.28 444.821 36.06 444.021 36.06C443.087 36.06 442.341 36.3467 441.781 36.92C441.221 37.4933 440.941 38.2667 440.941 39.24V45H439.321V37.76C439.321 36.72 439.267 35.78 439.161 34.94H440.701L440.861 36.74C441.167 36.0867 441.627 35.5867 442.241 35.24C442.854 34.88 443.554 34.7 444.341 34.7ZM10.4 64.94L5.7 75.92C5.20667 77.0667 4.58667 77.9067 3.84 78.44C3.09333 78.9733 2.17333 79.34 1.08 79.54L0.74 78.28C1.68667 78.0667 2.4 77.78 2.88 77.42C3.37333 77.0733 3.78 76.5333 4.1 75.8L4.5 74.9L0.24 64.94H1.94L5.34 73.24L8.78 64.94H10.4ZM15.6025 75.14C14.6559 75.14 13.8225 74.9267 13.1025 74.5C12.3825 74.0733 11.8225 73.4667 11.4225 72.68C11.0359 71.8933 10.8425 70.9733 10.8425 69.92C10.8425 68.8667 11.0359 67.9467 11.4225 67.16C11.8225 66.3733 12.3825 65.7667 13.1025 65.34C13.8225 64.9133 14.6559 64.7 15.6025 64.7C16.5492 64.7 17.3825 64.9133 18.1025 65.34C18.8225 65.7667 19.3759 66.3733 19.7625 67.16C20.1626 67.9467 20.3626 68.8667 20.3626 69.92C20.3626 70.9733 20.1626 71.8933 19.7625 72.68C19.3759 73.4667 18.8225 74.0733 18.1025 74.5C17.3825 74.9267 16.5492 75.14 15.6025 75.14ZM15.6025 73.8C16.6025 73.8 17.3692 73.4733 17.9025 72.82C18.4359 72.1533 18.7025 71.1867 18.7025 69.92C18.7025 68.6933 18.4292 67.7467 17.8825 67.08C17.3359 66.4 16.5759 66.06 15.6025 66.06C14.6159 66.06 13.8492 66.4 13.3025 67.08C12.7559 67.7467 12.4825 68.6933 12.4825 69.92C12.4825 71.1867 12.7492 72.1533 13.2825 72.82C13.8292 73.4733 14.6025 73.8 15.6025 73.8ZM30.6826 64.94V75H29.1026V73.26C28.7826 73.8733 28.3359 74.34 27.7626 74.66C27.1893 74.98 26.5426 75.14 25.8226 75.14C24.6359 75.14 23.7359 74.8067 23.1226 74.14C22.5093 73.4733 22.2026 72.4867 22.2026 71.18V64.94H23.8226V71.14C23.8226 72.0467 24.0093 72.7133 24.3826 73.14C24.7559 73.5667 25.3226 73.78 26.0826 73.78C26.9759 73.78 27.6959 73.4933 28.2426 72.92C28.7893 72.3333 29.0626 71.5667 29.0626 70.62V64.94H30.6826ZM37.8603 64.7C38.1936 64.7 38.5003 64.74 38.7803 64.82L38.7403 66.3C38.4336 66.1933 38.0803 66.14 37.6803 66.14C36.707 66.14 35.9803 66.4467 35.5003 67.06C35.0336 67.66 34.8003 68.3933 34.8003 69.26V75H33.1803V67.76C33.1803 66.72 33.127 65.78 33.0203 64.94H34.5603L34.7203 66.8C34.9736 66.12 35.3803 65.6 35.9403 65.24C36.5003 64.88 37.1403 64.7 37.8603 64.7ZM53.2307 64.96L48.8907 75H47.3507L43.0707 64.96H44.7707L48.1707 73.24L51.6107 64.96H53.2307ZM62.6933 69.92H55.3133C55.3266 71.2 55.6199 72.1667 56.1933 72.82C56.7799 73.4733 57.6266 73.8 58.7333 73.8C59.9066 73.8 60.9866 73.4067 61.9733 72.62L62.5133 73.8C62.0733 74.2133 61.5066 74.54 60.8133 74.78C60.1333 75.02 59.4333 75.14 58.7133 75.14C57.1399 75.14 55.9066 74.68 55.0133 73.76C54.1199 72.8267 53.6733 71.5533 53.6733 69.94C53.6733 68.9133 53.8733 68.0067 54.2733 67.22C54.6733 66.42 55.2333 65.8 55.9533 65.36C56.6733 64.92 57.4933 64.7 58.4133 64.7C59.7466 64.7 60.7933 65.14 61.5533 66.02C62.3133 66.8867 62.6933 68.0867 62.6933 69.62V69.92ZM58.4333 65.96C57.5933 65.96 56.9066 66.2133 56.3733 66.72C55.8533 67.2267 55.5199 67.94 55.3733 68.86H61.2333C61.1533 67.9133 60.8733 67.1933 60.3933 66.7C59.9266 66.2067 59.2733 65.96 58.4333 65.96ZM69.2069 64.7C69.5402 64.7 69.8469 64.74 70.1269 64.82L70.0869 66.3C69.7802 66.1933 69.4269 66.14 69.0269 66.14C68.0536 66.14 67.3269 66.4467 66.8469 67.06C66.3802 67.66 66.1469 68.3933 66.1469 69.26V75H64.5269V67.76C64.5269 66.72 64.4736 65.78 64.3669 64.94H65.9069L66.0669 66.8C66.3202 66.12 66.7269 65.6 67.2869 65.24C67.8469 64.88 68.4869 64.7 69.2069 64.7ZM74.089 66.22V71.72C74.089 72.4667 74.2423 72.9933 74.549 73.3C74.8557 73.5933 75.289 73.74 75.849 73.74C76.2223 73.74 76.5823 73.68 76.929 73.56V74.94C76.5157 75.0733 76.049 75.14 75.529 75.14C74.569 75.14 73.8157 74.8733 73.269 74.34C72.7357 73.7933 72.469 72.9933 72.469 71.94V66.22H70.509V64.94H72.469V62.36L74.089 61.78V64.94H76.969V66.22H74.089ZM78.2959 64.94H79.9159V75H78.2959V64.94ZM80.1159 60.68V62.52H78.1359V60.68H80.1159ZM86.6563 75.14C85.6829 75.14 84.8296 74.9267 84.0963 74.5C83.3763 74.0733 82.8163 73.4733 82.4163 72.7C82.0296 71.9133 81.8363 71 81.8363 69.96C81.8363 68.92 82.0363 68.0067 82.4363 67.22C82.8363 66.42 83.4029 65.8 84.1363 65.36C84.8829 64.92 85.7496 64.7 86.7363 64.7C87.4163 64.7 88.0696 64.82 88.6963 65.06C89.3363 65.2867 89.8629 65.6067 90.2763 66.02L89.7363 67.22C89.2296 66.82 88.7363 66.5267 88.2563 66.34C87.7896 66.1533 87.3096 66.06 86.8163 66.06C85.7896 66.06 84.9829 66.4067 84.3963 67.1C83.8096 67.78 83.5163 68.7333 83.5163 69.96C83.5163 71.1733 83.8029 72.12 84.3763 72.8C84.9629 73.4667 85.7763 73.8 86.8163 73.8C87.3096 73.8 87.7896 73.7067 88.2563 73.52C88.7363 73.3333 89.2296 73.04 89.7363 72.64L90.2763 73.84C89.8496 74.24 89.3096 74.56 88.6563 74.8C88.0163 75.0267 87.3496 75.14 86.6563 75.14ZM100.573 64.94V75H98.9734V73.18C98.68 73.8067 98.2334 74.2933 97.6334 74.64C97.0467 74.9733 96.36 75.14 95.5734 75.14C94.68 75.14 93.8934 74.9267 93.2134 74.5C92.5467 74.0733 92.0267 73.4733 91.6534 72.7C91.2934 71.9133 91.1134 71 91.1134 69.96C91.1134 68.92 91.3 68.0067 91.6734 67.22C92.0467 66.42 92.5667 65.8 93.2334 65.36C93.9134 64.92 94.6934 64.7 95.5734 64.7C96.36 64.7 97.0467 64.8733 97.6334 65.22C98.22 65.5667 98.6667 66.0533 98.9734 66.68V64.94H100.573ZM95.8934 73.8C96.88 73.8 97.64 73.4667 98.1734 72.8C98.7067 72.12 98.9734 71.16 98.9734 69.92C98.9734 68.68 98.7067 67.7267 98.1734 67.06C97.64 66.3933 96.88 66.06 95.8934 66.06C94.9067 66.06 94.1334 66.4067 93.5734 67.1C93.0267 67.78 92.7534 68.7333 92.7534 69.96C92.7534 71.1867 93.0267 72.1333 93.5734 72.8C94.12 73.4667 94.8934 73.8 95.8934 73.8ZM103.08 60.28H104.7V75H103.08V60.28ZM109.001 72.94V75H106.941V72.94H109.001Z" fill="#696871"/>
</svg>
