<svg width="404" height="50" viewBox="0 0 404 50" fill="none" xmlns="http://www.w3.org/2000/svg">
<path d="M11.08 11.34H3.64L2.06 15H0.36L6.62 0.76H8.06L14.32 15H12.64L11.08 11.34ZM10.5 9.98L7.36 2.66L4.22 9.98H10.5ZM19.8422 15.14C18.8689 15.14 18.0156 14.9267 17.2822 14.5C16.5622 14.0733 16.0022 13.4733 15.6022 12.7C15.2156 11.9133 15.0222 11 15.0222 9.96C15.0222 8.92 15.2222 8.00667 15.6222 7.22C16.0222 6.42 16.5889 5.8 17.3222 5.36C18.0689 4.92 18.9356 4.7 19.9222 4.7C20.6022 4.7 21.2556 4.82 21.8822 5.06C22.5222 5.28667 23.0489 5.60667 23.4622 6.02L22.9222 7.22C22.4156 6.82 21.9222 6.52667 21.4422 6.34C20.9756 6.15333 20.4956 6.06 20.0022 6.06C18.9756 6.06 18.1689 6.40667 17.5822 7.1C16.9956 7.78 16.7022 8.73333 16.7022 9.96C16.7022 11.1733 16.9889 12.12 17.5622 12.8C18.1489 13.4667 18.9622 13.8 20.0022 13.8C20.4956 13.8 20.9756 13.7067 21.4422 13.52C21.9222 13.3333 22.4156 13.04 22.9222 12.64L23.4622 13.84C23.0356 14.24 22.4956 14.56 21.8422 14.8C21.2022 15.0267 20.5356 15.14 19.8422 15.14ZM29.1193 15.14C28.146 15.14 27.2927 14.9267 26.5593 14.5C25.8393 14.0733 25.2793 13.4733 24.8793 12.7C24.4927 11.9133 24.2993 11 24.2993 9.96C24.2993 8.92 24.4993 8.00667 24.8993 7.22C25.2993 6.42 25.866 5.8 26.5993 5.36C27.346 4.92 28.2127 4.7 29.1993 4.7C29.8793 4.7 30.5327 4.82 31.1593 5.06C31.7993 5.28667 32.326 5.60667 32.7393 6.02L32.1993 7.22C31.6927 6.82 31.1993 6.52667 30.7193 6.34C30.2527 6.15333 29.7727 6.06 29.2793 6.06C28.2527 6.06 27.446 6.40667 26.8593 7.1C26.2727 7.78 25.9793 8.73333 25.9793 9.96C25.9793 11.1733 26.266 12.12 26.8393 12.8C27.426 13.4667 28.2393 13.8 29.2793 13.8C29.7727 13.8 30.2527 13.7067 30.7193 13.52C31.1993 13.3333 31.6927 13.04 32.1993 12.64L32.7393 13.84C32.3127 14.24 31.7727 14.56 31.1193 14.8C30.4793 15.0267 29.8127 15.14 29.1193 15.14ZM42.5964 4.94V15H41.0164V13.26C40.6964 13.8733 40.2497 14.34 39.6764 14.66C39.1031 14.98 38.4564 15.14 37.7364 15.14C36.5497 15.14 35.6497 14.8067 35.0364 14.14C34.4231 13.4733 34.1164 12.4867 34.1164 11.18V4.94H35.7364V11.14C35.7364 12.0467 35.9231 12.7133 36.2964 13.14C36.6697 13.5667 37.2364 13.78 37.9964 13.78C38.8897 13.78 39.6097 13.4933 40.1564 12.92C40.7031 12.3333 40.9764 11.5667 40.9764 10.62V4.94H42.5964ZM49.7741 4.7C50.1074 4.7 50.4141 4.74 50.6941 4.82L50.6541 6.3C50.3474 6.19333 49.9941 6.14 49.5941 6.14C48.6208 6.14 47.8941 6.44667 47.4141 7.06C46.9474 7.66 46.7141 8.39333 46.7141 9.26V15H45.0941V7.76C45.0941 6.72 45.0408 5.78 44.9341 4.94H46.4741L46.6341 6.8C46.8874 6.12 47.2941 5.6 47.8541 5.24C48.4141 4.88 49.0541 4.7 49.7741 4.7ZM60.3796 4.94V15H58.7796V13.18C58.4863 13.8067 58.0396 14.2933 57.4396 14.64C56.853 14.9733 56.1663 15.14 55.3796 15.14C54.4863 15.14 53.6996 14.9267 53.0196 14.5C52.353 14.0733 51.833 13.4733 51.4596 12.7C51.0996 11.9133 50.9196 11 50.9196 9.96C50.9196 8.92 51.1063 8.00667 51.4796 7.22C51.853 6.42 52.373 5.8 53.0396 5.36C53.7196 4.92 54.4996 4.7 55.3796 4.7C56.1663 4.7 56.853 4.87333 57.4396 5.22C58.0263 5.56667 58.473 6.05333 58.7796 6.68V4.94H60.3796ZM55.6996 13.8C56.6863 13.8 57.4463 13.4667 57.9796 12.8C58.513 12.12 58.7796 11.16 58.7796 9.92C58.7796 8.68 58.513 7.72667 57.9796 7.06C57.4463 6.39333 56.6863 6.06 55.6996 6.06C54.713 6.06 53.9396 6.40667 53.3796 7.1C52.833 7.78 52.5596 8.73333 52.5596 9.96C52.5596 11.1867 52.833 12.1333 53.3796 12.8C53.9263 13.4667 54.6996 13.8 55.6996 13.8ZM65.0465 6.22V11.72C65.0465 12.4667 65.1999 12.9933 65.5065 13.3C65.8132 13.5933 66.2465 13.74 66.8065 13.74C67.1799 13.74 67.5399 13.68 67.8865 13.56V14.94C67.4732 15.0733 67.0065 15.14 66.4865 15.14C65.5265 15.14 64.7732 14.8733 64.2265 14.34C63.6932 13.7933 63.4265 12.9933 63.4265 11.94V6.22H61.4665V4.94H63.4265V2.36L65.0465 1.78V4.94H67.9265V6.22H65.0465ZM77.6735 9.92H70.2935C70.3068 11.2 70.6001 12.1667 71.1735 12.82C71.7601 13.4733 72.6068 13.8 73.7135 13.8C74.8868 13.8 75.9668 13.4067 76.9535 12.62L77.4935 13.8C77.0535 14.2133 76.4868 14.54 75.7935 14.78C75.1135 15.02 74.4135 15.14 73.6935 15.14C72.1201 15.14 70.8868 14.68 69.9935 13.76C69.1001 12.8267 68.6535 11.5533 68.6535 9.94C68.6535 8.91333 68.8535 8.00667 69.2535 7.22C69.6535 6.42 70.2135 5.8 70.9335 5.36C71.6535 4.92 72.4735 4.7 73.3935 4.7C74.7268 4.7 75.7735 5.14 76.5335 6.02C77.2935 6.88667 77.6735 8.08667 77.6735 9.62V9.92ZM73.4135 5.96C72.5735 5.96 71.8868 6.21333 71.3535 6.72C70.8335 7.22667 70.5001 7.94 70.3535 8.86H76.2135C76.1335 7.91333 75.8535 7.19333 75.3735 6.7C74.9068 6.20667 74.2535 5.96 73.4135 5.96ZM81.2871 12.94V14.4C81.2871 14.96 81.1938 15.4733 81.0071 15.94C80.8204 16.4067 80.5071 16.86 80.0671 17.3L79.3071 16.72C79.8271 16.12 80.1204 15.5467 80.1871 15H79.2271V12.94H81.2871ZM92.7803 4.7C93.1137 4.7 93.4203 4.74 93.7003 4.82L93.6603 6.3C93.3537 6.19333 93.0003 6.14 92.6003 6.14C91.627 6.14 90.9003 6.44667 90.4203 7.06C89.9537 7.66 89.7203 8.39333 89.7203 9.26V15H88.1003V7.76C88.1003 6.72 88.047 5.78 87.9403 4.94H89.4803L89.6403 6.8C89.8937 6.12 90.3003 5.6 90.8603 5.24C91.4203 4.88 92.0603 4.7 92.7803 4.7ZM102.946 9.92H95.5659C95.5792 11.2 95.8725 12.1667 96.4459 12.82C97.0325 13.4733 97.8792 13.8 98.9859 13.8C100.159 13.8 101.239 13.4067 102.226 12.62L102.766 13.8C102.326 14.2133 101.759 14.54 101.066 14.78C100.386 15.02 99.6859 15.14 98.9659 15.14C97.3925 15.14 96.1592 14.68 95.2659 13.76C94.3725 12.8267 93.9259 11.5533 93.9259 9.94C93.9259 8.91333 94.1259 8.00667 94.5259 7.22C94.9259 6.42 95.4859 5.8 96.2059 5.36C96.9259 4.92 97.7459 4.7 98.6659 4.7C99.9992 4.7 101.046 5.14 101.806 6.02C102.566 6.88667 102.946 8.08667 102.946 9.62V9.92ZM98.6859 5.96C97.8459 5.96 97.1592 6.21333 96.6259 6.72C96.1059 7.22667 95.7725 7.94 95.6259 8.86H101.486C101.406 7.91333 101.126 7.19333 100.646 6.7C100.179 6.20667 99.5259 5.96 98.6859 5.96ZM113.639 4.94V15H112.039V13.18C111.746 13.8067 111.299 14.2933 110.699 14.64C110.113 14.9733 109.426 15.14 108.639 15.14C107.746 15.14 106.959 14.9267 106.279 14.5C105.613 14.0733 105.093 13.4733 104.719 12.7C104.359 11.9133 104.179 11 104.179 9.96C104.179 8.92 104.366 8.00667 104.739 7.22C105.113 6.42 105.633 5.8 106.299 5.36C106.979 4.92 107.759 4.7 108.639 4.7C109.426 4.7 110.113 4.87333 110.699 5.22C111.286 5.56667 111.733 6.05333 112.039 6.68V4.94H113.639ZM108.959 13.8C109.946 13.8 110.706 13.4667 111.239 12.8C111.773 12.12 112.039 11.16 112.039 9.92C112.039 8.68 111.773 7.72667 111.239 7.06C110.706 6.39333 109.946 6.06 108.959 6.06C107.973 6.06 107.199 6.40667 106.639 7.1C106.093 7.78 105.819 8.73333 105.819 9.96C105.819 11.1867 106.093 12.1333 106.639 12.8C107.186 13.4667 107.959 13.8 108.959 13.8ZM116.146 0.279999H117.766V15H116.146V0.279999ZM120.187 8.96H125.847V10.3H120.187V8.96ZM130.396 6.22V11.72C130.396 12.4667 130.549 12.9933 130.856 13.3C131.162 13.5933 131.596 13.74 132.156 13.74C132.529 13.74 132.889 13.68 133.236 13.56V14.94C132.822 15.0733 132.356 15.14 131.836 15.14C130.876 15.14 130.122 14.8733 129.576 14.34C129.042 13.7933 128.776 12.9933 128.776 11.94V6.22H126.816V4.94H128.776V2.36L130.396 1.78V4.94H133.276V6.22H130.396ZM134.603 4.94H136.223V15H134.603V4.94ZM136.423 0.68V2.52H134.443V0.68H136.423ZM149.903 4.7C152.13 4.7 153.243 6.02667 153.243 8.68V15H151.623V8.76C151.623 7.81333 151.456 7.12667 151.123 6.7C150.803 6.27333 150.276 6.06 149.543 6.06C148.69 6.06 148.023 6.34667 147.543 6.92C147.063 7.49333 146.823 8.27333 146.823 9.26V15H145.203V8.76C145.203 7.82667 145.036 7.14667 144.703 6.72C144.37 6.28 143.836 6.06 143.103 6.06C142.25 6.06 141.576 6.34667 141.083 6.92C140.603 7.49333 140.363 8.27333 140.363 9.26V15H138.743V7.76C138.743 6.72 138.69 5.78 138.583 4.94H140.123L140.283 6.7C140.563 6.06 140.976 5.56667 141.523 5.22C142.083 4.87333 142.73 4.7 143.463 4.7C144.263 4.7 144.916 4.86 145.423 5.18C145.93 5.5 146.303 5.99333 146.543 6.66C146.85 6.06 147.296 5.58667 147.883 5.24C148.483 4.88 149.156 4.7 149.903 4.7ZM164.116 9.92H156.736C156.749 11.2 157.043 12.1667 157.616 12.82C158.203 13.4733 159.049 13.8 160.156 13.8C161.329 13.8 162.409 13.4067 163.396 12.62L163.936 13.8C163.496 14.2133 162.929 14.54 162.236 14.78C161.556 15.02 160.856 15.14 160.136 15.14C158.563 15.14 157.329 14.68 156.436 13.76C155.543 12.8267 155.096 11.5533 155.096 9.94C155.096 8.91333 155.296 8.00667 155.696 7.22C156.096 6.42 156.656 5.8 157.376 5.36C158.096 4.92 158.916 4.7 159.836 4.7C161.169 4.7 162.216 5.14 162.976 6.02C163.736 6.88667 164.116 8.08667 164.116 9.62V9.92ZM159.856 5.96C159.016 5.96 158.329 6.21333 157.796 6.72C157.276 7.22667 156.943 7.94 156.796 8.86H162.656C162.576 7.91333 162.296 7.19333 161.816 6.7C161.349 6.20667 160.696 5.96 159.856 5.96ZM175.219 4.7C175.552 4.7 175.859 4.74 176.139 4.82L176.099 6.3C175.792 6.19333 175.439 6.14 175.039 6.14C174.066 6.14 173.339 6.44667 172.859 7.06C172.392 7.66 172.159 8.39333 172.159 9.26V15H170.539V7.76C170.539 6.72 170.486 5.78 170.379 4.94H171.919L172.079 6.8C172.332 6.12 172.739 5.6 173.299 5.24C173.859 4.88 174.499 4.7 175.219 4.7ZM185.385 9.92H178.005C178.018 11.2 178.311 12.1667 178.885 12.82C179.471 13.4733 180.318 13.8 181.425 13.8C182.598 13.8 183.678 13.4067 184.665 12.62L185.205 13.8C184.765 14.2133 184.198 14.54 183.505 14.78C182.825 15.02 182.125 15.14 181.405 15.14C179.831 15.14 178.598 14.68 177.705 13.76C176.811 12.8267 176.365 11.5533 176.365 9.94C176.365 8.91333 176.565 8.00667 176.965 7.22C177.365 6.42 177.925 5.8 178.645 5.36C179.365 4.92 180.185 4.7 181.105 4.7C182.438 4.7 183.485 5.14 184.245 6.02C185.005 6.88667 185.385 8.08667 185.385 9.62V9.92ZM181.125 5.96C180.285 5.96 179.598 6.21333 179.065 6.72C178.545 7.22667 178.211 7.94 178.065 8.86H183.925C183.845 7.91333 183.565 7.19333 183.085 6.7C182.618 6.20667 181.965 5.96 181.125 5.96ZM192.238 4.7C193.118 4.7 193.898 4.92 194.578 5.36C195.258 5.8 195.785 6.42 196.158 7.22C196.532 8.00667 196.718 8.92 196.718 9.96C196.718 11 196.532 11.9133 196.158 12.7C195.785 13.4733 195.258 14.0733 194.578 14.5C193.912 14.9267 193.132 15.14 192.238 15.14C191.452 15.14 190.765 14.9667 190.178 14.62C189.592 14.2733 189.145 13.78 188.838 13.14V19.32H187.218V7.76C187.218 6.72 187.165 5.78 187.058 4.94H188.598L188.758 6.88C189.038 6.18667 189.478 5.65333 190.078 5.28C190.692 4.89333 191.412 4.7 192.238 4.7ZM191.938 13.8C192.925 13.8 193.685 13.4667 194.218 12.8C194.765 12.1333 195.038 11.1867 195.038 9.96C195.038 8.73333 194.765 7.78 194.218 7.1C193.672 6.40667 192.912 6.06 191.938 6.06C190.938 6.06 190.172 6.39333 189.638 7.06C189.105 7.72667 188.838 8.68 188.838 9.92C188.838 11.16 189.105 12.12 189.638 12.8C190.172 13.4667 190.938 13.8 191.938 13.8ZM202.745 15.14C201.799 15.14 200.965 14.9267 200.245 14.5C199.525 14.0733 198.965 13.4667 198.565 12.68C198.179 11.8933 197.985 10.9733 197.985 9.92C197.985 8.86667 198.179 7.94667 198.565 7.16C198.965 6.37333 199.525 5.76667 200.245 5.34C200.965 4.91333 201.799 4.7 202.745 4.7C203.692 4.7 204.525 4.91333 205.245 5.34C205.965 5.76667 206.519 6.37333 206.905 7.16C207.305 7.94667 207.505 8.86667 207.505 9.92C207.505 10.9733 207.305 11.8933 206.905 12.68C206.519 13.4667 205.965 14.0733 205.245 14.5C204.525 14.9267 203.692 15.14 202.745 15.14ZM202.745 13.8C203.745 13.8 204.512 13.4733 205.045 12.82C205.579 12.1533 205.845 11.1867 205.845 9.92C205.845 8.69333 205.572 7.74667 205.025 7.08C204.479 6.4 203.719 6.06 202.745 6.06C201.759 6.06 200.992 6.4 200.445 7.08C199.899 7.74667 199.625 8.69333 199.625 9.92C199.625 11.1867 199.892 12.1533 200.425 12.82C200.972 13.4733 201.745 13.8 202.745 13.8ZM214.085 4.7C214.419 4.7 214.725 4.74 215.005 4.82L214.965 6.3C214.659 6.19333 214.305 6.14 213.905 6.14C212.932 6.14 212.205 6.44667 211.725 7.06C211.259 7.66 211.025 8.39333 211.025 9.26V15H209.405V7.76C209.405 6.72 209.352 5.78 209.245 4.94H210.785L210.945 6.8C211.199 6.12 211.605 5.6 212.165 5.24C212.725 4.88 213.365 4.7 214.085 4.7ZM218.967 6.22V11.72C218.967 12.4667 219.121 12.9933 219.427 13.3C219.734 13.5933 220.167 13.74 220.727 13.74C221.101 13.74 221.461 13.68 221.807 13.56V14.94C221.394 15.0733 220.927 15.14 220.407 15.14C219.447 15.14 218.694 14.8733 218.147 14.34C217.614 13.7933 217.347 12.9933 217.347 11.94V6.22H215.387V4.94H217.347V2.36L218.967 1.78V4.94H221.847V6.22H218.967ZM223.174 4.94H224.794V15H223.174V4.94ZM224.994 0.68V2.52H223.014V0.68H224.994ZM232.335 4.7C234.748 4.7 235.955 6.02667 235.955 8.68V15H234.335V8.76C234.335 7.82667 234.148 7.14667 233.775 6.72C233.401 6.28 232.815 6.06 232.015 6.06C231.081 6.06 230.335 6.34667 229.775 6.92C229.215 7.49333 228.935 8.26667 228.935 9.24V15H227.315V7.76C227.315 6.72 227.261 5.78 227.155 4.94H228.695L228.855 6.74C229.161 6.08667 229.621 5.58667 230.235 5.24C230.848 4.88 231.548 4.7 232.335 4.7ZM247.349 4.94V14.92C247.349 16.4133 246.962 17.54 246.189 18.3C245.429 19.0733 244.302 19.46 242.809 19.46C241.275 19.46 239.955 19.1133 238.849 18.42L239.129 17.1C239.769 17.46 240.369 17.72 240.929 17.88C241.502 18.04 242.129 18.12 242.809 18.12C243.782 18.12 244.515 17.86 245.009 17.34C245.502 16.8333 245.749 16.0733 245.749 15.06V12.68C245.442 13.32 244.989 13.82 244.389 14.18C243.802 14.5267 243.102 14.7 242.289 14.7C241.409 14.7 240.622 14.4933 239.929 14.08C239.249 13.6667 238.722 13.08 238.349 12.32C237.975 11.56 237.789 10.6867 237.789 9.7C237.789 8.71333 237.975 7.84 238.349 7.08C238.722 6.32 239.249 5.73333 239.929 5.32C240.622 4.90667 241.409 4.7 242.289 4.7C243.089 4.7 243.782 4.87333 244.369 5.22C244.969 5.56667 245.422 6.05333 245.729 6.68V4.94H247.349ZM242.609 13.34C243.582 13.34 244.342 13.02 244.889 12.38C245.449 11.7267 245.729 10.8333 245.729 9.7C245.729 8.56667 245.449 7.68 244.889 7.04C244.342 6.38667 243.582 6.06 242.609 6.06C241.622 6.06 240.842 6.38667 240.269 7.04C239.709 7.68 239.429 8.56667 239.429 9.7C239.429 10.8333 239.709 11.7267 240.269 12.38C240.842 13.02 241.622 13.34 242.609 13.34ZM263.283 4.94V15H261.683V13.18C261.39 13.8067 260.943 14.2933 260.343 14.64C259.757 14.9733 259.07 15.14 258.283 15.14C257.39 15.14 256.603 14.9267 255.923 14.5C255.257 14.0733 254.737 13.4733 254.363 12.7C254.003 11.9133 253.823 11 253.823 9.96C253.823 8.92 254.01 8.00667 254.383 7.22C254.757 6.42 255.277 5.8 255.943 5.36C256.623 4.92 257.403 4.7 258.283 4.7C259.07 4.7 259.757 4.87333 260.343 5.22C260.93 5.56667 261.377 6.05333 261.683 6.68V4.94H263.283ZM258.603 13.8C259.59 13.8 260.35 13.4667 260.883 12.8C261.417 12.12 261.683 11.16 261.683 9.92C261.683 8.68 261.417 7.72667 260.883 7.06C260.35 6.39333 259.59 6.06 258.603 6.06C257.617 6.06 256.843 6.40667 256.283 7.1C255.737 7.78 255.463 8.73333 255.463 9.96C255.463 11.1867 255.737 12.1333 256.283 12.8C256.83 13.4667 257.603 13.8 258.603 13.8ZM267.95 6.22V11.72C267.95 12.4667 268.103 12.9933 268.41 13.3C268.717 13.5933 269.15 13.74 269.71 13.74C270.083 13.74 270.443 13.68 270.79 13.56V14.94C270.377 15.0733 269.91 15.14 269.39 15.14C268.43 15.14 267.677 14.8733 267.13 14.34C266.597 13.7933 266.33 12.9933 266.33 11.94V6.22H264.37V4.94H266.33V2.36L267.95 1.78V4.94H270.83V6.22H267.95ZM285.587 4.94L280.887 15.92C280.393 17.0667 279.773 17.9067 279.027 18.44C278.28 18.9733 277.36 19.34 276.267 19.54L275.927 18.28C276.873 18.0667 277.587 17.78 278.067 17.42C278.56 17.0733 278.967 16.5333 279.287 15.8L279.687 14.9L275.427 4.94H277.127L280.527 13.24L283.967 4.94H285.587ZM290.789 15.14C289.843 15.14 289.009 14.9267 288.289 14.5C287.569 14.0733 287.009 13.4667 286.609 12.68C286.223 11.8933 286.029 10.9733 286.029 9.92C286.029 8.86667 286.223 7.94667 286.609 7.16C287.009 6.37333 287.569 5.76667 288.289 5.34C289.009 4.91333 289.843 4.7 290.789 4.7C291.736 4.7 292.569 4.91333 293.289 5.34C294.009 5.76667 294.563 6.37333 294.949 7.16C295.349 7.94667 295.549 8.86667 295.549 9.92C295.549 10.9733 295.349 11.8933 294.949 12.68C294.563 13.4667 294.009 14.0733 293.289 14.5C292.569 14.9267 291.736 15.14 290.789 15.14ZM290.789 13.8C291.789 13.8 292.556 13.4733 293.089 12.82C293.623 12.1533 293.889 11.1867 293.889 9.92C293.889 8.69333 293.616 7.74667 293.069 7.08C292.523 6.4 291.763 6.06 290.789 6.06C289.803 6.06 289.036 6.4 288.489 7.08C287.943 7.74667 287.669 8.69333 287.669 9.92C287.669 11.1867 287.936 12.1533 288.469 12.82C289.016 13.4733 289.789 13.8 290.789 13.8ZM305.869 4.94V15H304.289V13.26C303.969 13.8733 303.523 14.34 302.949 14.66C302.376 14.98 301.729 15.14 301.009 15.14C299.823 15.14 298.923 14.8067 298.309 14.14C297.696 13.4733 297.389 12.4867 297.389 11.18V4.94H299.009V11.14C299.009 12.0467 299.196 12.7133 299.569 13.14C299.943 13.5667 300.509 13.78 301.269 13.78C302.163 13.78 302.883 13.4933 303.429 12.92C303.976 12.3333 304.249 11.5667 304.249 10.62V4.94H305.869ZM313.047 4.7C313.38 4.7 313.687 4.74 313.967 4.82L313.927 6.3C313.62 6.19333 313.267 6.14 312.867 6.14C311.894 6.14 311.167 6.44667 310.687 7.06C310.22 7.66 309.987 8.39333 309.987 9.26V15H308.367V7.76C308.367 6.72 308.314 5.78 308.207 4.94H309.747L309.907 6.8C310.16 6.12 310.567 5.6 311.127 5.24C311.687 4.88 312.327 4.7 313.047 4.7ZM321.737 4.94H327.917V15H326.297V6.22H321.737V15H320.117V6.22H318.157V4.94H320.117V3.6C320.117 2.78667 320.237 2.13333 320.477 1.64C320.731 1.14667 321.137 0.786666 321.697 0.559999C322.257 0.333333 323.017 0.22 323.977 0.22H324.617V1.48H324.117C323.424 1.48 322.911 1.54 322.577 1.66C322.257 1.78 322.037 2.01333 321.917 2.36C321.797 2.69333 321.737 3.21333 321.737 3.92V4.94ZM328.117 0.58V2.46H326.097V0.58H328.117ZM335.437 4.7C337.85 4.7 339.057 6.02667 339.057 8.68V15H337.437V8.76C337.437 7.82667 337.25 7.14667 336.877 6.72C336.504 6.28 335.917 6.06 335.117 6.06C334.184 6.06 333.437 6.34667 332.877 6.92C332.317 7.49333 332.037 8.26667 332.037 9.24V15H330.417V7.76C330.417 6.72 330.364 5.78 330.257 4.94H331.797L331.957 6.74C332.264 6.08667 332.724 5.58667 333.337 5.24C333.95 4.88 334.65 4.7 335.437 4.7ZM350.451 4.94V14.92C350.451 16.4133 350.064 17.54 349.291 18.3C348.531 19.0733 347.404 19.46 345.911 19.46C344.378 19.46 343.058 19.1133 341.951 18.42L342.231 17.1C342.871 17.46 343.471 17.72 344.031 17.88C344.604 18.04 345.231 18.12 345.911 18.12C346.884 18.12 347.618 17.86 348.111 17.34C348.604 16.8333 348.851 16.0733 348.851 15.06V12.68C348.544 13.32 348.091 13.82 347.491 14.18C346.904 14.5267 346.204 14.7 345.391 14.7C344.511 14.7 343.724 14.4933 343.031 14.08C342.351 13.6667 341.824 13.08 341.451 12.32C341.078 11.56 340.891 10.6867 340.891 9.7C340.891 8.71333 341.078 7.84 341.451 7.08C341.824 6.32 342.351 5.73333 343.031 5.32C343.724 4.90667 344.511 4.7 345.391 4.7C346.191 4.7 346.884 4.87333 347.471 5.22C348.071 5.56667 348.524 6.05333 348.831 6.68V4.94H350.451ZM345.711 13.34C346.684 13.34 347.444 13.02 347.991 12.38C348.551 11.7267 348.831 10.8333 348.831 9.7C348.831 8.56667 348.551 7.68 347.991 7.04C347.444 6.38667 346.684 6.06 345.711 6.06C344.724 6.06 343.944 6.38667 343.371 7.04C342.811 7.68 342.531 8.56667 342.531 9.7C342.531 10.8333 342.811 11.7267 343.371 12.38C343.944 13.02 344.724 13.34 345.711 13.34ZM361.356 9.92H353.976C353.989 11.2 354.283 12.1667 354.856 12.82C355.443 13.4733 356.289 13.8 357.396 13.8C358.569 13.8 359.649 13.4067 360.636 12.62L361.176 13.8C360.736 14.2133 360.169 14.54 359.476 14.78C358.796 15.02 358.096 15.14 357.376 15.14C355.803 15.14 354.569 14.68 353.676 13.76C352.783 12.8267 352.336 11.5533 352.336 9.94C352.336 8.91333 352.536 8.00667 352.936 7.22C353.336 6.42 353.896 5.8 354.616 5.36C355.336 4.92 356.156 4.7 357.076 4.7C358.409 4.7 359.456 5.14 360.216 6.02C360.976 6.88667 361.356 8.08667 361.356 9.62V9.92ZM357.096 5.96C356.256 5.96 355.569 6.21333 355.036 6.72C354.516 7.22667 354.183 7.94 354.036 8.86H359.896C359.816 7.91333 359.536 7.19333 359.056 6.7C358.589 6.20667 357.936 5.96 357.096 5.96ZM367.87 4.7C368.203 4.7 368.51 4.74 368.79 4.82L368.75 6.3C368.443 6.19333 368.09 6.14 367.69 6.14C366.716 6.14 365.99 6.44667 365.51 7.06C365.043 7.66 364.81 8.39333 364.81 9.26V15H363.19V7.76C363.19 6.72 363.136 5.78 363.03 4.94H364.57L364.73 6.8C364.983 6.12 365.39 5.6 365.95 5.24C366.51 4.88 367.15 4.7 367.87 4.7ZM372.752 6.22V11.72C372.752 12.4667 372.905 12.9933 373.212 13.3C373.518 13.5933 373.952 13.74 374.512 13.74C374.885 13.74 375.245 13.68 375.592 13.56V14.94C375.178 15.0733 374.712 15.14 374.192 15.14C373.232 15.14 372.478 14.8733 371.932 14.34C371.398 13.7933 371.132 12.9933 371.132 11.94V6.22H369.172V4.94H371.132V2.36L372.752 1.78V4.94H375.632V6.22H372.752ZM376.959 4.94H378.579V15H376.959V4.94ZM378.779 0.68V2.52H376.799V0.68H378.779ZM386.119 4.7C386.999 4.7 387.779 4.92 388.459 5.36C389.139 5.8 389.666 6.42 390.039 7.22C390.412 8.00667 390.599 8.92 390.599 9.96C390.599 11 390.412 11.9133 390.039 12.7C389.666 13.4733 389.139 14.0733 388.459 14.5C387.792 14.9267 387.012 15.14 386.119 15.14C385.332 15.14 384.646 14.9667 384.059 14.62C383.472 14.2733 383.026 13.78 382.719 13.14V19.32H381.099V7.76C381.099 6.72 381.046 5.78 380.939 4.94H382.479L382.639 6.88C382.919 6.18667 383.359 5.65333 383.959 5.28C384.572 4.89333 385.292 4.7 386.119 4.7ZM385.819 13.8C386.806 13.8 387.566 13.4667 388.099 12.8C388.646 12.1333 388.919 11.1867 388.919 9.96C388.919 8.73333 388.646 7.78 388.099 7.1C387.552 6.40667 386.792 6.06 385.819 6.06C384.819 6.06 384.052 6.39333 383.519 7.06C382.986 7.72667 382.719 8.68 382.719 9.92C382.719 11.16 382.986 12.12 383.519 12.8C384.052 13.4667 384.819 13.8 385.819 13.8ZM395.866 15.14C394.173 15.14 392.833 14.7067 391.846 13.84L392.386 12.64C392.933 13.0667 393.486 13.3733 394.046 13.56C394.606 13.7467 395.233 13.84 395.926 13.84C396.686 13.84 397.259 13.7133 397.646 13.46C398.046 13.1933 398.246 12.8133 398.246 12.32C398.246 11.92 398.113 11.6 397.846 11.36C397.579 11.12 397.139 10.9333 396.526 10.8L394.826 10.4C393.986 10.2133 393.333 9.88 392.866 9.4C392.413 8.92 392.186 8.34667 392.186 7.68C392.186 6.8 392.539 6.08667 393.246 5.54C393.953 4.98 394.886 4.7 396.046 4.7C396.753 4.7 397.419 4.81333 398.046 5.04C398.673 5.26667 399.199 5.59333 399.626 6.02L399.086 7.2C398.139 6.41333 397.126 6.02 396.046 6.02C395.326 6.02 394.766 6.16 394.366 6.44C393.979 6.70667 393.786 7.08667 393.786 7.58C393.786 7.99333 393.906 8.32 394.146 8.56C394.399 8.8 394.799 8.98667 395.346 9.12L397.046 9.54C397.979 9.75333 398.673 10.0867 399.126 10.54C399.579 10.98 399.806 11.56 399.806 12.28C399.806 13.1467 399.453 13.84 398.746 14.36C398.039 14.88 397.079 15.14 395.866 15.14ZM403.445 12.94V15H401.385V12.94H403.445ZM13.02 37.58V44.18C12.46 44.4733 11.7267 44.7133 10.82 44.9C9.91333 45.0733 8.99333 45.16 8.06 45.16C6.64667 45.16 5.42667 44.8733 4.4 44.3C3.37333 43.7133 2.58667 42.8733 2.04 41.78C1.50667 40.6867 1.24 39.38 1.24 37.86C1.24 36.3533 1.50667 35.06 2.04 33.98C2.58667 32.8867 3.36 32.0533 4.36 31.48C5.37333 30.8933 6.56667 30.6 7.94 30.6C8.94 30.6 9.85333 30.7533 10.68 31.06C11.52 31.3533 12.24 31.8 12.84 32.4L12.2 33.66C11.5067 33.0733 10.8267 32.6533 10.16 32.4C9.50667 32.1333 8.76667 32 7.94 32C6.32667 32 5.08667 32.5067 4.22 33.52C3.36667 34.52 2.94 35.9667 2.94 37.86C2.94 39.7933 3.38 41.2667 4.26 42.28C5.14 43.28 6.42 43.78 8.1 43.78C9.28667 43.78 10.4267 43.5933 11.52 43.22V38.88H7.98V37.58H13.02ZM23.9836 39.92H16.6036C16.617 41.2 16.9103 42.1667 17.4836 42.82C18.0703 43.4733 18.917 43.8 20.0236 43.8C21.197 43.8 22.277 43.4067 23.2636 42.62L23.8036 43.8C23.3636 44.2133 22.797 44.54 22.1036 44.78C21.4236 45.02 20.7236 45.14 20.0036 45.14C18.4303 45.14 17.197 44.68 16.3036 43.76C15.4103 42.8267 14.9636 41.5533 14.9636 39.94C14.9636 38.9133 15.1636 38.0067 15.5636 37.22C15.9636 36.42 16.5236 35.8 17.2436 35.36C17.9636 34.92 18.7836 34.7 19.7036 34.7C21.037 34.7 22.0836 35.14 22.8436 36.02C23.6036 36.8867 23.9836 38.0867 23.9836 39.62V39.92ZM19.7236 35.96C18.8836 35.96 18.197 36.2133 17.6636 36.72C17.1436 37.2267 16.8103 37.94 16.6636 38.86H22.5236C22.4436 37.9133 22.1636 37.1933 21.6836 36.7C21.217 36.2067 20.5636 35.96 19.7236 35.96ZM27.9187 36.22V41.72C27.9187 42.4667 28.072 42.9933 28.3787 43.3C28.6854 43.5933 29.1187 43.74 29.6787 43.74C30.052 43.74 30.412 43.68 30.7587 43.56V44.94C30.3454 45.0733 29.8787 45.14 29.3587 45.14C28.3987 45.14 27.6454 44.8733 27.0987 44.34C26.5654 43.7933 26.2987 42.9933 26.2987 41.94V36.22H24.3387V34.94H26.2987V32.36L27.9187 31.78V34.94H30.7987V36.22H27.9187ZM34.3442 36.22V41.72C34.3442 42.4667 34.4975 42.9933 34.8042 43.3C35.1109 43.5933 35.5442 43.74 36.1042 43.74C36.4775 43.74 36.8375 43.68 37.1842 43.56V44.94C36.7709 45.0733 36.3042 45.14 35.7842 45.14C34.8242 45.14 34.0709 44.8733 33.5242 44.34C32.9909 43.7933 32.7242 42.9933 32.7242 41.94V36.22H30.7642V34.94H32.7242V32.36L34.3442 31.78V34.94H37.2242V36.22H34.3442ZM38.5511 34.94H40.1711V45H38.5511V34.94ZM40.3711 30.68V32.52H38.3911V30.68H40.3711ZM47.7115 34.7C50.1248 34.7 51.3315 36.0267 51.3315 38.68V45H49.7115V38.76C49.7115 37.8267 49.5248 37.1467 49.1515 36.72C48.7782 36.28 48.1915 36.06 47.3915 36.06C46.4582 36.06 45.7115 36.3467 45.1515 36.92C44.5915 37.4933 44.3115 38.2667 44.3115 39.24V45H42.6915V37.76C42.6915 36.72 42.6382 35.78 42.5315 34.94H44.0715L44.2315 36.74C44.5382 36.0867 44.9982 35.5867 45.6115 35.24C46.2248 34.88 46.9248 34.7 47.7115 34.7ZM62.7255 34.94V44.92C62.7255 46.4133 62.3388 47.54 61.5655 48.3C60.8055 49.0733 59.6788 49.46 58.1855 49.46C56.6521 49.46 55.3321 49.1133 54.2255 48.42L54.5055 47.1C55.1455 47.46 55.7455 47.72 56.3055 47.88C56.8788 48.04 57.5055 48.12 58.1855 48.12C59.1588 48.12 59.8921 47.86 60.3855 47.34C60.8788 46.8333 61.1255 46.0733 61.1255 45.06V42.68C60.8188 43.32 60.3655 43.82 59.7655 44.18C59.1788 44.5267 58.4788 44.7 57.6655 44.7C56.7855 44.7 55.9988 44.4933 55.3055 44.08C54.6255 43.6667 54.0988 43.08 53.7255 42.32C53.3521 41.56 53.1655 40.6867 53.1655 39.7C53.1655 38.7133 53.3521 37.84 53.7255 37.08C54.0988 36.32 54.6255 35.7333 55.3055 35.32C55.9988 34.9067 56.7855 34.7 57.6655 34.7C58.4655 34.7 59.1588 34.8733 59.7455 35.22C60.3455 35.5667 60.7988 36.0533 61.1055 36.68V34.94H62.7255ZM57.9855 43.34C58.9588 43.34 59.7188 43.02 60.2655 42.38C60.8255 41.7267 61.1055 40.8333 61.1055 39.7C61.1055 38.5667 60.8255 37.68 60.2655 37.04C59.7188 36.3867 58.9588 36.06 57.9855 36.06C56.9988 36.06 56.2188 36.3867 55.6455 37.04C55.0855 37.68 54.8055 38.5667 54.8055 39.7C54.8055 40.8333 55.0855 41.7267 55.6455 42.38C56.2188 43.02 56.9988 43.34 57.9855 43.34ZM78.6601 30.28V45H77.0601V43.18C76.7667 43.8067 76.3201 44.2933 75.7201 44.64C75.1334 44.9733 74.4467 45.14 73.6601 45.14C72.7801 45.14 72.0001 44.92 71.3201 44.48C70.6534 44.04 70.1334 43.4267 69.7601 42.64C69.3867 41.84 69.2001 40.92 69.2001 39.88C69.2001 38.84 69.3801 37.9333 69.7401 37.16C70.1134 36.3733 70.6401 35.7667 71.3201 35.34C72.0001 34.9133 72.7801 34.7 73.6601 34.7C74.4467 34.7 75.1334 34.8733 75.7201 35.22C76.3067 35.5533 76.7467 36.0267 77.0401 36.64V30.28H78.6601ZM73.9801 43.8C74.9667 43.8 75.7267 43.4667 76.2601 42.8C76.7934 42.12 77.0601 41.16 77.0601 39.92C77.0601 38.6933 76.7934 37.7467 76.2601 37.08C75.7267 36.4 74.9667 36.06 73.9801 36.06C72.9934 36.06 72.2201 36.3933 71.6601 37.06C71.1134 37.7267 70.8401 38.6667 70.8401 39.88C70.8401 41.12 71.1134 42.0867 71.6601 42.78C72.2201 43.46 72.9934 43.8 73.9801 43.8ZM90.027 34.94V45H88.427V43.18C88.1337 43.8067 87.687 44.2933 87.087 44.64C86.5003 44.9733 85.8137 45.14 85.027 45.14C84.1337 45.14 83.347 44.9267 82.667 44.5C82.0003 44.0733 81.4803 43.4733 81.107 42.7C80.747 41.9133 80.567 41 80.567 39.96C80.567 38.92 80.7537 38.0067 81.127 37.22C81.5003 36.42 82.0203 35.8 82.687 35.36C83.367 34.92 84.147 34.7 85.027 34.7C85.8137 34.7 86.5003 34.8733 87.087 35.22C87.6737 35.5667 88.1203 36.0533 88.427 36.68V34.94H90.027ZM85.347 43.8C86.3337 43.8 87.0937 43.4667 87.627 42.8C88.1603 42.12 88.427 41.16 88.427 39.92C88.427 38.68 88.1603 37.7267 87.627 37.06C87.0937 36.3933 86.3337 36.06 85.347 36.06C84.3603 36.06 83.587 36.4067 83.027 37.1C82.4803 37.78 82.207 38.7333 82.207 39.96C82.207 41.1867 82.4803 42.1333 83.027 42.8C83.5737 43.4667 84.347 43.8 85.347 43.8ZM94.6939 36.22V41.72C94.6939 42.4667 94.8473 42.9933 95.1539 43.3C95.4606 43.5933 95.8939 43.74 96.4539 43.74C96.8273 43.74 97.1873 43.68 97.5339 43.56V44.94C97.1206 45.0733 96.6539 45.14 96.1339 45.14C95.1739 45.14 94.4206 44.8733 93.8739 44.34C93.3406 43.7933 93.0739 42.9933 93.0739 41.94V36.22H91.1139V34.94H93.0739V32.36L94.6939 31.78V34.94H97.5739V36.22H94.6939ZM107.761 34.94V45H106.161V43.18C105.868 43.8067 105.421 44.2933 104.821 44.64C104.234 44.9733 103.548 45.14 102.761 45.14C101.868 45.14 101.081 44.9267 100.401 44.5C99.7342 44.0733 99.2142 43.4733 98.8409 42.7C98.4809 41.9133 98.3009 41 98.3009 39.96C98.3009 38.92 98.4875 38.0067 98.8609 37.22C99.2342 36.42 99.7542 35.8 100.421 35.36C101.101 34.92 101.881 34.7 102.761 34.7C103.548 34.7 104.234 34.8733 104.821 35.22C105.408 35.5667 105.854 36.0533 106.161 36.68V34.94H107.761ZM103.081 43.8C104.068 43.8 104.828 43.4667 105.361 42.8C105.894 42.12 106.161 41.16 106.161 39.92C106.161 38.68 105.894 37.7267 105.361 37.06C104.828 36.3933 104.068 36.06 103.081 36.06C102.094 36.06 101.321 36.4067 100.761 37.1C100.214 37.78 99.9409 38.7333 99.9409 39.96C99.9409 41.1867 100.214 42.1333 100.761 42.8C101.308 43.4667 102.081 43.8 103.081 43.8ZM119.877 34.7C122.291 34.7 123.497 36.0267 123.497 38.68V45H121.877V38.76C121.877 37.8267 121.691 37.1467 121.317 36.72C120.944 36.28 120.357 36.06 119.557 36.06C118.624 36.06 117.877 36.3467 117.317 36.92C116.757 37.4933 116.477 38.2667 116.477 39.24V45H114.857V30.28H116.477V36.58C116.797 35.9667 117.251 35.5 117.837 35.18C118.437 34.86 119.117 34.7 119.877 34.7ZM134.791 34.94V45H133.191V43.18C132.898 43.8067 132.451 44.2933 131.851 44.64C131.265 44.9733 130.578 45.14 129.791 45.14C128.898 45.14 128.111 44.9267 127.431 44.5C126.765 44.0733 126.245 43.4733 125.871 42.7C125.511 41.9133 125.331 41 125.331 39.96C125.331 38.92 125.518 38.0067 125.891 37.22C126.265 36.42 126.785 35.8 127.451 35.36C128.131 34.92 128.911 34.7 129.791 34.7C130.578 34.7 131.265 34.8733 131.851 35.22C132.438 35.5667 132.885 36.0533 133.191 36.68V34.94H134.791ZM130.111 43.8C131.098 43.8 131.858 43.4667 132.391 42.8C132.925 42.12 133.191 41.16 133.191 39.92C133.191 38.68 132.925 37.7267 132.391 37.06C131.858 36.3933 131.098 36.06 130.111 36.06C129.125 36.06 128.351 36.4067 127.791 37.1C127.245 37.78 126.971 38.7333 126.971 39.96C126.971 41.1867 127.245 42.1333 127.791 42.8C128.338 43.4667 129.111 43.8 130.111 43.8ZM140.698 45.14C139.005 45.14 137.665 44.7067 136.678 43.84L137.218 42.64C137.765 43.0667 138.318 43.3733 138.878 43.56C139.438 43.7467 140.065 43.84 140.758 43.84C141.518 43.84 142.092 43.7133 142.478 43.46C142.878 43.1933 143.078 42.8133 143.078 42.32C143.078 41.92 142.945 41.6 142.678 41.36C142.412 41.12 141.972 40.9333 141.358 40.8L139.658 40.4C138.818 40.2133 138.165 39.88 137.698 39.4C137.245 38.92 137.018 38.3467 137.018 37.68C137.018 36.8 137.372 36.0867 138.078 35.54C138.785 34.98 139.718 34.7 140.878 34.7C141.585 34.7 142.252 34.8133 142.878 35.04C143.505 35.2667 144.032 35.5933 144.458 36.02L143.918 37.2C142.972 36.4133 141.958 36.02 140.878 36.02C140.158 36.02 139.598 36.16 139.198 36.44C138.812 36.7067 138.618 37.0867 138.618 37.58C138.618 37.9933 138.738 38.32 138.978 38.56C139.232 38.8 139.632 38.9867 140.178 39.12L141.878 39.54C142.812 39.7533 143.505 40.0867 143.958 40.54C144.412 40.98 144.638 41.56 144.638 42.28C144.638 43.1467 144.285 43.84 143.578 44.36C142.872 44.88 141.912 45.14 140.698 45.14ZM156.204 34.7C158.618 34.7 159.824 36.0267 159.824 38.68V45H158.204V38.76C158.204 37.8267 158.018 37.1467 157.644 36.72C157.271 36.28 156.684 36.06 155.884 36.06C154.951 36.06 154.204 36.3467 153.644 36.92C153.084 37.4933 152.804 38.2667 152.804 39.24V45H151.184V37.76C151.184 36.72 151.131 35.78 151.024 34.94H152.564L152.724 36.74C153.031 36.0867 153.491 35.5867 154.104 35.24C154.718 34.88 155.418 34.7 156.204 34.7ZM170.678 39.92H163.298C163.312 41.2 163.605 42.1667 164.178 42.82C164.765 43.4733 165.612 43.8 166.718 43.8C167.892 43.8 168.972 43.4067 169.958 42.62L170.498 43.8C170.058 44.2133 169.492 44.54 168.798 44.78C168.118 45.02 167.418 45.14 166.698 45.14C165.125 45.14 163.892 44.68 162.998 43.76C162.105 42.8267 161.658 41.5533 161.658 39.94C161.658 38.9133 161.858 38.0067 162.258 37.22C162.658 36.42 163.218 35.8 163.938 35.36C164.658 34.92 165.478 34.7 166.398 34.7C167.732 34.7 168.778 35.14 169.538 36.02C170.298 36.8867 170.678 38.0867 170.678 39.62V39.92ZM166.418 35.96C165.578 35.96 164.892 36.2133 164.358 36.72C163.838 37.2267 163.505 37.94 163.358 38.86H169.218C169.138 37.9133 168.858 37.1933 168.378 36.7C167.912 36.2067 167.258 35.96 166.418 35.96ZM181.235 34.96L176.895 45H175.355L171.075 34.96H172.775L176.175 43.24L179.615 34.96H181.235ZM190.697 39.92H183.317C183.331 41.2 183.624 42.1667 184.197 42.82C184.784 43.4733 185.631 43.8 186.737 43.8C187.911 43.8 188.991 43.4067 189.977 42.62L190.517 43.8C190.077 44.2133 189.511 44.54 188.817 44.78C188.137 45.02 187.437 45.14 186.717 45.14C185.144 45.14 183.911 44.68 183.017 43.76C182.124 42.8267 181.677 41.5533 181.677 39.94C181.677 38.9133 181.877 38.0067 182.277 37.22C182.677 36.42 183.237 35.8 183.957 35.36C184.677 34.92 185.497 34.7 186.417 34.7C187.751 34.7 188.797 35.14 189.557 36.02C190.317 36.8867 190.697 38.0867 190.697 39.62V39.92ZM186.437 35.96C185.597 35.96 184.911 36.2133 184.377 36.72C183.857 37.2267 183.524 37.94 183.377 38.86H189.237C189.157 37.9133 188.877 37.1933 188.397 36.7C187.931 36.2067 187.277 35.96 186.437 35.96ZM197.211 34.7C197.544 34.7 197.851 34.74 198.131 34.82L198.091 36.3C197.784 36.1933 197.431 36.14 197.031 36.14C196.058 36.14 195.331 36.4467 194.851 37.06C194.384 37.66 194.151 38.3933 194.151 39.26V45H192.531V37.76C192.531 36.72 192.478 35.78 192.371 34.94H193.911L194.071 36.8C194.324 36.12 194.731 35.6 195.291 35.24C195.851 34.88 196.491 34.7 197.211 34.7ZM208.761 34.7C209.641 34.7 210.421 34.9133 211.101 35.34C211.781 35.7667 212.308 36.3733 212.681 37.16C213.055 37.9333 213.241 38.84 213.241 39.88C213.241 40.92 213.055 41.84 212.681 42.64C212.308 43.4267 211.781 44.04 211.101 44.48C210.421 44.92 209.641 45.14 208.761 45.14C207.975 45.14 207.288 44.9667 206.701 44.62C206.115 44.2733 205.668 43.78 205.361 43.14V45H203.741V30.28H205.361V36.72C205.655 36.0667 206.095 35.5667 206.681 35.22C207.281 34.8733 207.975 34.7 208.761 34.7ZM208.461 43.8C209.435 43.8 210.195 43.46 210.741 42.78C211.288 42.0867 211.561 41.12 211.561 39.88C211.561 38.6667 211.288 37.7267 210.741 37.06C210.208 36.3933 209.448 36.06 208.461 36.06C207.461 36.06 206.695 36.3933 206.161 37.06C205.628 37.7267 205.361 38.68 205.361 39.92C205.361 41.16 205.628 42.12 206.161 42.8C206.695 43.4667 207.461 43.8 208.461 43.8ZM223.528 39.92H216.148C216.162 41.2 216.455 42.1667 217.028 42.82C217.615 43.4733 218.462 43.8 219.568 43.8C220.742 43.8 221.822 43.4067 222.808 42.62L223.348 43.8C222.908 44.2133 222.342 44.54 221.648 44.78C220.968 45.02 220.268 45.14 219.548 45.14C217.975 45.14 216.742 44.68 215.848 43.76C214.955 42.8267 214.508 41.5533 214.508 39.94C214.508 38.9133 214.708 38.0067 215.108 37.22C215.508 36.42 216.068 35.8 216.788 35.36C217.508 34.92 218.328 34.7 219.248 34.7C220.582 34.7 221.628 35.14 222.388 36.02C223.148 36.8867 223.528 38.0867 223.528 39.62V39.92ZM219.268 35.96C218.428 35.96 217.742 36.2133 217.208 36.72C216.688 37.2267 216.355 37.94 216.208 38.86H222.068C221.988 37.9133 221.708 37.1933 221.228 36.7C220.762 36.2067 220.108 35.96 219.268 35.96ZM233.782 39.92H226.402C226.415 41.2 226.709 42.1667 227.282 42.82C227.869 43.4733 228.715 43.8 229.822 43.8C230.995 43.8 232.075 43.4067 233.062 42.62L233.602 43.8C233.162 44.2133 232.595 44.54 231.902 44.78C231.222 45.02 230.522 45.14 229.802 45.14C228.229 45.14 226.995 44.68 226.102 43.76C225.209 42.8267 224.762 41.5533 224.762 39.94C224.762 38.9133 224.962 38.0067 225.362 37.22C225.762 36.42 226.322 35.8 227.042 35.36C227.762 34.92 228.582 34.7 229.502 34.7C230.835 34.7 231.882 35.14 232.642 36.02C233.402 36.8867 233.782 38.0867 233.782 39.62V39.92ZM229.522 35.96C228.682 35.96 227.995 36.2133 227.462 36.72C226.942 37.2267 226.609 37.94 226.462 38.86H232.322C232.242 37.9133 231.962 37.1933 231.482 36.7C231.015 36.2067 230.362 35.96 229.522 35.96ZM240.636 34.7C243.049 34.7 244.256 36.0267 244.256 38.68V45H242.636V38.76C242.636 37.8267 242.449 37.1467 242.076 36.72C241.702 36.28 241.116 36.06 240.316 36.06C239.382 36.06 238.636 36.3467 238.076 36.92C237.516 37.4933 237.236 38.2667 237.236 39.24V45H235.616V37.76C235.616 36.72 235.562 35.78 235.456 34.94H236.996L237.156 36.74C237.462 36.0867 237.922 35.5867 238.536 35.24C239.149 34.88 239.849 34.7 240.636 34.7ZM259.699 39.92H252.319C252.333 41.2 252.626 42.1667 253.199 42.82C253.786 43.4733 254.633 43.8 255.739 43.8C256.913 43.8 257.993 43.4067 258.979 42.62L259.519 43.8C259.079 44.2133 258.513 44.54 257.819 44.78C257.139 45.02 256.439 45.14 255.719 45.14C254.146 45.14 252.913 44.68 252.019 43.76C251.126 42.8267 250.679 41.5533 250.679 39.94C250.679 38.9133 250.879 38.0067 251.279 37.22C251.679 36.42 252.239 35.8 252.959 35.36C253.679 34.92 254.499 34.7 255.419 34.7C256.753 34.7 257.799 35.14 258.559 36.02C259.319 36.8867 259.699 38.0867 259.699 39.62V39.92ZM255.439 35.96C254.599 35.96 253.913 36.2133 253.379 36.72C252.859 37.2267 252.526 37.94 252.379 38.86H258.239C258.159 37.9133 257.879 37.1933 257.399 36.7C256.933 36.2067 256.279 35.96 255.439 35.96ZM270.393 34.94V45H268.793V43.18C268.5 43.8067 268.053 44.2933 267.453 44.64C266.866 44.9733 266.18 45.14 265.393 45.14C264.5 45.14 263.713 44.9267 263.033 44.5C262.366 44.0733 261.846 43.4733 261.473 42.7C261.113 41.9133 260.933 41 260.933 39.96C260.933 38.92 261.12 38.0067 261.493 37.22C261.866 36.42 262.386 35.8 263.053 35.36C263.733 34.92 264.513 34.7 265.393 34.7C266.18 34.7 266.866 34.8733 267.453 35.22C268.04 35.5667 268.486 36.0533 268.793 36.68V34.94H270.393ZM265.713 43.8C266.7 43.8 267.46 43.4667 267.993 42.8C268.526 42.12 268.793 41.16 268.793 39.92C268.793 38.68 268.526 37.7267 267.993 37.06C267.46 36.3933 266.7 36.06 265.713 36.06C264.726 36.06 263.953 36.4067 263.393 37.1C262.846 37.78 262.573 38.7333 262.573 39.96C262.573 41.1867 262.846 42.1333 263.393 42.8C263.94 43.4667 264.713 43.8 265.713 43.8ZM276.3 45.14C274.606 45.14 273.266 44.7067 272.28 43.84L272.82 42.64C273.366 43.0667 273.92 43.3733 274.48 43.56C275.04 43.7467 275.666 43.84 276.36 43.84C277.12 43.84 277.693 43.7133 278.08 43.46C278.48 43.1933 278.68 42.8133 278.68 42.32C278.68 41.92 278.546 41.6 278.28 41.36C278.013 41.12 277.573 40.9333 276.96 40.8L275.26 40.4C274.42 40.2133 273.766 39.88 273.3 39.4C272.846 38.92 272.62 38.3467 272.62 37.68C272.62 36.8 272.973 36.0867 273.68 35.54C274.386 34.98 275.32 34.7 276.48 34.7C277.186 34.7 277.853 34.8133 278.48 35.04C279.106 35.2667 279.633 35.5933 280.06 36.02L279.52 37.2C278.573 36.4133 277.56 36.02 276.48 36.02C275.76 36.02 275.2 36.16 274.8 36.44C274.413 36.7067 274.22 37.0867 274.22 37.58C274.22 37.9933 274.34 38.32 274.58 38.56C274.833 38.8 275.233 38.9867 275.78 39.12L277.48 39.54C278.413 39.7533 279.106 40.0867 279.56 40.54C280.013 40.98 280.24 41.56 280.24 42.28C280.24 43.1467 279.886 43.84 279.18 44.36C278.473 44.88 277.513 45.14 276.3 45.14ZM282.196 34.94H283.816V45H282.196V34.94ZM284.016 30.68V32.52H282.036V30.68H284.016ZM294.757 39.92H287.377C287.39 41.2 287.683 42.1667 288.257 42.82C288.843 43.4733 289.69 43.8 290.797 43.8C291.97 43.8 293.05 43.4067 294.037 42.62L294.577 43.8C294.137 44.2133 293.57 44.54 292.877 44.78C292.197 45.02 291.497 45.14 290.777 45.14C289.203 45.14 287.97 44.68 287.077 43.76C286.183 42.8267 285.737 41.5533 285.737 39.94C285.737 38.9133 285.937 38.0067 286.337 37.22C286.737 36.42 287.297 35.8 288.017 35.36C288.737 34.92 289.557 34.7 290.477 34.7C291.81 34.7 292.857 35.14 293.617 36.02C294.377 36.8867 294.757 38.0867 294.757 39.62V39.92ZM290.497 35.96C289.657 35.96 288.97 36.2133 288.437 36.72C287.917 37.2267 287.583 37.94 287.437 38.86H293.297C293.217 37.9133 292.937 37.1933 292.457 36.7C291.99 36.2067 291.337 35.96 290.497 35.96ZM301.27 34.7C301.604 34.7 301.91 34.74 302.19 34.82L302.15 36.3C301.844 36.1933 301.49 36.14 301.09 36.14C300.117 36.14 299.39 36.4467 298.91 37.06C298.444 37.66 298.21 38.3933 298.21 39.26V45H296.59V37.76C296.59 36.72 296.537 35.78 296.43 34.94H297.97L298.13 36.8C298.384 36.12 298.79 35.6 299.35 35.24C299.91 34.88 300.55 34.7 301.27 34.7ZM304.542 42.94V45H302.482V42.94H304.542Z" fill="#696871"/>
</svg>
