<svg width="276" height="40" viewBox="0 0 276 40" fill="none" xmlns="http://www.w3.org/2000/svg">
<path d="M9.4305 9.072H3.4785L2.2145 12H0.854498L5.8625 0.608H7.0145L12.0225 12H10.6785L9.4305 9.072ZM8.9665 7.984L6.4545 2.128L3.9425 7.984H8.9665ZM19.8003 3.952V12H18.5363V10.608C18.2803 11.0987 17.923 11.472 17.4643 11.728C17.0056 11.984 16.4883 12.112 15.9123 12.112C14.963 12.112 14.243 11.8453 13.7523 11.312C13.2616 10.7787 13.0163 9.98933 13.0163 8.944V3.952H14.3123V8.912C14.3123 9.63733 14.4616 10.1707 14.7603 10.512C15.059 10.8533 15.5123 11.024 16.1203 11.024C16.835 11.024 17.411 10.7947 17.8483 10.336C18.2856 9.86667 18.5043 9.25333 18.5043 8.496V3.952H19.8003ZM28.8865 0.223999V12H27.6065V10.544C27.3718 11.0453 27.0145 11.4347 26.5345 11.712C26.0651 11.9787 25.5158 12.112 24.8865 12.112C24.1825 12.112 23.5585 11.936 23.0145 11.584C22.4811 11.232 22.0651 10.7413 21.7665 10.112C21.4678 9.472 21.3185 8.736 21.3185 7.904C21.3185 7.072 21.4625 6.34667 21.7505 5.728C22.0491 5.09867 22.4705 4.61333 23.0145 4.272C23.5585 3.93067 24.1825 3.76 24.8865 3.76C25.5158 3.76 26.0651 3.89867 26.5345 4.176C27.0038 4.44267 27.3558 4.82133 27.5905 5.312V0.223999H28.8865ZM25.1425 11.04C25.9318 11.04 26.5398 10.7733 26.9665 10.24C27.3931 9.696 27.6065 8.928 27.6065 7.936C27.6065 6.95467 27.3931 6.19733 26.9665 5.664C26.5398 5.12 25.9318 4.848 25.1425 4.848C24.3531 4.848 23.7345 5.11467 23.2865 5.648C22.8491 6.18133 22.6305 6.93333 22.6305 7.904C22.6305 8.896 22.8491 9.66933 23.2865 10.224C23.7345 10.768 24.3531 11.04 25.1425 11.04ZM30.892 3.952H32.188V12H30.892V3.952ZM32.348 0.544V2.016H30.764V0.544H32.348ZM35.9323 4.976V9.376C35.9323 9.97333 36.0549 10.3947 36.3003 10.64C36.5456 10.8747 36.8923 10.992 37.3403 10.992C37.6389 10.992 37.9269 10.944 38.2043 10.848V11.952C37.8736 12.0587 37.5003 12.112 37.0843 12.112C36.3163 12.112 35.7136 11.8987 35.2763 11.472C34.8496 11.0347 34.6363 10.3947 34.6363 9.552V4.976H33.0683V3.952H34.6363V1.888L35.9323 1.424V3.952H38.2363V4.976H35.9323ZM55.1935 3.952L52.2175 12H50.9695L48.6655 5.712L46.3775 12H45.1295L42.1535 3.952H43.5135L45.7855 10.448L48.1375 3.952H49.2735L51.5935 10.464L53.9135 3.952H55.1935ZM60.3915 3.76C62.3222 3.76 63.2875 4.82133 63.2875 6.944V12H61.9915V7.008C61.9915 6.26133 61.8422 5.71733 61.5435 5.376C61.2449 5.024 60.7755 4.848 60.1355 4.848C59.3889 4.848 58.7915 5.07733 58.3435 5.536C57.8955 5.99467 57.6715 6.61333 57.6715 7.392V12H56.3755V0.223999H57.6715V5.264C57.9275 4.77333 58.2902 4.4 58.7595 4.144C59.2395 3.888 59.7835 3.76 60.3915 3.76ZM71.9707 7.936H66.0667C66.0774 8.96 66.312 9.73333 66.7707 10.256C67.24 10.7787 67.9174 11.04 68.8027 11.04C69.7414 11.04 70.6054 10.7253 71.3947 10.096L71.8267 11.04C71.4747 11.3707 71.0214 11.632 70.4667 11.824C69.9227 12.016 69.3627 12.112 68.7867 12.112C67.528 12.112 66.5414 11.744 65.8267 11.008C65.112 10.2613 64.7547 9.24267 64.7547 7.952C64.7547 7.13067 64.9147 6.40533 65.2347 5.776C65.5547 5.136 66.0027 4.64 66.5787 4.288C67.1547 3.936 67.8107 3.76 68.5467 3.76C69.6134 3.76 70.4507 4.112 71.0587 4.816C71.6667 5.50933 71.9707 6.46933 71.9707 7.696V7.936ZM68.5627 4.768C67.8907 4.768 67.3414 4.97067 66.9147 5.376C66.4987 5.78133 66.232 6.352 66.1147 7.088H70.8027C70.7387 6.33067 70.5147 5.75467 70.1307 5.36C69.7574 4.96533 69.2347 4.768 68.5627 4.768ZM77.1816 3.76C77.4483 3.76 77.6936 3.792 77.9176 3.856L77.8856 5.04C77.6403 4.95467 77.3576 4.912 77.0376 4.912C76.2589 4.912 75.6776 5.15733 75.2936 5.648C74.9203 6.128 74.7336 6.71467 74.7336 7.408V12H73.4376V6.208C73.4376 5.376 73.3949 4.624 73.3096 3.952H74.5416L74.6696 5.44C74.8723 4.896 75.1976 4.48 75.6456 4.192C76.0936 3.904 76.6056 3.76 77.1816 3.76ZM85.314 7.936H79.41C79.4207 8.96 79.6554 9.73333 80.114 10.256C80.5834 10.7787 81.2607 11.04 82.146 11.04C83.0847 11.04 83.9487 10.7253 84.738 10.096L85.17 11.04C84.818 11.3707 84.3647 11.632 83.81 11.824C83.266 12.016 82.706 12.112 82.13 12.112C80.8714 12.112 79.8847 11.744 79.17 11.008C78.4554 10.2613 78.098 9.24267 78.098 7.952C78.098 7.13067 78.258 6.40533 78.578 5.776C78.898 5.136 79.346 4.64 79.922 4.288C80.498 3.936 81.154 3.76 81.89 3.76C82.9567 3.76 83.794 4.112 84.402 4.816C85.01 5.50933 85.314 6.46933 85.314 7.696V7.936ZM81.906 4.768C81.234 4.768 80.6847 4.97067 80.258 5.376C79.842 5.78133 79.5754 6.352 79.458 7.088H84.146C84.082 6.33067 83.858 5.75467 83.474 5.36C83.1007 4.96533 82.578 4.768 81.906 4.768ZM94.1966 3.76C94.4633 3.76 94.7086 3.792 94.9326 3.856L94.9006 5.04C94.6553 4.95467 94.3726 4.912 94.0526 4.912C93.2739 4.912 92.6926 5.15733 92.3086 5.648C91.9353 6.128 91.7486 6.71467 91.7486 7.408V12H90.4526V6.208C90.4526 5.376 90.4099 4.624 90.3246 3.952H91.5566L91.6846 5.44C91.8873 4.896 92.2126 4.48 92.6606 4.192C93.1086 3.904 93.6206 3.76 94.1966 3.76ZM102.329 7.936H96.425C96.4357 8.96 96.6703 9.73333 97.129 10.256C97.5983 10.7787 98.2757 11.04 99.161 11.04C100.1 11.04 100.964 10.7253 101.753 10.096L102.185 11.04C101.833 11.3707 101.38 11.632 100.825 11.824C100.281 12.016 99.721 12.112 99.145 12.112C97.8863 12.112 96.8997 11.744 96.185 11.008C95.4703 10.2613 95.113 9.24267 95.113 7.952C95.113 7.13067 95.273 6.40533 95.593 5.776C95.913 5.136 96.361 4.64 96.937 4.288C97.513 3.936 98.169 3.76 98.905 3.76C99.9717 3.76 100.809 4.112 101.417 4.816C102.025 5.50933 102.329 6.46933 102.329 7.696V7.936ZM98.921 4.768C98.249 4.768 97.6997 4.97067 97.273 5.376C96.857 5.78133 96.5903 6.352 96.473 7.088H101.161C101.097 6.33067 100.873 5.75467 100.489 5.36C100.116 4.96533 99.593 4.768 98.921 4.768ZM110.774 3.968L107.302 12H106.07L102.646 3.968H104.006L106.726 10.592L109.478 3.968H110.774ZM118.344 7.936H112.44C112.451 8.96 112.686 9.73333 113.144 10.256C113.614 10.7787 114.291 11.04 115.176 11.04C116.115 11.04 116.979 10.7253 117.768 10.096L118.2 11.04C117.848 11.3707 117.395 11.632 116.84 11.824C116.296 12.016 115.736 12.112 115.16 12.112C113.902 12.112 112.915 11.744 112.2 11.008C111.486 10.2613 111.128 9.24267 111.128 7.952C111.128 7.13067 111.288 6.40533 111.608 5.776C111.928 5.136 112.376 4.64 112.952 4.288C113.528 3.936 114.184 3.76 114.92 3.76C115.987 3.76 116.824 4.112 117.432 4.816C118.04 5.50933 118.344 6.46933 118.344 7.696V7.936ZM114.936 4.768C114.264 4.768 113.715 4.97067 113.288 5.376C112.872 5.78133 112.606 6.352 112.488 7.088H117.176C117.112 6.33067 116.888 5.75467 116.504 5.36C116.131 4.96533 115.608 4.768 114.936 4.768ZM123.827 3.76C125.758 3.76 126.723 4.82133 126.723 6.944V12H125.427V7.008C125.427 6.26133 125.278 5.71733 124.979 5.376C124.68 5.024 124.211 4.848 123.571 4.848C122.824 4.848 122.227 5.07733 121.779 5.536C121.331 5.99467 121.107 6.61333 121.107 7.392V12H119.811V6.208C119.811 5.376 119.768 4.624 119.683 3.952H120.915L121.043 5.392C121.288 4.86933 121.656 4.46933 122.147 4.192C122.638 3.904 123.198 3.76 123.827 3.76ZM135.406 3.952V12H134.142V10.608C133.886 11.0987 133.529 11.472 133.07 11.728C132.612 11.984 132.094 12.112 131.518 12.112C130.569 12.112 129.849 11.8453 129.358 11.312C128.868 10.7787 128.622 9.98933 128.622 8.944V3.952H129.918V8.912C129.918 9.63733 130.068 10.1707 130.366 10.512C130.665 10.8533 131.118 11.024 131.726 11.024C132.441 11.024 133.017 10.7947 133.454 10.336C133.892 9.86667 134.11 9.25333 134.11 8.496V3.952H135.406ZM144.14 7.936H138.236C138.247 8.96 138.482 9.73333 138.94 10.256C139.41 10.7787 140.087 11.04 140.972 11.04C141.911 11.04 142.775 10.7253 143.564 10.096L143.996 11.04C143.644 11.3707 143.191 11.632 142.636 11.824C142.092 12.016 141.532 12.112 140.956 12.112C139.698 12.112 138.711 11.744 137.996 11.008C137.282 10.2613 136.924 9.24267 136.924 7.952C136.924 7.13067 137.084 6.40533 137.404 5.776C137.724 5.136 138.172 4.64 138.748 4.288C139.324 3.936 139.98 3.76 140.716 3.76C141.783 3.76 142.62 4.112 143.228 4.816C143.836 5.50933 144.14 6.46933 144.14 7.696V7.936ZM140.732 4.768C140.06 4.768 139.511 4.97067 139.084 5.376C138.668 5.78133 138.402 6.352 138.284 7.088H142.972C142.908 6.33067 142.684 5.75467 142.3 5.36C141.927 4.96533 141.404 4.768 140.732 4.768ZM149.279 0.223999H150.575V12H149.279V0.223999ZM159.327 7.936H153.423C153.434 8.96 153.669 9.73333 154.127 10.256C154.597 10.7787 155.274 11.04 156.159 11.04C157.098 11.04 157.962 10.7253 158.751 10.096L159.183 11.04C158.831 11.3707 158.378 11.632 157.823 11.824C157.279 12.016 156.719 12.112 156.143 12.112C154.885 12.112 153.898 11.744 153.183 11.008C152.469 10.2613 152.111 9.24267 152.111 7.952C152.111 7.13067 152.271 6.40533 152.591 5.776C152.911 5.136 153.359 4.64 153.935 4.288C154.511 3.936 155.167 3.76 155.903 3.76C156.97 3.76 157.807 4.112 158.415 4.816C159.023 5.50933 159.327 6.46933 159.327 7.696V7.936ZM155.919 4.768C155.247 4.768 154.698 4.97067 154.271 5.376C153.855 5.78133 153.589 6.352 153.471 7.088H158.159C158.095 6.33067 157.871 5.75467 157.487 5.36C157.114 4.96533 156.591 4.768 155.919 4.768ZM167.882 3.952V12H166.602V10.544C166.368 11.0453 166.01 11.4347 165.53 11.712C165.061 11.9787 164.512 12.112 163.882 12.112C163.168 12.112 162.538 11.9413 161.994 11.6C161.461 11.2587 161.045 10.7787 160.746 10.16C160.458 9.53067 160.314 8.8 160.314 7.968C160.314 7.136 160.464 6.40533 160.762 5.776C161.061 5.136 161.477 4.64 162.01 4.288C162.554 3.936 163.178 3.76 163.882 3.76C164.512 3.76 165.061 3.89867 165.53 4.176C166 4.45333 166.357 4.84267 166.602 5.344V3.952H167.882ZM164.138 11.04C164.928 11.04 165.536 10.7733 165.962 10.24C166.389 9.696 166.602 8.928 166.602 7.936C166.602 6.944 166.389 6.18133 165.962 5.648C165.536 5.11467 164.928 4.848 164.138 4.848C163.349 4.848 162.73 5.12533 162.282 5.68C161.845 6.224 161.626 6.98667 161.626 7.968C161.626 8.94933 161.845 9.70667 162.282 10.24C162.72 10.7733 163.338 11.04 164.138 11.04ZM175.312 12L171.184 8.128V12H169.888V0.223999H171.184V7.648L174.976 3.968H176.624L172.592 7.824L177.008 12H175.312ZM184.569 3.952V12H183.289V10.544C183.055 11.0453 182.697 11.4347 182.217 11.712C181.748 11.9787 181.199 12.112 180.569 12.112C179.855 12.112 179.225 11.9413 178.681 11.6C178.148 11.2587 177.732 10.7787 177.433 10.16C177.145 9.53067 177.001 8.8 177.001 7.968C177.001 7.136 177.151 6.40533 177.449 5.776C177.748 5.136 178.164 4.64 178.697 4.288C179.241 3.936 179.865 3.76 180.569 3.76C181.199 3.76 181.748 3.89867 182.217 4.176C182.687 4.45333 183.044 4.84267 183.289 5.344V3.952H184.569ZM180.825 11.04C181.615 11.04 182.223 10.7733 182.649 10.24C183.076 9.696 183.289 8.928 183.289 7.936C183.289 6.944 183.076 6.18133 182.649 5.648C182.223 5.11467 181.615 4.848 180.825 4.848C180.036 4.848 179.417 5.12533 178.969 5.68C178.532 6.224 178.313 6.98667 178.313 7.968C178.313 8.94933 178.532 9.70667 178.969 10.24C179.407 10.7733 180.025 11.04 180.825 11.04ZM193.743 3.952V11.936C193.743 13.1307 193.434 14.032 192.815 14.64C192.207 15.2587 191.306 15.568 190.111 15.568C188.884 15.568 187.828 15.2907 186.943 14.736L187.167 13.68C187.679 13.968 188.159 14.176 188.607 14.304C189.066 14.432 189.567 14.496 190.111 14.496C190.89 14.496 191.476 14.288 191.871 13.872C192.266 13.4667 192.463 12.8587 192.463 12.048V10.144C192.218 10.656 191.855 11.056 191.375 11.344C190.906 11.6213 190.346 11.76 189.695 11.76C188.991 11.76 188.362 11.5947 187.807 11.264C187.263 10.9333 186.842 10.464 186.543 9.856C186.244 9.248 186.095 8.54933 186.095 7.76C186.095 6.97067 186.244 6.272 186.543 5.664C186.842 5.056 187.263 4.58667 187.807 4.256C188.362 3.92533 188.991 3.76 189.695 3.76C190.335 3.76 190.89 3.89867 191.359 4.176C191.839 4.45333 192.202 4.84267 192.447 5.344V3.952H193.743ZM189.951 10.672C190.73 10.672 191.338 10.416 191.775 9.904C192.223 9.38133 192.447 8.66667 192.447 7.76C192.447 6.85333 192.223 6.144 191.775 5.632C191.338 5.10933 190.73 4.848 189.951 4.848C189.162 4.848 188.538 5.10933 188.079 5.632C187.631 6.144 187.407 6.85333 187.407 7.76C187.407 8.66667 187.631 9.38133 188.079 9.904C188.538 10.416 189.162 10.672 189.951 10.672ZM202.467 7.936H196.563C196.574 8.96 196.808 9.73333 197.267 10.256C197.736 10.7787 198.414 11.04 199.299 11.04C200.238 11.04 201.102 10.7253 201.891 10.096L202.323 11.04C201.971 11.3707 201.518 11.632 200.963 11.824C200.419 12.016 199.859 12.112 199.283 12.112C198.024 12.112 197.038 11.744 196.323 11.008C195.608 10.2613 195.251 9.24267 195.251 7.952C195.251 7.13067 195.411 6.40533 195.731 5.776C196.051 5.136 196.499 4.64 197.075 4.288C197.651 3.936 198.307 3.76 199.043 3.76C200.11 3.76 200.947 4.112 201.555 4.816C202.163 5.50933 202.467 6.46933 202.467 7.696V7.936ZM199.059 4.768C198.387 4.768 197.838 4.97067 197.411 5.376C196.995 5.78133 196.728 6.352 196.611 7.088H201.299C201.235 6.33067 201.011 5.75467 200.627 5.36C200.254 4.96533 199.731 4.768 199.059 4.768ZM214.341 7.936H208.437C208.448 8.96 208.683 9.73333 209.141 10.256C209.611 10.7787 210.288 11.04 211.173 11.04C212.112 11.04 212.976 10.7253 213.765 10.096L214.197 11.04C213.845 11.3707 213.392 11.632 212.837 11.824C212.293 12.016 211.733 12.112 211.157 12.112C209.899 12.112 208.912 11.744 208.197 11.008C207.483 10.2613 207.125 9.24267 207.125 7.952C207.125 7.13067 207.285 6.40533 207.605 5.776C207.925 5.136 208.373 4.64 208.949 4.288C209.525 3.936 210.181 3.76 210.917 3.76C211.984 3.76 212.821 4.112 213.429 4.816C214.037 5.50933 214.341 6.46933 214.341 7.696V7.936ZM210.933 4.768C210.261 4.768 209.712 4.97067 209.285 5.376C208.869 5.78133 208.603 6.352 208.485 7.088H213.173C213.109 6.33067 212.885 5.75467 212.501 5.36C212.128 4.96533 211.605 4.768 210.933 4.768ZM222.819 12H221.267L218.723 8.832L216.211 12H214.627L217.971 7.856L214.819 3.952H216.387L218.723 6.912L221.059 3.952H222.643L219.507 7.856L222.819 12ZM223.761 3.952H225.057V12H223.761V3.952ZM225.217 0.544V2.016H223.633V0.544H225.217ZM229.794 12.112C228.439 12.112 227.367 11.7653 226.578 11.072L227.01 10.112C227.447 10.4533 227.89 10.6987 228.338 10.848C228.786 10.9973 229.287 11.072 229.842 11.072C230.45 11.072 230.908 10.9707 231.218 10.768C231.538 10.5547 231.698 10.2507 231.698 9.856C231.698 9.536 231.591 9.28 231.378 9.088C231.164 8.896 230.812 8.74667 230.322 8.64L228.962 8.32C228.29 8.17067 227.767 7.904 227.394 7.52C227.031 7.136 226.85 6.67733 226.85 6.144C226.85 5.44 227.132 4.86933 227.698 4.432C228.263 3.984 229.01 3.76 229.938 3.76C230.503 3.76 231.036 3.85067 231.538 4.032C232.039 4.21333 232.46 4.47467 232.802 4.816L232.37 5.76C231.612 5.13067 230.802 4.816 229.938 4.816C229.362 4.816 228.914 4.928 228.594 5.152C228.284 5.36533 228.13 5.66933 228.13 6.064C228.13 6.39467 228.226 6.656 228.418 6.848C228.62 7.04 228.94 7.18933 229.378 7.296L230.738 7.632C231.484 7.80267 232.039 8.06933 232.402 8.432C232.764 8.784 232.946 9.248 232.946 9.824C232.946 10.5173 232.663 11.072 232.098 11.488C231.532 11.904 230.764 12.112 229.794 12.112ZM236.161 4.976V9.376C236.161 9.97333 236.283 10.3947 236.529 10.64C236.774 10.8747 237.121 10.992 237.569 10.992C237.867 10.992 238.155 10.944 238.433 10.848V11.952C238.102 12.0587 237.729 12.112 237.313 12.112C236.545 12.112 235.942 11.8987 235.505 11.472C235.078 11.0347 234.865 10.3947 234.865 9.552V4.976H233.297V3.952H234.865V1.888L236.161 1.424V3.952H238.465V4.976H236.161ZM242.246 12.112C240.892 12.112 239.82 11.7653 239.03 11.072L239.462 10.112C239.9 10.4533 240.342 10.6987 240.79 10.848C241.238 10.9973 241.74 11.072 242.294 11.072C242.902 11.072 243.361 10.9707 243.67 10.768C243.99 10.5547 244.15 10.2507 244.15 9.856C244.15 9.536 244.044 9.28 243.83 9.088C243.617 8.896 243.265 8.74667 242.774 8.64L241.414 8.32C240.742 8.17067 240.22 7.904 239.846 7.52C239.484 7.136 239.302 6.67733 239.302 6.144C239.302 5.44 239.585 4.86933 240.15 4.432C240.716 3.984 241.462 3.76 242.39 3.76C242.956 3.76 243.489 3.85067 243.99 4.032C244.492 4.21333 244.913 4.47467 245.254 4.816L244.822 5.76C244.065 5.13067 243.254 4.816 242.39 4.816C241.814 4.816 241.366 4.928 241.046 5.152C240.737 5.36533 240.582 5.66933 240.582 6.064C240.582 6.39467 240.678 6.656 240.87 6.848C241.073 7.04 241.393 7.18933 241.83 7.296L243.19 7.632C243.937 7.80267 244.492 8.06933 244.854 8.432C245.217 8.784 245.398 9.248 245.398 9.824C245.398 10.5173 245.116 11.072 244.55 11.488C243.985 11.904 243.217 12.112 242.246 12.112ZM257.723 3.952V12H256.443V10.544C256.209 11.0453 255.851 11.4347 255.371 11.712C254.902 11.9787 254.353 12.112 253.723 12.112C253.009 12.112 252.379 11.9413 251.835 11.6C251.302 11.2587 250.886 10.7787 250.587 10.16C250.299 9.53067 250.155 8.8 250.155 7.968C250.155 7.136 250.305 6.40533 250.603 5.776C250.902 5.136 251.318 4.64 251.851 4.288C252.395 3.936 253.019 3.76 253.723 3.76C254.353 3.76 254.902 3.89867 255.371 4.176C255.841 4.45333 256.198 4.84267 256.443 5.344V3.952H257.723ZM253.979 11.04C254.769 11.04 255.377 10.7733 255.803 10.24C256.23 9.696 256.443 8.928 256.443 7.936C256.443 6.944 256.23 6.18133 255.803 5.648C255.377 5.11467 254.769 4.848 253.979 4.848C253.19 4.848 252.571 5.12533 252.123 5.68C251.686 6.224 251.467 6.98667 251.467 7.968C251.467 8.94933 251.686 9.70667 252.123 10.24C252.561 10.7733 253.179 11.04 253.979 11.04ZM263.745 3.76C265.675 3.76 266.641 4.82133 266.641 6.944V12H265.345V7.008C265.345 6.26133 265.195 5.71733 264.897 5.376C264.598 5.024 264.129 4.848 263.489 4.848C262.742 4.848 262.145 5.07733 261.697 5.536C261.249 5.99467 261.025 6.61333 261.025 7.392V12H259.729V6.208C259.729 5.376 259.686 4.624 259.601 3.952H260.833L260.961 5.392C261.206 4.86933 261.574 4.46933 262.065 4.192C262.555 3.904 263.115 3.76 263.745 3.76ZM275.676 0.223999V12H274.396V10.544C274.161 11.0453 273.804 11.4347 273.324 11.712C272.855 11.9787 272.305 12.112 271.676 12.112C270.972 12.112 270.348 11.936 269.804 11.584C269.271 11.232 268.855 10.7413 268.556 10.112C268.257 9.472 268.108 8.736 268.108 7.904C268.108 7.072 268.252 6.34667 268.54 5.728C268.839 5.09867 269.26 4.61333 269.804 4.272C270.348 3.93067 270.972 3.76 271.676 3.76C272.305 3.76 272.855 3.89867 273.324 4.176C273.793 4.44267 274.145 4.82133 274.38 5.312V0.223999H275.676ZM271.932 11.04C272.721 11.04 273.329 10.7733 273.756 10.24C274.183 9.696 274.396 8.928 274.396 7.936C274.396 6.95467 274.183 6.19733 273.756 5.664C273.329 5.12 272.721 4.848 271.932 4.848C271.143 4.848 270.524 5.11467 270.076 5.648C269.639 6.18133 269.42 6.93333 269.42 7.904C269.42 8.896 269.639 9.66933 270.076 10.224C270.524 10.768 271.143 11.04 271.932 11.04ZM36.0144 27.952L33.0384 36H31.7904L29.4864 29.712L27.1984 36H25.9504L22.9744 27.952H24.3344L26.6064 34.448L28.9584 27.952H30.0944L32.4144 34.464L34.7344 27.952H36.0144ZM41.2125 27.76C43.1431 27.76 44.1085 28.8213 44.1085 30.944V36H42.8125V31.008C42.8125 30.2613 42.6631 29.7173 42.3645 29.376C42.0658 29.024 41.5965 28.848 40.9565 28.848C40.2098 28.848 39.6125 29.0773 39.1645 29.536C38.7165 29.9947 38.4925 30.6133 38.4925 31.392V36H37.1965V24.224H38.4925V29.264C38.7485 28.7733 39.1111 28.4 39.5805 28.144C40.0605 27.888 40.6045 27.76 41.2125 27.76ZM52.7916 31.936H46.8876C46.8983 32.96 47.133 33.7333 47.5916 34.256C48.061 34.7787 48.7383 35.04 49.6236 35.04C50.5623 35.04 51.4263 34.7253 52.2156 34.096L52.6476 35.04C52.2956 35.3707 51.8423 35.632 51.2876 35.824C50.7436 36.016 50.1836 36.112 49.6076 36.112C48.349 36.112 47.3623 35.744 46.6476 35.008C45.933 34.2613 45.5756 33.2427 45.5756 31.952C45.5756 31.1307 45.7356 30.4053 46.0556 29.776C46.3756 29.136 46.8236 28.64 47.3996 28.288C47.9756 27.936 48.6316 27.76 49.3676 27.76C50.4343 27.76 51.2716 28.112 51.8796 28.816C52.4876 29.5093 52.7916 30.4693 52.7916 31.696V31.936ZM49.3836 28.768C48.7116 28.768 48.1623 28.9707 47.7356 29.376C47.3196 29.7813 47.053 30.352 46.9356 31.088H51.6236C51.5596 30.3307 51.3356 29.7547 50.9516 29.36C50.5783 28.9653 50.0556 28.768 49.3836 28.768ZM58.0026 27.76C58.2692 27.76 58.5146 27.792 58.7386 27.856L58.7066 29.04C58.4612 28.9547 58.1786 28.912 57.8586 28.912C57.0799 28.912 56.4986 29.1573 56.1146 29.648C55.7412 30.128 55.5546 30.7147 55.5546 31.408V36H54.2586V30.208C54.2586 29.376 54.2159 28.624 54.1306 27.952H55.3626L55.4906 29.44C55.6932 28.896 56.0186 28.48 56.4666 28.192C56.9146 27.904 57.4266 27.76 58.0026 27.76ZM66.135 31.936H60.231C60.2416 32.96 60.4763 33.7333 60.935 34.256C61.4043 34.7787 62.0816 35.04 62.967 35.04C63.9056 35.04 64.7696 34.7253 65.559 34.096L65.991 35.04C65.639 35.3707 65.1856 35.632 64.631 35.824C64.087 36.016 63.527 36.112 62.951 36.112C61.6923 36.112 60.7056 35.744 59.991 35.008C59.2763 34.2613 58.919 33.2427 58.919 31.952C58.919 31.1307 59.079 30.4053 59.399 29.776C59.719 29.136 60.167 28.64 60.743 28.288C61.319 27.936 61.975 27.76 62.711 27.76C63.7776 27.76 64.615 28.112 65.223 28.816C65.831 29.5093 66.135 30.4693 66.135 31.696V31.936ZM62.727 28.768C62.055 28.768 61.5056 28.9707 61.079 29.376C60.663 29.7813 60.3963 30.352 60.279 31.088H64.967C64.903 30.3307 64.679 29.7547 64.295 29.36C63.9216 28.9653 63.399 28.768 62.727 28.768ZM78.3455 27.952L74.5855 36.736C74.1909 37.6533 73.6949 38.3253 73.0975 38.752C72.5002 39.1787 71.7642 39.472 70.8895 39.632L70.6175 38.624C71.3749 38.4533 71.9455 38.224 72.3295 37.936C72.7242 37.6587 73.0495 37.2267 73.3055 36.64L73.6255 35.92L70.2175 27.952H71.5775L74.2975 34.592L77.0495 27.952H78.3455ZM82.5076 36.112C81.7503 36.112 81.0836 35.9413 80.5076 35.6C79.9316 35.2587 79.4836 34.7733 79.1636 34.144C78.8543 33.5147 78.6996 32.7787 78.6996 31.936C78.6996 31.0933 78.8543 30.3573 79.1636 29.728C79.4836 29.0987 79.9316 28.6133 80.5076 28.272C81.0836 27.9307 81.7503 27.76 82.5076 27.76C83.2649 27.76 83.9316 27.9307 84.5076 28.272C85.0836 28.6133 85.5263 29.0987 85.8356 29.728C86.1556 30.3573 86.3156 31.0933 86.3156 31.936C86.3156 32.7787 86.1556 33.5147 85.8356 34.144C85.5263 34.7733 85.0836 35.2587 84.5076 35.6C83.9316 35.9413 83.2649 36.112 82.5076 36.112ZM82.5076 35.04C83.3076 35.04 83.9209 34.7787 84.3476 34.256C84.7743 33.7227 84.9876 32.9493 84.9876 31.936C84.9876 30.9547 84.7689 30.1973 84.3316 29.664C83.8943 29.12 83.2863 28.848 82.5076 28.848C81.7183 28.848 81.1049 29.12 80.6676 29.664C80.2303 30.1973 80.0116 30.9547 80.0116 31.936C80.0116 32.9493 80.2249 33.7227 80.6516 34.256C81.0889 34.7787 81.7076 35.04 82.5076 35.04ZM94.5716 27.952V36H93.3076V34.608C93.0516 35.0987 92.6943 35.472 92.2356 35.728C91.777 35.984 91.2596 36.112 90.6836 36.112C89.7343 36.112 89.0143 35.8453 88.5236 35.312C88.033 34.7787 87.7876 33.9893 87.7876 32.944V27.952H89.0836V32.912C89.0836 33.6373 89.233 34.1707 89.5316 34.512C89.8303 34.8533 90.2836 35.024 90.8916 35.024C91.6063 35.024 92.1823 34.7947 92.6196 34.336C93.057 33.8667 93.2756 33.2533 93.2756 32.496V27.952H94.5716ZM103.617 36.112C102.839 36.112 102.156 35.9413 101.569 35.6C100.993 35.2587 100.545 34.7787 100.225 34.16C99.9161 33.5307 99.7615 32.8 99.7615 31.968C99.7615 31.136 99.9215 30.4053 100.241 29.776C100.561 29.136 101.015 28.64 101.601 28.288C102.199 27.936 102.892 27.76 103.681 27.76C104.225 27.76 104.748 27.856 105.249 28.048C105.761 28.2293 106.183 28.4853 106.513 28.816L106.081 29.776C105.676 29.456 105.281 29.2213 104.897 29.072C104.524 28.9227 104.14 28.848 103.745 28.848C102.924 28.848 102.279 29.1253 101.809 29.68C101.34 30.224 101.105 30.9867 101.105 31.968C101.105 32.9387 101.335 33.696 101.793 34.24C102.263 34.7733 102.913 35.04 103.745 35.04C104.14 35.04 104.524 34.9653 104.897 34.816C105.281 34.6667 105.676 34.432 106.081 34.112L106.513 35.072C106.172 35.392 105.74 35.648 105.217 35.84C104.705 36.0213 104.172 36.112 103.617 36.112ZM114.751 27.952V36H113.471V34.544C113.236 35.0453 112.879 35.4347 112.399 35.712C111.93 35.9787 111.38 36.112 110.751 36.112C110.036 36.112 109.407 35.9413 108.863 35.6C108.33 35.2587 107.914 34.7787 107.615 34.16C107.327 33.5307 107.183 32.8 107.183 31.968C107.183 31.136 107.332 30.4053 107.631 29.776C107.93 29.136 108.346 28.64 108.879 28.288C109.423 27.936 110.047 27.76 110.751 27.76C111.38 27.76 111.93 27.8987 112.399 28.176C112.868 28.4533 113.226 28.8427 113.471 29.344V27.952H114.751ZM111.007 35.04C111.796 35.04 112.404 34.7733 112.831 34.24C113.258 33.696 113.471 32.928 113.471 31.936C113.471 30.944 113.258 30.1813 112.831 29.648C112.404 29.1147 111.796 28.848 111.007 28.848C110.218 28.848 109.599 29.1253 109.151 29.68C108.714 30.224 108.495 30.9867 108.495 31.968C108.495 32.9493 108.714 33.7067 109.151 34.24C109.588 34.7733 110.207 35.04 111.007 35.04ZM120.773 27.76C122.703 27.76 123.669 28.8213 123.669 30.944V36H122.373V31.008C122.373 30.2613 122.223 29.7173 121.925 29.376C121.626 29.024 121.157 28.848 120.517 28.848C119.77 28.848 119.173 29.0773 118.725 29.536C118.277 29.9947 118.053 30.6133 118.053 31.392V36H116.757V30.208C116.757 29.376 116.714 28.624 116.629 27.952H117.861L117.989 29.392C118.234 28.8693 118.602 28.4693 119.093 28.192C119.583 27.904 120.143 27.76 120.773 27.76ZM129.287 27.952H130.583V36H129.287V27.952ZM130.743 24.544V26.016H129.159V24.544H130.743ZM136.616 27.76C138.546 27.76 139.512 28.8213 139.512 30.944V36H138.216V31.008C138.216 30.2613 138.066 29.7173 137.768 29.376C137.469 29.024 137 28.848 136.36 28.848C135.613 28.848 135.016 29.0773 134.568 29.536C134.12 29.9947 133.896 30.6133 133.896 31.392V36H132.6V30.208C132.6 29.376 132.557 28.624 132.472 27.952H133.704L133.832 29.392C134.077 28.8693 134.445 28.4693 134.936 28.192C135.426 27.904 135.986 27.76 136.616 27.76ZM144.835 36.112C144.056 36.112 143.374 35.9413 142.787 35.6C142.211 35.2587 141.763 34.7787 141.443 34.16C141.134 33.5307 140.979 32.8 140.979 31.968C140.979 31.136 141.139 30.4053 141.459 29.776C141.779 29.136 142.232 28.64 142.819 28.288C143.416 27.936 144.11 27.76 144.899 27.76C145.443 27.76 145.966 27.856 146.467 28.048C146.979 28.2293 147.4 28.4853 147.731 28.816L147.299 29.776C146.894 29.456 146.499 29.2213 146.115 29.072C145.742 28.9227 145.358 28.848 144.963 28.848C144.142 28.848 143.496 29.1253 143.027 29.68C142.558 30.224 142.323 30.9867 142.323 31.968C142.323 32.9387 142.552 33.696 143.011 34.24C143.48 34.7733 144.131 35.04 144.963 35.04C145.358 35.04 145.742 34.9653 146.115 34.816C146.499 34.6667 146.894 34.432 147.299 34.112L147.731 35.072C147.39 35.392 146.958 35.648 146.435 35.84C145.923 36.0213 145.39 36.112 144.835 36.112ZM152.625 27.76C152.891 27.76 153.137 27.792 153.361 27.856L153.329 29.04C153.083 28.9547 152.801 28.912 152.481 28.912C151.702 28.912 151.121 29.1573 150.737 29.648C150.363 30.128 150.177 30.7147 150.177 31.408V36H148.881V30.208C148.881 29.376 148.838 28.624 148.753 27.952H149.985L150.113 29.44C150.315 28.896 150.641 28.48 151.089 28.192C151.537 27.904 152.049 27.76 152.625 27.76ZM160.757 31.936H154.853C154.864 32.96 155.098 33.7333 155.557 34.256C156.026 34.7787 156.704 35.04 157.589 35.04C158.528 35.04 159.392 34.7253 160.181 34.096L160.613 35.04C160.261 35.3707 159.808 35.632 159.253 35.824C158.709 36.016 158.149 36.112 157.573 36.112C156.314 36.112 155.328 35.744 154.613 35.008C153.898 34.2613 153.541 33.2427 153.541 31.952C153.541 31.1307 153.701 30.4053 154.021 29.776C154.341 29.136 154.789 28.64 155.365 28.288C155.941 27.936 156.597 27.76 157.333 27.76C158.4 27.76 159.237 28.112 159.845 28.816C160.453 29.5093 160.757 30.4693 160.757 31.696V31.936ZM157.349 28.768C156.677 28.768 156.128 28.9707 155.701 29.376C155.285 29.7813 155.018 30.352 154.901 31.088H159.589C159.525 30.3307 159.301 29.7547 158.917 29.36C158.544 28.9653 158.021 28.768 157.349 28.768ZM169.312 27.952V36H168.032V34.544C167.797 35.0453 167.44 35.4347 166.96 35.712C166.491 35.9787 165.941 36.112 165.312 36.112C164.597 36.112 163.968 35.9413 163.424 35.6C162.891 35.2587 162.475 34.7787 162.176 34.16C161.888 33.5307 161.744 32.8 161.744 31.968C161.744 31.136 161.893 30.4053 162.192 29.776C162.491 29.136 162.907 28.64 163.44 28.288C163.984 27.936 164.608 27.76 165.312 27.76C165.941 27.76 166.491 27.8987 166.96 28.176C167.429 28.4533 167.787 28.8427 168.032 29.344V27.952H169.312ZM165.568 35.04C166.357 35.04 166.965 34.7733 167.392 34.24C167.819 33.696 168.032 32.928 168.032 31.936C168.032 30.944 167.819 30.1813 167.392 29.648C166.965 29.1147 166.357 28.848 165.568 28.848C164.779 28.848 164.16 29.1253 163.712 29.68C163.275 30.224 163.056 30.9867 163.056 31.968C163.056 32.9493 163.275 33.7067 163.712 34.24C164.149 34.7733 164.768 35.04 165.568 35.04ZM174.037 36.112C172.683 36.112 171.611 35.7653 170.821 35.072L171.253 34.112C171.691 34.4533 172.133 34.6987 172.581 34.848C173.029 34.9973 173.531 35.072 174.085 35.072C174.693 35.072 175.152 34.9707 175.461 34.768C175.781 34.5547 175.941 34.2507 175.941 33.856C175.941 33.536 175.835 33.28 175.621 33.088C175.408 32.896 175.056 32.7467 174.565 32.64L173.205 32.32C172.533 32.1707 172.011 31.904 171.637 31.52C171.275 31.136 171.093 30.6773 171.093 30.144C171.093 29.44 171.376 28.8693 171.941 28.432C172.507 27.984 173.253 27.76 174.181 27.76C174.747 27.76 175.28 27.8507 175.781 28.032C176.283 28.2133 176.704 28.4747 177.045 28.816L176.613 29.76C175.856 29.1307 175.045 28.816 174.181 28.816C173.605 28.816 173.157 28.928 172.837 29.152C172.528 29.3653 172.373 29.6693 172.373 30.064C172.373 30.3947 172.469 30.656 172.661 30.848C172.864 31.04 173.184 31.1893 173.621 31.296L174.981 31.632C175.728 31.8027 176.283 32.0693 176.645 32.432C177.008 32.784 177.189 33.248 177.189 33.824C177.189 34.5173 176.907 35.072 176.341 35.488C175.776 35.904 175.008 36.112 174.037 36.112ZM185.491 31.936H179.587C179.597 32.96 179.832 33.7333 180.291 34.256C180.76 34.7787 181.437 35.04 182.323 35.04C183.261 35.04 184.125 34.7253 184.915 34.096L185.347 35.04C184.995 35.3707 184.541 35.632 183.987 35.824C183.443 36.016 182.883 36.112 182.307 36.112C181.048 36.112 180.061 35.744 179.347 35.008C178.632 34.2613 178.275 33.2427 178.275 31.952C178.275 31.1307 178.435 30.4053 178.755 29.776C179.075 29.136 179.523 28.64 180.099 28.288C180.675 27.936 181.331 27.76 182.067 27.76C183.133 27.76 183.971 28.112 184.579 28.816C185.187 29.5093 185.491 30.4693 185.491 31.696V31.936ZM182.083 28.768C181.411 28.768 180.861 28.9707 180.435 29.376C180.019 29.7813 179.752 30.352 179.635 31.088H184.323C184.259 30.3307 184.035 29.7547 183.651 29.36C183.277 28.9653 182.755 28.768 182.083 28.768ZM194.373 27.76C194.64 27.76 194.885 27.792 195.109 27.856L195.077 29.04C194.832 28.9547 194.549 28.912 194.229 28.912C193.451 28.912 192.869 29.1573 192.485 29.648C192.112 30.128 191.925 30.7147 191.925 31.408V36H190.629V30.208C190.629 29.376 190.587 28.624 190.501 27.952H191.733L191.861 29.44C192.064 28.896 192.389 28.48 192.837 28.192C193.285 27.904 193.797 27.76 194.373 27.76ZM202.506 31.936H196.602C196.612 32.96 196.847 33.7333 197.306 34.256C197.775 34.7787 198.452 35.04 199.338 35.04C200.276 35.04 201.14 34.7253 201.93 34.096L202.362 35.04C202.01 35.3707 201.556 35.632 201.002 35.824C200.458 36.016 199.898 36.112 199.322 36.112C198.063 36.112 197.076 35.744 196.362 35.008C195.647 34.2613 195.29 33.2427 195.29 31.952C195.29 31.1307 195.45 30.4053 195.77 29.776C196.09 29.136 196.538 28.64 197.114 28.288C197.69 27.936 198.346 27.76 199.082 27.76C200.148 27.76 200.986 28.112 201.594 28.816C202.202 29.5093 202.506 30.4693 202.506 31.696V31.936ZM199.098 28.768C198.426 28.768 197.876 28.9707 197.45 29.376C197.034 29.7813 196.767 30.352 196.65 31.088H201.338C201.274 30.3307 201.05 29.7547 200.666 29.36C200.292 28.9653 199.77 28.768 199.098 28.768ZM205.654 28.976V33.376C205.654 33.9733 205.776 34.3947 206.022 34.64C206.267 34.8747 206.614 34.992 207.062 34.992C207.36 34.992 207.648 34.944 207.926 34.848V35.952C207.595 36.0587 207.222 36.112 206.806 36.112C206.038 36.112 205.435 35.8987 204.998 35.472C204.571 35.0347 204.358 34.3947 204.358 33.552V28.976H202.79V27.952H204.358V25.888L205.654 25.424V27.952H207.958V28.976H205.654ZM215.755 31.936H209.851C209.862 32.96 210.097 33.7333 210.555 34.256C211.025 34.7787 211.702 35.04 212.587 35.04C213.526 35.04 214.39 34.7253 215.179 34.096L215.611 35.04C215.259 35.3707 214.806 35.632 214.251 35.824C213.707 36.016 213.147 36.112 212.571 36.112C211.313 36.112 210.326 35.744 209.611 35.008C208.897 34.2613 208.539 33.2427 208.539 31.952C208.539 31.1307 208.699 30.4053 209.019 29.776C209.339 29.136 209.787 28.64 210.363 28.288C210.939 27.936 211.595 27.76 212.331 27.76C213.398 27.76 214.235 28.112 214.843 28.816C215.451 29.5093 215.755 30.4693 215.755 31.696V31.936ZM212.347 28.768C211.675 28.768 211.126 28.9707 210.699 29.376C210.283 29.7813 210.017 30.352 209.899 31.088H214.587C214.523 30.3307 214.299 29.7547 213.915 29.36C213.542 28.9653 213.019 28.768 212.347 28.768ZM221.238 27.76C223.169 27.76 224.134 28.8213 224.134 30.944V36H222.838V31.008C222.838 30.2613 222.689 29.7173 222.39 29.376C222.092 29.024 221.622 28.848 220.982 28.848C220.236 28.848 219.638 29.0773 219.19 29.536C218.742 29.9947 218.518 30.6133 218.518 31.392V36H217.222V30.208C217.222 29.376 217.18 28.624 217.094 27.952H218.326L218.454 29.392C218.7 28.8693 219.068 28.4693 219.558 28.192C220.049 27.904 220.609 27.76 221.238 27.76ZM227.809 28.976V33.376C227.809 33.9733 227.932 34.3947 228.177 34.64C228.423 34.8747 228.769 34.992 229.217 34.992C229.516 34.992 229.804 34.944 230.081 34.848V35.952C229.751 36.0587 229.377 36.112 228.961 36.112C228.193 36.112 227.591 35.8987 227.153 35.472C226.727 35.0347 226.513 34.3947 226.513 33.552V28.976H224.945V27.952H226.513V25.888L227.809 25.424V27.952H230.113V28.976H227.809ZM231.175 27.952H232.471V36H231.175V27.952ZM232.631 24.544V26.016H231.047V24.544H232.631ZM237.815 36.112C237.058 36.112 236.391 35.9413 235.815 35.6C235.239 35.2587 234.791 34.7733 234.471 34.144C234.162 33.5147 234.007 32.7787 234.007 31.936C234.007 31.0933 234.162 30.3573 234.471 29.728C234.791 29.0987 235.239 28.6133 235.815 28.272C236.391 27.9307 237.058 27.76 237.815 27.76C238.573 27.76 239.239 27.9307 239.815 28.272C240.391 28.6133 240.834 29.0987 241.143 29.728C241.463 30.3573 241.623 31.0933 241.623 31.936C241.623 32.7787 241.463 33.5147 241.143 34.144C240.834 34.7733 240.391 35.2587 239.815 35.6C239.239 35.9413 238.573 36.112 237.815 36.112ZM237.815 35.04C238.615 35.04 239.229 34.7787 239.655 34.256C240.082 33.7227 240.295 32.9493 240.295 31.936C240.295 30.9547 240.077 30.1973 239.639 29.664C239.202 29.12 238.594 28.848 237.815 28.848C237.026 28.848 236.413 29.12 235.975 29.664C235.538 30.1973 235.319 30.9547 235.319 31.936C235.319 32.9493 235.533 33.7227 235.959 34.256C236.397 34.7787 237.015 35.04 237.815 35.04ZM247.159 27.76C249.09 27.76 250.055 28.8213 250.055 30.944V36H248.759V31.008C248.759 30.2613 248.61 29.7173 248.311 29.376C248.013 29.024 247.543 28.848 246.903 28.848C246.157 28.848 245.559 29.0773 245.111 29.536C244.663 29.9947 244.439 30.6133 244.439 31.392V36H243.143V30.208C243.143 29.376 243.101 28.624 243.015 27.952H244.247L244.375 29.392C244.621 28.8693 244.989 28.4693 245.479 28.192C245.97 27.904 246.53 27.76 247.159 27.76ZM253.426 34.352V36H251.778V34.352H253.426Z" fill="#696871"/>
</svg>
