<svg width="136" height="19" viewBox="0 0 136 19" fill="none" xmlns="http://www.w3.org/2000/svg">
<path d="M0.71545 18V1.2H7.45945C9.20345 1.2 10.5315 1.608 11.4435 2.424C12.3715 3.224 12.8355 4.256 12.8355 5.52C12.8355 6.576 12.5475 7.424 11.9715 8.064C11.4115 8.688 10.7235 9.112 9.90745 9.336C10.8675 9.528 11.6595 10.008 12.2835 10.776C12.9075 11.528 13.2195 12.408 13.2195 13.416C13.2195 14.744 12.7395 15.84 11.7795 16.704C10.8195 17.568 9.45945 18 7.69945 18H0.71545ZM3.78745 8.256H7.00345C7.86745 8.256 8.53145 8.056 8.99545 7.656C9.45945 7.256 9.69145 6.688 9.69145 5.952C9.69145 5.248 9.45945 4.696 8.99545 4.296C8.54745 3.88 7.86745 3.672 6.95545 3.672H3.78745V8.256ZM3.78745 15.504H7.21945C8.13145 15.504 8.83545 15.296 9.33145 14.88C9.84345 14.448 10.0995 13.848 10.0995 13.08C10.0995 12.296 9.83545 11.68 9.30745 11.232C8.77945 10.784 8.06745 10.56 7.17145 10.56H3.78745V15.504ZM20.8178 18.288C19.6178 18.288 18.5538 18.032 17.6258 17.52C16.6978 17.008 15.9698 16.288 15.4418 15.36C14.9138 14.432 14.6498 13.36 14.6498 12.144C14.6498 10.912 14.9058 9.816 15.4178 8.856C15.9458 7.896 16.6658 7.152 17.5778 6.624C18.5058 6.08 19.5938 5.808 20.8418 5.808C22.0098 5.808 23.0418 6.064 23.9378 6.576C24.8338 7.088 25.5298 7.792 26.0258 8.688C26.5378 9.568 26.7938 10.552 26.7938 11.64C26.7938 11.816 26.7858 12 26.7698 12.192C26.7698 12.384 26.7618 12.584 26.7458 12.792H17.6978C17.7618 13.72 18.0818 14.448 18.6578 14.976C19.2498 15.504 19.9618 15.768 20.7938 15.768C21.4178 15.768 21.9378 15.632 22.3538 15.36C22.7858 15.072 23.1058 14.704 23.3138 14.256H26.4338C26.2098 15.008 25.8338 15.696 25.3058 16.32C24.7938 16.928 24.1538 17.408 23.3858 17.76C22.6338 18.112 21.7778 18.288 20.8178 18.288ZM20.8418 8.304C20.0898 8.304 19.4258 8.52 18.8498 8.952C18.2738 9.368 17.9058 10.008 17.7458 10.872H23.6738C23.6258 10.088 23.3378 9.464 22.8098 9C22.2818 8.536 21.6258 8.304 20.8418 8.304ZM28.6272 18V6.096H31.3392L31.5792 8.112C31.9472 7.408 32.4752 6.848 33.1632 6.432C33.8672 6.016 34.6912 5.808 35.6352 5.808C37.1072 5.808 38.2512 6.272 39.0672 7.2C39.8832 8.128 40.2912 9.488 40.2912 11.28V18H37.2192V11.568C37.2192 10.544 37.0112 9.76 36.5952 9.216C36.1792 8.672 35.5312 8.4 34.6512 8.4C33.7872 8.4 33.0752 8.704 32.5152 9.312C31.9712 9.92 31.6992 10.768 31.6992 11.856V18H28.6272ZM48.3104 18.288C47.0944 18.288 46.0224 18.024 45.0944 17.496C44.1664 16.968 43.4304 16.232 42.8864 15.288C42.3584 14.344 42.0944 13.264 42.0944 12.048C42.0944 10.832 42.3584 9.752 42.8864 8.808C43.4304 7.864 44.1664 7.128 45.0944 6.6C46.0224 6.072 47.0944 5.808 48.3104 5.808C49.8304 5.808 51.1104 6.208 52.1504 7.008C53.1904 7.792 53.8544 8.88 54.1424 10.272H50.9024C50.7424 9.696 50.4224 9.248 49.9424 8.928C49.4784 8.592 48.9264 8.424 48.2864 8.424C47.4384 8.424 46.7184 8.744 46.1264 9.384C45.5344 10.024 45.2384 10.912 45.2384 12.048C45.2384 13.184 45.5344 14.072 46.1264 14.712C46.7184 15.352 47.4384 15.672 48.2864 15.672C48.9264 15.672 49.4784 15.512 49.9424 15.192C50.4224 14.872 50.7424 14.416 50.9024 13.824H54.1424C53.8544 15.168 53.1904 16.248 52.1504 17.064C51.1104 17.88 49.8304 18.288 48.3104 18.288ZM56.1188 18V0.719999H59.1908V7.92C59.5908 7.264 60.1268 6.752 60.7988 6.384C61.4868 6 62.2708 5.808 63.1508 5.808C64.6228 5.808 65.7588 6.272 66.5588 7.2C67.3748 8.128 67.7828 9.488 67.7828 11.28V18H64.7348V11.568C64.7348 10.544 64.5268 9.76 64.1108 9.216C63.7108 8.672 63.0708 8.4 62.1908 8.4C61.3268 8.4 60.6068 8.704 60.0308 9.312C59.4708 9.92 59.1908 10.768 59.1908 11.856V18H56.1188ZM69.97 18V6.096H72.682L72.946 7.704C73.33 7.128 73.834 6.672 74.458 6.336C75.098 5.984 75.834 5.808 76.666 5.808C78.506 5.808 79.81 6.52 80.578 7.944C81.01 7.288 81.586 6.768 82.306 6.384C83.042 6 83.842 5.808 84.706 5.808C86.258 5.808 87.45 6.272 88.282 7.2C89.114 8.128 89.53 9.488 89.53 11.28V18H86.458V11.568C86.458 10.544 86.258 9.76 85.858 9.216C85.474 8.672 84.874 8.4 84.058 8.4C83.226 8.4 82.554 8.704 82.042 9.312C81.546 9.92 81.298 10.768 81.298 11.856V18H78.226V11.568C78.226 10.544 78.026 9.76 77.626 9.216C77.226 8.672 76.61 8.4 75.778 8.4C74.962 8.4 74.298 8.704 73.786 9.312C73.29 9.92 73.042 10.768 73.042 11.856V18H69.97ZM95.8002 18.288C94.7762 18.288 93.9362 18.128 93.2802 17.808C92.6242 17.472 92.1362 17.032 91.8162 16.488C91.4962 15.944 91.3362 15.344 91.3362 14.688C91.3362 13.584 91.7682 12.688 92.6322 12C93.4962 11.312 94.7922 10.968 96.5202 10.968H99.5442V10.68C99.5442 9.864 99.3122 9.264 98.8482 8.88C98.3842 8.496 97.8082 8.304 97.1202 8.304C96.4962 8.304 95.9522 8.456 95.4882 8.76C95.0242 9.048 94.7362 9.48 94.6242 10.056H91.6242C91.7042 9.192 91.9922 8.44 92.4882 7.8C93.0002 7.16 93.6562 6.672 94.4562 6.336C95.2562 5.984 96.1522 5.808 97.1442 5.808C98.8402 5.808 100.176 6.232 101.152 7.08C102.128 7.928 102.616 9.128 102.616 10.68V18H100L99.7122 16.08C99.3602 16.72 98.8642 17.248 98.2242 17.664C97.6002 18.08 96.7922 18.288 95.8002 18.288ZM96.4962 15.888C97.3762 15.888 98.0562 15.6 98.5362 15.024C99.0322 14.448 99.3442 13.736 99.4722 12.888H96.8562C96.0402 12.888 95.4562 13.04 95.1042 13.344C94.7522 13.632 94.5762 13.992 94.5762 14.424C94.5762 14.888 94.7522 15.248 95.1042 15.504C95.4562 15.76 95.9202 15.888 96.4962 15.888ZM104.797 18V6.096H107.533L107.821 8.328C108.253 7.56 108.837 6.952 109.573 6.504C110.325 6.04 111.205 5.808 112.213 5.808V9.048H111.349C110.677 9.048 110.077 9.152 109.549 9.36C109.021 9.568 108.605 9.928 108.301 10.44C108.013 10.952 107.869 11.664 107.869 12.576V18H104.797ZM113.563 18V0.719999H116.635V10.92L120.859 6.096H124.507L119.635 11.52L125.299 18H121.459L116.635 12.024V18H113.563ZM130.787 18.288C129.731 18.288 128.803 18.12 128.003 17.784C127.203 17.432 126.563 16.952 126.083 16.344C125.603 15.736 125.315 15.032 125.219 14.232H128.315C128.411 14.696 128.667 15.096 129.083 15.432C129.515 15.752 130.067 15.912 130.739 15.912C131.411 15.912 131.899 15.776 132.203 15.504C132.523 15.232 132.683 14.92 132.683 14.568C132.683 14.056 132.459 13.712 132.011 13.536C131.563 13.344 130.939 13.16 130.139 12.984C129.627 12.872 129.107 12.736 128.579 12.576C128.051 12.416 127.563 12.216 127.115 11.976C126.683 11.72 126.331 11.4 126.059 11.016C125.787 10.616 125.651 10.128 125.651 9.552C125.651 8.496 126.067 7.608 126.899 6.888C127.747 6.168 128.931 5.808 130.451 5.808C131.859 5.808 132.979 6.136 133.811 6.792C134.659 7.448 135.163 8.352 135.323 9.504H132.419C132.243 8.624 131.579 8.184 130.427 8.184C129.851 8.184 129.403 8.296 129.083 8.52C128.779 8.744 128.627 9.024 128.627 9.36C128.627 9.712 128.859 9.992 129.323 10.2C129.787 10.408 130.403 10.6 131.171 10.776C132.003 10.968 132.763 11.184 133.451 11.424C134.155 11.648 134.715 11.992 135.131 12.456C135.547 12.904 135.755 13.552 135.755 14.4C135.771 15.136 135.579 15.8 135.179 16.392C134.779 16.984 134.203 17.448 133.451 17.784C132.699 18.12 131.811 18.288 130.787 18.288Z" fill="#19191B"/>
</svg>
