<svg width="296" height="40" viewBox="0 0 296 40" fill="none" xmlns="http://www.w3.org/2000/svg">
<path d="M6.50132 6.144C7.15199 6.32533 7.65865 6.656 8.02132 7.136C8.38399 7.60533 8.56532 8.192 8.56532 8.896C8.56532 9.888 8.23465 10.656 7.57332 11.2C6.91199 11.7333 5.97865 12 4.77332 12H0.0373183V0.608H4.61332C5.77599 0.608 6.67732 0.869333 7.31732 1.392C7.96799 1.904 8.29332 2.63467 8.29332 3.584C8.29332 4.192 8.13332 4.72 7.81332 5.168C7.50399 5.60533 7.06665 5.93067 6.50132 6.144ZM1.33332 5.664H4.40532C5.25865 5.664 5.90399 5.49333 6.34132 5.152C6.77865 4.81067 6.99732 4.30933 6.99732 3.648C6.99732 2.34667 6.13332 1.696 4.40532 1.696H1.33332V5.664ZM4.66132 10.912C5.55732 10.912 6.21332 10.7467 6.62932 10.416C7.05599 10.0747 7.26932 9.55733 7.26932 8.864C7.26932 7.46667 6.39999 6.768 4.66132 6.768H1.33332V10.912H4.66132ZM17.0037 7.936H11.0997C11.1104 8.96 11.3451 9.73333 11.8037 10.256C12.2731 10.7787 12.9504 11.04 13.8357 11.04C14.7744 11.04 15.6384 10.7253 16.4277 10.096L16.8597 11.04C16.5077 11.3707 16.0544 11.632 15.4997 11.824C14.9557 12.016 14.3957 12.112 13.8197 12.112C12.5611 12.112 11.5744 11.744 10.8597 11.008C10.1451 10.2613 9.78773 9.24267 9.78773 7.952C9.78773 7.13067 9.94773 6.40533 10.2677 5.776C10.5877 5.136 11.0357 4.64 11.6117 4.288C12.1877 3.936 12.8437 3.76 13.5797 3.76C14.6464 3.76 15.4837 4.112 16.0917 4.816C16.6997 5.50933 17.0037 6.46933 17.0037 7.696V7.936ZM13.5957 4.768C12.9237 4.768 12.3744 4.97067 11.9477 5.376C11.5317 5.78133 11.2651 6.352 11.1477 7.088H15.8357C15.7717 6.33067 15.5477 5.75467 15.1637 5.36C14.7904 4.96533 14.2677 4.768 13.5957 4.768ZM22.4866 3.76C24.4173 3.76 25.3826 4.82133 25.3826 6.944V12H24.0866V7.008C24.0866 6.26133 23.9373 5.71733 23.6386 5.376C23.34 5.024 22.8706 4.848 22.2306 4.848C21.484 4.848 20.8866 5.07733 20.4386 5.536C19.9906 5.99467 19.7666 6.61333 19.7666 7.392V12H18.4706V6.208C18.4706 5.376 18.428 4.624 18.3426 3.952H19.5746L19.7026 5.392C19.948 4.86933 20.316 4.46933 20.8066 4.192C21.2973 3.904 21.8573 3.76 22.4866 3.76ZM30.7058 12.112C29.9271 12.112 29.2445 11.9413 28.6578 11.6C28.0818 11.2587 27.6338 10.7787 27.3138 10.16C27.0045 9.53067 26.8498 8.8 26.8498 7.968C26.8498 7.136 27.0098 6.40533 27.3298 5.776C27.6498 5.136 28.1031 4.64 28.6898 4.288C29.2871 3.936 29.9805 3.76 30.7698 3.76C31.3138 3.76 31.8365 3.856 32.3378 4.048C32.8498 4.22933 33.2711 4.48533 33.6018 4.816L33.1698 5.776C32.7645 5.456 32.3698 5.22133 31.9858 5.072C31.6125 4.92267 31.2285 4.848 30.8338 4.848C30.0125 4.848 29.3671 5.12533 28.8978 5.68C28.4285 6.224 28.1938 6.98667 28.1938 7.968C28.1938 8.93867 28.4231 9.696 28.8818 10.24C29.3511 10.7733 30.0018 11.04 30.8338 11.04C31.2285 11.04 31.6125 10.9653 31.9858 10.816C32.3698 10.6667 32.7645 10.432 33.1698 10.112L33.6018 11.072C33.2605 11.392 32.8285 11.648 32.3058 11.84C31.7938 12.0213 31.2605 12.112 30.7058 12.112ZM38.7675 3.76C40.6981 3.76 41.6635 4.82133 41.6635 6.944V12H40.3675V7.008C40.3675 6.26133 40.2181 5.71733 39.9195 5.376C39.6208 5.024 39.1515 4.848 38.5115 4.848C37.7648 4.848 37.1675 5.07733 36.7195 5.536C36.2715 5.99467 36.0475 6.61333 36.0475 7.392V12H34.7515V0.223999H36.0475V5.264C36.3035 4.77333 36.6661 4.4 37.1355 4.144C37.6155 3.888 38.1595 3.76 38.7675 3.76ZM52.5386 3.76C54.32 3.76 55.2106 4.82133 55.2106 6.944V12H53.9146V7.008C53.9146 6.25067 53.7813 5.70133 53.5146 5.36C53.2586 5.01867 52.8373 4.848 52.2506 4.848C51.568 4.848 51.0346 5.07733 50.6506 5.536C50.2666 5.99467 50.0746 6.61867 50.0746 7.408V12H48.7786V7.008C48.7786 6.26133 48.6453 5.71733 48.3786 5.376C48.112 5.024 47.6853 4.848 47.0986 4.848C46.416 4.848 45.8773 5.07733 45.4826 5.536C45.0986 5.99467 44.9066 6.61867 44.9066 7.408V12H43.6106V6.208C43.6106 5.376 43.568 4.624 43.4826 3.952H44.7146L44.8426 5.36C45.0666 4.848 45.3973 4.45333 45.8346 4.176C46.2826 3.89867 46.8 3.76 47.3866 3.76C48.0266 3.76 48.5493 3.888 48.9546 4.144C49.36 4.4 49.6586 4.79467 49.8506 5.328C50.096 4.848 50.4533 4.46933 50.9226 4.192C51.4026 3.904 51.9413 3.76 52.5386 3.76ZM64.2609 3.952V12H62.9809V10.544C62.7463 11.0453 62.3889 11.4347 61.9089 11.712C61.4396 11.9787 60.8903 12.112 60.2609 12.112C59.5463 12.112 58.9169 11.9413 58.3729 11.6C57.8396 11.2587 57.4236 10.7787 57.1249 10.16C56.8369 9.53067 56.6929 8.8 56.6929 7.968C56.6929 7.136 56.8423 6.40533 57.1409 5.776C57.4396 5.136 57.8556 4.64 58.3889 4.288C58.9329 3.936 59.5569 3.76 60.2609 3.76C60.8903 3.76 61.4396 3.89867 61.9089 4.176C62.3783 4.45333 62.7356 4.84267 62.9809 5.344V3.952H64.2609ZM60.5169 11.04C61.3063 11.04 61.9143 10.7733 62.3409 10.24C62.7676 9.696 62.9809 8.928 62.9809 7.936C62.9809 6.944 62.7676 6.18133 62.3409 5.648C61.9143 5.11467 61.3063 4.848 60.5169 4.848C59.7276 4.848 59.1089 5.12533 58.6609 5.68C58.2236 6.224 58.0049 6.98667 58.0049 7.968C58.0049 8.94933 58.2236 9.70667 58.6609 10.24C59.0983 10.7733 59.7169 11.04 60.5169 11.04ZM70.0105 3.76C70.2771 3.76 70.5225 3.792 70.7465 3.856L70.7145 5.04C70.4691 4.95467 70.1865 4.912 69.8665 4.912C69.0878 4.912 68.5065 5.15733 68.1225 5.648C67.7491 6.128 67.5625 6.71467 67.5625 7.408V12H66.2665V6.208C66.2665 5.376 66.2238 4.624 66.1385 3.952H67.3705L67.4985 5.44C67.7011 4.896 68.0265 4.48 68.4745 4.192C68.9225 3.904 69.4345 3.76 70.0105 3.76ZM76.9871 12L72.8591 8.128V12H71.5631V0.223999H72.8591V7.648L76.6511 3.968H78.2991L74.2671 7.824L78.6831 12H76.9871ZM84.697 4.976V9.376C84.697 9.97333 84.8196 10.3947 85.065 10.64C85.3103 10.8747 85.657 10.992 86.105 10.992C86.4036 10.992 86.6916 10.944 86.969 10.848V11.952C86.6383 12.0587 86.265 12.112 85.849 12.112C85.081 12.112 84.4783 11.8987 84.041 11.472C83.6143 11.0347 83.401 10.3947 83.401 9.552V4.976H81.833V3.952H83.401V1.888L84.697 1.424V3.952H87.001V4.976H84.697ZM92.0785 3.76C94.0092 3.76 94.9745 4.82133 94.9745 6.944V12H93.6785V7.008C93.6785 6.26133 93.5292 5.71733 93.2305 5.376C92.9318 5.024 92.4625 4.848 91.8225 4.848C91.0758 4.848 90.4785 5.07733 90.0305 5.536C89.5825 5.99467 89.3585 6.61333 89.3585 7.392V12H88.0625V0.223999H89.3585V5.264C89.6145 4.77333 89.9772 4.4 90.4465 4.144C90.9265 3.888 91.4705 3.76 92.0785 3.76ZM103.658 7.936H97.7537C97.7643 8.96 97.999 9.73333 98.4577 10.256C98.927 10.7787 99.6043 11.04 100.49 11.04C101.428 11.04 102.292 10.7253 103.082 10.096L103.514 11.04C103.162 11.3707 102.708 11.632 102.154 11.824C101.61 12.016 101.05 12.112 100.474 12.112C99.215 12.112 98.2283 11.744 97.5137 11.008C96.799 10.2613 96.4417 9.24267 96.4417 7.952C96.4417 7.13067 96.6017 6.40533 96.9217 5.776C97.2417 5.136 97.6897 4.64 98.2657 4.288C98.8417 3.936 99.4977 3.76 100.234 3.76C101.3 3.76 102.138 4.112 102.746 4.816C103.354 5.50933 103.658 6.46933 103.658 7.696V7.936ZM100.25 4.768C99.5777 4.768 99.0283 4.97067 98.6017 5.376C98.1857 5.78133 97.919 6.352 97.8017 7.088H102.49C102.426 6.33067 102.202 5.75467 101.818 5.36C101.444 4.96533 100.922 4.768 100.25 4.768ZM112.812 3.76C114.743 3.76 115.708 4.82133 115.708 6.944V12H114.412V7.008C114.412 6.26133 114.263 5.71733 113.964 5.376C113.666 5.024 113.196 4.848 112.556 4.848C111.81 4.848 111.212 5.07733 110.764 5.536C110.316 5.99467 110.092 6.61333 110.092 7.392V12H108.796V0.223999H110.092V5.264C110.348 4.77333 110.711 4.4 111.18 4.144C111.66 3.888 112.204 3.76 112.812 3.76ZM124.391 7.936H118.487C118.498 8.96 118.733 9.73333 119.191 10.256C119.661 10.7787 120.338 11.04 121.223 11.04C122.162 11.04 123.026 10.7253 123.815 10.096L124.247 11.04C123.895 11.3707 123.442 11.632 122.887 11.824C122.343 12.016 121.783 12.112 121.207 12.112C119.949 12.112 118.962 11.744 118.247 11.008C117.533 10.2613 117.175 9.24267 117.175 7.952C117.175 7.13067 117.335 6.40533 117.655 5.776C117.975 5.136 118.423 4.64 118.999 4.288C119.575 3.936 120.231 3.76 120.967 3.76C122.034 3.76 122.871 4.112 123.479 4.816C124.087 5.50933 124.391 6.46933 124.391 7.696V7.936ZM120.983 4.768C120.311 4.768 119.762 4.97067 119.335 5.376C118.919 5.78133 118.653 6.352 118.535 7.088H123.223C123.159 6.33067 122.935 5.75467 122.551 5.36C122.178 4.96533 121.655 4.768 120.983 4.768ZM132.946 3.952V12H131.666V10.544C131.432 11.0453 131.074 11.4347 130.594 11.712C130.125 11.9787 129.576 12.112 128.946 12.112C128.232 12.112 127.602 11.9413 127.058 11.6C126.525 11.2587 126.109 10.7787 125.81 10.16C125.522 9.53067 125.378 8.8 125.378 7.968C125.378 7.136 125.528 6.40533 125.826 5.776C126.125 5.136 126.541 4.64 127.074 4.288C127.618 3.936 128.242 3.76 128.946 3.76C129.576 3.76 130.125 3.89867 130.594 4.176C131.064 4.45333 131.421 4.84267 131.666 5.344V3.952H132.946ZM129.202 11.04C129.992 11.04 130.6 10.7733 131.026 10.24C131.453 9.696 131.666 8.928 131.666 7.936C131.666 6.944 131.453 6.18133 131.026 5.648C130.6 5.11467 129.992 4.848 129.202 4.848C128.413 4.848 127.794 5.12533 127.346 5.68C126.909 6.224 126.69 6.98667 126.69 7.968C126.69 8.94933 126.909 9.70667 127.346 10.24C127.784 10.7733 128.402 11.04 129.202 11.04ZM134.952 0.223999H136.248V12H134.952V0.223999ZM139.992 4.976V9.376C139.992 9.97333 140.115 10.3947 140.36 10.64C140.605 10.8747 140.952 10.992 141.4 10.992C141.699 10.992 141.987 10.944 142.264 10.848V11.952C141.933 12.0587 141.56 12.112 141.144 12.112C140.376 12.112 139.773 11.8987 139.336 11.472C138.909 11.0347 138.696 10.3947 138.696 9.552V4.976H137.128V3.952H138.696V1.888L139.992 1.424V3.952H142.296V4.976H139.992ZM147.374 3.76C149.304 3.76 150.27 4.82133 150.27 6.944V12H148.974V7.008C148.974 6.26133 148.824 5.71733 148.526 5.376C148.227 5.024 147.758 4.848 147.118 4.848C146.371 4.848 145.774 5.07733 145.326 5.536C144.878 5.99467 144.654 6.61333 144.654 7.392V12H143.358V0.223999H144.654V5.264C144.91 4.77333 145.272 4.4 145.742 4.144C146.222 3.888 146.766 3.76 147.374 3.76ZM159.217 12.112C158.459 12.112 157.793 11.9413 157.217 11.6C156.641 11.2587 156.193 10.7733 155.873 10.144C155.563 9.51467 155.409 8.77867 155.409 7.936C155.409 7.09333 155.563 6.35733 155.873 5.728C156.193 5.09867 156.641 4.61333 157.217 4.272C157.793 3.93067 158.459 3.76 159.217 3.76C159.974 3.76 160.641 3.93067 161.217 4.272C161.793 4.61333 162.235 5.09867 162.545 5.728C162.865 6.35733 163.025 7.09333 163.025 7.936C163.025 8.77867 162.865 9.51467 162.545 10.144C162.235 10.7733 161.793 11.2587 161.217 11.6C160.641 11.9413 159.974 12.112 159.217 12.112ZM159.217 11.04C160.017 11.04 160.63 10.7787 161.057 10.256C161.483 9.72267 161.697 8.94933 161.697 7.936C161.697 6.95467 161.478 6.19733 161.041 5.664C160.603 5.12 159.995 4.848 159.217 4.848C158.427 4.848 157.814 5.12 157.377 5.664C156.939 6.19733 156.721 6.95467 156.721 7.936C156.721 8.94933 156.934 9.72267 157.361 10.256C157.798 10.7787 158.417 11.04 159.217 11.04ZM167.617 1.28C167.19 1.28 166.854 1.40267 166.609 1.648C166.374 1.88267 166.257 2.29333 166.257 2.88V3.952H168.225V4.976H166.257V12H164.961V4.976H163.393V3.952H164.961V2.72C164.961 1.87733 165.169 1.24267 165.585 0.815999C166.012 0.378666 166.604 0.16 167.361 0.16C167.734 0.16 168.097 0.208 168.449 0.304V1.408C168.15 1.32267 167.873 1.28 167.617 1.28ZM180.163 3.952L176.403 12.736C176.008 13.6533 175.512 14.3253 174.915 14.752C174.318 15.1787 173.582 15.472 172.707 15.632L172.435 14.624C173.192 14.4533 173.763 14.224 174.147 13.936C174.542 13.6587 174.867 13.2267 175.123 12.64L175.443 11.92L172.035 3.952H173.395L176.115 10.592L178.867 3.952H180.163ZM184.325 12.112C183.568 12.112 182.901 11.9413 182.325 11.6C181.749 11.2587 181.301 10.7733 180.981 10.144C180.672 9.51467 180.517 8.77867 180.517 7.936C180.517 7.09333 180.672 6.35733 180.981 5.728C181.301 5.09867 181.749 4.61333 182.325 4.272C182.901 3.93067 183.568 3.76 184.325 3.76C185.082 3.76 185.749 3.93067 186.325 4.272C186.901 4.61333 187.344 5.09867 187.653 5.728C187.973 6.35733 188.133 7.09333 188.133 7.936C188.133 8.77867 187.973 9.51467 187.653 10.144C187.344 10.7733 186.901 11.2587 186.325 11.6C185.749 11.9413 185.082 12.112 184.325 12.112ZM184.325 11.04C185.125 11.04 185.738 10.7787 186.165 10.256C186.592 9.72267 186.805 8.94933 186.805 7.936C186.805 6.95467 186.586 6.19733 186.149 5.664C185.712 5.12 185.104 4.848 184.325 4.848C183.536 4.848 182.922 5.12 182.485 5.664C182.048 6.19733 181.829 6.95467 181.829 7.936C181.829 8.94933 182.042 9.72267 182.469 10.256C182.906 10.7787 183.525 11.04 184.325 11.04ZM196.389 3.952V12H195.125V10.608C194.869 11.0987 194.512 11.472 194.053 11.728C193.594 11.984 193.077 12.112 192.501 12.112C191.552 12.112 190.832 11.8453 190.341 11.312C189.85 10.7787 189.605 9.98933 189.605 8.944V3.952H190.901V8.912C190.901 9.63733 191.05 10.1707 191.349 10.512C191.648 10.8533 192.101 11.024 192.709 11.024C193.424 11.024 194 10.7947 194.437 10.336C194.874 9.86667 195.093 9.25333 195.093 8.496V3.952H196.389ZM202.131 3.76C202.398 3.76 202.643 3.792 202.867 3.856L202.835 5.04C202.59 4.95467 202.307 4.912 201.987 4.912C201.209 4.912 200.627 5.15733 200.243 5.648C199.87 6.128 199.683 6.71467 199.683 7.408V12H198.387V6.208C198.387 5.376 198.345 4.624 198.259 3.952H199.491L199.619 5.44C199.822 4.896 200.147 4.48 200.595 4.192C201.043 3.904 201.555 3.76 202.131 3.76ZM216.284 3.76C218.065 3.76 218.956 4.82133 218.956 6.944V12H217.66V7.008C217.66 6.25067 217.526 5.70133 217.26 5.36C217.004 5.01867 216.582 4.848 215.996 4.848C215.313 4.848 214.78 5.07733 214.396 5.536C214.012 5.99467 213.82 6.61867 213.82 7.408V12H212.524V7.008C212.524 6.26133 212.39 5.71733 212.124 5.376C211.857 5.024 211.43 4.848 210.844 4.848C210.161 4.848 209.622 5.07733 209.228 5.536C208.844 5.99467 208.652 6.61867 208.652 7.408V12H207.356V6.208C207.356 5.376 207.313 4.624 207.228 3.952H208.46L208.588 5.36C208.812 4.848 209.142 4.45333 209.58 4.176C210.028 3.89867 210.545 3.76 211.132 3.76C211.772 3.76 212.294 3.888 212.7 4.144C213.105 4.4 213.404 4.79467 213.596 5.328C213.841 4.848 214.198 4.46933 214.668 4.192C215.148 3.904 215.686 3.76 216.284 3.76ZM224.246 12.112C223.489 12.112 222.822 11.9413 222.246 11.6C221.67 11.2587 221.222 10.7733 220.902 10.144C220.593 9.51467 220.438 8.77867 220.438 7.936C220.438 7.09333 220.593 6.35733 220.902 5.728C221.222 5.09867 221.67 4.61333 222.246 4.272C222.822 3.93067 223.489 3.76 224.246 3.76C225.003 3.76 225.67 3.93067 226.246 4.272C226.822 4.61333 227.265 5.09867 227.574 5.728C227.894 6.35733 228.054 7.09333 228.054 7.936C228.054 8.77867 227.894 9.51467 227.574 10.144C227.265 10.7733 226.822 11.2587 226.246 11.6C225.67 11.9413 225.003 12.112 224.246 12.112ZM224.246 11.04C225.046 11.04 225.659 10.7787 226.086 10.256C226.513 9.72267 226.726 8.94933 226.726 7.936C226.726 6.95467 226.507 6.19733 226.07 5.664C225.633 5.12 225.025 4.848 224.246 4.848C223.457 4.848 222.843 5.12 222.406 5.664C221.969 6.19733 221.75 6.95467 221.75 7.936C221.75 8.94933 221.963 9.72267 222.39 10.256C222.827 10.7787 223.446 11.04 224.246 11.04ZM233.59 3.76C235.521 3.76 236.486 4.82133 236.486 6.944V12H235.19V7.008C235.19 6.26133 235.041 5.71733 234.742 5.376C234.443 5.024 233.974 4.848 233.334 4.848C232.587 4.848 231.99 5.07733 231.542 5.536C231.094 5.99467 230.87 6.61333 230.87 7.392V12H229.574V6.208C229.574 5.376 229.531 4.624 229.446 3.952H230.678L230.806 5.392C231.051 4.86933 231.419 4.46933 231.91 4.192C232.401 3.904 232.961 3.76 233.59 3.76ZM245.169 7.936H239.265C239.276 8.96 239.51 9.73333 239.969 10.256C240.438 10.7787 241.116 11.04 242.001 11.04C242.94 11.04 243.804 10.7253 244.593 10.096L245.025 11.04C244.673 11.3707 244.22 11.632 243.665 11.824C243.121 12.016 242.561 12.112 241.985 12.112C240.726 12.112 239.74 11.744 239.025 11.008C238.31 10.2613 237.953 9.24267 237.953 7.952C237.953 7.13067 238.113 6.40533 238.433 5.776C238.753 5.136 239.201 4.64 239.777 4.288C240.353 3.936 241.009 3.76 241.745 3.76C242.812 3.76 243.649 4.112 244.257 4.816C244.865 5.50933 245.169 6.46933 245.169 7.696V7.936ZM241.761 4.768C241.089 4.768 240.54 4.97067 240.113 5.376C239.697 5.78133 239.43 6.352 239.313 7.088H244.001C243.937 6.33067 243.713 5.75467 243.329 5.36C242.956 4.96533 242.433 4.768 241.761 4.768ZM248.317 4.976V9.376C248.317 9.97333 248.44 10.3947 248.685 10.64C248.93 10.8747 249.277 10.992 249.725 10.992C250.024 10.992 250.312 10.944 250.589 10.848V11.952C250.258 12.0587 249.885 12.112 249.469 12.112C248.701 12.112 248.098 11.8987 247.661 11.472C247.234 11.0347 247.021 10.3947 247.021 9.552V4.976H245.453V3.952H247.021V1.888L248.317 1.424V3.952H250.621V4.976H248.317ZM251.683 3.952H252.979V12H251.683V3.952ZM253.139 0.544V2.016H251.555V0.544H253.139ZM261.347 10.976V12H254.547V11.104L259.619 4.976H254.723V3.952H261.171V4.896L256.147 10.976H261.347ZM269.692 3.952V12H268.412V10.544C268.177 11.0453 267.82 11.4347 267.34 11.712C266.871 11.9787 266.321 12.112 265.692 12.112C264.977 12.112 264.348 11.9413 263.804 11.6C263.271 11.2587 262.855 10.7787 262.556 10.16C262.268 9.53067 262.124 8.8 262.124 7.968C262.124 7.136 262.273 6.40533 262.572 5.776C262.871 5.136 263.287 4.64 263.82 4.288C264.364 3.936 264.988 3.76 265.692 3.76C266.321 3.76 266.871 3.89867 267.34 4.176C267.809 4.45333 268.167 4.84267 268.412 5.344V3.952H269.692ZM265.948 11.04C266.737 11.04 267.345 10.7733 267.772 10.24C268.199 9.696 268.412 8.928 268.412 7.936C268.412 6.944 268.199 6.18133 267.772 5.648C267.345 5.11467 266.737 4.848 265.948 4.848C265.159 4.848 264.54 5.12533 264.092 5.68C263.655 6.224 263.436 6.98667 263.436 7.968C263.436 8.94933 263.655 9.70667 264.092 10.24C264.529 10.7733 265.148 11.04 265.948 11.04ZM273.426 4.976V9.376C273.426 9.97333 273.548 10.3947 273.794 10.64C274.039 10.8747 274.386 10.992 274.834 10.992C275.132 10.992 275.42 10.944 275.698 10.848V11.952C275.367 12.0587 274.994 12.112 274.578 12.112C273.81 12.112 273.207 11.8987 272.77 11.472C272.343 11.0347 272.13 10.3947 272.13 9.552V4.976H270.562V3.952H272.13V1.888L273.426 1.424V3.952H275.73V4.976H273.426ZM276.791 3.952H278.087V12H276.791V3.952ZM278.247 0.544V2.016H276.663V0.544H278.247ZM283.431 12.112C282.674 12.112 282.007 11.9413 281.431 11.6C280.855 11.2587 280.407 10.7733 280.087 10.144C279.778 9.51467 279.623 8.77867 279.623 7.936C279.623 7.09333 279.778 6.35733 280.087 5.728C280.407 5.09867 280.855 4.61333 281.431 4.272C282.007 3.93067 282.674 3.76 283.431 3.76C284.189 3.76 284.855 3.93067 285.431 4.272C286.007 4.61333 286.45 5.09867 286.759 5.728C287.079 6.35733 287.239 7.09333 287.239 7.936C287.239 8.77867 287.079 9.51467 286.759 10.144C286.45 10.7733 286.007 11.2587 285.431 11.6C284.855 11.9413 284.189 12.112 283.431 12.112ZM283.431 11.04C284.231 11.04 284.845 10.7787 285.271 10.256C285.698 9.72267 285.911 8.94933 285.911 7.936C285.911 6.95467 285.693 6.19733 285.255 5.664C284.818 5.12 284.21 4.848 283.431 4.848C282.642 4.848 282.029 5.12 281.591 5.664C281.154 6.19733 280.935 6.95467 280.935 7.936C280.935 8.94933 281.149 9.72267 281.575 10.256C282.013 10.7787 282.631 11.04 283.431 11.04ZM292.776 3.76C294.706 3.76 295.672 4.82133 295.672 6.944V12H294.376V7.008C294.376 6.26133 294.226 5.71733 293.928 5.376C293.629 5.024 293.16 4.848 292.52 4.848C291.773 4.848 291.176 5.07733 290.728 5.536C290.28 5.99467 290.056 6.61333 290.056 7.392V12H288.76V6.208C288.76 5.376 288.717 4.624 288.632 3.952H289.864L289.992 5.392C290.237 4.86933 290.605 4.46933 291.096 4.192C291.586 3.904 292.146 3.76 292.776 3.76ZM85.2912 27.952V36H84.0112V34.544C83.7766 35.0453 83.4192 35.4347 82.9392 35.712C82.4699 35.9787 81.9206 36.112 81.2912 36.112C80.5766 36.112 79.9472 35.9413 79.4032 35.6C78.8699 35.2587 78.4539 34.7787 78.1552 34.16C77.8672 33.5307 77.7232 32.8 77.7232 31.968C77.7232 31.136 77.8726 30.4053 78.1712 29.776C78.4699 29.136 78.8859 28.64 79.4192 28.288C79.9632 27.936 80.5872 27.76 81.2912 27.76C81.9206 27.76 82.4699 27.8987 82.9392 28.176C83.4086 28.4533 83.7659 28.8427 84.0112 29.344V27.952H85.2912ZM81.5472 35.04C82.3366 35.04 82.9446 34.7733 83.3712 34.24C83.7979 33.696 84.0112 32.928 84.0112 31.936C84.0112 30.944 83.7979 30.1813 83.3712 29.648C82.9446 29.1147 82.3366 28.848 81.5472 28.848C80.7579 28.848 80.1392 29.1253 79.6912 29.68C79.2539 30.224 79.0352 30.9867 79.0352 31.968C79.0352 32.9493 79.2539 33.7067 79.6912 34.24C80.1286 34.7733 80.7472 35.04 81.5472 35.04ZM91.3128 27.76C93.2434 27.76 94.2088 28.8213 94.2088 30.944V36H92.9128V31.008C92.9128 30.2613 92.7634 29.7173 92.4648 29.376C92.1661 29.024 91.6968 28.848 91.0568 28.848C90.3101 28.848 89.7128 29.0773 89.2648 29.536C88.8168 29.9947 88.5928 30.6133 88.5928 31.392V36H87.2968V30.208C87.2968 29.376 87.2541 28.624 87.1688 27.952H88.4008L88.5288 29.392C88.7741 28.8693 89.1421 28.4693 89.6328 28.192C90.1234 27.904 90.6834 27.76 91.3128 27.76ZM103.244 24.224V36H101.964V34.544C101.729 35.0453 101.372 35.4347 100.892 35.712C100.423 35.9787 99.8733 36.112 99.2439 36.112C98.5399 36.112 97.9159 35.936 97.3719 35.584C96.8386 35.232 96.4226 34.7413 96.1239 34.112C95.8253 33.472 95.6759 32.736 95.6759 31.904C95.6759 31.072 95.8199 30.3467 96.1079 29.728C96.4066 29.0987 96.8279 28.6133 97.3719 28.272C97.9159 27.9307 98.5399 27.76 99.2439 27.76C99.8733 27.76 100.423 27.8987 100.892 28.176C101.361 28.4427 101.713 28.8213 101.948 29.312V24.224H103.244ZM99.4999 35.04C100.289 35.04 100.897 34.7733 101.324 34.24C101.751 33.696 101.964 32.928 101.964 31.936C101.964 30.9547 101.751 30.1973 101.324 29.664C100.897 29.12 100.289 28.848 99.4999 28.848C98.7106 28.848 98.0919 29.1147 97.6439 29.648C97.2066 30.1813 96.9879 30.9333 96.9879 31.904C96.9879 32.896 97.2066 33.6693 97.6439 34.224C98.0919 34.768 98.7106 35.04 99.4999 35.04ZM112.937 27.76C113.641 27.76 114.265 27.936 114.809 28.288C115.353 28.64 115.774 29.136 116.073 29.776C116.372 30.4053 116.521 31.136 116.521 31.968C116.521 32.8 116.372 33.5307 116.073 34.16C115.774 34.7787 115.353 35.2587 114.809 35.6C114.276 35.9413 113.652 36.112 112.937 36.112C112.308 36.112 111.758 35.9733 111.289 35.696C110.82 35.4187 110.462 35.024 110.217 34.512V39.456H108.921V30.208C108.921 29.376 108.878 28.624 108.793 27.952H110.025L110.153 29.504C110.377 28.9493 110.729 28.5227 111.209 28.224C111.7 27.9147 112.276 27.76 112.937 27.76ZM112.697 35.04C113.486 35.04 114.094 34.7733 114.521 34.24C114.958 33.7067 115.177 32.9493 115.177 31.968C115.177 30.9867 114.958 30.224 114.521 29.68C114.084 29.1253 113.476 28.848 112.697 28.848C111.897 28.848 111.284 29.1147 110.857 29.648C110.43 30.1813 110.217 30.944 110.217 31.936C110.217 32.928 110.43 33.696 110.857 34.24C111.284 34.7733 111.897 35.04 112.697 35.04ZM121.759 27.76C122.025 27.76 122.271 27.792 122.495 27.856L122.463 29.04C122.217 28.9547 121.935 28.912 121.615 28.912C120.836 28.912 120.255 29.1573 119.871 29.648C119.497 30.128 119.311 30.7147 119.311 31.408V36H118.015V30.208C118.015 29.376 117.972 28.624 117.887 27.952H119.119L119.247 29.44C119.449 28.896 119.775 28.48 120.223 28.192C120.671 27.904 121.183 27.76 121.759 27.76ZM123.311 27.952H124.607V36H123.311V27.952ZM124.767 24.544V26.016H123.183V24.544H124.767ZM130 36.112C129.221 36.112 128.538 35.9413 127.952 35.6C127.376 35.2587 126.928 34.7787 126.608 34.16C126.298 33.5307 126.144 32.8 126.144 31.968C126.144 31.136 126.304 30.4053 126.624 29.776C126.944 29.136 127.397 28.64 127.984 28.288C128.581 27.936 129.274 27.76 130.064 27.76C130.608 27.76 131.13 27.856 131.632 28.048C132.144 28.2293 132.565 28.4853 132.896 28.816L132.464 29.776C132.058 29.456 131.664 29.2213 131.28 29.072C130.906 28.9227 130.522 28.848 130.128 28.848C129.306 28.848 128.661 29.1253 128.192 29.68C127.722 30.224 127.488 30.9867 127.488 31.968C127.488 32.9387 127.717 33.696 128.176 34.24C128.645 34.7733 129.296 35.04 130.128 35.04C130.522 35.04 130.906 34.9653 131.28 34.816C131.664 34.6667 132.058 34.432 132.464 34.112L132.896 35.072C132.554 35.392 132.122 35.648 131.6 35.84C131.088 36.0213 130.554 36.112 130 36.112ZM134.045 27.952H135.341V36H134.045V27.952ZM135.501 24.544V26.016H133.917V24.544H135.501ZM141.374 27.76C143.304 27.76 144.27 28.8213 144.27 30.944V36H142.974V31.008C142.974 30.2613 142.824 29.7173 142.526 29.376C142.227 29.024 141.758 28.848 141.118 28.848C140.371 28.848 139.774 29.0773 139.326 29.536C138.878 29.9947 138.654 30.6133 138.654 31.392V36H137.358V30.208C137.358 29.376 137.315 28.624 137.23 27.952H138.462L138.59 29.392C138.835 28.8693 139.203 28.4693 139.694 28.192C140.184 27.904 140.744 27.76 141.374 27.76ZM153.385 27.952V35.936C153.385 37.1307 153.075 38.032 152.457 38.64C151.849 39.2587 150.947 39.568 149.753 39.568C148.526 39.568 147.47 39.2907 146.585 38.736L146.809 37.68C147.321 37.968 147.801 38.176 148.249 38.304C148.707 38.432 149.209 38.496 149.753 38.496C150.531 38.496 151.118 38.288 151.513 37.872C151.907 37.4667 152.105 36.8587 152.105 36.048V34.144C151.859 34.656 151.497 35.056 151.017 35.344C150.547 35.6213 149.987 35.76 149.337 35.76C148.633 35.76 148.003 35.5947 147.449 35.264C146.905 34.9333 146.483 34.464 146.185 33.856C145.886 33.248 145.737 32.5493 145.737 31.76C145.737 30.9707 145.886 30.272 146.185 29.664C146.483 29.056 146.905 28.5867 147.449 28.256C148.003 27.9253 148.633 27.76 149.337 27.76C149.977 27.76 150.531 27.8987 151.001 28.176C151.481 28.4533 151.843 28.8427 152.089 29.344V27.952H153.385ZM149.593 34.672C150.371 34.672 150.979 34.416 151.417 33.904C151.865 33.3813 152.089 32.6667 152.089 31.76C152.089 30.8533 151.865 30.144 151.417 29.632C150.979 29.1093 150.371 28.848 149.593 28.848C148.803 28.848 148.179 29.1093 147.721 29.632C147.273 30.144 147.049 30.8533 147.049 31.76C147.049 32.6667 147.273 33.3813 147.721 33.904C148.179 34.416 148.803 34.672 149.593 34.672ZM161.764 36.112C160.41 36.112 159.338 35.7653 158.548 35.072L158.98 34.112C159.418 34.4533 159.86 34.6987 160.308 34.848C160.756 34.9973 161.258 35.072 161.812 35.072C162.42 35.072 162.879 34.9707 163.188 34.768C163.508 34.5547 163.668 34.2507 163.668 33.856C163.668 33.536 163.562 33.28 163.348 33.088C163.135 32.896 162.783 32.7467 162.292 32.64L160.932 32.32C160.26 32.1707 159.738 31.904 159.364 31.52C159.002 31.136 158.82 30.6773 158.82 30.144C158.82 29.44 159.103 28.8693 159.668 28.432C160.234 27.984 160.98 27.76 161.908 27.76C162.474 27.76 163.007 27.8507 163.508 28.032C164.01 28.2133 164.431 28.4747 164.772 28.816L164.34 29.76C163.583 29.1307 162.772 28.816 161.908 28.816C161.332 28.816 160.884 28.928 160.564 29.152C160.255 29.3653 160.1 29.6693 160.1 30.064C160.1 30.3947 160.196 30.656 160.388 30.848C160.591 31.04 160.911 31.1893 161.348 31.296L162.708 31.632C163.455 31.8027 164.01 32.0693 164.372 32.432C164.735 32.784 164.916 33.248 164.916 33.824C164.916 34.5173 164.634 35.072 164.068 35.488C163.503 35.904 162.735 36.112 161.764 36.112ZM168.132 28.976V33.376C168.132 33.9733 168.254 34.3947 168.5 34.64C168.745 34.8747 169.092 34.992 169.54 34.992C169.838 34.992 170.126 34.944 170.404 34.848V35.952C170.073 36.0587 169.7 36.112 169.284 36.112C168.516 36.112 167.913 35.8987 167.476 35.472C167.049 35.0347 166.836 34.3947 166.836 33.552V28.976H165.268V27.952H166.836V25.888L168.132 25.424V27.952H170.436V28.976H168.132ZM175.241 27.76C175.508 27.76 175.753 27.792 175.977 27.856L175.945 29.04C175.7 28.9547 175.417 28.912 175.097 28.912C174.318 28.912 173.737 29.1573 173.353 29.648C172.98 30.128 172.793 30.7147 172.793 31.408V36H171.497V30.208C171.497 29.376 171.454 28.624 171.369 27.952H172.601L172.729 29.44C172.932 28.896 173.257 28.48 173.705 28.192C174.153 27.904 174.665 27.76 175.241 27.76ZM183.726 27.952V36H182.446V34.544C182.211 35.0453 181.854 35.4347 181.374 35.712C180.904 35.9787 180.355 36.112 179.726 36.112C179.011 36.112 178.382 35.9413 177.838 35.6C177.304 35.2587 176.888 34.7787 176.59 34.16C176.302 33.5307 176.158 32.8 176.158 31.968C176.158 31.136 176.307 30.4053 176.606 29.776C176.904 29.136 177.32 28.64 177.854 28.288C178.398 27.936 179.022 27.76 179.726 27.76C180.355 27.76 180.904 27.8987 181.374 28.176C181.843 28.4533 182.2 28.8427 182.446 29.344V27.952H183.726ZM179.982 35.04C180.771 35.04 181.379 34.7733 181.806 34.24C182.232 33.696 182.446 32.928 182.446 31.936C182.446 30.944 182.232 30.1813 181.806 29.648C181.379 29.1147 180.771 28.848 179.982 28.848C179.192 28.848 178.574 29.1253 178.126 29.68C177.688 30.224 177.47 30.9867 177.47 31.968C177.47 32.9493 177.688 33.7067 178.126 34.24C178.563 34.7733 179.182 35.04 179.982 35.04ZM187.459 28.976V33.376C187.459 33.9733 187.582 34.3947 187.827 34.64C188.072 34.8747 188.419 34.992 188.867 34.992C189.166 34.992 189.454 34.944 189.731 34.848V35.952C189.4 36.0587 189.027 36.112 188.611 36.112C187.843 36.112 187.24 35.8987 186.803 35.472C186.376 35.0347 186.163 34.3947 186.163 33.552V28.976H184.595V27.952H186.163V25.888L187.459 25.424V27.952H189.763V28.976H187.459ZM197.561 31.936H191.657C191.667 32.96 191.902 33.7333 192.361 34.256C192.83 34.7787 193.507 35.04 194.393 35.04C195.331 35.04 196.195 34.7253 196.985 34.096L197.417 35.04C197.065 35.3707 196.611 35.632 196.057 35.824C195.513 36.016 194.953 36.112 194.377 36.112C193.118 36.112 192.131 35.744 191.417 35.008C190.702 34.2613 190.345 33.2427 190.345 31.952C190.345 31.1307 190.505 30.4053 190.825 29.776C191.145 29.136 191.593 28.64 192.169 28.288C192.745 27.936 193.401 27.76 194.137 27.76C195.203 27.76 196.041 28.112 196.649 28.816C197.257 29.5093 197.561 30.4693 197.561 31.696V31.936ZM194.153 28.768C193.481 28.768 192.931 28.9707 192.505 29.376C192.089 29.7813 191.822 30.352 191.705 31.088H196.393C196.329 30.3307 196.105 29.7547 195.721 29.36C195.347 28.9653 194.825 28.768 194.153 28.768ZM206.196 27.952V35.936C206.196 37.1307 205.886 38.032 205.268 38.64C204.66 39.2587 203.758 39.568 202.564 39.568C201.337 39.568 200.281 39.2907 199.396 38.736L199.62 37.68C200.132 37.968 200.612 38.176 201.06 38.304C201.518 38.432 202.02 38.496 202.564 38.496C203.342 38.496 203.929 38.288 204.324 37.872C204.718 37.4667 204.916 36.8587 204.916 36.048V34.144C204.67 34.656 204.308 35.056 203.828 35.344C203.358 35.6213 202.798 35.76 202.148 35.76C201.444 35.76 200.814 35.5947 200.26 35.264C199.716 34.9333 199.294 34.464 198.996 33.856C198.697 33.248 198.548 32.5493 198.548 31.76C198.548 30.9707 198.697 30.272 198.996 29.664C199.294 29.056 199.716 28.5867 200.26 28.256C200.814 27.9253 201.444 27.76 202.148 27.76C202.788 27.76 203.342 27.8987 203.812 28.176C204.292 28.4533 204.654 28.8427 204.9 29.344V27.952H206.196ZM202.404 34.672C203.182 34.672 203.79 34.416 204.228 33.904C204.676 33.3813 204.9 32.6667 204.9 31.76C204.9 30.8533 204.676 30.144 204.228 29.632C203.79 29.1093 203.182 28.848 202.404 28.848C201.614 28.848 200.99 29.1093 200.532 29.632C200.084 30.144 199.86 30.8533 199.86 31.76C199.86 32.6667 200.084 33.3813 200.532 33.904C200.99 34.416 201.614 34.672 202.404 34.672ZM215.256 27.952L211.496 36.736C211.101 37.6533 210.605 38.3253 210.008 38.752C209.41 39.1787 208.674 39.472 207.8 39.632L207.528 38.624C208.285 38.4533 208.856 38.224 209.24 37.936C209.634 37.6587 209.96 37.2267 210.216 36.64L210.536 35.92L207.128 27.952H208.488L211.208 34.592L213.96 27.952H215.256ZM217.014 34.352V36H215.366V34.352H217.014Z" fill="#696871"/>
</svg>
