<svg width="501" height="128" viewBox="0 0 501 128" fill="none" xmlns="http://www.w3.org/2000/svg">
<path d="M21.44 44.72C17.48 44.72 14.02 43.82 11.06 42.02C8.1 40.22 5.8 37.72 4.16 34.52C2.52 31.28 1.7 27.52 1.7 23.24C1.7 18.92 2.54 15.12 4.22 11.84C5.94 8.52 8.36 5.94 11.48 4.1C14.64 2.22 18.38 1.28 22.7 1.28C27.62 1.28 31.7 2.46 34.94 4.82C38.18 7.18 40.28 10.44 41.24 14.6H32.66C32.02 12.64 30.86 11.12 29.18 10.04C27.5 8.92 25.34 8.36 22.7 8.36C18.5 8.36 15.26 9.7 12.98 12.38C10.7 15.02 9.56 18.66 9.56 23.3C9.56 27.94 10.68 31.54 12.92 34.1C15.2 36.62 18.28 37.88 22.16 37.88C25.96 37.88 28.82 36.86 30.74 34.82C32.7 32.74 33.88 30.02 34.28 26.66H23.66V20.9H42.02V44H34.94L34.34 38.48C32.98 40.48 31.28 42.02 29.24 43.1C27.2 44.18 24.6 44.72 21.44 44.72ZM61.8905 44.72C58.8905 44.72 56.2305 44.08 53.9105 42.8C51.5905 41.52 49.7705 39.72 48.4505 37.4C47.1305 35.08 46.4705 32.4 46.4705 29.36C46.4705 26.28 47.1105 23.54 48.3905 21.14C49.7105 18.74 51.5105 16.88 53.7905 15.56C56.1105 14.2 58.8305 13.52 61.9505 13.52C64.8705 13.52 67.4505 14.16 69.6905 15.44C71.9305 16.72 73.6705 18.48 74.9105 20.72C76.1905 22.92 76.8305 25.38 76.8305 28.1C76.8305 28.54 76.8105 29 76.7705 29.48C76.7705 29.96 76.7505 30.46 76.7105 30.98H54.0905C54.2505 33.3 55.0505 35.12 56.4905 36.44C57.9705 37.76 59.7505 38.42 61.8305 38.42C63.3905 38.42 64.6905 38.08 65.7305 37.4C66.8105 36.68 67.6105 35.76 68.1305 34.64H75.9305C75.3705 36.52 74.4305 38.24 73.1105 39.8C71.8305 41.32 70.2305 42.52 68.3105 43.4C66.4305 44.28 64.2905 44.72 61.8905 44.72ZM61.9505 19.76C60.0705 19.76 58.4105 20.3 56.9705 21.38C55.5305 22.42 54.6105 24.02 54.2105 26.18H69.0305C68.9105 24.22 68.1905 22.66 66.8705 21.5C65.5505 20.34 63.9105 19.76 61.9505 19.76ZM94.1467 44C91.0267 44 88.5267 43.24 86.6467 41.72C84.7667 40.2 83.8267 37.5 83.8267 33.62V20.66H78.7267V14.24H83.8267L84.7267 6.26H91.5067V14.24H99.5467V20.66H91.5067V33.68C91.5067 35.12 91.8067 36.12 92.4067 36.68C93.0467 37.2 94.1267 37.46 95.6467 37.46H99.3667V44H94.1467ZM129.946 44C126.826 44 124.326 43.24 122.446 41.72C120.566 40.2 119.626 37.5 119.626 33.62V20.66H114.526V14.24H119.626L120.526 6.26H127.306V14.24H135.346V20.66H127.306V33.68C127.306 35.12 127.606 36.12 128.206 36.68C128.846 37.2 129.926 37.46 131.446 37.46H135.166V44H129.946ZM140.064 44V0.799998H147.744V18.8C148.744 17.16 150.084 15.88 151.764 14.96C153.484 14 155.444 13.52 157.644 13.52C161.324 13.52 164.164 14.68 166.164 17C168.204 19.32 169.224 22.72 169.224 27.2V44H161.604V27.92C161.604 25.36 161.084 23.4 160.044 22.04C159.044 20.68 157.444 20 155.244 20C153.084 20 151.284 20.76 149.844 22.28C148.444 23.8 147.744 25.92 147.744 28.64V44H140.064ZM189.152 44.72C186.152 44.72 183.492 44.08 181.172 42.8C178.852 41.52 177.032 39.72 175.712 37.4C174.392 35.08 173.732 32.4 173.732 29.36C173.732 26.28 174.372 23.54 175.652 21.14C176.972 18.74 178.772 16.88 181.052 15.56C183.372 14.2 186.092 13.52 189.212 13.52C192.132 13.52 194.712 14.16 196.952 15.44C199.192 16.72 200.932 18.48 202.172 20.72C203.452 22.92 204.092 25.38 204.092 28.1C204.092 28.54 204.072 29 204.032 29.48C204.032 29.96 204.012 30.46 203.972 30.98H181.352C181.512 33.3 182.312 35.12 183.752 36.44C185.232 37.76 187.012 38.42 189.092 38.42C190.652 38.42 191.952 38.08 192.992 37.4C194.072 36.68 194.872 35.76 195.392 34.64H203.192C202.632 36.52 201.692 38.24 200.372 39.8C199.092 41.32 197.492 42.52 195.572 43.4C193.692 44.28 191.552 44.72 189.152 44.72ZM189.212 19.76C187.332 19.76 185.672 20.3 184.232 21.38C182.792 22.42 181.872 24.02 181.472 26.18H196.292C196.172 24.22 195.452 22.66 194.132 21.5C192.812 20.34 191.172 19.76 189.212 19.76ZM221.097 44V14.24H227.937L228.657 19.82C229.737 17.9 231.197 16.38 233.037 15.26C234.917 14.1 237.117 13.52 239.637 13.52V21.62H237.477C235.797 21.62 234.297 21.88 232.977 22.4C231.657 22.92 230.617 23.82 229.857 25.1C229.137 26.38 228.777 28.16 228.777 30.44V44H221.097ZM247.15 9.62C245.75 9.62 244.59 9.2 243.67 8.36C242.79 7.52 242.35 6.46 242.35 5.18C242.35 3.9 242.79 2.86 243.67 2.06C244.59 1.22 245.75 0.799998 247.15 0.799998C248.55 0.799998 249.69 1.22 250.57 2.06C251.49 2.86 251.95 3.9 251.95 5.18C251.95 6.46 251.49 7.52 250.57 8.36C249.69 9.2 248.55 9.62 247.15 9.62ZM243.31 44V14.24H250.99V44H243.31ZM269.73 35.12C268.29 35.12 266.95 34.96 265.71 34.64L263.49 36.86C264.17 37.22 265.09 37.52 266.25 37.76C267.41 38 269.29 38.24 271.89 38.48C275.85 38.84 278.73 39.78 280.53 41.3C282.33 42.82 283.23 44.92 283.23 47.6C283.23 49.36 282.75 51.02 281.79 52.58C280.83 54.18 279.35 55.46 277.35 56.42C275.35 57.42 272.79 57.92 269.67 57.92C265.43 57.92 262.01 57.12 259.41 55.52C256.81 53.96 255.51 51.6 255.51 48.44C255.51 45.76 256.81 43.44 259.41 41.48C258.61 41.12 257.91 40.74 257.31 40.34C256.75 39.94 256.25 39.52 255.81 39.08V37.7L261.03 32.18C258.71 30.14 257.55 27.52 257.55 24.32C257.55 22.32 258.03 20.5 258.99 18.86C259.99 17.22 261.39 15.92 263.19 14.96C264.99 14 267.17 13.52 269.73 13.52C271.41 13.52 272.97 13.76 274.41 14.24H285.69V18.92L280.59 19.28C281.39 20.8 281.79 22.48 281.79 24.32C281.79 26.32 281.31 28.14 280.35 29.78C279.39 31.42 277.99 32.72 276.15 33.68C274.35 34.64 272.21 35.12 269.73 35.12ZM269.73 29.24C271.29 29.24 272.57 28.82 273.57 27.98C274.61 27.14 275.13 25.94 275.13 24.38C275.13 22.82 274.61 21.62 273.57 20.78C272.57 19.94 271.29 19.52 269.73 19.52C268.09 19.52 266.77 19.94 265.77 20.78C264.77 21.62 264.27 22.82 264.27 24.38C264.27 25.94 264.77 27.14 265.77 27.98C266.77 28.82 268.09 29.24 269.73 29.24ZM262.53 47.66C262.53 49.14 263.21 50.24 264.57 50.96C265.97 51.72 267.67 52.1 269.67 52.1C271.59 52.1 273.15 51.7 274.35 50.9C275.55 50.14 276.15 49.1 276.15 47.78C276.15 46.7 275.75 45.8 274.95 45.08C274.19 44.36 272.65 43.92 270.33 43.76C268.69 43.64 267.17 43.46 265.77 43.22C264.61 43.86 263.77 44.56 263.25 45.32C262.77 46.08 262.53 46.86 262.53 47.66ZM289.415 44V0.799998H297.095V18.8C298.095 17.16 299.435 15.88 301.115 14.96C302.835 14 304.795 13.52 306.995 13.52C310.675 13.52 313.515 14.68 315.515 17C317.555 19.32 318.575 22.72 318.575 27.2V44H310.955V27.92C310.955 25.36 310.435 23.4 309.395 22.04C308.395 20.68 306.795 20 304.595 20C302.435 20 300.635 20.76 299.195 22.28C297.795 23.8 297.095 25.92 297.095 28.64V44H289.415ZM337.303 44C334.183 44 331.683 43.24 329.803 41.72C327.923 40.2 326.983 37.5 326.983 33.62V20.66H321.883V14.24H326.983L327.883 6.26H334.663V14.24H342.703V20.66H334.663V33.68C334.663 35.12 334.963 36.12 335.563 36.68C336.203 37.2 337.283 37.46 338.803 37.46H342.523V44H337.303ZM359.842 57.2V14.24H366.682L367.522 18.5C368.482 17.18 369.742 16.02 371.302 15.02C372.902 14.02 374.962 13.52 377.482 13.52C380.282 13.52 382.782 14.2 384.982 15.56C387.182 16.92 388.922 18.78 390.202 21.14C391.482 23.5 392.122 26.18 392.122 29.18C392.122 32.18 391.482 34.86 390.202 37.22C388.922 39.54 387.182 41.38 384.982 42.74C382.782 44.06 380.282 44.72 377.482 44.72C375.242 44.72 373.282 44.3 371.602 43.46C369.922 42.62 368.562 41.44 367.522 39.92V57.2H359.842ZM375.862 38C378.302 38 380.322 37.18 381.922 35.54C383.522 33.9 384.322 31.78 384.322 29.18C384.322 26.58 383.522 24.44 381.922 22.76C380.322 21.08 378.302 20.24 375.862 20.24C373.382 20.24 371.342 21.08 369.742 22.76C368.182 24.4 367.402 26.52 367.402 29.12C367.402 31.72 368.182 33.86 369.742 35.54C371.342 37.18 373.382 38 375.862 38ZM397.107 44V0.799998H404.787V44H397.107ZM421.018 44.72C418.458 44.72 416.358 44.32 414.718 43.52C413.078 42.68 411.858 41.58 411.058 40.22C410.258 38.86 409.858 37.36 409.858 35.72C409.858 32.96 410.938 30.72 413.098 29C415.258 27.28 418.498 26.42 422.818 26.42H430.378V25.7C430.378 23.66 429.798 22.16 428.638 21.2C427.478 20.24 426.038 19.76 424.318 19.76C422.758 19.76 421.398 20.14 420.238 20.9C419.078 21.62 418.358 22.7 418.078 24.14H410.578C410.778 21.98 411.498 20.1 412.738 18.5C414.018 16.9 415.658 15.68 417.658 14.84C419.658 13.96 421.898 13.52 424.378 13.52C428.618 13.52 431.958 14.58 434.398 16.7C436.838 18.82 438.058 21.82 438.058 25.7V44H431.518L430.798 39.2C429.918 40.8 428.678 42.12 427.078 43.16C425.518 44.2 423.498 44.72 421.018 44.72ZM422.758 38.72C424.958 38.72 426.658 38 427.858 36.56C429.098 35.12 429.878 33.34 430.198 31.22H423.658C421.618 31.22 420.158 31.6 419.278 32.36C418.398 33.08 417.958 33.98 417.958 35.06C417.958 36.22 418.398 37.12 419.278 37.76C420.158 38.4 421.318 38.72 422.758 38.72ZM443.512 44V14.24H450.292L450.892 19.28C451.812 17.52 453.132 16.12 454.852 15.08C456.612 14.04 458.672 13.52 461.032 13.52C464.712 13.52 467.572 14.68 469.612 17C471.652 19.32 472.672 22.72 472.672 27.2V44H464.992V27.92C464.992 25.36 464.472 23.4 463.432 22.04C462.392 20.68 460.772 20 458.572 20C456.412 20 454.632 20.76 453.232 22.28C451.872 23.8 451.192 25.92 451.192 28.64V44H443.512ZM4.28 114V90.66H0.2V84.24H4.28V80.76C4.28 77.16 5.18 74.6 6.98 73.08C8.82 71.56 11.3 70.8 14.42 70.8H17.72V77.34H15.62C14.3 77.34 13.36 77.6 12.8 78.12C12.24 78.64 11.96 79.52 11.96 80.76V84.24H18.38V90.66H11.96V114H4.28ZM35.6948 114.72C32.8148 114.72 30.2148 114.06 27.8948 112.74C25.6148 111.42 23.7948 109.6 22.4348 107.28C21.1148 104.92 20.4548 102.2 20.4548 99.12C20.4548 96.04 21.1348 93.34 22.4948 91.02C23.8548 88.66 25.6748 86.82 27.9548 85.5C30.2748 84.18 32.8748 83.52 35.7548 83.52C38.5948 83.52 41.1548 84.18 43.4348 85.5C45.7548 86.82 47.5748 88.66 48.8948 91.02C50.2548 93.34 50.9348 96.04 50.9348 99.12C50.9348 102.2 50.2548 104.92 48.8948 107.28C47.5748 109.6 45.7548 111.42 43.4348 112.74C41.1148 114.06 38.5348 114.72 35.6948 114.72ZM35.6948 108.06C37.6948 108.06 39.4348 107.32 40.9148 105.84C42.3948 104.32 43.1348 102.08 43.1348 99.12C43.1348 96.16 42.3948 93.94 40.9148 92.46C39.4348 90.94 37.7148 90.18 35.7548 90.18C33.7148 90.18 31.9548 90.94 30.4748 92.46C29.0348 93.94 28.3148 96.16 28.3148 99.12C28.3148 102.08 29.0348 104.32 30.4748 105.84C31.9548 107.32 33.6948 108.06 35.6948 108.06ZM55.9258 114V84.24H62.7658L63.4858 89.82C64.5658 87.9 66.0258 86.38 67.8658 85.26C69.7458 84.1 71.9458 83.52 74.4658 83.52V91.62H72.3058C70.6258 91.62 69.1258 91.88 67.8058 92.4C66.4858 92.92 65.4458 93.82 64.6858 95.1C63.9658 96.38 63.6058 98.16 63.6058 100.44V114H55.9258ZM91.6401 114V90.66H87.5601V84.24H91.6401V80.76C91.6401 77.16 92.5401 74.6 94.3401 73.08C96.1801 71.56 98.6601 70.8 101.78 70.8H105.08V77.34H102.98C101.66 77.34 100.72 77.6 100.16 78.12C99.6001 78.64 99.3201 79.52 99.3201 80.76V84.24H105.74V90.66H99.3201V114H91.6401ZM121.107 114.72C117.387 114.72 114.507 113.56 112.467 111.24C110.467 108.92 109.467 105.52 109.467 101.04V84.24H117.087V100.32C117.087 102.88 117.607 104.84 118.647 106.2C119.687 107.56 121.327 108.24 123.567 108.24C125.687 108.24 127.427 107.48 128.787 105.96C130.187 104.44 130.887 102.32 130.887 99.6V84.24H138.567V114H131.787L131.187 108.96C130.267 110.72 128.927 112.12 127.167 113.16C125.447 114.2 123.427 114.72 121.107 114.72ZM157.835 114C154.715 114 152.215 113.24 150.335 111.72C148.455 110.2 147.515 107.5 147.515 103.62V90.66H142.415V84.24H147.515L148.415 76.26H155.195V84.24H163.235V90.66H155.195V103.68C155.195 105.12 155.495 106.12 156.095 106.68C156.735 107.2 157.815 107.46 159.335 107.46H163.055V114H157.835ZM179.113 114.72C175.393 114.72 172.513 113.56 170.473 111.24C168.473 108.92 167.473 105.52 167.473 101.04V84.24H175.093V100.32C175.093 102.88 175.613 104.84 176.653 106.2C177.693 107.56 179.333 108.24 181.573 108.24C183.693 108.24 185.433 107.48 186.793 105.96C188.193 104.44 188.893 102.32 188.893 99.6V84.24H196.573V114H189.793L189.193 108.96C188.273 110.72 186.933 112.12 185.173 113.16C183.453 114.2 181.433 114.72 179.113 114.72ZM202.581 114V84.24H209.421L210.141 89.82C211.221 87.9 212.681 86.38 214.521 85.26C216.401 84.1 218.601 83.52 221.121 83.52V91.62H218.961C217.281 91.62 215.781 91.88 214.461 92.4C213.141 92.92 212.101 93.82 211.341 95.1C210.621 96.38 210.261 98.16 210.261 100.44V114H202.581ZM238.427 114.72C235.427 114.72 232.767 114.08 230.447 112.8C228.127 111.52 226.307 109.72 224.987 107.4C223.667 105.08 223.007 102.4 223.007 99.36C223.007 96.28 223.647 93.54 224.927 91.14C226.247 88.74 228.047 86.88 230.327 85.56C232.647 84.2 235.367 83.52 238.487 83.52C241.407 83.52 243.987 84.16 246.227 85.44C248.467 86.72 250.207 88.48 251.447 90.72C252.727 92.92 253.367 95.38 253.367 98.1C253.367 98.54 253.347 99 253.307 99.48C253.307 99.96 253.287 100.46 253.247 100.98H230.627C230.787 103.3 231.587 105.12 233.027 106.44C234.507 107.76 236.287 108.42 238.367 108.42C239.927 108.42 241.227 108.08 242.267 107.4C243.347 106.68 244.147 105.76 244.667 104.64H252.467C251.907 106.52 250.967 108.24 249.647 109.8C248.367 111.32 246.767 112.52 244.847 113.4C242.967 114.28 240.827 114.72 238.427 114.72ZM238.487 89.76C236.607 89.76 234.947 90.3 233.507 91.38C232.067 92.42 231.147 94.02 230.747 96.18H245.567C245.447 94.22 244.727 92.66 243.407 91.5C242.087 90.34 240.447 89.76 238.487 89.76ZM270.372 127.2V84.24H277.212L278.052 88.5C279.012 87.18 280.272 86.02 281.832 85.02C283.432 84.02 285.492 83.52 288.012 83.52C290.812 83.52 293.312 84.2 295.512 85.56C297.712 86.92 299.452 88.78 300.732 91.14C302.012 93.5 302.652 96.18 302.652 99.18C302.652 102.18 302.012 104.86 300.732 107.22C299.452 109.54 297.712 111.38 295.512 112.74C293.312 114.06 290.812 114.72 288.012 114.72C285.772 114.72 283.812 114.3 282.132 113.46C280.452 112.62 279.092 111.44 278.052 109.92V127.2H270.372ZM286.392 108C288.832 108 290.852 107.18 292.452 105.54C294.052 103.9 294.852 101.78 294.852 99.18C294.852 96.58 294.052 94.44 292.452 92.76C290.852 91.08 288.832 90.24 286.392 90.24C283.912 90.24 281.872 91.08 280.272 92.76C278.712 94.4 277.932 96.52 277.932 99.12C277.932 101.72 278.712 103.86 280.272 105.54C281.872 107.18 283.912 108 286.392 108ZM307.637 114V84.24H314.477L315.197 89.82C316.277 87.9 317.737 86.38 319.577 85.26C321.457 84.1 323.657 83.52 326.177 83.52V91.62H324.017C322.337 91.62 320.837 91.88 319.517 92.4C318.197 92.92 317.157 93.82 316.397 95.1C315.677 96.38 315.317 98.16 315.317 100.44V114H307.637ZM343.303 114.72C340.423 114.72 337.823 114.06 335.503 112.74C333.223 111.42 331.403 109.6 330.043 107.28C328.723 104.92 328.063 102.2 328.063 99.12C328.063 96.04 328.743 93.34 330.103 91.02C331.463 88.66 333.283 86.82 335.563 85.5C337.883 84.18 340.483 83.52 343.363 83.52C346.203 83.52 348.763 84.18 351.043 85.5C353.363 86.82 355.183 88.66 356.503 91.02C357.863 93.34 358.543 96.04 358.543 99.12C358.543 102.2 357.863 104.92 356.503 107.28C355.183 109.6 353.363 111.42 351.043 112.74C348.723 114.06 346.143 114.72 343.303 114.72ZM343.303 108.06C345.303 108.06 347.043 107.32 348.523 105.84C350.003 104.32 350.743 102.08 350.743 99.12C350.743 96.16 350.003 93.94 348.523 92.46C347.043 90.94 345.323 90.18 343.363 90.18C341.323 90.18 339.563 90.94 338.083 92.46C336.643 93.94 335.923 96.16 335.923 99.12C335.923 102.08 336.643 104.32 338.083 105.84C339.563 107.32 341.303 108.06 343.303 108.06ZM377.213 114.72C374.413 114.72 371.913 114.04 369.713 112.68C367.513 111.32 365.773 109.46 364.493 107.1C363.213 104.74 362.573 102.06 362.573 99.06C362.573 96.06 363.213 93.4 364.493 91.08C365.773 88.72 367.513 86.88 369.713 85.56C371.913 84.2 374.413 83.52 377.213 83.52C379.453 83.52 381.413 83.94 383.093 84.78C384.773 85.62 386.133 86.8 387.173 88.32V70.8H394.853V114H388.013L387.173 109.74C386.213 111.06 384.933 112.22 383.333 113.22C381.773 114.22 379.733 114.72 377.213 114.72ZM378.833 108C381.313 108 383.333 107.18 384.893 105.54C386.493 103.86 387.293 101.72 387.293 99.12C387.293 96.52 386.493 94.4 384.893 92.76C383.333 91.08 381.313 90.24 378.833 90.24C376.393 90.24 374.373 91.06 372.773 92.7C371.173 94.34 370.373 96.46 370.373 99.06C370.373 101.66 371.173 103.8 372.773 105.48C374.373 107.16 376.393 108 378.833 108ZM411.958 114.72C408.238 114.72 405.358 113.56 403.318 111.24C401.318 108.92 400.318 105.52 400.318 101.04V84.24H407.938V100.32C407.938 102.88 408.458 104.84 409.498 106.2C410.538 107.56 412.178 108.24 414.418 108.24C416.538 108.24 418.278 107.48 419.638 105.96C421.038 104.44 421.738 102.32 421.738 99.6V84.24H429.418V114H422.638L422.038 108.96C421.118 110.72 419.778 112.12 418.018 113.16C416.298 114.2 414.278 114.72 411.958 114.72ZM450.006 114.72C446.966 114.72 444.286 114.06 441.966 112.74C439.646 111.42 437.806 109.58 436.446 107.22C435.126 104.86 434.466 102.16 434.466 99.12C434.466 96.08 435.126 93.38 436.446 91.02C437.806 88.66 439.646 86.82 441.966 85.5C444.286 84.18 446.966 83.52 450.006 83.52C453.806 83.52 457.006 84.52 459.606 86.52C462.206 88.48 463.866 91.2 464.586 94.68H456.486C456.086 93.24 455.286 92.12 454.086 91.32C452.926 90.48 451.546 90.06 449.946 90.06C447.826 90.06 446.026 90.86 444.546 92.46C443.066 94.06 442.326 96.28 442.326 99.12C442.326 101.96 443.066 104.18 444.546 105.78C446.026 107.38 447.826 108.18 449.946 108.18C451.546 108.18 452.926 107.78 454.086 106.98C455.286 106.18 456.086 105.04 456.486 103.56H464.586C463.866 106.92 462.206 109.62 459.606 111.66C457.006 113.7 453.806 114.72 450.006 114.72ZM482.377 114C479.257 114 476.757 113.24 474.877 111.72C472.997 110.2 472.057 107.5 472.057 103.62V90.66H466.957V84.24H472.057L472.957 76.26H479.737V84.24H487.777V90.66H479.737V103.68C479.737 105.12 480.037 106.12 480.637 106.68C481.277 107.2 482.357 107.46 483.877 107.46H487.597V114H482.377ZM495.795 114.42C494.395 114.42 493.235 113.98 492.315 113.1C491.435 112.22 490.995 111.16 490.995 109.92C490.995 108.64 491.435 107.56 492.315 106.68C493.235 105.8 494.395 105.36 495.795 105.36C497.195 105.36 498.335 105.8 499.215 106.68C500.135 107.56 500.595 108.64 500.595 109.92C500.595 111.16 500.135 112.22 499.215 113.1C498.335 113.98 497.195 114.42 495.795 114.42Z" fill="#19191B"/>
</svg>
