<svg width="454" height="212" viewBox="0 0 454 212" fill="none" xmlns="http://www.w3.org/2000/svg">
<path d="M26.92 57.96C21.64 57.96 17.0267 56.76 13.08 54.36C9.13333 51.96 6.06667 48.6267 3.88 44.36C1.69333 40.04 0.6 35.0267 0.6 29.32C0.6 23.56 1.72 18.4933 3.96 14.12C6.25333 9.69333 9.48 6.25333 13.64 3.8C17.8533 1.29333 22.84 0.039999 28.6 0.039999C35.16 0.039999 40.6 1.61333 44.92 4.76C49.24 7.90666 52.04 12.2533 53.32 17.8H41.88C41.0267 15.1867 39.48 13.16 37.24 11.72C35 10.2267 32.12 9.48 28.6 9.48C23 9.48 18.68 11.2667 15.64 14.84C12.6 18.36 11.08 23.2133 11.08 29.4C11.08 35.5867 12.5733 40.3867 15.56 43.8C18.6 47.16 22.7067 48.84 27.88 48.84C32.9467 48.84 36.76 47.48 39.32 44.76C41.9333 41.9867 43.5067 38.36 44.04 33.88H29.88V26.2H54.36V57H44.92L44.12 49.64C42.3067 52.3067 40.04 54.36 37.32 55.8C34.6 57.24 31.1333 57.96 26.92 57.96ZM61.5739 57V17.32H70.6939L71.6539 24.76C73.0939 22.2 75.0406 20.1733 77.4939 18.68C80.0006 17.1333 82.9339 16.36 86.2939 16.36V27.16H83.4139C81.1739 27.16 79.1739 27.5067 77.4139 28.2C75.6539 28.8933 74.2673 30.0933 73.2539 31.8C72.2939 33.5067 71.8139 35.88 71.8139 38.92V57H61.5739ZM109.129 57.96C105.289 57.96 101.822 57.08 98.7285 55.32C95.6885 53.56 93.2619 51.1333 91.4485 48.04C89.6885 44.8933 88.8085 41.2667 88.8085 37.16C88.8085 33.0533 89.7152 29.4533 91.5285 26.36C93.3419 23.2133 95.7685 20.76 98.8085 19C101.902 17.24 105.369 16.36 109.209 16.36C112.995 16.36 116.409 17.24 119.449 19C122.542 20.76 124.969 23.2133 126.729 26.36C128.542 29.4533 129.449 33.0533 129.449 37.16C129.449 41.2667 128.542 44.8933 126.729 48.04C124.969 51.1333 122.542 53.56 119.449 55.32C116.355 57.08 112.915 57.96 109.129 57.96ZM109.129 49.08C111.795 49.08 114.115 48.0933 116.089 46.12C118.062 44.0933 119.049 41.1067 119.049 37.16C119.049 33.2133 118.062 30.2533 116.089 28.28C114.115 26.2533 111.822 25.24 109.209 25.24C106.489 25.24 104.142 26.2533 102.169 28.28C100.249 30.2533 99.2885 33.2133 99.2885 37.16C99.2885 41.1067 100.249 44.0933 102.169 46.12C104.142 48.0933 106.462 49.08 109.129 49.08ZM142.457 57L130.857 17.32H141.017L147.897 45.88L155.897 17.32H167.257L175.257 45.88L182.217 17.32H192.377L180.697 57H170.057L161.577 27.32L153.097 57H142.457ZM217.858 74.6L227.058 54.36H224.658L209.218 17.32H220.338L231.458 45.24L243.058 17.32H253.938L228.738 74.6H217.858ZM273.734 57.96C269.894 57.96 266.427 57.08 263.334 55.32C260.294 53.56 257.867 51.1333 256.054 48.04C254.294 44.8933 253.414 41.2667 253.414 37.16C253.414 33.0533 254.32 29.4533 256.134 26.36C257.947 23.2133 260.374 20.76 263.414 19C266.507 17.24 269.974 16.36 273.814 16.36C277.6 16.36 281.014 17.24 284.054 19C287.147 20.76 289.574 23.2133 291.334 26.36C293.147 29.4533 294.054 33.0533 294.054 37.16C294.054 41.2667 293.147 44.8933 291.334 48.04C289.574 51.1333 287.147 53.56 284.054 55.32C280.96 57.08 277.52 57.96 273.734 57.96ZM273.734 49.08C276.4 49.08 278.72 48.0933 280.694 46.12C282.667 44.0933 283.654 41.1067 283.654 37.16C283.654 33.2133 282.667 30.2533 280.694 28.28C278.72 26.2533 276.427 25.24 273.814 25.24C271.094 25.24 268.747 26.2533 266.774 28.28C264.854 30.2533 263.894 33.2133 263.894 37.16C263.894 41.1067 264.854 44.0933 266.774 46.12C268.747 48.0933 271.067 49.08 273.734 49.08ZM315.588 57.96C310.628 57.96 306.788 56.4133 304.068 53.32C301.402 50.2267 300.068 45.6933 300.068 39.72V17.32H310.228V38.76C310.228 42.1733 310.922 44.7867 312.308 46.6C313.695 48.4133 315.882 49.32 318.868 49.32C321.695 49.32 324.015 48.3067 325.828 46.28C327.695 44.2533 328.628 41.4267 328.628 37.8V17.32H338.868V57H329.828L329.028 50.28C327.802 52.6267 326.015 54.4933 323.668 55.88C321.375 57.2667 318.682 57.96 315.588 57.96ZM346.879 57V17.32H355.999L356.959 24.76C358.399 22.2 360.346 20.1733 362.799 18.68C365.306 17.1333 368.239 16.36 371.599 16.36V27.16H368.719C366.479 27.16 364.479 27.5067 362.719 28.2C360.959 28.8933 359.572 30.0933 358.559 31.8C357.599 33.5067 357.119 35.88 357.119 38.92V57H346.879ZM18.6 134.96C15.08 134.96 11.9867 134.4 9.32 133.28C6.65333 132.107 4.52 130.507 2.92 128.48C1.32 126.453 0.36 124.107 0.0400002 121.44H10.36C10.68 122.987 11.5333 124.32 12.92 125.44C14.36 126.507 16.2 127.04 18.44 127.04C20.68 127.04 22.3067 126.587 23.32 125.68C24.3867 124.773 24.92 123.733 24.92 122.56C24.92 120.853 24.1733 119.707 22.68 119.12C21.1867 118.48 19.1067 117.867 16.44 117.28C14.7333 116.907 13 116.453 11.24 115.92C9.48 115.387 7.85333 114.72 6.36 113.92C4.92 113.067 3.74667 112 2.84 110.72C1.93333 109.387 1.48 107.76 1.48 105.84C1.48 102.32 2.86667 99.36 5.64 96.96C8.46667 94.56 12.4133 93.36 17.48 93.36C22.1733 93.36 25.9067 94.4533 28.68 96.64C31.5067 98.8267 33.1867 101.84 33.72 105.68H24.04C23.4533 102.747 21.24 101.28 17.4 101.28C15.48 101.28 13.9867 101.653 12.92 102.4C11.9067 103.147 11.4 104.08 11.4 105.2C11.4 106.373 12.1733 107.307 13.72 108C15.2667 108.693 17.32 109.333 19.88 109.92C22.6533 110.56 25.1867 111.28 27.48 112.08C29.8267 112.827 31.6933 113.973 33.08 115.52C34.4667 117.013 35.16 119.173 35.16 122C35.2133 124.453 34.5733 126.667 33.24 128.64C31.9067 130.613 29.9867 132.16 27.48 133.28C24.9733 134.4 22.0133 134.96 18.6 134.96ZM56.6102 134.96C51.6502 134.96 47.8102 133.413 45.0902 130.32C42.4235 127.227 41.0902 122.693 41.0902 116.72V94.32H51.2502V115.76C51.2502 119.173 51.9435 121.787 53.3302 123.6C54.7169 125.413 56.9035 126.32 59.8902 126.32C62.7169 126.32 65.0369 125.307 66.8502 123.28C68.7169 121.253 69.6502 118.427 69.6502 114.8V94.32H79.8902V134H70.8502L70.0502 127.28C68.8235 129.627 67.0369 131.493 64.6902 132.88C62.3969 134.267 59.7035 134.96 56.6102 134.96ZM111.421 134.96C108.434 134.96 105.821 134.4 103.581 133.28C101.341 132.16 99.5277 130.587 98.141 128.56L97.021 134H87.901V76.4H98.141V100C99.421 98.24 101.101 96.6933 103.181 95.36C105.314 94.0267 108.061 93.36 111.421 93.36C115.154 93.36 118.488 94.2667 121.421 96.08C124.354 97.8933 126.674 100.373 128.381 103.52C130.088 106.667 130.941 110.24 130.941 114.24C130.941 118.24 130.088 121.813 128.381 124.96C126.674 128.053 124.354 130.507 121.421 132.32C118.488 134.08 115.154 134.96 111.421 134.96ZM109.261 126C112.514 126 115.208 124.907 117.341 122.72C119.474 120.533 120.541 117.707 120.541 114.24C120.541 110.773 119.474 107.92 117.341 105.68C115.208 103.44 112.514 102.32 109.261 102.32C105.954 102.32 103.234 103.44 101.101 105.68C99.021 107.867 97.981 110.693 97.981 114.16C97.981 117.627 99.021 120.48 101.101 122.72C103.234 124.907 105.954 126 109.261 126ZM153.987 134.96C150.467 134.96 147.374 134.4 144.707 133.28C142.041 132.107 139.907 130.507 138.307 128.48C136.707 126.453 135.747 124.107 135.427 121.44H145.747C146.067 122.987 146.921 124.32 148.307 125.44C149.747 126.507 151.587 127.04 153.827 127.04C156.067 127.04 157.694 126.587 158.707 125.68C159.774 124.773 160.307 123.733 160.307 122.56C160.307 120.853 159.561 119.707 158.067 119.12C156.574 118.48 154.494 117.867 151.827 117.28C150.121 116.907 148.387 116.453 146.627 115.92C144.867 115.387 143.241 114.72 141.747 113.92C140.307 113.067 139.134 112 138.227 110.72C137.321 109.387 136.867 107.76 136.867 105.84C136.867 102.32 138.254 99.36 141.027 96.96C143.854 94.56 147.801 93.36 152.867 93.36C157.561 93.36 161.294 94.4533 164.067 96.64C166.894 98.8267 168.574 101.84 169.107 105.68H159.427C158.841 102.747 156.627 101.28 152.787 101.28C150.867 101.28 149.374 101.653 148.307 102.4C147.294 103.147 146.787 104.08 146.787 105.2C146.787 106.373 147.561 107.307 149.107 108C150.654 108.693 152.707 109.333 155.267 109.92C158.041 110.56 160.574 111.28 162.867 112.08C165.214 112.827 167.081 113.973 168.467 115.52C169.854 117.013 170.547 119.173 170.547 122C170.601 124.453 169.961 126.667 168.627 128.64C167.294 130.613 165.374 132.16 162.867 133.28C160.361 134.4 157.401 134.96 153.987 134.96ZM196.558 134.96C192.504 134.96 188.931 134.08 185.838 132.32C182.744 130.56 180.291 128.107 178.478 124.96C176.718 121.813 175.838 118.213 175.838 114.16C175.838 110.107 176.718 106.507 178.478 103.36C180.291 100.213 182.744 97.76 185.838 96C188.931 94.24 192.504 93.36 196.558 93.36C201.624 93.36 205.891 94.6933 209.358 97.36C212.824 99.9733 215.038 103.6 215.998 108.24H205.198C204.664 106.32 203.598 104.827 201.998 103.76C200.451 102.64 198.611 102.08 196.478 102.08C193.651 102.08 191.251 103.147 189.278 105.28C187.304 107.413 186.318 110.373 186.318 114.16C186.318 117.947 187.304 120.907 189.278 123.04C191.251 125.173 193.651 126.24 196.478 126.24C198.611 126.24 200.451 125.707 201.998 124.64C203.598 123.573 204.664 122.053 205.198 120.08H215.998C215.038 124.56 212.824 128.16 209.358 130.88C205.891 133.6 201.624 134.96 196.558 134.96ZM222.585 134V94.32H231.705L232.665 101.76C234.105 99.2 236.052 97.1733 238.505 95.68C241.012 94.1333 243.945 93.36 247.305 93.36V104.16H244.425C242.185 104.16 240.185 104.507 238.425 105.2C236.665 105.893 235.279 107.093 234.265 108.8C233.305 110.507 232.825 112.88 232.825 115.92V134H222.585ZM257.323 88.16C255.456 88.16 253.91 87.6 252.683 86.48C251.51 85.36 250.923 83.9467 250.923 82.24C250.923 80.5333 251.51 79.1467 252.683 78.08C253.91 76.96 255.456 76.4 257.323 76.4C259.19 76.4 260.71 76.96 261.883 78.08C263.11 79.1467 263.723 80.5333 263.723 82.24C263.723 83.9467 263.11 85.36 261.883 86.48C260.71 87.6 259.19 88.16 257.323 88.16ZM252.203 134V94.32H262.443V134H252.203ZM270.63 151.6V94.32H279.75L280.87 100C282.15 98.24 283.83 96.6933 285.91 95.36C288.043 94.0267 290.79 93.36 294.15 93.36C297.883 93.36 301.217 94.2667 304.15 96.08C307.083 97.8933 309.403 100.373 311.11 103.52C312.817 106.667 313.67 110.24 313.67 114.24C313.67 118.24 312.817 121.813 311.11 124.96C309.403 128.053 307.083 130.507 304.15 132.32C301.217 134.08 297.883 134.96 294.15 134.96C291.163 134.96 288.55 134.4 286.31 133.28C284.07 132.16 282.257 130.587 280.87 128.56V151.6H270.63ZM291.99 126C295.243 126 297.937 124.907 300.07 122.72C302.203 120.533 303.27 117.707 303.27 114.24C303.27 110.773 302.203 107.92 300.07 105.68C297.937 103.44 295.243 102.32 291.99 102.32C288.683 102.32 285.963 103.44 283.83 105.68C281.75 107.867 280.71 110.693 280.71 114.16C280.71 117.627 281.75 120.48 283.83 122.72C285.963 124.907 288.683 126 291.99 126ZM336.434 134C332.274 134 328.941 132.987 326.434 130.96C323.927 128.933 322.674 125.333 322.674 120.16V102.88H315.874V94.32H322.674L323.874 83.68H332.914V94.32H343.634V102.88H332.914V120.24C332.914 122.16 333.314 123.493 334.114 124.24C334.967 124.933 336.407 125.28 338.434 125.28H343.394V134H336.434ZM355.445 88.16C353.578 88.16 352.032 87.6 350.805 86.48C349.632 85.36 349.045 83.9467 349.045 82.24C349.045 80.5333 349.632 79.1467 350.805 78.08C352.032 76.96 353.578 76.4 355.445 76.4C357.312 76.4 358.832 76.96 360.005 78.08C361.232 79.1467 361.845 80.5333 361.845 82.24C361.845 83.9467 361.232 85.36 360.005 86.48C358.832 87.6 357.312 88.16 355.445 88.16ZM350.325 134V94.32H360.565V134H350.325ZM387.792 134.96C383.952 134.96 380.485 134.08 377.392 132.32C374.352 130.56 371.925 128.133 370.112 125.04C368.352 121.893 367.472 118.267 367.472 114.16C367.472 110.053 368.379 106.453 370.192 103.36C372.005 100.213 374.432 97.76 377.472 96C380.565 94.24 384.032 93.36 387.872 93.36C391.659 93.36 395.072 94.24 398.112 96C401.205 97.76 403.632 100.213 405.392 103.36C407.205 106.453 408.112 110.053 408.112 114.16C408.112 118.267 407.205 121.893 405.392 125.04C403.632 128.133 401.205 130.56 398.112 132.32C395.019 134.08 391.579 134.96 387.792 134.96ZM387.792 126.08C390.459 126.08 392.779 125.093 394.752 123.12C396.725 121.093 397.712 118.107 397.712 114.16C397.712 110.213 396.725 107.253 394.752 105.28C392.779 103.253 390.485 102.24 387.872 102.24C385.152 102.24 382.805 103.253 380.832 105.28C378.912 107.253 377.952 110.213 377.952 114.16C377.952 118.107 378.912 121.093 380.832 123.12C382.805 125.093 385.125 126.08 387.792 126.08ZM414.767 134V94.32H423.807L424.607 101.04C425.833 98.6933 427.593 96.8267 429.887 95.44C432.233 94.0533 434.98 93.36 438.127 93.36C443.033 93.36 446.847 94.9067 449.567 98C452.287 101.093 453.647 105.627 453.647 111.6V134H443.407V112.56C443.407 109.147 442.713 106.533 441.327 104.72C439.94 102.907 437.78 102 434.847 102C431.967 102 429.593 103.013 427.727 105.04C425.913 107.067 425.007 109.893 425.007 113.52V134H414.767ZM25.72 211.96C22.7333 211.96 20.12 211.4 17.88 210.28C15.64 209.16 13.8267 207.587 12.44 205.56L11.32 211H2.2V153.4H12.44V177C13.72 175.24 15.4 173.693 17.48 172.36C19.6133 171.027 22.36 170.36 25.72 170.36C29.4533 170.36 32.7867 171.267 35.72 173.08C38.6533 174.893 40.9733 177.373 42.68 180.52C44.3867 183.667 45.24 187.24 45.24 191.24C45.24 195.24 44.3867 198.813 42.68 201.96C40.9733 205.053 38.6533 207.507 35.72 209.32C32.7867 211.08 29.4533 211.96 25.72 211.96ZM23.56 203C26.8133 203 29.5067 201.907 31.64 199.72C33.7733 197.533 34.84 194.707 34.84 191.24C34.84 187.773 33.7733 184.92 31.64 182.68C29.5067 180.44 26.8133 179.32 23.56 179.32C20.2533 179.32 17.5333 180.44 15.4 182.68C13.32 184.867 12.28 187.693 12.28 191.16C12.28 194.627 13.32 197.48 15.4 199.72C17.5333 201.907 20.2533 203 23.56 203ZM66.7664 211.96C61.8064 211.96 57.9664 210.413 55.2464 207.32C52.5798 204.227 51.2464 199.693 51.2464 193.72V171.32H61.4064V192.76C61.4064 196.173 62.0998 198.787 63.4864 200.6C64.8731 202.413 67.0598 203.32 70.0464 203.32C72.8731 203.32 75.1931 202.307 77.0064 200.28C78.8731 198.253 79.8064 195.427 79.8064 191.8V171.32H90.0465V211H81.0064L80.2064 204.28C78.9798 206.627 77.1931 208.493 74.8464 209.88C72.5531 211.267 69.8598 211.96 66.7664 211.96ZM114.457 211.96C110.937 211.96 107.844 211.4 105.177 210.28C102.511 209.107 100.377 207.507 98.7773 205.48C97.1773 203.453 96.2173 201.107 95.8973 198.44H106.217C106.537 199.987 107.391 201.32 108.777 202.44C110.217 203.507 112.057 204.04 114.297 204.04C116.537 204.04 118.164 203.587 119.177 202.68C120.244 201.773 120.777 200.733 120.777 199.56C120.777 197.853 120.031 196.707 118.537 196.12C117.044 195.48 114.964 194.867 112.297 194.28C110.591 193.907 108.857 193.453 107.097 192.92C105.337 192.387 103.711 191.72 102.217 190.92C100.777 190.067 99.6039 189 98.6973 187.72C97.7906 186.387 97.3373 184.76 97.3373 182.84C97.3373 179.32 98.7239 176.36 101.497 173.96C104.324 171.56 108.271 170.36 113.337 170.36C118.031 170.36 121.764 171.453 124.537 173.64C127.364 175.827 129.044 178.84 129.577 182.68H119.897C119.311 179.747 117.097 178.28 113.257 178.28C111.337 178.28 109.844 178.653 108.777 179.4C107.764 180.147 107.257 181.08 107.257 182.2C107.257 183.373 108.031 184.307 109.577 185C111.124 185.693 113.177 186.333 115.737 186.92C118.511 187.56 121.044 188.28 123.337 189.08C125.684 189.827 127.551 190.973 128.937 192.52C130.324 194.013 131.017 196.173 131.017 199C131.071 201.453 130.431 203.667 129.097 205.64C127.764 207.613 125.844 209.16 123.337 210.28C120.831 211.4 117.871 211.96 114.457 211.96ZM143.107 165.16C141.241 165.16 139.694 164.6 138.467 163.48C137.294 162.36 136.707 160.947 136.707 159.24C136.707 157.533 137.294 156.147 138.467 155.08C139.694 153.96 141.241 153.4 143.107 153.4C144.974 153.4 146.494 153.96 147.667 155.08C148.894 156.147 149.507 157.533 149.507 159.24C149.507 160.947 148.894 162.36 147.667 163.48C146.494 164.6 144.974 165.16 143.107 165.16ZM137.987 211V171.32H148.227V211H137.987ZM156.415 211V171.32H165.455L166.255 178.04C167.481 175.693 169.241 173.827 171.535 172.44C173.881 171.053 176.628 170.36 179.775 170.36C184.681 170.36 188.495 171.907 191.215 175C193.935 178.093 195.295 182.627 195.295 188.6V211H185.055V189.56C185.055 186.147 184.361 183.533 182.975 181.72C181.588 179.907 179.428 179 176.495 179C173.615 179 171.241 180.013 169.375 182.04C167.561 184.067 166.655 186.893 166.655 190.52V211H156.415ZM221.865 211.96C217.865 211.96 214.319 211.107 211.225 209.4C208.132 207.693 205.705 205.293 203.945 202.2C202.185 199.107 201.305 195.533 201.305 191.48C201.305 187.373 202.159 183.72 203.865 180.52C205.625 177.32 208.025 174.84 211.065 173.08C214.159 171.267 217.785 170.36 221.945 170.36C225.839 170.36 229.279 171.213 232.265 172.92C235.252 174.627 237.572 176.973 239.225 179.96C240.932 182.893 241.785 186.173 241.785 189.8C241.785 190.387 241.759 191 241.705 191.64C241.705 192.28 241.679 192.947 241.625 193.64H211.465C211.679 196.733 212.745 199.16 214.665 200.92C216.639 202.68 219.012 203.56 221.785 203.56C223.865 203.56 225.599 203.107 226.985 202.2C228.425 201.24 229.492 200.013 230.185 198.52H240.585C239.839 201.027 238.585 203.32 236.825 205.4C235.119 207.427 232.985 209.027 230.425 210.2C227.919 211.373 225.065 211.96 221.865 211.96ZM221.945 178.68C219.439 178.68 217.225 179.4 215.305 180.84C213.385 182.227 212.159 184.36 211.625 187.24H231.385C231.225 184.627 230.265 182.547 228.505 181C226.745 179.453 224.559 178.68 221.945 178.68ZM264.297 211.96C260.777 211.96 257.683 211.4 255.017 210.28C252.35 209.107 250.217 207.507 248.617 205.48C247.017 203.453 246.057 201.107 245.737 198.44H256.057C256.377 199.987 257.23 201.32 258.617 202.44C260.057 203.507 261.897 204.04 264.137 204.04C266.377 204.04 268.003 203.587 269.017 202.68C270.083 201.773 270.617 200.733 270.617 199.56C270.617 197.853 269.87 196.707 268.377 196.12C266.883 195.48 264.803 194.867 262.137 194.28C260.43 193.907 258.697 193.453 256.937 192.92C255.177 192.387 253.55 191.72 252.057 190.92C250.617 190.067 249.443 189 248.537 187.72C247.63 186.387 247.177 184.76 247.177 182.84C247.177 179.32 248.563 176.36 251.337 173.96C254.163 171.56 258.11 170.36 263.177 170.36C267.87 170.36 271.603 171.453 274.377 173.64C277.203 175.827 278.883 178.84 279.417 182.68H269.737C269.15 179.747 266.937 178.28 263.097 178.28C261.177 178.28 259.683 178.653 258.617 179.4C257.603 180.147 257.097 181.08 257.097 182.2C257.097 183.373 257.87 184.307 259.417 185C260.963 185.693 263.017 186.333 265.577 186.92C268.35 187.56 270.883 188.28 273.177 189.08C275.523 189.827 277.39 190.973 278.777 192.52C280.163 194.013 280.857 196.173 280.857 199C280.91 201.453 280.27 203.667 278.937 205.64C277.603 207.613 275.683 209.16 273.177 210.28C270.67 211.4 267.71 211.96 264.297 211.96ZM303.827 211.96C300.307 211.96 297.214 211.4 294.547 210.28C291.88 209.107 289.747 207.507 288.147 205.48C286.547 203.453 285.587 201.107 285.267 198.44H295.587C295.907 199.987 296.76 201.32 298.147 202.44C299.587 203.507 301.427 204.04 303.667 204.04C305.907 204.04 307.534 203.587 308.547 202.68C309.614 201.773 310.147 200.733 310.147 199.56C310.147 197.853 309.4 196.707 307.907 196.12C306.414 195.48 304.334 194.867 301.667 194.28C299.96 193.907 298.227 193.453 296.467 192.92C294.707 192.387 293.08 191.72 291.587 190.92C290.147 190.067 288.974 189 288.067 187.72C287.16 186.387 286.707 184.76 286.707 182.84C286.707 179.32 288.094 176.36 290.867 173.96C293.694 171.56 297.64 170.36 302.707 170.36C307.4 170.36 311.134 171.453 313.907 173.64C316.734 175.827 318.414 178.84 318.947 182.68H309.267C308.68 179.747 306.467 178.28 302.627 178.28C300.707 178.28 299.214 178.653 298.147 179.4C297.134 180.147 296.627 181.08 296.627 182.2C296.627 183.373 297.4 184.307 298.947 185C300.494 185.693 302.547 186.333 305.107 186.92C307.88 187.56 310.414 188.28 312.707 189.08C315.054 189.827 316.92 190.973 318.307 192.52C319.694 194.013 320.387 196.173 320.387 199C320.44 201.453 319.8 203.667 318.467 205.64C317.134 207.613 315.214 209.16 312.707 210.28C310.2 211.4 307.24 211.96 303.827 211.96Z" fill="#19191B"/>
</svg>
