<svg width="386" height="47" viewBox="0 0 386 47" fill="none" xmlns="http://www.w3.org/2000/svg">
<path d="M0.4 36V0.999998H6.8V36H0.4ZM11.8704 36V11.2H17.5204L18.0204 15.4C18.7871 13.9333 19.8871 12.7667 21.3204 11.9C22.7871 11.0333 24.5038 10.6 26.4704 10.6C29.5371 10.6 31.9204 11.5667 33.6204 13.5C35.3204 15.4333 36.1704 18.2667 36.1704 22V36H29.7704V22.6C29.7704 20.4667 29.3371 18.8333 28.4704 17.7C27.6038 16.5667 26.2538 16 24.4204 16C22.6204 16 21.1371 16.6333 19.9704 17.9C18.8371 19.1667 18.2704 20.9333 18.2704 23.2V36H11.8704ZM40.1772 24.2V18.85H61.1272V24.2H40.1772ZM76.9312 36.6C74.5979 36.6 72.5146 36.0333 70.6812 34.9C68.8479 33.7667 67.3979 32.2167 66.3312 30.25C65.2646 28.2833 64.7312 26.05 64.7312 23.55C64.7312 21.05 65.2646 18.8333 66.3312 16.9C67.3979 14.9333 68.8479 13.4 70.6812 12.3C72.5146 11.1667 74.5979 10.6 76.9312 10.6C78.7979 10.6 80.4312 10.95 81.8312 11.65C83.2312 12.35 84.3646 13.3333 85.2312 14.6V-1.43051e-06H91.6312V36H85.9312L85.2312 32.45C84.4312 33.55 83.3646 34.5167 82.0312 35.35C80.7312 36.1833 79.0312 36.6 76.9312 36.6ZM78.2812 31C80.3479 31 82.0312 30.3167 83.3312 28.95C84.6646 27.55 85.3312 25.7667 85.3312 23.6C85.3312 21.4333 84.6646 19.6667 83.3312 18.3C82.0312 16.9 80.3479 16.2 78.2812 16.2C76.2479 16.2 74.5646 16.8833 73.2312 18.25C71.8979 19.6167 71.2312 21.3833 71.2312 23.55C71.2312 25.7167 71.8979 27.5 73.2312 28.9C74.5646 30.3 76.2479 31 78.2812 31ZM108.635 36.6C106.135 36.6 103.919 36.0667 101.985 35C100.052 33.9333 98.5353 32.4333 97.4353 30.5C96.3353 28.5667 95.7853 26.3333 95.7853 23.8C95.7853 21.2333 96.3186 18.95 97.3853 16.95C98.4853 14.95 99.9853 13.4 101.885 12.3C103.819 11.1667 106.085 10.6 108.685 10.6C111.119 10.6 113.269 11.1333 115.135 12.2C117.002 13.2667 118.452 14.7333 119.485 16.6C120.552 18.4333 121.085 20.4833 121.085 22.75C121.085 23.1167 121.069 23.5 121.035 23.9C121.035 24.3 121.019 24.7167 120.985 25.15H102.135C102.269 27.0833 102.935 28.6 104.135 29.7C105.369 30.8 106.852 31.35 108.585 31.35C109.885 31.35 110.969 31.0667 111.835 30.5C112.735 29.9 113.402 29.1333 113.835 28.2H120.335C119.869 29.7667 119.085 31.2 117.985 32.5C116.919 33.7667 115.585 34.7667 113.985 35.5C112.419 36.2333 110.635 36.6 108.635 36.6ZM108.685 15.8C107.119 15.8 105.735 16.25 104.535 17.15C103.335 18.0167 102.569 19.35 102.235 21.15H114.585C114.485 19.5167 113.885 18.2167 112.785 17.25C111.685 16.2833 110.319 15.8 108.685 15.8ZM124.905 47V11.2H130.605L131.305 14.75C132.105 13.65 133.155 12.6833 134.455 11.85C135.788 11.0167 137.505 10.6 139.605 10.6C141.938 10.6 144.022 11.1667 145.855 12.3C147.688 13.4333 149.138 14.9833 150.205 16.95C151.272 18.9167 151.805 21.15 151.805 23.65C151.805 26.15 151.272 28.3833 150.205 30.35C149.138 32.2833 147.688 33.8167 145.855 34.95C144.022 36.05 141.938 36.6 139.605 36.6C137.738 36.6 136.105 36.25 134.705 35.55C133.305 34.85 132.172 33.8667 131.305 32.6V47H124.905ZM138.255 31C140.288 31 141.972 30.3167 143.305 28.95C144.638 27.5833 145.305 25.8167 145.305 23.65C145.305 21.4833 144.638 19.7 143.305 18.3C141.972 16.9 140.288 16.2 138.255 16.2C136.188 16.2 134.488 16.9 133.155 18.3C131.855 19.6667 131.205 21.4333 131.205 23.6C131.205 25.7667 131.855 27.55 133.155 28.95C134.488 30.3167 136.188 31 138.255 31ZM166.032 36C163.432 36 161.349 35.3667 159.782 34.1C158.216 32.8333 157.432 30.5833 157.432 27.35V16.55H153.182V11.2H157.432L158.182 4.55H163.832V11.2H170.532V16.55H163.832V27.4C163.832 28.6 164.082 29.4333 164.582 29.9C165.116 30.3333 166.016 30.55 167.282 30.55H170.382V36H166.032ZM174.464 36V-1.43051e-06H180.864V15C181.697 13.6333 182.814 12.5667 184.214 11.8C185.647 11 187.281 10.6 189.114 10.6C192.181 10.6 194.547 11.5667 196.214 13.5C197.914 15.4333 198.764 18.2667 198.764 22V36H192.414V22.6C192.414 20.4667 191.981 18.8333 191.114 17.7C190.281 16.5667 188.947 16 187.114 16C185.314 16 183.814 16.6333 182.614 17.9C181.447 19.1667 180.864 20.9333 180.864 23.2V36H174.464ZM213.672 36V11.2H219.322L219.872 14.55C220.672 13.35 221.722 12.4 223.022 11.7C224.355 10.9667 225.888 10.6 227.622 10.6C231.455 10.6 234.172 12.0833 235.772 15.05C236.672 13.6833 237.872 12.6 239.372 11.8C240.905 11 242.572 10.6 244.372 10.6C247.605 10.6 250.088 11.5667 251.822 13.5C253.555 15.4333 254.422 18.2667 254.422 22V36H248.022V22.6C248.022 20.4667 247.605 18.8333 246.772 17.7C245.972 16.5667 244.722 16 243.022 16C241.288 16 239.888 16.6333 238.822 17.9C237.788 19.1667 237.272 20.9333 237.272 23.2V36H230.872V22.6C230.872 20.4667 230.455 18.8333 229.622 17.7C228.788 16.5667 227.505 16 225.772 16C224.072 16 222.688 16.6333 221.622 17.9C220.588 19.1667 220.072 20.9333 220.072 23.2V36H213.672ZM270.985 36.6C268.485 36.6 266.268 36.0667 264.335 35C262.401 33.9333 260.885 32.4333 259.785 30.5C258.685 28.5667 258.135 26.3333 258.135 23.8C258.135 21.2333 258.668 18.95 259.735 16.95C260.835 14.95 262.335 13.4 264.235 12.3C266.168 11.1667 268.435 10.6 271.035 10.6C273.468 10.6 275.618 11.1333 277.485 12.2C279.351 13.2667 280.801 14.7333 281.835 16.6C282.901 18.4333 283.435 20.4833 283.435 22.75C283.435 23.1167 283.418 23.5 283.385 23.9C283.385 24.3 283.368 24.7167 283.335 25.15H264.485C264.618 27.0833 265.285 28.6 266.485 29.7C267.718 30.8 269.201 31.35 270.935 31.35C272.235 31.35 273.318 31.0667 274.185 30.5C275.085 29.9 275.751 29.1333 276.185 28.2H282.685C282.218 29.7667 281.435 31.2 280.335 32.5C279.268 33.7667 277.935 34.7667 276.335 35.5C274.768 36.2333 272.985 36.6 270.985 36.6ZM271.035 15.8C269.468 15.8 268.085 16.25 266.885 17.15C265.685 18.0167 264.918 19.35 264.585 21.15H276.935C276.835 19.5167 276.235 18.2167 275.135 17.25C274.035 16.2833 272.668 15.8 271.035 15.8ZM297.865 36C295.265 36 293.182 35.3667 291.615 34.1C290.048 32.8333 289.265 30.5833 289.265 27.35V16.55H285.015V11.2H289.265L290.015 4.55H295.665V11.2H302.365V16.55H295.665V27.4C295.665 28.6 295.915 29.4333 296.415 29.9C296.948 30.3333 297.848 30.55 299.115 30.55H302.215V36H297.865ZM306.297 36V11.2H311.997L312.597 15.85C313.497 14.25 314.713 12.9833 316.247 12.05C317.813 11.0833 319.647 10.6 321.747 10.6V17.35H319.947C318.547 17.35 317.297 17.5667 316.197 18C315.097 18.4333 314.23 19.1833 313.597 20.25C312.997 21.3167 312.697 22.8 312.697 24.7V36H306.297ZM328.008 7.35C326.841 7.35 325.875 7 325.108 6.3C324.375 5.6 324.008 4.71667 324.008 3.65C324.008 2.58333 324.375 1.71666 325.108 1.05C325.875 0.349998 326.841 -1.43051e-06 328.008 -1.43051e-06C329.175 -1.43051e-06 330.125 0.349998 330.858 1.05C331.625 1.71666 332.008 2.58333 332.008 3.65C332.008 4.71667 331.625 5.6 330.858 6.3C330.125 7 329.175 7.35 328.008 7.35ZM324.808 36V11.2H331.208V36H324.808ZM348.475 36.6C345.941 36.6 343.708 36.05 341.775 34.95C339.841 33.85 338.308 32.3167 337.175 30.35C336.075 28.3833 335.525 26.1333 335.525 23.6C335.525 21.0667 336.075 18.8167 337.175 16.85C338.308 14.8833 339.841 13.35 341.775 12.25C343.708 11.15 345.941 10.6 348.475 10.6C351.641 10.6 354.308 11.4333 356.475 13.1C358.641 14.7333 360.025 17 360.625 19.9H353.875C353.541 18.7 352.875 17.7667 351.875 17.1C350.908 16.4 349.758 16.05 348.425 16.05C346.658 16.05 345.158 16.7167 343.925 18.05C342.691 19.3833 342.075 21.2333 342.075 23.6C342.075 25.9667 342.691 27.8167 343.925 29.15C345.158 30.4833 346.658 31.15 348.425 31.15C349.758 31.15 350.908 30.8167 351.875 30.15C352.875 29.4833 353.541 28.5333 353.875 27.3H360.625C360.025 30.1 358.641 32.35 356.475 34.05C354.308 35.75 351.641 36.6 348.475 36.6ZM374.992 36.6C372.792 36.6 370.859 36.25 369.192 35.55C367.525 34.8167 366.192 33.8167 365.192 32.55C364.192 31.2833 363.592 29.8167 363.392 28.15H369.842C370.042 29.1167 370.575 29.95 371.442 30.65C372.342 31.3167 373.492 31.65 374.892 31.65C376.292 31.65 377.309 31.3667 377.942 30.8C378.609 30.2333 378.942 29.5833 378.942 28.85C378.942 27.7833 378.475 27.0667 377.542 26.7C376.609 26.3 375.309 25.9167 373.642 25.55C372.575 25.3167 371.492 25.0333 370.392 24.7C369.292 24.3667 368.275 23.95 367.342 23.45C366.442 22.9167 365.709 22.25 365.142 21.45C364.575 20.6167 364.292 19.6 364.292 18.4C364.292 16.2 365.159 14.35 366.892 12.85C368.659 11.35 371.125 10.6 374.292 10.6C377.225 10.6 379.559 11.2833 381.292 12.65C383.059 14.0167 384.109 15.9 384.442 18.3H378.392C378.025 16.4667 376.642 15.55 374.242 15.55C373.042 15.55 372.109 15.7833 371.442 16.25C370.809 16.7167 370.492 17.3 370.492 18C370.492 18.7333 370.975 19.3167 371.942 19.75C372.909 20.1833 374.192 20.5833 375.792 20.95C377.525 21.35 379.109 21.8 380.542 22.3C382.009 22.7667 383.175 23.4833 384.042 24.45C384.909 25.3833 385.342 26.7333 385.342 28.5C385.375 30.0333 384.975 31.4167 384.142 32.65C383.309 33.8833 382.109 34.85 380.542 35.55C378.975 36.25 377.125 36.6 374.992 36.6Z" fill="#19191B"/>
</svg>
