<svg width="404" height="76" viewBox="0 0 404 76" fill="none" xmlns="http://www.w3.org/2000/svg">
<path d="M7.72 15.16C6.4 15.16 5.25333 14.8667 4.28 14.28C3.30667 13.6933 2.55333 12.8533 2.02 11.76C1.5 10.6533 1.24 9.36 1.24 7.88C1.24 6.38667 1.5 5.09333 2.02 4C2.54 2.90667 3.28667 2.06667 4.26 1.48C5.23333 0.893333 6.38667 0.599999 7.72 0.599999C9.05333 0.599999 10.2067 0.893333 11.18 1.48C12.1533 2.06667 12.9 2.90667 13.42 4C13.94 5.09333 14.2 6.38 14.2 7.86C14.2 9.35333 13.9333 10.6467 13.4 11.74C12.88 12.8333 12.1333 13.68 11.16 14.28C10.1867 14.8667 9.04 15.16 7.72 15.16ZM7.72 13.76C9.22667 13.76 10.4 13.2467 11.24 12.22C12.08 11.1933 12.5 9.74 12.5 7.86C12.5 5.98 12.08 4.53333 11.24 3.52C10.4133 2.50667 9.24 2 7.72 2C6.2 2 5.02 2.51333 4.18 3.54C3.34 4.55333 2.92 5.99333 2.92 7.86C2.92 9.74 3.34 11.1933 4.18 12.22C5.02 13.2467 6.2 13.76 7.72 13.76ZM24.804 4.94V15H23.224V13.26C22.904 13.8733 22.4573 14.34 21.884 14.66C21.3106 14.98 20.664 15.14 19.944 15.14C18.7573 15.14 17.8573 14.8067 17.244 14.14C16.6306 13.4733 16.324 12.4867 16.324 11.18V4.94H17.944V11.14C17.944 12.0467 18.1306 12.7133 18.504 13.14C18.8773 13.5667 19.444 13.78 20.204 13.78C21.0973 13.78 21.8173 13.4933 22.364 12.92C22.9106 12.3333 23.184 11.5667 23.184 10.62V4.94H24.804ZM29.4617 6.22V11.72C29.4617 12.4667 29.615 12.9933 29.9217 13.3C30.2283 13.5933 30.6617 13.74 31.2217 13.74C31.595 13.74 31.955 13.68 32.3017 13.56V14.94C31.8883 15.0733 31.4217 15.14 30.9017 15.14C29.9417 15.14 29.1883 14.8733 28.6417 14.34C28.1083 13.7933 27.8417 12.9933 27.8417 11.94V6.22H25.8817V4.94H27.8417V2.36L29.4617 1.78V4.94H32.3417V6.22H29.4617ZM37.8886 15.14C36.9153 15.14 36.0619 14.9267 35.3286 14.5C34.6086 14.0733 34.0486 13.4733 33.6486 12.7C33.2619 11.9133 33.0686 11 33.0686 9.96C33.0686 8.92 33.2686 8.00667 33.6686 7.22C34.0686 6.42 34.6353 5.8 35.3686 5.36C36.1153 4.92 36.9819 4.7 37.9686 4.7C38.6486 4.7 39.3019 4.82 39.9286 5.06C40.5686 5.28667 41.0953 5.60667 41.5086 6.02L40.9686 7.22C40.4619 6.82 39.9686 6.52667 39.4886 6.34C39.0219 6.15333 38.5419 6.06 38.0486 6.06C37.0219 6.06 36.2153 6.40667 35.6286 7.1C35.0419 7.78 34.7486 8.73333 34.7486 9.96C34.7486 11.1733 35.0353 12.12 35.6086 12.8C36.1953 13.4667 37.0086 13.8 38.0486 13.8C38.5419 13.8 39.0219 13.7067 39.4886 13.52C39.9686 13.3333 40.4619 13.04 40.9686 12.64L41.5086 13.84C41.0819 14.24 40.5419 14.56 39.8886 14.8C39.2486 15.0267 38.5819 15.14 37.8886 15.14ZM47.1057 15.14C46.159 15.14 45.3257 14.9267 44.6057 14.5C43.8857 14.0733 43.3257 13.4667 42.9257 12.68C42.539 11.8933 42.3457 10.9733 42.3457 9.92C42.3457 8.86667 42.539 7.94667 42.9257 7.16C43.3257 6.37333 43.8857 5.76667 44.6057 5.34C45.3257 4.91333 46.159 4.7 47.1057 4.7C48.0523 4.7 48.8857 4.91333 49.6057 5.34C50.3257 5.76667 50.879 6.37333 51.2657 7.16C51.6657 7.94667 51.8657 8.86667 51.8657 9.92C51.8657 10.9733 51.6657 11.8933 51.2657 12.68C50.879 13.4667 50.3257 14.0733 49.6057 14.5C48.8857 14.9267 48.0523 15.14 47.1057 15.14ZM47.1057 13.8C48.1057 13.8 48.8723 13.4733 49.4057 12.82C49.939 12.1533 50.2057 11.1867 50.2057 9.92C50.2057 8.69333 49.9323 7.74667 49.3857 7.08C48.839 6.4 48.079 6.06 47.1057 6.06C46.119 6.06 45.3523 6.4 44.8057 7.08C44.259 7.74667 43.9857 8.69333 43.9857 9.92C43.9857 11.1867 44.2523 12.1533 44.7857 12.82C45.3323 13.4733 46.1057 13.8 47.1057 13.8ZM64.9257 4.7C67.1524 4.7 68.2657 6.02667 68.2657 8.68V15H66.6457V8.76C66.6457 7.81333 66.479 7.12667 66.1457 6.7C65.8257 6.27333 65.299 6.06 64.5657 6.06C63.7124 6.06 63.0457 6.34667 62.5657 6.92C62.0857 7.49333 61.8457 8.27333 61.8457 9.26V15H60.2257V8.76C60.2257 7.82667 60.059 7.14667 59.7257 6.72C59.3924 6.28 58.859 6.06 58.1257 6.06C57.2724 6.06 56.599 6.34667 56.1057 6.92C55.6257 7.49333 55.3857 8.27333 55.3857 9.26V15H53.7657V7.76C53.7657 6.72 53.7124 5.78 53.6057 4.94H55.1457L55.3057 6.7C55.5857 6.06 55.999 5.56667 56.5457 5.22C57.1057 4.87333 57.7524 4.7 58.4857 4.7C59.2857 4.7 59.939 4.86 60.4457 5.18C60.9524 5.5 61.3257 5.99333 61.5657 6.66C61.8724 6.06 62.319 5.58667 62.9057 5.24C63.5057 4.88 64.179 4.7 64.9257 4.7ZM79.1386 9.92H71.7586C71.7719 11.2 72.0652 12.1667 72.6386 12.82C73.2252 13.4733 74.0719 13.8 75.1786 13.8C76.3519 13.8 77.4319 13.4067 78.4186 12.62L78.9586 13.8C78.5186 14.2133 77.9519 14.54 77.2586 14.78C76.5786 15.02 75.8786 15.14 75.1586 15.14C73.5852 15.14 72.3519 14.68 71.4586 13.76C70.5652 12.8267 70.1186 11.5533 70.1186 9.94C70.1186 8.91333 70.3186 8.00667 70.7186 7.22C71.1186 6.42 71.6786 5.8 72.3986 5.36C73.1186 4.92 73.9386 4.7 74.8586 4.7C76.1919 4.7 77.2386 5.14 77.9986 6.02C78.7586 6.88667 79.1386 8.08667 79.1386 9.62V9.92ZM74.8786 5.96C74.0386 5.96 73.3519 6.21333 72.8186 6.72C72.2986 7.22667 71.9652 7.94 71.8186 8.86H77.6786C77.5986 7.91333 77.3186 7.19333 76.8386 6.7C76.3719 6.20667 75.7186 5.96 74.8786 5.96ZM81.0871 8.96H86.7471V10.3H81.0871V8.96ZM93.649 15.14C92.6757 15.14 91.8223 14.9267 91.089 14.5C90.369 14.0733 89.809 13.4733 89.409 12.7C89.0223 11.9133 88.829 11 88.829 9.96C88.829 8.92 89.029 8.00667 89.429 7.22C89.829 6.42 90.3957 5.8 91.129 5.36C91.8757 4.92 92.7423 4.7 93.729 4.7C94.409 4.7 95.0623 4.82 95.689 5.06C96.329 5.28667 96.8557 5.60667 97.269 6.02L96.729 7.22C96.2223 6.82 95.729 6.52667 95.249 6.34C94.7823 6.15333 94.3023 6.06 93.809 6.06C92.7823 6.06 91.9757 6.40667 91.389 7.1C90.8023 7.78 90.509 8.73333 90.509 9.96C90.509 11.1733 90.7957 12.12 91.369 12.8C91.9557 13.4667 92.769 13.8 93.809 13.8C94.3023 13.8 94.7823 13.7067 95.249 13.52C95.729 13.3333 96.2223 13.04 96.729 12.64L97.269 13.84C96.8423 14.24 96.3023 14.56 95.649 14.8C95.009 15.0267 94.3423 15.14 93.649 15.14ZM107.126 9.92H99.7461C99.7594 11.2 100.053 12.1667 100.626 12.82C101.213 13.4733 102.059 13.8 103.166 13.8C104.339 13.8 105.419 13.4067 106.406 12.62L106.946 13.8C106.506 14.2133 105.939 14.54 105.246 14.78C104.566 15.02 103.866 15.14 103.146 15.14C101.573 15.14 100.339 14.68 99.4461 13.76C98.5527 12.8267 98.1061 11.5533 98.1061 9.94C98.1061 8.91333 98.3061 8.00667 98.7061 7.22C99.1061 6.42 99.6661 5.8 100.386 5.36C101.106 4.92 101.926 4.7 102.846 4.7C104.179 4.7 105.226 5.14 105.986 6.02C106.746 6.88667 107.126 8.08667 107.126 9.62V9.92ZM102.866 5.96C102.026 5.96 101.339 6.21333 100.806 6.72C100.286 7.22667 99.9527 7.94 99.8061 8.86H105.666C105.586 7.91333 105.306 7.19333 104.826 6.7C104.359 6.20667 103.706 5.96 102.866 5.96ZM113.98 4.7C116.393 4.7 117.6 6.02667 117.6 8.68V15H115.98V8.76C115.98 7.82667 115.793 7.14667 115.42 6.72C115.046 6.28 114.46 6.06 113.66 6.06C112.726 6.06 111.98 6.34667 111.42 6.92C110.86 7.49333 110.58 8.26667 110.58 9.24V15H108.96V7.76C108.96 6.72 108.906 5.78 108.8 4.94H110.34L110.5 6.74C110.806 6.08667 111.266 5.58667 111.88 5.24C112.493 4.88 113.193 4.7 113.98 4.7ZM122.194 6.22V11.72C122.194 12.4667 122.347 12.9933 122.654 13.3C122.96 13.5933 123.394 13.74 123.954 13.74C124.327 13.74 124.687 13.68 125.034 13.56V14.94C124.62 15.0733 124.154 15.14 123.634 15.14C122.674 15.14 121.92 14.8733 121.374 14.34C120.84 13.7933 120.574 12.9933 120.574 11.94V6.22H118.614V4.94H120.574V2.36L122.194 1.78V4.94H125.074V6.22H122.194ZM134.821 9.92H127.441C127.454 11.2 127.747 12.1667 128.321 12.82C128.907 13.4733 129.754 13.8 130.861 13.8C132.034 13.8 133.114 13.4067 134.101 12.62L134.641 13.8C134.201 14.2133 133.634 14.54 132.941 14.78C132.261 15.02 131.561 15.14 130.841 15.14C129.267 15.14 128.034 14.68 127.141 13.76C126.247 12.8267 125.801 11.5533 125.801 9.94C125.801 8.91333 126.001 8.00667 126.401 7.22C126.801 6.42 127.361 5.8 128.081 5.36C128.801 4.92 129.621 4.7 130.541 4.7C131.874 4.7 132.921 5.14 133.681 6.02C134.441 6.88667 134.821 8.08667 134.821 9.62V9.92ZM130.561 5.96C129.721 5.96 129.034 6.21333 128.501 6.72C127.981 7.22667 127.647 7.94 127.501 8.86H133.361C133.281 7.91333 133.001 7.19333 132.521 6.7C132.054 6.20667 131.401 5.96 130.561 5.96ZM141.334 4.7C141.668 4.7 141.974 4.74 142.254 4.82L142.214 6.3C141.908 6.19333 141.554 6.14 141.154 6.14C140.181 6.14 139.454 6.44667 138.974 7.06C138.508 7.66 138.274 8.39333 138.274 9.26V15H136.654V7.76C136.654 6.72 136.601 5.78 136.494 4.94H138.034L138.194 6.8C138.448 6.12 138.854 5.6 139.414 5.24C139.974 4.88 140.614 4.7 141.334 4.7ZM151.5 9.92H144.12C144.133 11.2 144.426 12.1667 145 12.82C145.586 13.4733 146.433 13.8 147.54 13.8C148.713 13.8 149.793 13.4067 150.78 12.62L151.32 13.8C150.88 14.2133 150.313 14.54 149.62 14.78C148.94 15.02 148.24 15.14 147.52 15.14C145.946 15.14 144.713 14.68 143.82 13.76C142.926 12.8267 142.48 11.5533 142.48 9.94C142.48 8.91333 142.68 8.00667 143.08 7.22C143.48 6.42 144.04 5.8 144.76 5.36C145.48 4.92 146.3 4.7 147.22 4.7C148.553 4.7 149.6 5.14 150.36 6.02C151.12 6.88667 151.5 8.08667 151.5 9.62V9.92ZM147.24 5.96C146.4 5.96 145.713 6.21333 145.18 6.72C144.66 7.22667 144.326 7.94 144.18 8.86H150.04C149.96 7.91333 149.68 7.19333 149.2 6.7C148.733 6.20667 148.08 5.96 147.24 5.96ZM162.193 0.279999V15H160.593V13.18C160.3 13.8067 159.853 14.2933 159.253 14.64C158.667 14.9733 157.98 15.14 157.193 15.14C156.313 15.14 155.533 14.92 154.853 14.48C154.187 14.04 153.667 13.4267 153.293 12.64C152.92 11.84 152.733 10.92 152.733 9.88C152.733 8.84 152.913 7.93333 153.273 7.16C153.647 6.37333 154.173 5.76667 154.853 5.34C155.533 4.91333 156.313 4.7 157.193 4.7C157.98 4.7 158.667 4.87333 159.253 5.22C159.84 5.55333 160.28 6.02667 160.573 6.64V0.279999H162.193ZM157.513 13.8C158.5 13.8 159.26 13.4667 159.793 12.8C160.327 12.12 160.593 11.16 160.593 9.92C160.593 8.69333 160.327 7.74667 159.793 7.08C159.26 6.4 158.5 6.06 157.513 6.06C156.527 6.06 155.753 6.39333 155.193 7.06C154.647 7.72667 154.373 8.66667 154.373 9.88C154.373 11.12 154.647 12.0867 155.193 12.78C155.753 13.46 156.527 13.8 157.513 13.8ZM174.31 4.7C175.19 4.7 175.97 4.92 176.65 5.36C177.33 5.8 177.857 6.42 178.23 7.22C178.603 8.00667 178.79 8.92 178.79 9.96C178.79 11 178.603 11.9133 178.23 12.7C177.857 13.4733 177.33 14.0733 176.65 14.5C175.983 14.9267 175.203 15.14 174.31 15.14C173.523 15.14 172.837 14.9667 172.25 14.62C171.663 14.2733 171.217 13.78 170.91 13.14V19.32H169.29V7.76C169.29 6.72 169.237 5.78 169.13 4.94H170.67L170.83 6.88C171.11 6.18667 171.55 5.65333 172.15 5.28C172.763 4.89333 173.483 4.7 174.31 4.7ZM174.01 13.8C174.997 13.8 175.757 13.4667 176.29 12.8C176.837 12.1333 177.11 11.1867 177.11 9.96C177.11 8.73333 176.837 7.78 176.29 7.1C175.743 6.40667 174.983 6.06 174.01 6.06C173.01 6.06 172.243 6.39333 171.71 7.06C171.177 7.72667 170.91 8.68 170.91 9.92C170.91 11.16 171.177 12.12 171.71 12.8C172.243 13.4667 173.01 13.8 174.01 13.8ZM185.337 4.7C185.67 4.7 185.977 4.74 186.257 4.82L186.217 6.3C185.91 6.19333 185.557 6.14 185.157 6.14C184.183 6.14 183.457 6.44667 182.977 7.06C182.51 7.66 182.277 8.39333 182.277 9.26V15H180.657V7.76C180.657 6.72 180.603 5.78 180.497 4.94H182.037L182.197 6.8C182.45 6.12 182.857 5.6 183.417 5.24C183.977 4.88 184.617 4.7 185.337 4.7ZM191.242 15.14C190.296 15.14 189.462 14.9267 188.742 14.5C188.022 14.0733 187.462 13.4667 187.062 12.68C186.676 11.8933 186.482 10.9733 186.482 9.92C186.482 8.86667 186.676 7.94667 187.062 7.16C187.462 6.37333 188.022 5.76667 188.742 5.34C189.462 4.91333 190.296 4.7 191.242 4.7C192.189 4.7 193.022 4.91333 193.742 5.34C194.462 5.76667 195.016 6.37333 195.402 7.16C195.802 7.94667 196.002 8.86667 196.002 9.92C196.002 10.9733 195.802 11.8933 195.402 12.68C195.016 13.4667 194.462 14.0733 193.742 14.5C193.022 14.9267 192.189 15.14 191.242 15.14ZM191.242 13.8C192.242 13.8 193.009 13.4733 193.542 12.82C194.076 12.1533 194.342 11.1867 194.342 9.92C194.342 8.69333 194.069 7.74667 193.522 7.08C192.976 6.4 192.216 6.06 191.242 6.06C190.256 6.06 189.489 6.4 188.942 7.08C188.396 7.74667 188.122 8.69333 188.122 9.92C188.122 11.1867 188.389 12.1533 188.922 12.82C189.469 13.4733 190.242 13.8 191.242 13.8ZM206.762 0.279999V15H205.162V13.18C204.869 13.8067 204.422 14.2933 203.822 14.64C203.236 14.9733 202.549 15.14 201.762 15.14C200.882 15.14 200.102 14.92 199.422 14.48C198.756 14.04 198.236 13.4267 197.862 12.64C197.489 11.84 197.302 10.92 197.302 9.88C197.302 8.84 197.482 7.93333 197.842 7.16C198.216 6.37333 198.742 5.76667 199.422 5.34C200.102 4.91333 200.882 4.7 201.762 4.7C202.549 4.7 203.236 4.87333 203.822 5.22C204.409 5.55333 204.849 6.02667 205.142 6.64V0.279999H206.762ZM202.082 13.8C203.069 13.8 203.829 13.4667 204.362 12.8C204.896 12.12 205.162 11.16 205.162 9.92C205.162 8.69333 204.896 7.74667 204.362 7.08C203.829 6.4 203.069 6.06 202.082 6.06C201.096 6.06 200.322 6.39333 199.762 7.06C199.216 7.72667 198.942 8.66667 198.942 9.88C198.942 11.12 199.216 12.0867 199.762 12.78C200.322 13.46 201.096 13.8 202.082 13.8ZM217.689 4.94V15H216.109V13.26C215.789 13.8733 215.343 14.34 214.769 14.66C214.196 14.98 213.549 15.14 212.829 15.14C211.643 15.14 210.743 14.8067 210.129 14.14C209.516 13.4733 209.209 12.4867 209.209 11.18V4.94H210.829V11.14C210.829 12.0467 211.016 12.7133 211.389 13.14C211.763 13.5667 212.329 13.78 213.089 13.78C213.983 13.78 214.703 13.4933 215.249 12.92C215.796 12.3333 216.069 11.5667 216.069 10.62V4.94H217.689ZM224.407 15.14C223.434 15.14 222.58 14.9267 221.847 14.5C221.127 14.0733 220.567 13.4733 220.167 12.7C219.78 11.9133 219.587 11 219.587 9.96C219.587 8.92 219.787 8.00667 220.187 7.22C220.587 6.42 221.154 5.8 221.887 5.36C222.634 4.92 223.5 4.7 224.487 4.7C225.167 4.7 225.82 4.82 226.447 5.06C227.087 5.28667 227.614 5.60667 228.027 6.02L227.487 7.22C226.98 6.82 226.487 6.52667 226.007 6.34C225.54 6.15333 225.06 6.06 224.567 6.06C223.54 6.06 222.734 6.40667 222.147 7.1C221.56 7.78 221.267 8.73333 221.267 9.96C221.267 11.1733 221.554 12.12 222.127 12.8C222.714 13.4667 223.527 13.8 224.567 13.8C225.06 13.8 225.54 13.7067 226.007 13.52C226.487 13.3333 226.98 13.04 227.487 12.64L228.027 13.84C227.6 14.24 227.06 14.56 226.407 14.8C225.767 15.0267 225.1 15.14 224.407 15.14ZM231.644 6.22V11.72C231.644 12.4667 231.797 12.9933 232.104 13.3C232.41 13.5933 232.844 13.74 233.404 13.74C233.777 13.74 234.137 13.68 234.484 13.56V14.94C234.07 15.0733 233.604 15.14 233.084 15.14C232.124 15.14 231.37 14.8733 230.824 14.34C230.29 13.7933 230.024 12.9933 230.024 11.94V6.22H228.064V4.94H230.024V2.36L231.644 1.78V4.94H234.524V6.22H231.644ZM239.251 15.14C237.557 15.14 236.217 14.7067 235.231 13.84L235.771 12.64C236.317 13.0667 236.871 13.3733 237.431 13.56C237.991 13.7467 238.617 13.84 239.311 13.84C240.071 13.84 240.644 13.7133 241.031 13.46C241.431 13.1933 241.631 12.8133 241.631 12.32C241.631 11.92 241.497 11.6 241.231 11.36C240.964 11.12 240.524 10.9333 239.911 10.8L238.211 10.4C237.371 10.2133 236.717 9.88 236.251 9.4C235.797 8.92 235.571 8.34667 235.571 7.68C235.571 6.8 235.924 6.08667 236.631 5.54C237.337 4.98 238.271 4.7 239.431 4.7C240.137 4.7 240.804 4.81333 241.431 5.04C242.057 5.26667 242.584 5.59333 243.011 6.02L242.471 7.2C241.524 6.41333 240.511 6.02 239.431 6.02C238.711 6.02 238.151 6.16 237.751 6.44C237.364 6.70667 237.171 7.08667 237.171 7.58C237.171 7.99333 237.291 8.32 237.531 8.56C237.784 8.8 238.184 8.98667 238.731 9.12L240.431 9.54C241.364 9.75333 242.057 10.0867 242.511 10.54C242.964 10.98 243.191 11.56 243.191 12.28C243.191 13.1467 242.837 13.84 242.131 14.36C241.424 14.88 240.464 15.14 239.251 15.14ZM251.897 6.22V11.72C251.897 12.4667 252.05 12.9933 252.357 13.3C252.663 13.5933 253.097 13.74 253.657 13.74C254.03 13.74 254.39 13.68 254.737 13.56V14.94C254.323 15.0733 253.857 15.14 253.337 15.14C252.377 15.14 251.623 14.8733 251.077 14.34C250.543 13.7933 250.277 12.9933 250.277 11.94V6.22H248.317V4.94H250.277V2.36L251.897 1.78V4.94H254.777V6.22H251.897ZM261.124 4.7C263.537 4.7 264.744 6.02667 264.744 8.68V15H263.124V8.76C263.124 7.82667 262.937 7.14667 262.564 6.72C262.19 6.28 261.604 6.06 260.804 6.06C259.87 6.06 259.124 6.34667 258.564 6.92C258.004 7.49333 257.724 8.26667 257.724 9.24V15H256.104V0.279999H257.724V6.58C258.044 5.96667 258.497 5.5 259.084 5.18C259.684 4.86 260.364 4.7 261.124 4.7ZM276.038 4.94V15H274.438V13.18C274.144 13.8067 273.698 14.2933 273.098 14.64C272.511 14.9733 271.824 15.14 271.038 15.14C270.144 15.14 269.358 14.9267 268.678 14.5C268.011 14.0733 267.491 13.4733 267.118 12.7C266.758 11.9133 266.578 11 266.578 9.96C266.578 8.92 266.764 8.00667 267.138 7.22C267.511 6.42 268.031 5.8 268.698 5.36C269.378 4.92 270.158 4.7 271.038 4.7C271.824 4.7 272.511 4.87333 273.098 5.22C273.684 5.56667 274.131 6.05333 274.438 6.68V4.94H276.038ZM271.358 13.8C272.344 13.8 273.104 13.4667 273.638 12.8C274.171 12.12 274.438 11.16 274.438 9.92C274.438 8.68 274.171 7.72667 273.638 7.06C273.104 6.39333 272.344 6.06 271.358 6.06C270.371 6.06 269.598 6.40667 269.038 7.1C268.491 7.78 268.218 8.73333 268.218 9.96C268.218 11.1867 268.491 12.1333 269.038 12.8C269.584 13.4667 270.358 13.8 271.358 13.8ZM280.705 6.22V11.72C280.705 12.4667 280.858 12.9933 281.165 13.3C281.471 13.5933 281.905 13.74 282.465 13.74C282.838 13.74 283.198 13.68 283.545 13.56V14.94C283.131 15.0733 282.665 15.14 282.145 15.14C281.185 15.14 280.431 14.8733 279.885 14.34C279.351 13.7933 279.085 12.9933 279.085 11.94V6.22H277.125V4.94H279.085V2.36L280.705 1.78V4.94H283.585V6.22H280.705ZM294.181 4.7C294.514 4.7 294.821 4.74 295.101 4.82L295.061 6.3C294.754 6.19333 294.401 6.14 294.001 6.14C293.028 6.14 292.301 6.44667 291.821 7.06C291.354 7.66 291.121 8.39333 291.121 9.26V15H289.501V7.76C289.501 6.72 289.448 5.78 289.341 4.94H290.881L291.041 6.8C291.294 6.12 291.701 5.6 292.261 5.24C292.821 4.88 293.461 4.7 294.181 4.7ZM304.347 9.92H296.967C296.98 11.2 297.273 12.1667 297.847 12.82C298.433 13.4733 299.28 13.8 300.387 13.8C301.56 13.8 302.64 13.4067 303.627 12.62L304.167 13.8C303.727 14.2133 303.16 14.54 302.467 14.78C301.787 15.02 301.087 15.14 300.367 15.14C298.793 15.14 297.56 14.68 296.667 13.76C295.773 12.8267 295.327 11.5533 295.327 9.94C295.327 8.91333 295.527 8.00667 295.927 7.22C296.327 6.42 296.887 5.8 297.607 5.36C298.327 4.92 299.147 4.7 300.067 4.7C301.4 4.7 302.447 5.14 303.207 6.02C303.967 6.88667 304.347 8.08667 304.347 9.62V9.92ZM300.087 5.96C299.247 5.96 298.56 6.21333 298.027 6.72C297.507 7.22667 297.173 7.94 297.027 8.86H302.887C302.807 7.91333 302.527 7.19333 302.047 6.7C301.58 6.20667 300.927 5.96 300.087 5.96ZM315.04 0.279999V15H313.44V13.18C313.147 13.8067 312.7 14.2933 312.1 14.64C311.514 14.9733 310.827 15.14 310.04 15.14C309.16 15.14 308.38 14.92 307.7 14.48C307.034 14.04 306.514 13.4267 306.14 12.64C305.767 11.84 305.58 10.92 305.58 9.88C305.58 8.84 305.76 7.93333 306.12 7.16C306.494 6.37333 307.02 5.76667 307.7 5.34C308.38 4.91333 309.16 4.7 310.04 4.7C310.827 4.7 311.514 4.87333 312.1 5.22C312.687 5.55333 313.127 6.02667 313.42 6.64V0.279999H315.04ZM310.36 13.8C311.347 13.8 312.107 13.4667 312.64 12.8C313.174 12.12 313.44 11.16 313.44 9.92C313.44 8.69333 313.174 7.74667 312.64 7.08C312.107 6.4 311.347 6.06 310.36 6.06C309.374 6.06 308.6 6.39333 308.04 7.06C307.494 7.72667 307.22 8.66667 307.22 9.88C307.22 11.12 307.494 12.0867 308.04 12.78C308.6 13.46 309.374 13.8 310.36 13.8ZM325.967 4.94V15H324.387V13.26C324.067 13.8733 323.62 14.34 323.047 14.66C322.474 14.98 321.827 15.14 321.107 15.14C319.92 15.14 319.02 14.8067 318.407 14.14C317.794 13.4733 317.487 12.4867 317.487 11.18V4.94H319.107V11.14C319.107 12.0467 319.294 12.7133 319.667 13.14C320.04 13.5667 320.607 13.78 321.367 13.78C322.26 13.78 322.98 13.4933 323.527 12.92C324.074 12.3333 324.347 11.5667 324.347 10.62V4.94H325.967ZM332.685 15.14C331.712 15.14 330.858 14.9267 330.125 14.5C329.405 14.0733 328.845 13.4733 328.445 12.7C328.058 11.9133 327.865 11 327.865 9.96C327.865 8.92 328.065 8.00667 328.465 7.22C328.865 6.42 329.432 5.8 330.165 5.36C330.912 4.92 331.778 4.7 332.765 4.7C333.445 4.7 334.098 4.82 334.725 5.06C335.365 5.28667 335.892 5.60667 336.305 6.02L335.765 7.22C335.258 6.82 334.765 6.52667 334.285 6.34C333.818 6.15333 333.338 6.06 332.845 6.06C331.818 6.06 331.012 6.40667 330.425 7.1C329.838 7.78 329.545 8.73333 329.545 9.96C329.545 11.1733 329.832 12.12 330.405 12.8C330.992 13.4667 331.805 13.8 332.845 13.8C333.338 13.8 333.818 13.7067 334.285 13.52C334.765 13.3333 335.258 13.04 335.765 12.64L336.305 13.84C335.878 14.24 335.338 14.56 334.685 14.8C334.045 15.0267 333.378 15.14 332.685 15.14ZM346.162 9.92H338.782C338.795 11.2 339.089 12.1667 339.662 12.82C340.249 13.4733 341.095 13.8 342.202 13.8C343.375 13.8 344.455 13.4067 345.442 12.62L345.982 13.8C345.542 14.2133 344.975 14.54 344.282 14.78C343.602 15.02 342.902 15.14 342.182 15.14C340.609 15.14 339.375 14.68 338.482 13.76C337.589 12.8267 337.142 11.5533 337.142 9.94C337.142 8.91333 337.342 8.00667 337.742 7.22C338.142 6.42 338.702 5.8 339.422 5.36C340.142 4.92 340.962 4.7 341.882 4.7C343.215 4.7 344.262 5.14 345.022 6.02C345.782 6.88667 346.162 8.08667 346.162 9.62V9.92ZM341.902 5.96C341.062 5.96 340.375 6.21333 339.842 6.72C339.322 7.22667 338.989 7.94 338.842 8.86H344.702C344.622 7.91333 344.342 7.19333 343.862 6.7C343.395 6.20667 342.742 5.96 341.902 5.96ZM356.805 15.14C355.832 15.14 354.978 14.9267 354.245 14.5C353.525 14.0733 352.965 13.4733 352.565 12.7C352.178 11.9133 351.985 11 351.985 9.96C351.985 8.92 352.185 8.00667 352.585 7.22C352.985 6.42 353.552 5.8 354.285 5.36C355.032 4.92 355.898 4.7 356.885 4.7C357.565 4.7 358.218 4.82 358.845 5.06C359.485 5.28667 360.012 5.60667 360.425 6.02L359.885 7.22C359.378 6.82 358.885 6.52667 358.405 6.34C357.938 6.15333 357.458 6.06 356.965 6.06C355.938 6.06 355.132 6.40667 354.545 7.1C353.958 7.78 353.665 8.73333 353.665 9.96C353.665 11.1733 353.952 12.12 354.525 12.8C355.112 13.4667 355.925 13.8 356.965 13.8C357.458 13.8 357.938 13.7067 358.405 13.52C358.885 13.3333 359.378 13.04 359.885 12.64L360.425 13.84C359.998 14.24 359.458 14.56 358.805 14.8C358.165 15.0267 357.498 15.14 356.805 15.14ZM366.882 4.7C369.296 4.7 370.502 6.02667 370.502 8.68V15H368.882V8.76C368.882 7.82667 368.696 7.14667 368.322 6.72C367.949 6.28 367.362 6.06 366.562 6.06C365.629 6.06 364.882 6.34667 364.322 6.92C363.762 7.49333 363.482 8.26667 363.482 9.24V15H361.862V0.279999H363.482V6.58C363.802 5.96667 364.256 5.5 364.842 5.18C365.442 4.86 366.122 4.7 366.882 4.7ZM381.356 4.94V15H379.776V13.26C379.456 13.8733 379.01 14.34 378.436 14.66C377.863 14.98 377.216 15.14 376.496 15.14C375.31 15.14 374.41 14.8067 373.796 14.14C373.183 13.4733 372.876 12.4867 372.876 11.18V4.94H374.496V11.14C374.496 12.0467 374.683 12.7133 375.056 13.14C375.43 13.5667 375.996 13.78 376.756 13.78C377.65 13.78 378.37 13.4933 378.916 12.92C379.463 12.3333 379.736 11.5667 379.736 10.62V4.94H381.356ZM388.534 4.7C388.867 4.7 389.174 4.74 389.454 4.82L389.414 6.3C389.107 6.19333 388.754 6.14 388.354 6.14C387.381 6.14 386.654 6.44667 386.174 7.06C385.707 7.66 385.474 8.39333 385.474 9.26V15H383.854V7.76C383.854 6.72 383.801 5.78 383.694 4.94H385.234L385.394 6.8C385.647 6.12 386.054 5.6 386.614 5.24C387.174 4.88 387.814 4.7 388.534 4.7ZM395.495 4.7C397.908 4.7 399.115 6.02667 399.115 8.68V15H397.495V8.76C397.495 7.82667 397.308 7.14667 396.935 6.72C396.561 6.28 395.975 6.06 395.175 6.06C394.241 6.06 393.495 6.34667 392.935 6.92C392.375 7.49333 392.095 8.26667 392.095 9.24V15H390.475V7.76C390.475 6.72 390.421 5.78 390.315 4.94H391.855L392.015 6.74C392.321 6.08667 392.781 5.58667 393.395 5.24C394.008 4.88 394.708 4.7 395.495 4.7ZM403.329 12.94V14.4C403.329 14.96 403.235 15.4733 403.049 15.94C402.862 16.4067 402.549 16.86 402.109 17.3L401.349 16.72C401.869 16.12 402.162 15.5467 402.229 15H401.269V12.94H403.329ZM5.72 45.14C4.77333 45.14 3.94 44.9267 3.22 44.5C2.5 44.0733 1.94 43.4667 1.54 42.68C1.15333 41.8933 0.96 40.9733 0.96 39.92C0.96 38.8667 1.15333 37.9467 1.54 37.16C1.94 36.3733 2.5 35.7667 3.22 35.34C3.94 34.9133 4.77333 34.7 5.72 34.7C6.66667 34.7 7.5 34.9133 8.22 35.34C8.94 35.7667 9.49333 36.3733 9.88 37.16C10.28 37.9467 10.48 38.8667 10.48 39.92C10.48 40.9733 10.28 41.8933 9.88 42.68C9.49333 43.4667 8.94 44.0733 8.22 44.5C7.5 44.9267 6.66667 45.14 5.72 45.14ZM5.72 43.8C6.72 43.8 7.48667 43.4733 8.02 42.82C8.55333 42.1533 8.82 41.1867 8.82 39.92C8.82 38.6933 8.54667 37.7467 8 37.08C7.45333 36.4 6.69333 36.06 5.72 36.06C4.73333 36.06 3.96667 36.4 3.42 37.08C2.87333 37.7467 2.6 38.6933 2.6 39.92C2.6 41.1867 2.86667 42.1533 3.4 42.82C3.94667 43.4733 4.72 43.8 5.72 43.8ZM17.4 34.7C18.28 34.7 19.06 34.92 19.74 35.36C20.42 35.8 20.9467 36.42 21.3201 37.22C21.6934 38.0067 21.88 38.92 21.88 39.96C21.88 41 21.6934 41.9133 21.3201 42.7C20.9467 43.4733 20.42 44.0733 19.74 44.5C19.0734 44.9267 18.2934 45.14 17.4 45.14C16.6134 45.14 15.9267 44.9667 15.34 44.62C14.7534 44.2733 14.3067 43.78 14 43.14V49.32H12.38V37.76C12.38 36.72 12.3267 35.78 12.22 34.94H13.76L13.92 36.88C14.2 36.1867 14.64 35.6533 15.24 35.28C15.8534 34.8933 16.5734 34.7 17.4 34.7ZM17.1 43.8C18.0867 43.8 18.8467 43.4667 19.38 42.8C19.9267 42.1333 20.2 41.1867 20.2 39.96C20.2 38.7333 19.9267 37.78 19.38 37.1C18.8334 36.4067 18.0734 36.06 17.1 36.06C16.1 36.06 15.3334 36.3933 14.8 37.06C14.2667 37.7267 14 38.68 14 39.92C14 41.16 14.2667 42.12 14.8 42.8C15.3334 43.4667 16.1 43.8 17.1 43.8ZM25.8874 36.22V41.72C25.8874 42.4667 26.0408 42.9933 26.3474 43.3C26.6541 43.5933 27.0874 43.74 27.6474 43.74C28.0208 43.74 28.3808 43.68 28.7274 43.56V44.94C28.3141 45.0733 27.8474 45.14 27.3274 45.14C26.3674 45.14 25.6141 44.8733 25.0674 44.34C24.5341 43.7933 24.2674 42.9933 24.2674 41.94V36.22H22.3074V34.94H24.2674V32.36L25.8874 31.78V34.94H28.7674V36.22H25.8874ZM30.0944 34.94H31.7144V45H30.0944V34.94ZM31.9144 30.68V32.52H29.9344V30.68H31.9144ZM45.3947 34.7C47.6214 34.7 48.7347 36.0267 48.7347 38.68V45H47.1147V38.76C47.1147 37.8133 46.9481 37.1267 46.6147 36.7C46.2947 36.2733 45.7681 36.06 45.0347 36.06C44.1814 36.06 43.5147 36.3467 43.0347 36.92C42.5547 37.4933 42.3147 38.2733 42.3147 39.26V45H40.6947V38.76C40.6947 37.8267 40.5281 37.1467 40.1947 36.72C39.8614 36.28 39.3281 36.06 38.5947 36.06C37.7414 36.06 37.0681 36.3467 36.5747 36.92C36.0947 37.4933 35.8547 38.2733 35.8547 39.26V45H34.2347V37.76C34.2347 36.72 34.1814 35.78 34.0747 34.94H35.6147L35.7747 36.7C36.0547 36.06 36.4681 35.5667 37.0147 35.22C37.5747 34.8733 38.2214 34.7 38.9547 34.7C39.7547 34.7 40.4081 34.86 40.9147 35.18C41.4214 35.5 41.7947 35.9933 42.0347 36.66C42.3414 36.06 42.7881 35.5867 43.3747 35.24C43.9747 34.88 44.6481 34.7 45.3947 34.7ZM51.1876 34.94H52.8076V45H51.1876V34.94ZM53.0076 30.68V32.52H51.0276V30.68H53.0076ZM63.268 43.72V45H54.768V43.88L61.108 36.22H54.988V34.94H63.048V36.12L56.768 43.72H63.268ZM73.2594 39.92H65.8794C65.8927 41.2 66.1861 42.1667 66.7594 42.82C67.3461 43.4733 68.1927 43.8 69.2994 43.8C70.4727 43.8 71.5527 43.4067 72.5394 42.62L73.0794 43.8C72.6394 44.2133 72.0727 44.54 71.3794 44.78C70.6994 45.02 69.9994 45.14 69.2794 45.14C67.7061 45.14 66.4727 44.68 65.5794 43.76C64.6861 42.8267 64.2394 41.5533 64.2394 39.94C64.2394 38.9133 64.4394 38.0067 64.8394 37.22C65.2394 36.42 65.7994 35.8 66.5194 35.36C67.2394 34.92 68.0594 34.7 68.9794 34.7C70.3127 34.7 71.3594 35.14 72.1194 36.02C72.8794 36.8867 73.2594 38.0867 73.2594 39.62V39.92ZM68.9994 35.96C68.1594 35.96 67.4727 36.2133 66.9394 36.72C66.4194 37.2267 66.0861 37.94 65.9394 38.86H71.7994C71.7194 37.9133 71.4394 37.1933 70.9594 36.7C70.4927 36.2067 69.8394 35.96 68.9994 35.96ZM84.7026 34.7C85.5826 34.7 86.3626 34.92 87.0426 35.36C87.7226 35.8 88.2493 36.42 88.6226 37.22C88.996 38.0067 89.1826 38.92 89.1826 39.96C89.1826 41 88.996 41.9133 88.6226 42.7C88.2493 43.4733 87.7226 44.0733 87.0426 44.5C86.376 44.9267 85.596 45.14 84.7026 45.14C83.916 45.14 83.2293 44.9667 82.6426 44.62C82.056 44.2733 81.6093 43.78 81.3026 43.14V49.32H79.6826V37.76C79.6826 36.72 79.6293 35.78 79.5226 34.94H81.0626L81.2226 36.88C81.5026 36.1867 81.9426 35.6533 82.5426 35.28C83.156 34.8933 83.876 34.7 84.7026 34.7ZM84.4026 43.8C85.3893 43.8 86.1493 43.4667 86.6826 42.8C87.2293 42.1333 87.5026 41.1867 87.5026 39.96C87.5026 38.7333 87.2293 37.78 86.6826 37.1C86.136 36.4067 85.376 36.06 84.4026 36.06C83.4026 36.06 82.636 36.3933 82.1026 37.06C81.5693 37.7267 81.3026 38.68 81.3026 39.92C81.3026 41.16 81.5693 42.12 82.1026 42.8C82.636 43.4667 83.4026 43.8 84.4026 43.8ZM95.7296 34.7C96.0629 34.7 96.3696 34.74 96.6496 34.82L96.6096 36.3C96.3029 36.1933 95.9496 36.14 95.5496 36.14C94.5762 36.14 93.8496 36.4467 93.3696 37.06C92.9029 37.66 92.6696 38.3933 92.6696 39.26V45H91.0496V37.76C91.0496 36.72 90.9962 35.78 90.8896 34.94H92.4296L92.5896 36.8C92.8429 36.12 93.2496 35.6 93.8096 35.24C94.3696 34.88 95.0096 34.7 95.7296 34.7ZM97.6704 34.94H99.2904V45H97.6704V34.94ZM99.4904 30.68V32.52H97.5104V30.68H99.4904ZM106.031 45.14C105.057 45.14 104.204 44.9267 103.471 44.5C102.751 44.0733 102.191 43.4733 101.791 42.7C101.404 41.9133 101.211 41 101.211 39.96C101.211 38.92 101.411 38.0067 101.811 37.22C102.211 36.42 102.777 35.8 103.511 35.36C104.257 34.92 105.124 34.7 106.111 34.7C106.791 34.7 107.444 34.82 108.071 35.06C108.711 35.2867 109.237 35.6067 109.651 36.02L109.111 37.22C108.604 36.82 108.111 36.5267 107.631 36.34C107.164 36.1533 106.684 36.06 106.191 36.06C105.164 36.06 104.357 36.4067 103.771 37.1C103.184 37.78 102.891 38.7333 102.891 39.96C102.891 41.1733 103.177 42.12 103.751 42.8C104.337 43.4667 105.151 43.8 106.191 43.8C106.684 43.8 107.164 43.7067 107.631 43.52C108.111 43.3333 108.604 43.04 109.111 42.64L109.651 43.84C109.224 44.24 108.684 44.56 108.031 44.8C107.391 45.0267 106.724 45.14 106.031 45.14ZM111.088 34.94H112.708V45H111.088V34.94ZM112.908 30.68V32.52H110.928V30.68H112.908ZM120.248 34.7C122.662 34.7 123.868 36.0267 123.868 38.68V45H122.248V38.76C122.248 37.8267 122.062 37.1467 121.688 36.72C121.315 36.28 120.728 36.06 119.928 36.06C118.995 36.06 118.248 36.3467 117.688 36.92C117.128 37.4933 116.848 38.2667 116.848 39.24V45H115.228V37.76C115.228 36.72 115.175 35.78 115.068 34.94H116.608L116.768 36.74C117.075 36.0867 117.535 35.5867 118.148 35.24C118.762 34.88 119.462 34.7 120.248 34.7ZM135.262 34.94V44.92C135.262 46.4133 134.875 47.54 134.102 48.3C133.342 49.0733 132.215 49.46 130.722 49.46C129.189 49.46 127.869 49.1133 126.762 48.42L127.042 47.1C127.682 47.46 128.282 47.72 128.842 47.88C129.415 48.04 130.042 48.12 130.722 48.12C131.695 48.12 132.429 47.86 132.922 47.34C133.415 46.8333 133.662 46.0733 133.662 45.06V42.68C133.355 43.32 132.902 43.82 132.302 44.18C131.715 44.5267 131.015 44.7 130.202 44.7C129.322 44.7 128.535 44.4933 127.842 44.08C127.162 43.6667 126.635 43.08 126.262 42.32C125.889 41.56 125.702 40.6867 125.702 39.7C125.702 38.7133 125.889 37.84 126.262 37.08C126.635 36.32 127.162 35.7333 127.842 35.32C128.535 34.9067 129.322 34.7 130.202 34.7C131.002 34.7 131.695 34.8733 132.282 35.22C132.882 35.5667 133.335 36.0533 133.642 36.68V34.94H135.262ZM130.522 43.34C131.495 43.34 132.255 43.02 132.802 42.38C133.362 41.7267 133.642 40.8333 133.642 39.7C133.642 38.5667 133.362 37.68 132.802 37.04C132.255 36.3867 131.495 36.06 130.522 36.06C129.535 36.06 128.755 36.3867 128.182 37.04C127.622 37.68 127.342 38.5667 127.342 39.7C127.342 40.8333 127.622 41.7267 128.182 42.38C128.755 43.02 129.535 43.34 130.522 43.34ZM139.527 42.94V44.4C139.527 44.96 139.434 45.4733 139.247 45.94C139.061 46.4067 138.747 46.86 138.307 47.3L137.547 46.72C138.067 46.12 138.361 45.5467 138.427 45H137.467V42.94H139.527ZM155.2 34.94V45H153.6V43.18C153.307 43.8067 152.86 44.2933 152.26 44.64C151.674 44.9733 150.987 45.14 150.2 45.14C149.307 45.14 148.52 44.9267 147.84 44.5C147.174 44.0733 146.654 43.4733 146.28 42.7C145.92 41.9133 145.74 41 145.74 39.96C145.74 38.92 145.927 38.0067 146.3 37.22C146.674 36.42 147.194 35.8 147.86 35.36C148.54 34.92 149.32 34.7 150.2 34.7C150.987 34.7 151.674 34.8733 152.26 35.22C152.847 35.5667 153.294 36.0533 153.6 36.68V34.94H155.2ZM150.52 43.8C151.507 43.8 152.267 43.4667 152.8 42.8C153.334 42.12 153.6 41.16 153.6 39.92C153.6 38.68 153.334 37.7267 152.8 37.06C152.267 36.3933 151.507 36.06 150.52 36.06C149.534 36.06 148.76 36.4067 148.2 37.1C147.654 37.78 147.38 38.7333 147.38 39.96C147.38 41.1867 147.654 42.1333 148.2 42.8C148.747 43.4667 149.52 43.8 150.52 43.8ZM162.727 34.7C165.141 34.7 166.347 36.0267 166.347 38.68V45H164.727V38.76C164.727 37.8267 164.541 37.1467 164.167 36.72C163.794 36.28 163.207 36.06 162.407 36.06C161.474 36.06 160.727 36.3467 160.167 36.92C159.607 37.4933 159.327 38.2667 159.327 39.24V45H157.707V37.76C157.707 36.72 157.654 35.78 157.547 34.94H159.087L159.247 36.74C159.554 36.0867 160.014 35.5867 160.627 35.24C161.241 34.88 161.941 34.7 162.727 34.7ZM177.641 30.28V45H176.041V43.18C175.748 43.8067 175.301 44.2933 174.701 44.64C174.115 44.9733 173.428 45.14 172.641 45.14C171.761 45.14 170.981 44.92 170.301 44.48C169.635 44.04 169.115 43.4267 168.741 42.64C168.368 41.84 168.181 40.92 168.181 39.88C168.181 38.84 168.361 37.9333 168.721 37.16C169.095 36.3733 169.621 35.7667 170.301 35.34C170.981 34.9133 171.761 34.7 172.641 34.7C173.428 34.7 174.115 34.8733 174.701 35.22C175.288 35.5533 175.728 36.0267 176.021 36.64V30.28H177.641ZM172.961 43.8C173.948 43.8 174.708 43.4667 175.241 42.8C175.775 42.12 176.041 41.16 176.041 39.92C176.041 38.6933 175.775 37.7467 175.241 37.08C174.708 36.4 173.948 36.06 172.961 36.06C171.975 36.06 171.201 36.3933 170.641 37.06C170.095 37.7267 169.821 38.6667 169.821 39.88C169.821 41.12 170.095 42.0867 170.641 42.78C171.201 43.46 171.975 43.8 172.961 43.8ZM193.698 34.94V44.92C193.698 46.4133 193.311 47.54 192.538 48.3C191.778 49.0733 190.651 49.46 189.158 49.46C187.624 49.46 186.304 49.1133 185.198 48.42L185.478 47.1C186.118 47.46 186.718 47.72 187.278 47.88C187.851 48.04 188.478 48.12 189.158 48.12C190.131 48.12 190.864 47.86 191.358 47.34C191.851 46.8333 192.098 46.0733 192.098 45.06V42.68C191.791 43.32 191.338 43.82 190.738 44.18C190.151 44.5267 189.451 44.7 188.638 44.7C187.758 44.7 186.971 44.4933 186.278 44.08C185.598 43.6667 185.071 43.08 184.698 42.32C184.324 41.56 184.138 40.6867 184.138 39.7C184.138 38.7133 184.324 37.84 184.698 37.08C185.071 36.32 185.598 35.7333 186.278 35.32C186.971 34.9067 187.758 34.7 188.638 34.7C189.438 34.7 190.131 34.8733 190.718 35.22C191.318 35.5667 191.771 36.0533 192.078 36.68V34.94H193.698ZM188.958 43.34C189.931 43.34 190.691 43.02 191.238 42.38C191.798 41.7267 192.078 40.8333 192.078 39.7C192.078 38.5667 191.798 37.68 191.238 37.04C190.691 36.3867 189.931 36.06 188.958 36.06C187.971 36.06 187.191 36.3867 186.618 37.04C186.058 37.68 185.778 38.5667 185.778 39.7C185.778 40.8333 186.058 41.7267 186.618 42.38C187.191 43.02 187.971 43.34 188.958 43.34ZM200.863 34.7C201.196 34.7 201.503 34.74 201.783 34.82L201.743 36.3C201.436 36.1933 201.083 36.14 200.683 36.14C199.71 36.14 198.983 36.4467 198.503 37.06C198.036 37.66 197.803 38.3933 197.803 39.26V45H196.183V37.76C196.183 36.72 196.13 35.78 196.023 34.94H197.563L197.723 36.8C197.976 36.12 198.383 35.6 198.943 35.24C199.503 34.88 200.143 34.7 200.863 34.7ZM206.768 45.14C205.822 45.14 204.988 44.9267 204.268 44.5C203.548 44.0733 202.988 43.4667 202.588 42.68C202.202 41.8933 202.008 40.9733 202.008 39.92C202.008 38.8667 202.202 37.9467 202.588 37.16C202.988 36.3733 203.548 35.7667 204.268 35.34C204.988 34.9133 205.822 34.7 206.768 34.7C207.715 34.7 208.548 34.9133 209.268 35.34C209.988 35.7667 210.542 36.3733 210.928 37.16C211.328 37.9467 211.528 38.8667 211.528 39.92C211.528 40.9733 211.328 41.8933 210.928 42.68C210.542 43.4667 209.988 44.0733 209.268 44.5C208.548 44.9267 207.715 45.14 206.768 45.14ZM206.768 43.8C207.768 43.8 208.535 43.4733 209.068 42.82C209.602 42.1533 209.868 41.1867 209.868 39.92C209.868 38.6933 209.595 37.7467 209.048 37.08C208.502 36.4 207.742 36.06 206.768 36.06C205.782 36.06 205.015 36.4 204.468 37.08C203.922 37.7467 203.648 38.6933 203.648 39.92C203.648 41.1867 203.915 42.1533 204.448 42.82C204.995 43.4733 205.768 43.8 206.768 43.8ZM228.591 34.94L224.871 45H223.311L220.431 37.14L217.571 45H216.011L212.291 34.94H213.991L216.831 43.06L219.771 34.94H221.191L224.091 43.08L226.991 34.94H228.591ZM243.498 34.94L238.798 45.92C238.305 47.0667 237.685 47.9067 236.938 48.44C236.192 48.9733 235.272 49.34 234.178 49.54L233.838 48.28C234.785 48.0667 235.498 47.78 235.978 47.42C236.472 47.0733 236.878 46.5333 237.198 45.8L237.598 44.9L233.338 34.94H235.038L238.438 43.24L241.878 34.94H243.498ZM248.701 45.14C247.754 45.14 246.921 44.9267 246.201 44.5C245.481 44.0733 244.921 43.4667 244.521 42.68C244.134 41.8933 243.941 40.9733 243.941 39.92C243.941 38.8667 244.134 37.9467 244.521 37.16C244.921 36.3733 245.481 35.7667 246.201 35.34C246.921 34.9133 247.754 34.7 248.701 34.7C249.648 34.7 250.481 34.9133 251.201 35.34C251.921 35.7667 252.474 36.3733 252.861 37.16C253.261 37.9467 253.461 38.8667 253.461 39.92C253.461 40.9733 253.261 41.8933 252.861 42.68C252.474 43.4667 251.921 44.0733 251.201 44.5C250.481 44.9267 249.648 45.14 248.701 45.14ZM248.701 43.8C249.701 43.8 250.468 43.4733 251.001 42.82C251.534 42.1533 251.801 41.1867 251.801 39.92C251.801 38.6933 251.528 37.7467 250.981 37.08C250.434 36.4 249.674 36.06 248.701 36.06C247.714 36.06 246.948 36.4 246.401 37.08C245.854 37.7467 245.581 38.6933 245.581 39.92C245.581 41.1867 245.848 42.1533 246.381 42.82C246.928 43.4733 247.701 43.8 248.701 43.8ZM263.781 34.94V45H262.201V43.26C261.881 43.8733 261.434 44.34 260.861 44.66C260.288 44.98 259.641 45.14 258.921 45.14C257.734 45.14 256.834 44.8067 256.221 44.14C255.608 43.4733 255.301 42.4867 255.301 41.18V34.94H256.921V41.14C256.921 42.0467 257.108 42.7133 257.481 43.14C257.854 43.5667 258.421 43.78 259.181 43.78C260.074 43.78 260.794 43.4933 261.341 42.92C261.888 42.3333 262.161 41.5667 262.161 40.62V34.94H263.781ZM270.959 34.7C271.292 34.7 271.599 34.74 271.879 34.82L271.839 36.3C271.532 36.1933 271.179 36.14 270.779 36.14C269.805 36.14 269.079 36.4467 268.599 37.06C268.132 37.66 267.899 38.3933 267.899 39.26V45H266.279V37.76C266.279 36.72 266.225 35.78 266.119 34.94H267.659L267.819 36.8C268.072 36.12 268.479 35.6 269.039 35.24C269.599 34.88 270.239 34.7 270.959 34.7ZM280.889 45.14C279.196 45.14 277.856 44.7067 276.869 43.84L277.409 42.64C277.956 43.0667 278.509 43.3733 279.069 43.56C279.629 43.7467 280.256 43.84 280.949 43.84C281.709 43.84 282.282 43.7133 282.669 43.46C283.069 43.1933 283.269 42.8133 283.269 42.32C283.269 41.92 283.136 41.6 282.869 41.36C282.602 41.12 282.162 40.9333 281.549 40.8L279.849 40.4C279.009 40.2133 278.356 39.88 277.889 39.4C277.436 38.92 277.209 38.3467 277.209 37.68C277.209 36.8 277.562 36.0867 278.269 35.54C278.976 34.98 279.909 34.7 281.069 34.7C281.776 34.7 282.442 34.8133 283.069 35.04C283.696 35.2667 284.222 35.5933 284.649 36.02L284.109 37.2C283.162 36.4133 282.149 36.02 281.069 36.02C280.349 36.02 279.789 36.16 279.389 36.44C279.002 36.7067 278.809 37.0867 278.809 37.58C278.809 37.9933 278.929 38.32 279.169 38.56C279.422 38.8 279.822 38.9867 280.369 39.12L282.069 39.54C283.002 39.7533 283.696 40.0867 284.149 40.54C284.602 40.98 284.829 41.56 284.829 42.28C284.829 43.1467 284.476 43.84 283.769 44.36C283.062 44.88 282.102 45.14 280.889 45.14ZM295.206 34.94V45H293.626V43.26C293.306 43.8733 292.859 44.34 292.286 44.66C291.712 44.98 291.066 45.14 290.346 45.14C289.159 45.14 288.259 44.8067 287.646 44.14C287.032 43.4733 286.726 42.4867 286.726 41.18V34.94H288.346V41.14C288.346 42.0467 288.532 42.7133 288.906 43.14C289.279 43.5667 289.846 43.78 290.606 43.78C291.499 43.78 292.219 43.4933 292.766 42.92C293.312 42.3333 293.586 41.5667 293.586 40.62V34.94H295.206ZM302.723 34.7C303.603 34.7 304.383 34.9133 305.063 35.34C305.743 35.7667 306.27 36.3733 306.643 37.16C307.017 37.9333 307.203 38.84 307.203 39.88C307.203 40.92 307.017 41.84 306.643 42.64C306.27 43.4267 305.743 44.04 305.063 44.48C304.383 44.92 303.603 45.14 302.723 45.14C301.937 45.14 301.25 44.9667 300.663 44.62C300.077 44.2733 299.63 43.78 299.323 43.14V45H297.703V30.28H299.323V36.72C299.617 36.0667 300.057 35.5667 300.643 35.22C301.243 34.8733 301.937 34.7 302.723 34.7ZM302.423 43.8C303.397 43.8 304.157 43.46 304.703 42.78C305.25 42.0867 305.523 41.12 305.523 39.88C305.523 38.6667 305.25 37.7267 304.703 37.06C304.17 36.3933 303.41 36.06 302.423 36.06C301.423 36.06 300.657 36.3933 300.123 37.06C299.59 37.7267 299.323 38.68 299.323 39.92C299.323 41.16 299.59 42.12 300.123 42.8C300.657 43.4667 301.423 43.8 302.423 43.8ZM312.47 45.14C310.777 45.14 309.437 44.7067 308.45 43.84L308.99 42.64C309.537 43.0667 310.09 43.3733 310.65 43.56C311.21 43.7467 311.837 43.84 312.53 43.84C313.29 43.84 313.864 43.7133 314.25 43.46C314.65 43.1933 314.85 42.8133 314.85 42.32C314.85 41.92 314.717 41.6 314.45 41.36C314.184 41.12 313.744 40.9333 313.13 40.8L311.43 40.4C310.59 40.2133 309.937 39.88 309.47 39.4C309.017 38.92 308.79 38.3467 308.79 37.68C308.79 36.8 309.144 36.0867 309.85 35.54C310.557 34.98 311.49 34.7 312.65 34.7C313.357 34.7 314.024 34.8133 314.65 35.04C315.277 35.2667 315.804 35.5933 316.23 36.02L315.69 37.2C314.744 36.4133 313.73 36.02 312.65 36.02C311.93 36.02 311.37 36.16 310.97 36.44C310.584 36.7067 310.39 37.0867 310.39 37.58C310.39 37.9933 310.51 38.32 310.75 38.56C311.004 38.8 311.404 38.9867 311.95 39.12L313.65 39.54C314.584 39.7533 315.277 40.0867 315.73 40.54C316.184 40.98 316.41 41.56 316.41 42.28C316.41 43.1467 316.057 43.84 315.35 44.36C314.644 44.88 313.684 45.14 312.47 45.14ZM322.587 45.14C321.614 45.14 320.76 44.9267 320.027 44.5C319.307 44.0733 318.747 43.4733 318.347 42.7C317.96 41.9133 317.767 41 317.767 39.96C317.767 38.92 317.967 38.0067 318.367 37.22C318.767 36.42 319.334 35.8 320.067 35.36C320.814 34.92 321.68 34.7 322.667 34.7C323.347 34.7 324 34.82 324.627 35.06C325.267 35.2867 325.794 35.6067 326.207 36.02L325.667 37.22C325.16 36.82 324.667 36.5267 324.187 36.34C323.72 36.1533 323.24 36.06 322.747 36.06C321.72 36.06 320.914 36.4067 320.327 37.1C319.74 37.78 319.447 38.7333 319.447 39.96C319.447 41.1733 319.734 42.12 320.307 42.8C320.894 43.4667 321.707 43.8 322.747 43.8C323.24 43.8 323.72 43.7067 324.187 43.52C324.667 43.3333 325.16 43.04 325.667 42.64L326.207 43.84C325.78 44.24 325.24 44.56 324.587 44.8C323.947 45.0267 323.28 45.14 322.587 45.14ZM332.324 34.7C332.657 34.7 332.964 34.74 333.244 34.82L333.204 36.3C332.897 36.1933 332.544 36.14 332.144 36.14C331.171 36.14 330.444 36.4467 329.964 37.06C329.497 37.66 329.264 38.3933 329.264 39.26V45H327.644V37.76C327.644 36.72 327.591 35.78 327.484 34.94H329.024L329.184 36.8C329.437 36.12 329.844 35.6 330.404 35.24C330.964 34.88 331.604 34.7 332.324 34.7ZM334.265 34.94H335.885V45H334.265V34.94ZM336.085 30.68V32.52H334.105V30.68H336.085ZM343.425 34.7C344.305 34.7 345.085 34.92 345.765 35.36C346.445 35.8 346.972 36.42 347.345 37.22C347.719 38.0067 347.905 38.92 347.905 39.96C347.905 41 347.719 41.9133 347.345 42.7C346.972 43.4733 346.445 44.0733 345.765 44.5C345.099 44.9267 344.319 45.14 343.425 45.14C342.639 45.14 341.952 44.9667 341.365 44.62C340.779 44.2733 340.332 43.78 340.025 43.14V49.32H338.405V37.76C338.405 36.72 338.352 35.78 338.245 34.94H339.785L339.945 36.88C340.225 36.1867 340.665 35.6533 341.265 35.28C341.879 34.8933 342.599 34.7 343.425 34.7ZM343.125 43.8C344.112 43.8 344.872 43.4667 345.405 42.8C345.952 42.1333 346.225 41.1867 346.225 39.96C346.225 38.7333 345.952 37.78 345.405 37.1C344.859 36.4067 344.099 36.06 343.125 36.06C342.125 36.06 341.359 36.3933 340.825 37.06C340.292 37.7267 340.025 38.68 340.025 39.92C340.025 41.16 340.292 42.12 340.825 42.8C341.359 43.4667 342.125 43.8 343.125 43.8ZM351.913 36.22V41.72C351.913 42.4667 352.066 42.9933 352.373 43.3C352.679 43.5933 353.113 43.74 353.673 43.74C354.046 43.74 354.406 43.68 354.753 43.56V44.94C354.339 45.0733 353.873 45.14 353.353 45.14C352.393 45.14 351.639 44.8733 351.093 44.34C350.559 43.7933 350.293 42.9933 350.293 41.94V36.22H348.333V34.94H350.293V32.36L351.913 31.78V34.94H354.793V36.22H351.913ZM356.12 34.94H357.74V45H356.12V34.94ZM357.94 30.68V32.52H355.96V30.68H357.94ZM364.42 45.14C363.473 45.14 362.64 44.9267 361.92 44.5C361.2 44.0733 360.64 43.4667 360.24 42.68C359.853 41.8933 359.66 40.9733 359.66 39.92C359.66 38.8667 359.853 37.9467 360.24 37.16C360.64 36.3733 361.2 35.7667 361.92 35.34C362.64 34.9133 363.473 34.7 364.42 34.7C365.367 34.7 366.2 34.9133 366.92 35.34C367.64 35.7667 368.193 36.3733 368.58 37.16C368.98 37.9467 369.18 38.8667 369.18 39.92C369.18 40.9733 368.98 41.8933 368.58 42.68C368.193 43.4667 367.64 44.0733 366.92 44.5C366.2 44.9267 365.367 45.14 364.42 45.14ZM364.42 43.8C365.42 43.8 366.187 43.4733 366.72 42.82C367.253 42.1533 367.52 41.1867 367.52 39.92C367.52 38.6933 367.247 37.7467 366.7 37.08C366.153 36.4 365.393 36.06 364.42 36.06C363.433 36.06 362.667 36.4 362.12 37.08C361.573 37.7467 361.3 38.6933 361.3 39.92C361.3 41.1867 361.567 42.1533 362.1 42.82C362.647 43.4733 363.42 43.8 364.42 43.8ZM376.1 34.7C378.513 34.7 379.72 36.0267 379.72 38.68V45H378.1V38.76C378.1 37.8267 377.913 37.1467 377.54 36.72C377.167 36.28 376.58 36.06 375.78 36.06C374.847 36.06 374.1 36.3467 373.54 36.92C372.98 37.4933 372.7 38.2667 372.7 39.24V45H371.08V37.76C371.08 36.72 371.027 35.78 370.92 34.94H372.46L372.62 36.74C372.927 36.0867 373.387 35.5867 374 35.24C374.613 34.88 375.313 34.7 376.1 34.7ZM6.58 64.7C7.46 64.7 8.24 64.9133 8.92 65.34C9.6 65.7667 10.1267 66.3733 10.5 67.16C10.8733 67.9333 11.06 68.84 11.06 69.88C11.06 70.92 10.8733 71.84 10.5 72.64C10.1267 73.4267 9.6 74.04 8.92 74.48C8.24 74.92 7.46 75.14 6.58 75.14C5.79333 75.14 5.10667 74.9667 4.52 74.62C3.93333 74.2733 3.48667 73.78 3.18 73.14V75H1.56V60.28H3.18V66.72C3.47333 66.0667 3.91333 65.5667 4.5 65.22C5.1 64.8733 5.79333 64.7 6.58 64.7ZM6.28 73.8C7.25333 73.8 8.01333 73.46 8.56 72.78C9.10667 72.0867 9.38 71.12 9.38 69.88C9.38 68.6667 9.10667 67.7267 8.56 67.06C8.02667 66.3933 7.26667 66.06 6.28 66.06C5.28 66.06 4.51333 66.3933 3.98 67.06C3.44667 67.7267 3.18 68.68 3.18 69.92C3.18 71.16 3.44667 72.12 3.98 72.8C4.51333 73.4667 5.28 73.8 6.28 73.8ZM21.3469 64.94V75H19.7669V73.26C19.4469 73.8733 19.0003 74.34 18.4269 74.66C17.8536 74.98 17.2069 75.14 16.4869 75.14C15.3003 75.14 14.4003 74.8067 13.7869 74.14C13.1736 73.4733 12.8669 72.4867 12.8669 71.18V64.94H14.4869V71.14C14.4869 72.0467 14.6736 72.7133 15.0469 73.14C15.4203 73.5667 15.9869 73.78 16.7469 73.78C17.6403 73.78 18.3603 73.4933 18.9069 72.92C19.4536 72.3333 19.7269 71.5667 19.7269 70.62V64.94H21.3469ZM27.2446 75.14C25.5513 75.14 24.2113 74.7067 23.2246 73.84L23.7646 72.64C24.3113 73.0667 24.8646 73.3733 25.4246 73.56C25.9846 73.7467 26.6113 73.84 27.3046 73.84C28.0646 73.84 28.638 73.7133 29.0246 73.46C29.4246 73.1933 29.6246 72.8133 29.6246 72.32C29.6246 71.92 29.4913 71.6 29.2246 71.36C28.958 71.12 28.518 70.9333 27.9046 70.8L26.2046 70.4C25.3646 70.2133 24.7113 69.88 24.2446 69.4C23.7913 68.92 23.5646 68.3467 23.5646 67.68C23.5646 66.8 23.918 66.0867 24.6246 65.54C25.3313 64.98 26.2646 64.7 27.4246 64.7C28.1313 64.7 28.798 64.8133 29.4246 65.04C30.0513 65.2667 30.578 65.5933 31.0046 66.02L30.4646 67.2C29.518 66.4133 28.5046 66.02 27.4246 66.02C26.7046 66.02 26.1446 66.16 25.7446 66.44C25.358 66.7067 25.1646 67.0867 25.1646 67.58C25.1646 67.9933 25.2846 68.32 25.5246 68.56C25.778 68.8 26.178 68.9867 26.7246 69.12L28.4246 69.54C29.358 69.7533 30.0513 70.0867 30.5046 70.54C30.958 70.98 31.1846 71.56 31.1846 72.28C31.1846 73.1467 30.8313 73.84 30.1246 74.36C29.418 74.88 28.458 75.14 27.2446 75.14ZM33.1412 64.94H34.7612V75H33.1412V64.94ZM34.9612 60.68V62.52H32.9812V60.68H34.9612ZM42.3016 64.7C44.7149 64.7 45.9216 66.0267 45.9216 68.68V75H44.3016V68.76C44.3016 67.8267 44.1149 67.1467 43.7416 66.72C43.3683 66.28 42.7816 66.06 41.9816 66.06C41.0483 66.06 40.3016 66.3467 39.7416 66.92C39.1816 67.4933 38.9016 68.2667 38.9016 69.24V75H37.2816V67.76C37.2816 66.72 37.2283 65.78 37.1216 64.94H38.6616L38.8216 66.74C39.1283 66.0867 39.5883 65.5867 40.2016 65.24C40.8149 64.88 41.5149 64.7 42.3016 64.7ZM56.7756 69.92H49.3956C49.4089 71.2 49.7022 72.1667 50.2756 72.82C50.8622 73.4733 51.7089 73.8 52.8156 73.8C53.9889 73.8 55.0689 73.4067 56.0556 72.62L56.5956 73.8C56.1556 74.2133 55.5889 74.54 54.8956 74.78C54.2156 75.02 53.5156 75.14 52.7956 75.14C51.2222 75.14 49.9889 74.68 49.0956 73.76C48.2022 72.8267 47.7556 71.5533 47.7556 69.94C47.7556 68.9133 47.9556 68.0067 48.3556 67.22C48.7556 66.42 49.3156 65.8 50.0356 65.36C50.7556 64.92 51.5756 64.7 52.4956 64.7C53.8289 64.7 54.8756 65.14 55.6356 66.02C56.3956 66.8867 56.7756 68.0867 56.7756 69.62V69.92ZM52.5156 65.96C51.6756 65.96 50.9889 66.2133 50.4556 66.72C49.9356 67.2267 49.6022 67.94 49.4556 68.86H55.3156C55.2356 67.9133 54.9556 67.1933 54.4756 66.7C54.0089 66.2067 53.3556 65.96 52.5156 65.96ZM62.0092 75.14C60.3159 75.14 58.9759 74.7067 57.9892 73.84L58.5292 72.64C59.0759 73.0667 59.6292 73.3733 60.1892 73.56C60.7492 73.7467 61.3759 73.84 62.0692 73.84C62.8292 73.84 63.4025 73.7133 63.7892 73.46C64.1892 73.1933 64.3892 72.8133 64.3892 72.32C64.3892 71.92 64.2559 71.6 63.9892 71.36C63.7225 71.12 63.2825 70.9333 62.6692 70.8L60.9692 70.4C60.1292 70.2133 59.4759 69.88 59.0092 69.4C58.5559 68.92 58.3292 68.3467 58.3292 67.68C58.3292 66.8 58.6825 66.0867 59.3892 65.54C60.0959 64.98 61.0292 64.7 62.1892 64.7C62.8959 64.7 63.5625 64.8133 64.1892 65.04C64.8159 65.2667 65.3425 65.5933 65.7692 66.02L65.2292 67.2C64.2825 66.4133 63.2692 66.02 62.1892 66.02C61.4692 66.02 60.9092 66.16 60.5092 66.44C60.1225 66.7067 59.9292 67.0867 59.9292 67.58C59.9292 67.9933 60.0492 68.32 60.2892 68.56C60.5425 68.8 60.9425 68.9867 61.4892 69.12L63.1892 69.54C64.1225 69.7533 64.8159 70.0867 65.2692 70.54C65.7225 70.98 65.9492 71.56 65.9492 72.28C65.9492 73.1467 65.5959 73.84 64.8892 74.36C64.1825 74.88 63.2225 75.14 62.0092 75.14ZM71.3058 75.14C69.6125 75.14 68.2725 74.7067 67.2858 73.84L67.8258 72.64C68.3725 73.0667 68.9258 73.3733 69.4858 73.56C70.0458 73.7467 70.6725 73.84 71.3658 73.84C72.1258 73.84 72.6991 73.7133 73.0858 73.46C73.4858 73.1933 73.6858 72.8133 73.6858 72.32C73.6858 71.92 73.5525 71.6 73.2858 71.36C73.0191 71.12 72.5791 70.9333 71.9658 70.8L70.2658 70.4C69.4258 70.2133 68.7725 69.88 68.3058 69.4C67.8525 68.92 67.6258 68.3467 67.6258 67.68C67.6258 66.8 67.9791 66.0867 68.6858 65.54C69.3925 64.98 70.3258 64.7 71.4858 64.7C72.1925 64.7 72.8591 64.8133 73.4858 65.04C74.1125 65.2667 74.6391 65.5933 75.0658 66.02L74.5258 67.2C73.5791 66.4133 72.5658 66.02 71.4858 66.02C70.7658 66.02 70.2058 66.16 69.8058 66.44C69.4191 66.7067 69.2258 67.0867 69.2258 67.58C69.2258 67.9933 69.3458 68.32 69.5858 68.56C69.8391 68.8 70.2391 68.9867 70.7858 69.12L72.4858 69.54C73.4191 69.7533 74.1125 70.0867 74.5658 70.54C75.0191 70.98 75.2458 71.56 75.2458 72.28C75.2458 73.1467 74.8925 73.84 74.1858 74.36C73.4791 74.88 72.5191 75.14 71.3058 75.14ZM90.212 69.92H82.832C82.8453 71.2 83.1387 72.1667 83.712 72.82C84.2987 73.4733 85.1453 73.8 86.252 73.8C87.4253 73.8 88.5053 73.4067 89.492 72.62L90.032 73.8C89.592 74.2133 89.0253 74.54 88.332 74.78C87.652 75.02 86.952 75.14 86.232 75.14C84.6587 75.14 83.4253 74.68 82.532 73.76C81.6387 72.8267 81.192 71.5533 81.192 69.94C81.192 68.9133 81.392 68.0067 81.792 67.22C82.192 66.42 82.752 65.8 83.472 65.36C84.192 64.92 85.012 64.7 85.932 64.7C87.2653 64.7 88.312 65.14 89.072 66.02C89.832 66.8867 90.212 68.0867 90.212 69.62V69.92ZM85.952 65.96C85.112 65.96 84.4253 66.2133 83.892 66.72C83.372 67.2267 83.0387 67.94 82.892 68.86H88.752C88.672 67.9133 88.392 67.1933 87.912 66.7C87.4453 66.2067 86.792 65.96 85.952 65.96ZM97.0656 64.7C99.479 64.7 100.686 66.0267 100.686 68.68V75H99.0656V68.76C99.0656 67.8267 98.879 67.1467 98.5056 66.72C98.1323 66.28 97.5456 66.06 96.7456 66.06C95.8123 66.06 95.0656 66.3467 94.5056 66.92C93.9456 67.4933 93.6656 68.2667 93.6656 69.24V75H92.0456V67.76C92.0456 66.72 91.9923 65.78 91.8856 64.94H93.4256L93.5856 66.74C93.8923 66.0867 94.3523 65.5867 94.9656 65.24C95.579 64.88 96.279 64.7 97.0656 64.7ZM111.98 60.28V75H110.38V73.18C110.086 73.8067 109.64 74.2933 109.04 74.64C108.453 74.9733 107.766 75.14 106.98 75.14C106.1 75.14 105.32 74.92 104.64 74.48C103.973 74.04 103.453 73.4267 103.08 72.64C102.706 71.84 102.52 70.92 102.52 69.88C102.52 68.84 102.7 67.9333 103.06 67.16C103.433 66.3733 103.96 65.7667 104.64 65.34C105.32 64.9133 106.1 64.7 106.98 64.7C107.766 64.7 108.453 64.8733 109.04 65.22C109.626 65.5533 110.066 66.0267 110.36 66.64V60.28H111.98ZM107.3 73.8C108.286 73.8 109.046 73.4667 109.58 72.8C110.113 72.12 110.38 71.16 110.38 69.92C110.38 68.6933 110.113 67.7467 109.58 67.08C109.046 66.4 108.286 66.06 107.3 66.06C106.313 66.06 105.54 66.3933 104.98 67.06C104.433 67.7267 104.16 68.6667 104.16 69.88C104.16 71.12 104.433 72.0867 104.98 72.78C105.54 73.46 106.313 73.8 107.3 73.8ZM114.387 68.96H120.047V70.3H114.387V68.96ZM124.595 66.22V71.72C124.595 72.4667 124.749 72.9933 125.055 73.3C125.362 73.5933 125.795 73.74 126.355 73.74C126.729 73.74 127.089 73.68 127.435 73.56V74.94C127.022 75.0733 126.555 75.14 126.035 75.14C125.075 75.14 124.322 74.8733 123.775 74.34C123.242 73.7933 122.975 72.9933 122.975 71.94V66.22H121.015V64.94H122.975V62.36L124.595 61.78V64.94H127.475V66.22H124.595ZM132.962 75.14C132.016 75.14 131.182 74.9267 130.462 74.5C129.742 74.0733 129.182 73.4667 128.782 72.68C128.396 71.8933 128.202 70.9733 128.202 69.92C128.202 68.8667 128.396 67.9467 128.782 67.16C129.182 66.3733 129.742 65.7667 130.462 65.34C131.182 64.9133 132.016 64.7 132.962 64.7C133.909 64.7 134.742 64.9133 135.462 65.34C136.182 65.7667 136.736 66.3733 137.122 67.16C137.522 67.9467 137.722 68.8667 137.722 69.92C137.722 70.9733 137.522 71.8933 137.122 72.68C136.736 73.4667 136.182 74.0733 135.462 74.5C134.742 74.9267 133.909 75.14 132.962 75.14ZM132.962 73.8C133.962 73.8 134.729 73.4733 135.262 72.82C135.796 72.1533 136.062 71.1867 136.062 69.92C136.062 68.6933 135.789 67.7467 135.242 67.08C134.696 66.4 133.936 66.06 132.962 66.06C131.976 66.06 131.209 66.4 130.662 67.08C130.116 67.7467 129.842 68.6933 129.842 69.92C129.842 71.1867 130.109 72.1533 130.642 72.82C131.189 73.4733 131.962 73.8 132.962 73.8ZM139.815 68.96H145.475V70.3H139.815V68.96ZM156.577 69.92H149.197C149.211 71.2 149.504 72.1667 150.077 72.82C150.664 73.4733 151.511 73.8 152.617 73.8C153.791 73.8 154.871 73.4067 155.857 72.62L156.397 73.8C155.957 74.2133 155.391 74.54 154.697 74.78C154.017 75.02 153.317 75.14 152.597 75.14C151.024 75.14 149.791 74.68 148.897 73.76C148.004 72.8267 147.557 71.5533 147.557 69.94C147.557 68.9133 147.757 68.0067 148.157 67.22C148.557 66.42 149.117 65.8 149.837 65.36C150.557 64.92 151.377 64.7 152.297 64.7C153.631 64.7 154.677 65.14 155.437 66.02C156.197 66.8867 156.577 68.0867 156.577 69.62V69.92ZM152.317 65.96C151.477 65.96 150.791 66.2133 150.257 66.72C149.737 67.2267 149.404 67.94 149.257 68.86H155.117C155.037 67.9133 154.757 67.1933 154.277 66.7C153.811 66.2067 153.157 65.96 152.317 65.96ZM163.431 64.7C165.844 64.7 167.051 66.0267 167.051 68.68V75H165.431V68.76C165.431 67.8267 165.244 67.1467 164.871 66.72C164.498 66.28 163.911 66.06 163.111 66.06C162.178 66.06 161.431 66.3467 160.871 66.92C160.311 67.4933 160.031 68.2667 160.031 69.24V75H158.411V67.76C158.411 66.72 158.358 65.78 158.251 64.94H159.791L159.951 66.74C160.258 66.0867 160.718 65.5867 161.331 65.24C161.944 64.88 162.644 64.7 163.431 64.7ZM178.345 60.28V75H176.745V73.18C176.452 73.8067 176.005 74.2933 175.405 74.64C174.818 74.9733 174.132 75.14 173.345 75.14C172.465 75.14 171.685 74.92 171.005 74.48C170.338 74.04 169.818 73.4267 169.445 72.64C169.072 71.84 168.885 70.92 168.885 69.88C168.885 68.84 169.065 67.9333 169.425 67.16C169.798 66.3733 170.325 65.7667 171.005 65.34C171.685 64.9133 172.465 64.7 173.345 64.7C174.132 64.7 174.818 64.8733 175.405 65.22C175.992 65.5533 176.432 66.0267 176.725 66.64V60.28H178.345ZM173.665 73.8C174.652 73.8 175.412 73.4667 175.945 72.8C176.478 72.12 176.745 71.16 176.745 69.92C176.745 68.6933 176.478 67.7467 175.945 67.08C175.412 66.4 174.652 66.06 173.665 66.06C172.678 66.06 171.905 66.3933 171.345 67.06C170.798 67.7267 170.525 68.6667 170.525 69.88C170.525 71.12 170.798 72.0867 171.345 72.78C171.905 73.46 172.678 73.8 173.665 73.8ZM182.632 72.94V75H180.572V72.94H182.632Z" fill="#696871"/>
</svg>
