<svg width="138" height="24" viewBox="0 0 138 24" fill="none" xmlns="http://www.w3.org/2000/svg">
<path d="M0.325306 18V1.2H6.54131C7.88531 1.2 8.99731 1.424 9.87731 1.872C10.7573 2.32 11.4133 2.936 11.8453 3.72C12.2773 4.504 12.4933 5.384 12.4933 6.36C12.4933 7.288 12.2853 8.144 11.8693 8.928C11.4533 9.696 10.8053 10.32 9.92531 10.8C9.04531 11.264 7.91731 11.496 6.54131 11.496H3.39731V18H0.325306ZM3.39731 9H6.34931C7.42131 9 8.18931 8.768 8.65331 8.304C9.13331 7.824 9.37331 7.176 9.37331 6.36C9.37331 5.528 9.13331 4.88 8.65331 4.416C8.18931 3.936 7.42131 3.696 6.34931 3.696H3.39731V9ZM14.0811 18V6.096H16.8171L17.1051 8.328C17.5371 7.56 18.1211 6.952 18.8571 6.504C19.6091 6.04 20.4891 5.808 21.4971 5.808V9.048H20.6331C19.9611 9.048 19.3611 9.152 18.8331 9.36C18.3051 9.568 17.8891 9.928 17.5851 10.44C17.2971 10.952 17.1531 11.664 17.1531 12.576V18H14.0811ZM24.5024 4.248C23.9424 4.248 23.4784 4.08 23.1104 3.744C22.7584 3.408 22.5824 2.984 22.5824 2.472C22.5824 1.96 22.7584 1.544 23.1104 1.224C23.4784 0.887999 23.9424 0.719999 24.5024 0.719999C25.0624 0.719999 25.5184 0.887999 25.8704 1.224C26.2384 1.544 26.4224 1.96 26.4224 2.472C26.4224 2.984 26.2384 3.408 25.8704 3.744C25.5184 4.08 25.0624 4.248 24.5024 4.248ZM22.9664 18V6.096H26.0384V18H22.9664ZM34.3265 18.288C33.1105 18.288 32.0385 18.024 31.1105 17.496C30.1825 16.968 29.4465 16.232 28.9025 15.288C28.3745 14.344 28.1105 13.264 28.1105 12.048C28.1105 10.832 28.3745 9.752 28.9025 8.808C29.4465 7.864 30.1825 7.128 31.1105 6.6C32.0385 6.072 33.1105 5.808 34.3265 5.808C35.8465 5.808 37.1265 6.208 38.1665 7.008C39.2065 7.792 39.8705 8.88 40.1585 10.272H36.9185C36.7585 9.696 36.4385 9.248 35.9585 8.928C35.4945 8.592 34.9425 8.424 34.3025 8.424C33.4545 8.424 32.7345 8.744 32.1425 9.384C31.5505 10.024 31.2545 10.912 31.2545 12.048C31.2545 13.184 31.5505 14.072 32.1425 14.712C32.7345 15.352 33.4545 15.672 34.3025 15.672C34.9425 15.672 35.4945 15.512 35.9585 15.192C36.4385 14.872 36.7585 14.416 36.9185 13.824H40.1585C39.8705 15.168 39.2065 16.248 38.1665 17.064C37.1265 17.88 35.8465 18.288 34.3265 18.288ZM43.7909 4.248C43.2309 4.248 42.7669 4.08 42.3989 3.744C42.0469 3.408 41.8709 2.984 41.8709 2.472C41.8709 1.96 42.0469 1.544 42.3989 1.224C42.7669 0.887999 43.2309 0.719999 43.7909 0.719999C44.3509 0.719999 44.8069 0.887999 45.1589 1.224C45.5269 1.544 45.7109 1.96 45.7109 2.472C45.7109 2.984 45.5269 3.408 45.1589 3.744C44.8069 4.08 44.3509 4.248 43.7909 4.248ZM42.2549 18V6.096H45.3269V18H42.2549ZM47.783 18V6.096H50.495L50.735 8.112C51.103 7.408 51.631 6.848 52.319 6.432C53.023 6.016 53.847 5.808 54.791 5.808C56.263 5.808 57.407 6.272 58.223 7.2C59.039 8.128 59.447 9.488 59.447 11.28V18H56.375V11.568C56.375 10.544 56.167 9.76 55.751 9.216C55.335 8.672 54.687 8.4 53.807 8.4C52.943 8.4 52.231 8.704 51.671 9.312C51.127 9.92 50.855 10.768 50.855 11.856V18H47.783ZM66.6742 14.448C66.0982 14.448 65.5622 14.384 65.0662 14.256L64.1782 15.144C64.4502 15.288 64.8182 15.408 65.2822 15.504C65.7462 15.6 66.4982 15.696 67.5382 15.792C69.1222 15.936 70.2742 16.312 70.9942 16.92C71.7142 17.528 72.0742 18.368 72.0742 19.44C72.0742 20.144 71.8822 20.808 71.4982 21.432C71.1142 22.072 70.5222 22.584 69.7222 22.968C68.9222 23.368 67.8982 23.568 66.6502 23.568C64.9542 23.568 63.5862 23.248 62.5462 22.608C61.5062 21.984 60.9862 21.04 60.9862 19.776C60.9862 18.704 61.5062 17.776 62.5462 16.992C62.2262 16.848 61.9462 16.696 61.7062 16.536C61.4822 16.376 61.2822 16.208 61.1062 16.032V15.48L63.1942 13.272C62.2662 12.456 61.8022 11.408 61.8022 10.128C61.8022 9.328 61.9942 8.6 62.3782 7.944C62.7782 7.288 63.3382 6.768 64.0582 6.384C64.7782 6 65.6502 5.808 66.6742 5.808C67.3462 5.808 67.9702 5.904 68.5462 6.096H73.0582V7.968L71.0182 8.112C71.3382 8.72 71.4982 9.392 71.4982 10.128C71.4982 10.928 71.3062 11.656 70.9222 12.312C70.5382 12.968 69.9782 13.488 69.2422 13.872C68.5222 14.256 67.6662 14.448 66.6742 14.448ZM66.6742 12.096C67.2982 12.096 67.8102 11.928 68.2102 11.592C68.6262 11.256 68.8342 10.776 68.8342 10.152C68.8342 9.528 68.6262 9.048 68.2102 8.712C67.8102 8.376 67.2982 8.208 66.6742 8.208C66.0182 8.208 65.4902 8.376 65.0902 8.712C64.6902 9.048 64.4902 9.528 64.4902 10.152C64.4902 10.776 64.6902 11.256 65.0902 11.592C65.4902 11.928 66.0182 12.096 66.6742 12.096ZM63.7942 19.464C63.7942 20.056 64.0662 20.496 64.6102 20.784C65.1702 21.088 65.8502 21.24 66.6502 21.24C67.4182 21.24 68.0422 21.08 68.5222 20.76C69.0022 20.456 69.2422 20.04 69.2422 19.512C69.2422 19.08 69.0822 18.72 68.7622 18.432C68.4582 18.144 67.8422 17.968 66.9142 17.904C66.2582 17.856 65.6502 17.784 65.0902 17.688C64.6262 17.944 64.2902 18.224 64.0822 18.528C63.8902 18.832 63.7942 19.144 63.7942 19.464ZM78.5084 18L84.6524 1.2H88.1084L94.2524 18H90.9884L89.6444 14.112H83.0924L81.7244 18H78.5084ZM83.9324 11.712H88.8044L86.3564 4.728L83.9324 11.712ZM99.8238 18.288C98.3358 18.288 97.1838 17.824 96.3678 16.896C95.5678 15.968 95.1678 14.608 95.1678 12.816V6.096H98.2158V12.528C98.2158 13.552 98.4238 14.336 98.8398 14.88C99.2558 15.424 99.9118 15.696 100.808 15.696C101.656 15.696 102.352 15.392 102.896 14.784C103.456 14.176 103.736 13.328 103.736 12.24V6.096H106.808V18H104.096L103.856 15.984C103.488 16.688 102.952 17.248 102.248 17.664C101.56 18.08 100.752 18.288 99.8238 18.288ZM114.683 18.288C113.563 18.288 112.563 18.016 111.683 17.472C110.803 16.928 110.107 16.184 109.595 15.24C109.083 14.296 108.827 13.224 108.827 12.024C108.827 10.824 109.083 9.76 109.595 8.832C110.107 7.888 110.803 7.152 111.683 6.624C112.563 6.08 113.563 5.808 114.683 5.808C115.579 5.808 116.363 5.976 117.035 6.312C117.707 6.648 118.251 7.12 118.667 7.728V0.719999H121.739V18H119.003L118.667 16.296C118.283 16.824 117.771 17.288 117.131 17.688C116.507 18.088 115.691 18.288 114.683 18.288ZM115.331 15.6C116.323 15.6 117.131 15.272 117.755 14.616C118.395 13.944 118.715 13.088 118.715 12.048C118.715 11.008 118.395 10.16 117.755 9.504C117.131 8.832 116.323 8.496 115.331 8.496C114.355 8.496 113.547 8.824 112.907 9.48C112.267 10.136 111.947 10.984 111.947 12.024C111.947 13.064 112.267 13.92 112.907 14.592C113.547 15.264 114.355 15.6 115.331 15.6ZM125.773 4.248C125.213 4.248 124.749 4.08 124.381 3.744C124.029 3.408 123.853 2.984 123.853 2.472C123.853 1.96 124.029 1.544 124.381 1.224C124.749 0.887999 125.213 0.719999 125.773 0.719999C126.333 0.719999 126.789 0.887999 127.141 1.224C127.509 1.544 127.693 1.96 127.693 2.472C127.693 2.984 127.509 3.408 127.141 3.744C126.789 4.08 126.333 4.248 125.773 4.248ZM124.237 18V6.096H127.309V18H124.237ZM135.069 18C133.821 18 132.821 17.696 132.069 17.088C131.317 16.48 130.941 15.4 130.941 13.848V8.664H128.901V6.096H130.941L131.301 2.904H134.013V6.096H137.229V8.664H134.013V13.872C134.013 14.448 134.133 14.848 134.373 15.072C134.629 15.28 135.061 15.384 135.669 15.384H137.157V18H135.069Z" fill="#19191B"/>
</svg>
