<svg width="170" height="19" viewBox="0 0 170 19" fill="none" xmlns="http://www.w3.org/2000/svg">
<path d="M0.47015 18V1.2H6.63815C7.98215 1.2 9.08615 1.432 9.95015 1.896C10.8302 2.344 11.4862 2.96 11.9182 3.744C12.3502 4.512 12.5662 5.368 12.5662 6.312C12.5662 7.336 12.2942 8.272 11.7502 9.12C11.2222 9.968 10.3902 10.584 9.25415 10.968L12.7342 18H9.20615L6.08615 11.376H3.54215V18H0.47015ZM3.54215 9.12H6.44615C7.47015 9.12 8.22215 8.872 8.70215 8.376C9.18215 7.88 9.42215 7.224 9.42215 6.408C9.42215 5.608 9.18215 4.968 8.70215 4.488C8.23815 4.008 7.47815 3.768 6.42215 3.768H3.54215V9.12ZM19.6584 18.288C18.4584 18.288 17.3944 18.032 16.4664 17.52C15.5384 17.008 14.8104 16.288 14.2824 15.36C13.7544 14.432 13.4904 13.36 13.4904 12.144C13.4904 10.912 13.7464 9.816 14.2584 8.856C14.7864 7.896 15.5064 7.152 16.4184 6.624C17.3464 6.08 18.4344 5.808 19.6824 5.808C20.8504 5.808 21.8824 6.064 22.7784 6.576C23.6744 7.088 24.3704 7.792 24.8664 8.688C25.3784 9.568 25.6344 10.552 25.6344 11.64C25.6344 11.816 25.6264 12 25.6104 12.192C25.6104 12.384 25.6024 12.584 25.5864 12.792H16.5384C16.6024 13.72 16.9224 14.448 17.4984 14.976C18.0904 15.504 18.8024 15.768 19.6344 15.768C20.2584 15.768 20.7784 15.632 21.1944 15.36C21.6264 15.072 21.9464 14.704 22.1544 14.256H25.2744C25.0504 15.008 24.6744 15.696 24.1464 16.32C23.6344 16.928 22.9944 17.408 22.2264 17.76C21.4744 18.112 20.6184 18.288 19.6584 18.288ZM19.6824 8.304C18.9304 8.304 18.2664 8.52 17.6904 8.952C17.1144 9.368 16.7464 10.008 16.5864 10.872H22.5144C22.4664 10.088 22.1784 9.464 21.6504 9C21.1224 8.536 20.4664 8.304 19.6824 8.304ZM32.5609 18C31.3129 18 30.3129 17.696 29.5609 17.088C28.8089 16.48 28.4329 15.4 28.4329 13.848V8.664H26.3929V6.096H28.4329L28.7929 2.904H31.5049V6.096H34.7209V8.664H31.5049V13.872C31.5049 14.448 31.6249 14.848 31.8649 15.072C32.1209 15.28 32.5529 15.384 33.1609 15.384H34.6489V18H32.5609ZM42.0875 18.288C40.8875 18.288 39.8235 18.032 38.8955 17.52C37.9675 17.008 37.2395 16.288 36.7115 15.36C36.1835 14.432 35.9195 13.36 35.9195 12.144C35.9195 10.912 36.1755 9.816 36.6875 8.856C37.2155 7.896 37.9355 7.152 38.8475 6.624C39.7755 6.08 40.8635 5.808 42.1115 5.808C43.2795 5.808 44.3115 6.064 45.2075 6.576C46.1035 7.088 46.7995 7.792 47.2955 8.688C47.8075 9.568 48.0635 10.552 48.0635 11.64C48.0635 11.816 48.0555 12 48.0395 12.192C48.0395 12.384 48.0315 12.584 48.0155 12.792H38.9675C39.0315 13.72 39.3515 14.448 39.9275 14.976C40.5195 15.504 41.2315 15.768 42.0635 15.768C42.6875 15.768 43.2075 15.632 43.6235 15.36C44.0555 15.072 44.3755 14.704 44.5835 14.256H47.7035C47.4795 15.008 47.1035 15.696 46.5755 16.32C46.0635 16.928 45.4235 17.408 44.6555 17.76C43.9035 18.112 43.0475 18.288 42.0875 18.288ZM42.1115 8.304C41.3595 8.304 40.6955 8.52 40.1195 8.952C39.5435 9.368 39.1755 10.008 39.0155 10.872H44.9435C44.8955 10.088 44.6075 9.464 44.0795 9C43.5515 8.536 42.8955 8.304 42.1115 8.304ZM49.8969 18V6.096H52.6089L52.8489 8.112C53.2169 7.408 53.7449 6.848 54.4329 6.432C55.1369 6.016 55.9609 5.808 56.9049 5.808C58.3769 5.808 59.5209 6.272 60.3369 7.2C61.1529 8.128 61.5609 9.488 61.5609 11.28V18H58.4889V11.568C58.4889 10.544 58.2809 9.76 57.8649 9.216C57.4489 8.672 56.8009 8.4 55.9209 8.4C55.0569 8.4 54.3449 8.704 53.7849 9.312C53.2409 9.92 52.9689 10.768 52.9689 11.856V18H49.8969ZM69.0521 18C67.8041 18 66.8041 17.696 66.0521 17.088C65.3001 16.48 64.9241 15.4 64.9241 13.848V8.664H62.8841V6.096H64.9241L65.2841 2.904H67.9961V6.096H71.2121V8.664H67.9961V13.872C67.9961 14.448 68.1161 14.848 68.3561 15.072C68.6121 15.28 69.0441 15.384 69.6521 15.384H71.1401V18H69.0521ZM74.7554 4.248C74.1954 4.248 73.7314 4.08 73.3634 3.744C73.0114 3.408 72.8354 2.984 72.8354 2.472C72.8354 1.96 73.0114 1.544 73.3634 1.224C73.7314 0.887999 74.1954 0.719999 74.7554 0.719999C75.3154 0.719999 75.7714 0.887999 76.1234 1.224C76.4914 1.544 76.6754 1.96 76.6754 2.472C76.6754 2.984 76.4914 3.408 76.1234 3.744C75.7714 4.08 75.3154 4.248 74.7554 4.248ZM73.2194 18V6.096H76.2914V18H73.2194ZM84.4595 18.288C83.3075 18.288 82.2675 18.024 81.3395 17.496C80.4275 16.968 79.6995 16.24 79.1555 15.312C78.6275 14.368 78.3635 13.28 78.3635 12.048C78.3635 10.816 78.6355 9.736 79.1795 8.808C79.7235 7.864 80.4515 7.128 81.3635 6.6C82.2915 6.072 83.3315 5.808 84.4835 5.808C85.6195 5.808 86.6435 6.072 87.5555 6.6C88.4835 7.128 89.2115 7.864 89.7395 8.808C90.2835 9.736 90.5555 10.816 90.5555 12.048C90.5555 13.28 90.2835 14.368 89.7395 15.312C89.2115 16.24 88.4835 16.968 87.5555 17.496C86.6275 18.024 85.5955 18.288 84.4595 18.288ZM84.4595 15.624C85.2595 15.624 85.9555 15.328 86.5475 14.736C87.1395 14.128 87.4355 13.232 87.4355 12.048C87.4355 10.864 87.1395 9.976 86.5475 9.384C85.9555 8.776 85.2675 8.472 84.4835 8.472C83.6675 8.472 82.9635 8.776 82.3715 9.384C81.7955 9.976 81.5075 10.864 81.5075 12.048C81.5075 13.232 81.7955 14.128 82.3715 14.736C82.9635 15.328 83.6595 15.624 84.4595 15.624ZM92.5519 18V6.096H95.2639L95.5039 8.112C95.8719 7.408 96.3999 6.848 97.0879 6.432C97.7919 6.016 98.6159 5.808 99.5599 5.808C101.032 5.808 102.176 6.272 102.992 7.2C103.808 8.128 104.216 9.488 104.216 11.28V18H101.144V11.568C101.144 10.544 100.936 9.76 100.52 9.216C100.104 8.672 99.4559 8.4 98.5759 8.4C97.7119 8.4 96.9999 8.704 96.4399 9.312C95.8959 9.92 95.6239 10.768 95.6239 11.856V18H92.5519ZM110.364 18L116.508 1.2H119.964L126.108 18H122.844L121.5 14.112H114.948L113.58 18H110.364ZM115.788 11.712H120.66L118.212 4.728L115.788 11.712ZM131.679 18.288C130.191 18.288 129.039 17.824 128.223 16.896C127.423 15.968 127.023 14.608 127.023 12.816V6.096H130.071V12.528C130.071 13.552 130.279 14.336 130.695 14.88C131.111 15.424 131.767 15.696 132.663 15.696C133.511 15.696 134.207 15.392 134.751 14.784C135.311 14.176 135.591 13.328 135.591 12.24V6.096H138.663V18H135.951L135.711 15.984C135.343 16.688 134.807 17.248 134.103 17.664C133.415 18.08 132.607 18.288 131.679 18.288ZM146.538 18.288C145.418 18.288 144.418 18.016 143.538 17.472C142.658 16.928 141.962 16.184 141.45 15.24C140.938 14.296 140.682 13.224 140.682 12.024C140.682 10.824 140.938 9.76 141.45 8.832C141.962 7.888 142.658 7.152 143.538 6.624C144.418 6.08 145.418 5.808 146.538 5.808C147.434 5.808 148.218 5.976 148.89 6.312C149.562 6.648 150.106 7.12 150.522 7.728V0.719999H153.594V18H150.858L150.522 16.296C150.138 16.824 149.626 17.288 148.986 17.688C148.362 18.088 147.546 18.288 146.538 18.288ZM147.186 15.6C148.178 15.6 148.986 15.272 149.61 14.616C150.25 13.944 150.57 13.088 150.57 12.048C150.57 11.008 150.25 10.16 149.61 9.504C148.986 8.832 148.178 8.496 147.186 8.496C146.21 8.496 145.402 8.824 144.762 9.48C144.122 10.136 143.802 10.984 143.802 12.024C143.802 13.064 144.122 13.92 144.762 14.592C145.402 15.264 146.21 15.6 147.186 15.6ZM157.628 4.248C157.068 4.248 156.604 4.08 156.236 3.744C155.884 3.408 155.708 2.984 155.708 2.472C155.708 1.96 155.884 1.544 156.236 1.224C156.604 0.887999 157.068 0.719999 157.628 0.719999C158.188 0.719999 158.644 0.887999 158.996 1.224C159.364 1.544 159.548 1.96 159.548 2.472C159.548 2.984 159.364 3.408 158.996 3.744C158.644 4.08 158.188 4.248 157.628 4.248ZM156.092 18V6.096H159.164V18H156.092ZM166.924 18C165.676 18 164.676 17.696 163.924 17.088C163.172 16.48 162.796 15.4 162.796 13.848V8.664H160.756V6.096H162.796L163.156 2.904H165.868V6.096H169.084V8.664H165.868V13.872C165.868 14.448 165.988 14.848 166.228 15.072C166.484 15.28 166.916 15.384 167.524 15.384H169.012V18H166.924Z" fill="#19191B"/>
</svg>
