<svg width="293" height="40" viewBox="0 0 293 40" fill="none" xmlns="http://www.w3.org/2000/svg">
<path d="M4.92654 12.128C3.14521 12.128 1.72654 11.648 0.670542 10.688L1.16654 9.68C1.73188 10.16 2.30788 10.5013 2.89454 10.704C3.48121 10.9067 4.16388 11.008 4.94254 11.008C5.85988 11.008 6.56388 10.832 7.05454 10.48C7.55588 10.1173 7.80654 9.61067 7.80654 8.96C7.80654 8.576 7.68388 8.26667 7.43854 8.032C7.20388 7.78667 6.88921 7.59467 6.49454 7.456C6.11054 7.31733 5.59321 7.17333 4.94254 7.024C4.06788 6.832 3.34788 6.624 2.78254 6.4C2.21721 6.176 1.75854 5.856 1.40654 5.44C1.05454 5.01333 0.878542 4.45867 0.878542 3.776C0.878542 3.12533 1.04921 2.55467 1.39054 2.064C1.73188 1.56267 2.21188 1.17333 2.83054 0.896C3.45988 0.618666 4.19054 0.48 5.02254 0.48C5.81188 0.48 6.54788 0.602666 7.23054 0.848C7.91321 1.09333 8.48921 1.45067 8.95854 1.92L8.44654 2.928C7.91321 2.46933 7.36921 2.13333 6.81454 1.92C6.27054 1.70667 5.67321 1.6 5.02254 1.6C4.13721 1.6 3.44388 1.792 2.94254 2.176C2.44121 2.54933 2.19054 3.06667 2.19054 3.728C2.19054 4.304 2.40921 4.736 2.84654 5.024C3.28388 5.312 3.95588 5.56267 4.86254 5.776C5.84388 6.01067 6.61188 6.22933 7.16654 6.432C7.73188 6.624 8.20121 6.92267 8.57454 7.328C8.94788 7.72267 9.13454 8.25067 9.13454 8.912C9.13454 9.552 8.96388 10.1173 8.62254 10.608C8.28121 11.088 7.79054 11.4613 7.15054 11.728C6.52121 11.9947 5.77988 12.128 4.92654 12.128ZM17.3551 7.936H11.4511C11.4617 8.96 11.6964 9.73333 12.1551 10.256C12.6244 10.7787 13.3017 11.04 14.1871 11.04C15.1257 11.04 15.9897 10.7253 16.7791 10.096L17.2111 11.04C16.8591 11.3707 16.4057 11.632 15.8511 11.824C15.3071 12.016 14.7471 12.112 14.1711 12.112C12.9124 12.112 11.9257 11.744 11.2111 11.008C10.4964 10.2613 10.1391 9.24267 10.1391 7.952C10.1391 7.13067 10.2991 6.40533 10.6191 5.776C10.9391 5.136 11.3871 4.64 11.9631 4.288C12.5391 3.936 13.1951 3.76 13.9311 3.76C14.9977 3.76 15.8351 4.112 16.4431 4.816C17.0511 5.50933 17.3551 6.46933 17.3551 7.696V7.936ZM13.9471 4.768C13.2751 4.768 12.7257 4.97067 12.2991 5.376C11.8831 5.78133 11.6164 6.352 11.4991 7.088H16.1871C16.1231 6.33067 15.8991 5.75467 15.5151 5.36C15.1417 4.96533 14.6191 4.768 13.9471 4.768ZM25.558 7.936H19.654C19.6647 8.96 19.8993 9.73333 20.358 10.256C20.8273 10.7787 21.5047 11.04 22.39 11.04C23.3287 11.04 24.1927 10.7253 24.982 10.096L25.414 11.04C25.062 11.3707 24.6087 11.632 24.054 11.824C23.51 12.016 22.95 12.112 22.374 12.112C21.1153 12.112 20.1287 11.744 19.414 11.008C18.6993 10.2613 18.342 9.24267 18.342 7.952C18.342 7.13067 18.502 6.40533 18.822 5.776C19.142 5.136 19.59 4.64 20.166 4.288C20.742 3.936 21.398 3.76 22.134 3.76C23.2007 3.76 24.038 4.112 24.646 4.816C25.254 5.50933 25.558 6.46933 25.558 7.696V7.936ZM22.15 4.768C21.478 4.768 20.9287 4.97067 20.502 5.376C20.086 5.78133 19.8193 6.352 19.702 7.088H24.39C24.326 6.33067 24.102 5.75467 23.718 5.36C23.3447 4.96533 22.822 4.768 22.15 4.768ZM34.7126 3.76C36.6432 3.76 37.6086 4.82133 37.6086 6.944V12H36.3126V7.008C36.3126 6.26133 36.1632 5.71733 35.8646 5.376C35.5659 5.024 35.0966 4.848 34.4566 4.848C33.7099 4.848 33.1126 5.07733 32.6646 5.536C32.2166 5.99467 31.9926 6.61333 31.9926 7.392V12H30.6966V0.223999H31.9926V5.264C32.2486 4.77333 32.6112 4.4 33.0806 4.144C33.5606 3.888 34.1046 3.76 34.7126 3.76ZM42.8837 12.112C42.1264 12.112 41.4597 11.9413 40.8837 11.6C40.3077 11.2587 39.8597 10.7733 39.5397 10.144C39.2304 9.51467 39.0757 8.77867 39.0757 7.936C39.0757 7.09333 39.2304 6.35733 39.5397 5.728C39.8597 5.09867 40.3077 4.61333 40.8837 4.272C41.4597 3.93067 42.1264 3.76 42.8837 3.76C43.6411 3.76 44.3077 3.93067 44.8837 4.272C45.4597 4.61333 45.9024 5.09867 46.2117 5.728C46.5317 6.35733 46.6917 7.09333 46.6917 7.936C46.6917 8.77867 46.5317 9.51467 46.2117 10.144C45.9024 10.7733 45.4597 11.2587 44.8837 11.6C44.3077 11.9413 43.6411 12.112 42.8837 12.112ZM42.8837 11.04C43.6837 11.04 44.2971 10.7787 44.7237 10.256C45.1504 9.72267 45.3637 8.94933 45.3637 7.936C45.3637 6.95467 45.1451 6.19733 44.7077 5.664C44.2704 5.12 43.6624 4.848 42.8837 4.848C42.0944 4.848 41.4811 5.12 41.0437 5.664C40.6064 6.19733 40.3877 6.95467 40.3877 7.936C40.3877 8.94933 40.6011 9.72267 41.0277 10.256C41.4651 10.7787 42.0837 11.04 42.8837 11.04ZM60.342 3.952L57.366 12H56.118L53.814 5.712L51.526 12H50.278L47.302 3.952H48.662L50.934 10.448L53.286 3.952H54.422L56.742 10.464L59.062 3.952H60.342ZM72.2677 3.952L68.5077 12.736C68.1131 13.6533 67.6171 14.3253 67.0197 14.752C66.4224 15.1787 65.6864 15.472 64.8117 15.632L64.5397 14.624C65.2971 14.4533 65.8677 14.224 66.2517 13.936C66.6464 13.6587 66.9717 13.2267 67.2277 12.64L67.5477 11.92L64.1397 3.952H65.4997L68.2197 10.592L70.9717 3.952H72.2677ZM76.4298 12.112C75.6724 12.112 75.0058 11.9413 74.4298 11.6C73.8538 11.2587 73.4058 10.7733 73.0858 10.144C72.7764 9.51467 72.6218 8.77867 72.6218 7.936C72.6218 7.09333 72.7764 6.35733 73.0858 5.728C73.4058 5.09867 73.8538 4.61333 74.4298 4.272C75.0058 3.93067 75.6724 3.76 76.4298 3.76C77.1871 3.76 77.8538 3.93067 78.4298 4.272C79.0058 4.61333 79.4484 5.09867 79.7578 5.728C80.0778 6.35733 80.2378 7.09333 80.2378 7.936C80.2378 8.77867 80.0778 9.51467 79.7578 10.144C79.4484 10.7733 79.0058 11.2587 78.4298 11.6C77.8538 11.9413 77.1871 12.112 76.4298 12.112ZM76.4298 11.04C77.2298 11.04 77.8431 10.7787 78.2698 10.256C78.6964 9.72267 78.9098 8.94933 78.9098 7.936C78.9098 6.95467 78.6911 6.19733 78.2538 5.664C77.8164 5.12 77.2084 4.848 76.4298 4.848C75.6404 4.848 75.0271 5.12 74.5898 5.664C74.1524 6.19733 73.9338 6.95467 73.9338 7.936C73.9338 8.94933 74.1471 9.72267 74.5738 10.256C75.0111 10.7787 75.6298 11.04 76.4298 11.04ZM88.4938 3.952V12H87.2298V10.608C86.9738 11.0987 86.6165 11.472 86.1578 11.728C85.6991 11.984 85.1818 12.112 84.6058 12.112C83.6565 12.112 82.9365 11.8453 82.4458 11.312C81.9551 10.7787 81.7098 9.98933 81.7098 8.944V3.952H83.0058V8.912C83.0058 9.63733 83.1551 10.1707 83.4538 10.512C83.7525 10.8533 84.2058 11.024 84.8138 11.024C85.5285 11.024 86.1045 10.7947 86.5418 10.336C86.9791 9.86667 87.1978 9.25333 87.1978 8.496V3.952H88.4938ZM96.8836 12.112C95.529 12.112 94.457 11.7653 93.6676 11.072L94.0996 10.112C94.537 10.4533 94.9796 10.6987 95.4276 10.848C95.8756 10.9973 96.377 11.072 96.9316 11.072C97.5396 11.072 97.9983 10.9707 98.3076 10.768C98.6276 10.5547 98.7876 10.2507 98.7876 9.856C98.7876 9.536 98.681 9.28 98.4676 9.088C98.2543 8.896 97.9023 8.74667 97.4116 8.64L96.0516 8.32C95.3796 8.17067 94.857 7.904 94.4836 7.52C94.121 7.136 93.9396 6.67733 93.9396 6.144C93.9396 5.44 94.2223 4.86933 94.7876 4.432C95.353 3.984 96.0996 3.76 97.0276 3.76C97.593 3.76 98.1263 3.85067 98.6276 4.032C99.129 4.21333 99.5503 4.47467 99.8916 4.816L99.4596 5.76C98.7023 5.13067 97.8916 4.816 97.0276 4.816C96.4516 4.816 96.0036 4.928 95.6836 5.152C95.3743 5.36533 95.2196 5.66933 95.2196 6.064C95.2196 6.39467 95.3156 6.656 95.5076 6.848C95.7103 7.04 96.0303 7.18933 96.4676 7.296L97.8276 7.632C98.5743 7.80267 99.129 8.06933 99.4916 8.432C99.8543 8.784 100.036 9.248 100.036 9.824C100.036 10.5173 99.753 11.072 99.1876 11.488C98.6223 11.904 97.8543 12.112 96.8836 12.112ZM103.251 4.976V9.376C103.251 9.97333 103.373 10.3947 103.619 10.64C103.864 10.8747 104.211 10.992 104.659 10.992C104.957 10.992 105.245 10.944 105.523 10.848V11.952C105.192 12.0587 104.819 12.112 104.403 12.112C103.635 12.112 103.032 11.8987 102.595 11.472C102.168 11.0347 101.955 10.3947 101.955 9.552V4.976H100.387V3.952H101.955V1.888L103.251 1.424V3.952H105.555V4.976H103.251ZM113.704 3.952V12H112.424V10.544C112.19 11.0453 111.832 11.4347 111.352 11.712C110.883 11.9787 110.334 12.112 109.704 12.112C108.99 12.112 108.36 11.9413 107.816 11.6C107.283 11.2587 106.867 10.7787 106.568 10.16C106.28 9.53067 106.136 8.8 106.136 7.968C106.136 7.136 106.286 6.40533 106.584 5.776C106.883 5.136 107.299 4.64 107.832 4.288C108.376 3.936 109 3.76 109.704 3.76C110.334 3.76 110.883 3.89867 111.352 4.176C111.822 4.45333 112.179 4.84267 112.424 5.344V3.952H113.704ZM109.96 11.04C110.75 11.04 111.358 10.7733 111.784 10.24C112.211 9.696 112.424 8.928 112.424 7.936C112.424 6.944 112.211 6.18133 111.784 5.648C111.358 5.11467 110.75 4.848 109.96 4.848C109.171 4.848 108.552 5.12533 108.104 5.68C107.667 6.224 107.448 6.98667 107.448 7.968C107.448 8.94933 107.667 9.70667 108.104 10.24C108.542 10.7733 109.16 11.04 109.96 11.04ZM119.086 12.112C118.307 12.112 117.625 11.9413 117.038 11.6C116.462 11.2587 116.014 10.7787 115.694 10.16C115.385 9.53067 115.23 8.8 115.23 7.968C115.23 7.136 115.39 6.40533 115.71 5.776C116.03 5.136 116.483 4.64 117.07 4.288C117.667 3.936 118.361 3.76 119.15 3.76C119.694 3.76 120.217 3.856 120.718 4.048C121.23 4.22933 121.651 4.48533 121.982 4.816L121.55 5.776C121.145 5.456 120.75 5.22133 120.366 5.072C119.993 4.92267 119.609 4.848 119.214 4.848C118.393 4.848 117.747 5.12533 117.278 5.68C116.809 6.224 116.574 6.98667 116.574 7.968C116.574 8.93867 116.803 9.696 117.262 10.24C117.731 10.7733 118.382 11.04 119.214 11.04C119.609 11.04 119.993 10.9653 120.366 10.816C120.75 10.6667 121.145 10.432 121.55 10.112L121.982 11.072C121.641 11.392 121.209 11.648 120.686 11.84C120.174 12.0213 119.641 12.112 119.086 12.112ZM128.556 12L124.428 8.128V12H123.132V0.223999H124.428V7.648L128.22 3.968H129.868L125.836 7.824L130.252 12H128.556ZM141.273 3.952V12H140.009V10.608C139.753 11.0987 139.396 11.472 138.937 11.728C138.479 11.984 137.961 12.112 137.385 12.112C136.436 12.112 135.716 11.8453 135.225 11.312C134.735 10.7787 134.489 9.98933 134.489 8.944V3.952H135.785V8.912C135.785 9.63733 135.935 10.1707 136.233 10.512C136.532 10.8533 136.985 11.024 137.593 11.024C138.308 11.024 138.884 10.7947 139.321 10.336C139.759 9.86667 139.977 9.25333 139.977 8.496V3.952H141.273ZM147.288 3.76C147.992 3.76 148.616 3.936 149.16 4.288C149.704 4.64 150.125 5.136 150.424 5.776C150.722 6.40533 150.872 7.136 150.872 7.968C150.872 8.8 150.722 9.53067 150.424 10.16C150.125 10.7787 149.704 11.2587 149.16 11.6C148.626 11.9413 148.002 12.112 147.288 12.112C146.658 12.112 146.109 11.9733 145.64 11.696C145.17 11.4187 144.813 11.024 144.568 10.512V15.456H143.272V6.208C143.272 5.376 143.229 4.624 143.144 3.952H144.376L144.504 5.504C144.728 4.94933 145.08 4.52267 145.56 4.224C146.05 3.91467 146.626 3.76 147.288 3.76ZM147.048 11.04C147.837 11.04 148.445 10.7733 148.872 10.24C149.309 9.70667 149.528 8.94933 149.528 7.968C149.528 6.98667 149.309 6.224 148.872 5.68C148.434 5.12533 147.826 4.848 147.048 4.848C146.248 4.848 145.634 5.11467 145.208 5.648C144.781 6.18133 144.568 6.944 144.568 7.936C144.568 8.928 144.781 9.696 145.208 10.24C145.634 10.7733 146.248 11.04 147.048 11.04ZM163.125 3.952V12H161.845V10.544C161.61 11.0453 161.253 11.4347 160.773 11.712C160.303 11.9787 159.754 12.112 159.125 12.112C158.41 12.112 157.781 11.9413 157.237 11.6C156.703 11.2587 156.287 10.7787 155.989 10.16C155.701 9.53067 155.557 8.8 155.557 7.968C155.557 7.136 155.706 6.40533 156.005 5.776C156.303 5.136 156.719 4.64 157.253 4.288C157.797 3.936 158.421 3.76 159.125 3.76C159.754 3.76 160.303 3.89867 160.773 4.176C161.242 4.45333 161.599 4.84267 161.845 5.344V3.952H163.125ZM159.381 11.04C160.17 11.04 160.778 10.7733 161.205 10.24C161.631 9.696 161.845 8.928 161.845 7.936C161.845 6.944 161.631 6.18133 161.205 5.648C160.778 5.11467 160.17 4.848 159.381 4.848C158.591 4.848 157.973 5.12533 157.525 5.68C157.087 6.224 156.869 6.98667 156.869 7.968C156.869 8.94933 157.087 9.70667 157.525 10.24C157.962 10.7733 158.581 11.04 159.381 11.04ZM172.298 3.952V11.936C172.298 13.1307 171.989 14.032 171.37 14.64C170.762 15.2587 169.861 15.568 168.666 15.568C167.44 15.568 166.384 15.2907 165.498 14.736L165.722 13.68C166.234 13.968 166.714 14.176 167.162 14.304C167.621 14.432 168.122 14.496 168.666 14.496C169.445 14.496 170.032 14.288 170.426 13.872C170.821 13.4667 171.018 12.8587 171.018 12.048V10.144C170.773 10.656 170.41 11.056 169.93 11.344C169.461 11.6213 168.901 11.76 168.25 11.76C167.546 11.76 166.917 11.5947 166.362 11.264C165.818 10.9333 165.397 10.464 165.098 9.856C164.8 9.248 164.65 8.54933 164.65 7.76C164.65 6.97067 164.8 6.272 165.098 5.664C165.397 5.056 165.818 4.58667 166.362 4.256C166.917 3.92533 167.546 3.76 168.25 3.76C168.89 3.76 169.445 3.89867 169.914 4.176C170.394 4.45333 170.757 4.84267 171.002 5.344V3.952H172.298ZM168.506 10.672C169.285 10.672 169.893 10.416 170.33 9.904C170.778 9.38133 171.002 8.66667 171.002 7.76C171.002 6.85333 170.778 6.144 170.33 5.632C169.893 5.10933 169.285 4.848 168.506 4.848C167.717 4.848 167.093 5.10933 166.634 5.632C166.186 6.144 165.962 6.85333 165.962 7.76C165.962 8.66667 166.186 9.38133 166.634 9.904C167.093 10.416 167.717 10.672 168.506 10.672ZM181.374 3.952V12H180.094V10.544C179.86 11.0453 179.502 11.4347 179.022 11.712C178.553 11.9787 178.004 12.112 177.374 12.112C176.66 12.112 176.03 11.9413 175.486 11.6C174.953 11.2587 174.537 10.7787 174.238 10.16C173.95 9.53067 173.806 8.8 173.806 7.968C173.806 7.136 173.956 6.40533 174.254 5.776C174.553 5.136 174.969 4.64 175.502 4.288C176.046 3.936 176.67 3.76 177.374 3.76C178.004 3.76 178.553 3.89867 179.022 4.176C179.492 4.45333 179.849 4.84267 180.094 5.344V3.952H181.374ZM177.63 11.04C178.42 11.04 179.028 10.7733 179.454 10.24C179.881 9.696 180.094 8.928 180.094 7.936C180.094 6.944 179.881 6.18133 179.454 5.648C179.028 5.11467 178.42 4.848 177.63 4.848C176.841 4.848 176.222 5.12533 175.774 5.68C175.337 6.224 175.118 6.98667 175.118 7.968C175.118 8.94933 175.337 9.70667 175.774 10.24C176.212 10.7733 176.83 11.04 177.63 11.04ZM183.38 3.952H184.676V12H183.38V3.952ZM184.836 0.544V2.016H183.252V0.544H184.836ZM190.708 3.76C192.639 3.76 193.604 4.82133 193.604 6.944V12H192.308V7.008C192.308 6.26133 192.159 5.71733 191.86 5.376C191.561 5.024 191.092 4.848 190.452 4.848C189.705 4.848 189.108 5.07733 188.66 5.536C188.212 5.99467 187.988 6.61333 187.988 7.392V12H186.692V6.208C186.692 5.376 186.649 4.624 186.564 3.952H187.796L187.924 5.392C188.169 4.86933 188.537 4.46933 189.028 4.192C189.519 3.904 190.079 3.76 190.708 3.76ZM198.271 12.112C196.917 12.112 195.845 11.7653 195.055 11.072L195.487 10.112C195.925 10.4533 196.367 10.6987 196.815 10.848C197.263 10.9973 197.765 11.072 198.319 11.072C198.927 11.072 199.386 10.9707 199.695 10.768C200.015 10.5547 200.175 10.2507 200.175 9.856C200.175 9.536 200.069 9.28 199.855 9.088C199.642 8.896 199.29 8.74667 198.799 8.64L197.439 8.32C196.767 8.17067 196.245 7.904 195.871 7.52C195.509 7.136 195.327 6.67733 195.327 6.144C195.327 5.44 195.61 4.86933 196.175 4.432C196.741 3.984 197.487 3.76 198.415 3.76C198.981 3.76 199.514 3.85067 200.015 4.032C200.517 4.21333 200.938 4.47467 201.279 4.816L200.847 5.76C200.09 5.13067 199.279 4.816 198.415 4.816C197.839 4.816 197.391 4.928 197.071 5.152C196.762 5.36533 196.607 5.66933 196.607 6.064C196.607 6.39467 196.703 6.656 196.895 6.848C197.098 7.04 197.418 7.18933 197.855 7.296L199.215 7.632C199.962 7.80267 200.517 8.06933 200.879 8.432C201.242 8.784 201.423 9.248 201.423 9.824C201.423 10.5173 201.141 11.072 200.575 11.488C200.01 11.904 199.242 12.112 198.271 12.112ZM204.638 4.976V9.376C204.638 9.97333 204.761 10.3947 205.006 10.64C205.252 10.8747 205.598 10.992 206.046 10.992C206.345 10.992 206.633 10.944 206.91 10.848V11.952C206.58 12.0587 206.206 12.112 205.79 12.112C205.022 12.112 204.42 11.8987 203.982 11.472C203.556 11.0347 203.342 10.3947 203.342 9.552V4.976H201.774V3.952H203.342V1.888L204.638 1.424V3.952H206.942V4.976H204.638ZM215.052 12.112C214.273 12.112 213.59 11.9413 213.004 11.6C212.428 11.2587 211.98 10.7787 211.66 10.16C211.35 9.53067 211.196 8.8 211.196 7.968C211.196 7.136 211.356 6.40533 211.676 5.776C211.996 5.136 212.449 4.64 213.036 4.288C213.633 3.936 214.326 3.76 215.116 3.76C215.66 3.76 216.182 3.856 216.684 4.048C217.196 4.22933 217.617 4.48533 217.948 4.816L217.516 5.776C217.11 5.456 216.716 5.22133 216.332 5.072C215.958 4.92267 215.574 4.848 215.18 4.848C214.358 4.848 213.713 5.12533 213.244 5.68C212.774 6.224 212.54 6.98667 212.54 7.968C212.54 8.93867 212.769 9.696 213.228 10.24C213.697 10.7733 214.348 11.04 215.18 11.04C215.574 11.04 215.958 10.9653 216.332 10.816C216.716 10.6667 217.11 10.432 217.516 10.112L217.948 11.072C217.606 11.392 217.174 11.648 216.652 11.84C216.14 12.0213 215.606 12.112 215.052 12.112ZM222.425 12.112C221.668 12.112 221.001 11.9413 220.425 11.6C219.849 11.2587 219.401 10.7733 219.081 10.144C218.772 9.51467 218.617 8.77867 218.617 7.936C218.617 7.09333 218.772 6.35733 219.081 5.728C219.401 5.09867 219.849 4.61333 220.425 4.272C221.001 3.93067 221.668 3.76 222.425 3.76C223.183 3.76 223.849 3.93067 224.425 4.272C225.001 4.61333 225.444 5.09867 225.753 5.728C226.073 6.35733 226.233 7.09333 226.233 7.936C226.233 8.77867 226.073 9.51467 225.753 10.144C225.444 10.7733 225.001 11.2587 224.425 11.6C223.849 11.9413 223.183 12.112 222.425 12.112ZM222.425 11.04C223.225 11.04 223.839 10.7787 224.265 10.256C224.692 9.72267 224.905 8.94933 224.905 7.936C224.905 6.95467 224.687 6.19733 224.249 5.664C223.812 5.12 223.204 4.848 222.425 4.848C221.636 4.848 221.023 5.12 220.585 5.664C220.148 6.19733 219.929 6.95467 219.929 7.936C219.929 8.94933 220.143 9.72267 220.569 10.256C221.007 10.7787 221.625 11.04 222.425 11.04ZM236.681 3.76C238.463 3.76 239.353 4.82133 239.353 6.944V12H238.057V7.008C238.057 6.25067 237.924 5.70133 237.657 5.36C237.401 5.01867 236.98 4.848 236.393 4.848C235.711 4.848 235.177 5.07733 234.793 5.536C234.409 5.99467 234.217 6.61867 234.217 7.408V12H232.921V7.008C232.921 6.26133 232.788 5.71733 232.521 5.376C232.255 5.024 231.828 4.848 231.241 4.848C230.559 4.848 230.02 5.07733 229.625 5.536C229.241 5.99467 229.049 6.61867 229.049 7.408V12H227.753V6.208C227.753 5.376 227.711 4.624 227.625 3.952H228.857L228.985 5.36C229.209 4.848 229.54 4.45333 229.977 4.176C230.425 3.89867 230.943 3.76 231.529 3.76C232.169 3.76 232.692 3.888 233.097 4.144C233.503 4.4 233.801 4.79467 233.993 5.328C234.239 4.848 234.596 4.46933 235.065 4.192C235.545 3.904 236.084 3.76 236.681 3.76ZM245.332 3.76C246.036 3.76 246.66 3.936 247.204 4.288C247.748 4.64 248.169 5.136 248.468 5.776C248.766 6.40533 248.916 7.136 248.916 7.968C248.916 8.8 248.766 9.53067 248.468 10.16C248.169 10.7787 247.748 11.2587 247.204 11.6C246.67 11.9413 246.046 12.112 245.332 12.112C244.702 12.112 244.153 11.9733 243.684 11.696C243.214 11.4187 242.857 11.024 242.612 10.512V15.456H241.316V6.208C241.316 5.376 241.273 4.624 241.188 3.952H242.42L242.548 5.504C242.772 4.94933 243.124 4.52267 243.604 4.224C244.094 3.91467 244.67 3.76 245.332 3.76ZM245.092 11.04C245.881 11.04 246.489 10.7733 246.916 10.24C247.353 9.70667 247.572 8.94933 247.572 7.968C247.572 6.98667 247.353 6.224 246.916 5.68C246.478 5.12533 245.87 4.848 245.092 4.848C244.292 4.848 243.678 5.11467 243.252 5.648C242.825 6.18133 242.612 6.944 242.612 7.936C242.612 8.928 242.825 9.696 243.252 10.24C243.678 10.7733 244.292 11.04 245.092 11.04ZM257.497 3.952V12H256.217V10.544C255.983 11.0453 255.625 11.4347 255.145 11.712C254.676 11.9787 254.127 12.112 253.497 12.112C252.783 12.112 252.153 11.9413 251.609 11.6C251.076 11.2587 250.66 10.7787 250.361 10.16C250.073 9.53067 249.929 8.8 249.929 7.968C249.929 7.136 250.079 6.40533 250.377 5.776C250.676 5.136 251.092 4.64 251.625 4.288C252.169 3.936 252.793 3.76 253.497 3.76C254.127 3.76 254.676 3.89867 255.145 4.176C255.615 4.45333 255.972 4.84267 256.217 5.344V3.952H257.497ZM253.753 11.04C254.543 11.04 255.151 10.7733 255.577 10.24C256.004 9.696 256.217 8.928 256.217 7.936C256.217 6.944 256.004 6.18133 255.577 5.648C255.151 5.11467 254.543 4.848 253.753 4.848C252.964 4.848 252.345 5.12533 251.897 5.68C251.46 6.224 251.241 6.98667 251.241 7.968C251.241 8.94933 251.46 9.70667 251.897 10.24C252.335 10.7733 252.953 11.04 253.753 11.04ZM263.247 3.76C263.513 3.76 263.759 3.792 263.983 3.856L263.951 5.04C263.705 4.95467 263.423 4.912 263.103 4.912C262.324 4.912 261.743 5.15733 261.359 5.648C260.985 6.128 260.799 6.71467 260.799 7.408V12H259.503V6.208C259.503 5.376 259.46 4.624 259.375 3.952H260.607L260.735 5.44C260.937 4.896 261.263 4.48 261.711 4.192C262.159 3.904 262.671 3.76 263.247 3.76ZM271.731 3.952V12H270.451V10.544C270.216 11.0453 269.859 11.4347 269.379 11.712C268.91 11.9787 268.36 12.112 267.731 12.112C267.016 12.112 266.387 11.9413 265.843 11.6C265.31 11.2587 264.894 10.7787 264.595 10.16C264.307 9.53067 264.163 8.8 264.163 7.968C264.163 7.136 264.312 6.40533 264.611 5.776C264.91 5.136 265.326 4.64 265.859 4.288C266.403 3.936 267.027 3.76 267.731 3.76C268.36 3.76 268.91 3.89867 269.379 4.176C269.848 4.45333 270.206 4.84267 270.451 5.344V3.952H271.731ZM267.987 11.04C268.776 11.04 269.384 10.7733 269.811 10.24C270.238 9.696 270.451 8.928 270.451 7.936C270.451 6.944 270.238 6.18133 269.811 5.648C269.384 5.11467 268.776 4.848 267.987 4.848C267.198 4.848 266.579 5.12533 266.131 5.68C265.694 6.224 265.475 6.98667 265.475 7.968C265.475 8.94933 265.694 9.70667 266.131 10.24C266.568 10.7733 267.187 11.04 267.987 11.04ZM277.753 3.76C278.457 3.76 279.081 3.93067 279.625 4.272C280.169 4.61333 280.59 5.09867 280.889 5.728C281.187 6.34667 281.337 7.072 281.337 7.904C281.337 8.736 281.187 9.472 280.889 10.112C280.59 10.7413 280.169 11.232 279.625 11.584C279.081 11.936 278.457 12.112 277.753 12.112C277.123 12.112 276.574 11.9733 276.105 11.696C275.635 11.4187 275.278 11.024 275.033 10.512V12H273.737V0.223999H275.033V5.376C275.267 4.85333 275.619 4.45333 276.089 4.176C276.569 3.89867 277.123 3.76 277.753 3.76ZM277.513 11.04C278.291 11.04 278.899 10.768 279.337 10.224C279.774 9.66933 279.993 8.896 279.993 7.904C279.993 6.93333 279.774 6.18133 279.337 5.648C278.91 5.11467 278.302 4.848 277.513 4.848C276.713 4.848 276.099 5.11467 275.673 5.648C275.246 6.18133 275.033 6.944 275.033 7.936C275.033 8.928 275.246 9.696 275.673 10.24C276.099 10.7733 276.713 11.04 277.513 11.04ZM282.83 0.223999H284.126V12H282.83V0.223999ZM292.879 7.936H286.975C286.985 8.96 287.22 9.73333 287.679 10.256C288.148 10.7787 288.825 11.04 289.711 11.04C290.649 11.04 291.513 10.7253 292.303 10.096L292.735 11.04C292.383 11.3707 291.929 11.632 291.375 11.824C290.831 12.016 290.271 12.112 289.695 12.112C288.436 12.112 287.449 11.744 286.735 11.008C286.02 10.2613 285.663 9.24267 285.663 7.952C285.663 7.13067 285.823 6.40533 286.143 5.776C286.463 5.136 286.911 4.64 287.487 4.288C288.063 3.936 288.719 3.76 289.455 3.76C290.521 3.76 291.359 4.112 291.967 4.816C292.575 5.50933 292.879 6.46933 292.879 7.696V7.936ZM289.471 4.768C288.799 4.768 288.249 4.97067 287.823 5.376C287.407 5.78133 287.14 6.352 287.023 7.088H291.711C291.647 6.33067 291.423 5.75467 291.039 5.36C290.665 4.96533 290.143 4.768 289.471 4.768ZM54.0643 36.112C53.2857 36.112 52.603 35.9413 52.0163 35.6C51.4403 35.2587 50.9923 34.7787 50.6723 34.16C50.363 33.5307 50.2083 32.8 50.2083 31.968C50.2083 31.136 50.3683 30.4053 50.6883 29.776C51.0083 29.136 51.4617 28.64 52.0483 28.288C52.6457 27.936 53.339 27.76 54.1283 27.76C54.6723 27.76 55.195 27.856 55.6963 28.048C56.2083 28.2293 56.6297 28.4853 56.9603 28.816L56.5283 29.776C56.123 29.456 55.7283 29.2213 55.3443 29.072C54.971 28.9227 54.587 28.848 54.1923 28.848C53.371 28.848 52.7257 29.1253 52.2563 29.68C51.787 30.224 51.5523 30.9867 51.5523 31.968C51.5523 32.9387 51.7817 33.696 52.2403 34.24C52.7097 34.7733 53.3603 35.04 54.1923 35.04C54.587 35.04 54.971 34.9653 55.3443 34.816C55.7283 34.6667 56.123 34.432 56.5283 34.112L56.9603 35.072C56.619 35.392 56.187 35.648 55.6643 35.84C55.1523 36.0213 54.619 36.112 54.0643 36.112ZM61.438 36.112C60.6807 36.112 60.014 35.9413 59.438 35.6C58.862 35.2587 58.414 34.7733 58.094 34.144C57.7847 33.5147 57.63 32.7787 57.63 31.936C57.63 31.0933 57.7847 30.3573 58.094 29.728C58.414 29.0987 58.862 28.6133 59.438 28.272C60.014 27.9307 60.6807 27.76 61.438 27.76C62.1953 27.76 62.862 27.9307 63.438 28.272C64.014 28.6133 64.4567 29.0987 64.766 29.728C65.086 30.3573 65.246 31.0933 65.246 31.936C65.246 32.7787 65.086 33.5147 64.766 34.144C64.4567 34.7733 64.014 35.2587 63.438 35.6C62.862 35.9413 62.1953 36.112 61.438 36.112ZM61.438 35.04C62.238 35.04 62.8513 34.7787 63.278 34.256C63.7047 33.7227 63.918 32.9493 63.918 31.936C63.918 30.9547 63.6993 30.1973 63.262 29.664C62.8247 29.12 62.2167 28.848 61.438 28.848C60.6487 28.848 60.0353 29.12 59.598 29.664C59.1607 30.1973 58.942 30.9547 58.942 31.936C58.942 32.9493 59.1553 33.7227 59.582 34.256C60.0193 34.7787 60.638 35.04 61.438 35.04ZM75.6941 27.76C77.4754 27.76 78.3661 28.8213 78.3661 30.944V36H77.0701V31.008C77.0701 30.2507 76.9367 29.7013 76.6701 29.36C76.4141 29.0187 75.9927 28.848 75.4061 28.848C74.7234 28.848 74.1901 29.0773 73.8061 29.536C73.4221 29.9947 73.2301 30.6187 73.2301 31.408V36H71.9341V31.008C71.9341 30.2613 71.8007 29.7173 71.5341 29.376C71.2674 29.024 70.8407 28.848 70.2541 28.848C69.5714 28.848 69.0327 29.0773 68.6381 29.536C68.2541 29.9947 68.0621 30.6187 68.0621 31.408V36H66.7661V30.208C66.7661 29.376 66.7234 28.624 66.6381 27.952H67.8701L67.9981 29.36C68.2221 28.848 68.5527 28.4533 68.9901 28.176C69.4381 27.8987 69.9554 27.76 70.5421 27.76C71.1821 27.76 71.7047 27.888 72.1101 28.144C72.5154 28.4 72.8141 28.7947 73.0061 29.328C73.2514 28.848 73.6087 28.4693 74.0781 28.192C74.5581 27.904 75.0967 27.76 75.6941 27.76ZM84.3443 27.76C85.0483 27.76 85.6723 27.936 86.2163 28.288C86.7603 28.64 87.1817 29.136 87.4803 29.776C87.779 30.4053 87.9283 31.136 87.9283 31.968C87.9283 32.8 87.779 33.5307 87.4803 34.16C87.1817 34.7787 86.7603 35.2587 86.2163 35.6C85.683 35.9413 85.059 36.112 84.3443 36.112C83.715 36.112 83.1657 35.9733 82.6963 35.696C82.227 35.4187 81.8697 35.024 81.6243 34.512V39.456H80.3283V30.208C80.3283 29.376 80.2857 28.624 80.2003 27.952H81.4323L81.5603 29.504C81.7843 28.9493 82.1363 28.5227 82.6163 28.224C83.107 27.9147 83.683 27.76 84.3443 27.76ZM84.1043 35.04C84.8937 35.04 85.5017 34.7733 85.9283 34.24C86.3657 33.7067 86.5843 32.9493 86.5843 31.968C86.5843 30.9867 86.3657 30.224 85.9283 29.68C85.491 29.1253 84.883 28.848 84.1043 28.848C83.3043 28.848 82.691 29.1147 82.2643 29.648C81.8377 30.1813 81.6243 30.944 81.6243 31.936C81.6243 32.928 81.8377 33.696 82.2643 34.24C82.691 34.7733 83.3043 35.04 84.1043 35.04ZM96.5099 27.952V36H95.2299V34.544C94.9952 35.0453 94.6379 35.4347 94.1579 35.712C93.6885 35.9787 93.1392 36.112 92.5099 36.112C91.7952 36.112 91.1659 35.9413 90.6219 35.6C90.0885 35.2587 89.6725 34.7787 89.3739 34.16C89.0859 33.5307 88.9419 32.8 88.9419 31.968C88.9419 31.136 89.0912 30.4053 89.3899 29.776C89.6885 29.136 90.1045 28.64 90.6379 28.288C91.1819 27.936 91.8059 27.76 92.5099 27.76C93.1392 27.76 93.6885 27.8987 94.1579 28.176C94.6272 28.4533 94.9845 28.8427 95.2299 29.344V27.952H96.5099ZM92.7659 35.04C93.5552 35.04 94.1632 34.7733 94.5899 34.24C95.0165 33.696 95.2299 32.928 95.2299 31.936C95.2299 30.944 95.0165 30.1813 94.5899 29.648C94.1632 29.1147 93.5552 28.848 92.7659 28.848C91.9765 28.848 91.3579 29.1253 90.9099 29.68C90.4725 30.224 90.2539 30.9867 90.2539 31.968C90.2539 32.9493 90.4725 33.7067 90.9099 34.24C91.3472 34.7733 91.9659 35.04 92.7659 35.04ZM102.531 27.76C104.462 27.76 105.427 28.8213 105.427 30.944V36H104.131V31.008C104.131 30.2613 103.982 29.7173 103.683 29.376C103.385 29.024 102.915 28.848 102.275 28.848C101.529 28.848 100.931 29.0773 100.483 29.536C100.035 29.9947 99.8114 30.6133 99.8114 31.392V36H98.5154V30.208C98.5154 29.376 98.4728 28.624 98.3874 27.952H99.6194L99.7474 29.392C99.9928 28.8693 100.361 28.4693 100.851 28.192C101.342 27.904 101.902 27.76 102.531 27.76ZM107.375 27.952H108.671V36H107.375V27.952ZM108.831 24.544V26.016H107.247V24.544H108.831ZM117.423 31.936H111.519C111.53 32.96 111.764 33.7333 112.223 34.256C112.692 34.7787 113.37 35.04 114.255 35.04C115.194 35.04 116.058 34.7253 116.847 34.096L117.279 35.04C116.927 35.3707 116.474 35.632 115.919 35.824C115.375 36.016 114.815 36.112 114.239 36.112C112.98 36.112 111.994 35.744 111.279 35.008C110.564 34.2613 110.207 33.2427 110.207 31.952C110.207 31.1307 110.367 30.4053 110.687 29.776C111.007 29.136 111.455 28.64 112.031 28.288C112.607 27.936 113.263 27.76 113.999 27.76C115.066 27.76 115.903 28.112 116.511 28.816C117.119 29.5093 117.423 30.4693 117.423 31.696V31.936ZM114.015 28.768C113.343 28.768 112.794 28.9707 112.367 29.376C111.951 29.7813 111.684 30.352 111.567 31.088H116.255C116.191 30.3307 115.967 29.7547 115.583 29.36C115.21 28.9653 114.687 28.768 114.015 28.768ZM121.61 36.112C120.255 36.112 119.183 35.7653 118.394 35.072L118.826 34.112C119.263 34.4533 119.706 34.6987 120.154 34.848C120.602 34.9973 121.103 35.072 121.658 35.072C122.266 35.072 122.724 34.9707 123.034 34.768C123.354 34.5547 123.514 34.2507 123.514 33.856C123.514 33.536 123.407 33.28 123.194 33.088C122.98 32.896 122.628 32.7467 122.138 32.64L120.778 32.32C120.106 32.1707 119.583 31.904 119.21 31.52C118.847 31.136 118.666 30.6773 118.666 30.144C118.666 29.44 118.948 28.8693 119.514 28.432C120.079 27.984 120.826 27.76 121.754 27.76C122.319 27.76 122.852 27.8507 123.354 28.032C123.855 28.2133 124.276 28.4747 124.618 28.816L124.186 29.76C123.428 29.1307 122.618 28.816 121.754 28.816C121.178 28.816 120.73 28.928 120.41 29.152C120.1 29.3653 119.946 29.6693 119.946 30.064C119.946 30.3947 120.042 30.656 120.234 30.848C120.436 31.04 120.756 31.1893 121.194 31.296L122.554 31.632C123.3 31.8027 123.855 32.0693 124.218 32.432C124.58 32.784 124.762 33.248 124.762 33.824C124.762 34.5173 124.479 35.072 123.914 35.488C123.348 35.904 122.58 36.112 121.61 36.112ZM129.999 27.952H131.295V36H129.999V27.952ZM131.455 24.544V26.016H129.871V24.544H131.455ZM137.327 27.76C139.258 27.76 140.223 28.8213 140.223 30.944V36H138.927V31.008C138.927 30.2613 138.778 29.7173 138.479 29.376C138.18 29.024 137.711 28.848 137.071 28.848C136.324 28.848 135.727 29.0773 135.279 29.536C134.831 29.9947 134.607 30.6133 134.607 31.392V36H133.311V30.208C133.311 29.376 133.268 28.624 133.183 27.952H134.415L134.543 29.392C134.788 28.8693 135.156 28.4693 135.647 28.192C136.138 27.904 136.698 27.76 137.327 27.76ZM148.562 36.112C147.207 36.112 146.135 35.7653 145.346 35.072L145.778 34.112C146.215 34.4533 146.658 34.6987 147.106 34.848C147.554 34.9973 148.055 35.072 148.61 35.072C149.218 35.072 149.677 34.9707 149.986 34.768C150.306 34.5547 150.466 34.2507 150.466 33.856C150.466 33.536 150.359 33.28 150.146 33.088C149.933 32.896 149.581 32.7467 149.09 32.64L147.73 32.32C147.058 32.1707 146.535 31.904 146.162 31.52C145.799 31.136 145.618 30.6773 145.618 30.144C145.618 29.44 145.901 28.8693 146.466 28.432C147.031 27.984 147.778 27.76 148.706 27.76C149.271 27.76 149.805 27.8507 150.306 28.032C150.807 28.2133 151.229 28.4747 151.57 28.816L151.138 29.76C150.381 29.1307 149.57 28.816 148.706 28.816C148.13 28.816 147.682 28.928 147.362 29.152C147.053 29.3653 146.898 29.6693 146.898 30.064C146.898 30.3947 146.994 30.656 147.186 30.848C147.389 31.04 147.709 31.1893 148.146 31.296L149.506 31.632C150.253 31.8027 150.807 32.0693 151.17 32.432C151.533 32.784 151.714 33.248 151.714 33.824C151.714 34.5173 151.431 35.072 150.866 35.488C150.301 35.904 149.533 36.112 148.562 36.112ZM153.279 27.952H154.575V36H153.279V27.952ZM154.735 24.544V26.016H153.151V24.544H154.735ZM165.519 27.76C167.301 27.76 168.191 28.8213 168.191 30.944V36H166.895V31.008C166.895 30.2507 166.762 29.7013 166.495 29.36C166.239 29.0187 165.818 28.848 165.231 28.848C164.549 28.848 164.015 29.0773 163.631 29.536C163.247 29.9947 163.055 30.6187 163.055 31.408V36H161.759V31.008C161.759 30.2613 161.626 29.7173 161.359 29.376C161.093 29.024 160.666 28.848 160.079 28.848C159.397 28.848 158.858 29.0773 158.463 29.536C158.079 29.9947 157.887 30.6187 157.887 31.408V36H156.591V30.208C156.591 29.376 156.549 28.624 156.463 27.952H157.695L157.823 29.36C158.047 28.848 158.378 28.4533 158.815 28.176C159.263 27.8987 159.781 27.76 160.367 27.76C161.007 27.76 161.53 27.888 161.935 28.144C162.341 28.4 162.639 28.7947 162.831 29.328C163.077 28.848 163.434 28.4693 163.903 28.192C164.383 27.904 164.922 27.76 165.519 27.76ZM170.154 27.952H171.45V36H170.154V27.952ZM171.61 24.544V26.016H170.026V24.544H171.61ZM173.466 24.224H174.762V36H173.466V24.224ZM183.866 27.952V36H182.586V34.544C182.352 35.0453 181.994 35.4347 181.514 35.712C181.045 35.9787 180.496 36.112 179.866 36.112C179.152 36.112 178.522 35.9413 177.978 35.6C177.445 35.2587 177.029 34.7787 176.73 34.16C176.442 33.5307 176.298 32.8 176.298 31.968C176.298 31.136 176.448 30.4053 176.746 29.776C177.045 29.136 177.461 28.64 177.994 28.288C178.538 27.936 179.162 27.76 179.866 27.76C180.496 27.76 181.045 27.8987 181.514 28.176C181.984 28.4533 182.341 28.8427 182.586 29.344V27.952H183.866ZM180.122 35.04C180.912 35.04 181.52 34.7733 181.946 34.24C182.373 33.696 182.586 32.928 182.586 31.936C182.586 30.944 182.373 30.1813 181.946 29.648C181.52 29.1147 180.912 28.848 180.122 28.848C179.333 28.848 178.714 29.1253 178.266 29.68C177.829 30.224 177.61 30.9867 177.61 31.968C177.61 32.9493 177.829 33.7067 178.266 34.24C178.704 34.7733 179.322 35.04 180.122 35.04ZM189.616 27.76C189.883 27.76 190.128 27.792 190.352 27.856L190.32 29.04C190.075 28.9547 189.792 28.912 189.472 28.912C188.693 28.912 188.112 29.1573 187.728 29.648C187.355 30.128 187.168 30.7147 187.168 31.408V36H185.872V30.208C185.872 29.376 185.829 28.624 185.744 27.952H186.976L187.104 29.44C187.307 28.896 187.632 28.48 188.08 28.192C188.528 27.904 189.04 27.76 189.616 27.76ZM197.56 36.112C196.205 36.112 195.133 35.7653 194.344 35.072L194.776 34.112C195.213 34.4533 195.656 34.6987 196.104 34.848C196.552 34.9973 197.053 35.072 197.608 35.072C198.216 35.072 198.675 34.9707 198.984 34.768C199.304 34.5547 199.464 34.2507 199.464 33.856C199.464 33.536 199.357 33.28 199.144 33.088C198.931 32.896 198.579 32.7467 198.088 32.64L196.728 32.32C196.056 32.1707 195.533 31.904 195.16 31.52C194.797 31.136 194.616 30.6773 194.616 30.144C194.616 29.44 194.899 28.8693 195.464 28.432C196.029 27.984 196.776 27.76 197.704 27.76C198.269 27.76 198.803 27.8507 199.304 28.032C199.805 28.2133 200.227 28.4747 200.568 28.816L200.136 29.76C199.379 29.1307 198.568 28.816 197.704 28.816C197.128 28.816 196.68 28.928 196.36 29.152C196.051 29.3653 195.896 29.6693 195.896 30.064C195.896 30.3947 195.992 30.656 196.184 30.848C196.387 31.04 196.707 31.1893 197.144 31.296L198.504 31.632C199.251 31.8027 199.805 32.0693 200.168 32.432C200.531 32.784 200.712 33.248 200.712 33.824C200.712 34.5173 200.429 35.072 199.864 35.488C199.299 35.904 198.531 36.112 197.56 36.112ZM203.927 28.976V33.376C203.927 33.9733 204.05 34.3947 204.295 34.64C204.541 34.8747 204.887 34.992 205.335 34.992C205.634 34.992 205.922 34.944 206.199 34.848V35.952C205.869 36.0587 205.495 36.112 205.079 36.112C204.311 36.112 203.709 35.8987 203.271 35.472C202.845 35.0347 202.631 34.3947 202.631 33.552V28.976H201.063V27.952H202.631V25.888L203.927 25.424V27.952H206.231V28.976H203.927ZM214.381 27.952V36H213.101V34.544C212.866 35.0453 212.509 35.4347 212.029 35.712C211.56 35.9787 211.01 36.112 210.381 36.112C209.666 36.112 209.037 35.9413 208.493 35.6C207.96 35.2587 207.544 34.7787 207.245 34.16C206.957 33.5307 206.813 32.8 206.813 31.968C206.813 31.136 206.962 30.4053 207.261 29.776C207.56 29.136 207.976 28.64 208.509 28.288C209.053 27.936 209.677 27.76 210.381 27.76C211.01 27.76 211.56 27.8987 212.029 28.176C212.498 28.4533 212.856 28.8427 213.101 29.344V27.952H214.381ZM210.637 35.04C211.426 35.04 212.034 34.7733 212.461 34.24C212.888 33.696 213.101 32.928 213.101 31.936C213.101 30.944 212.888 30.1813 212.461 29.648C212.034 29.1147 211.426 28.848 210.637 28.848C209.848 28.848 209.229 29.1253 208.781 29.68C208.344 30.224 208.125 30.9867 208.125 31.968C208.125 32.9493 208.344 33.7067 208.781 34.24C209.218 34.7733 209.837 35.04 210.637 35.04ZM223.554 27.952V35.936C223.554 37.1307 223.245 38.032 222.626 38.64C222.018 39.2587 221.117 39.568 219.922 39.568C218.696 39.568 217.64 39.2907 216.754 38.736L216.978 37.68C217.49 37.968 217.97 38.176 218.418 38.304C218.877 38.432 219.378 38.496 219.922 38.496C220.701 38.496 221.288 38.288 221.682 37.872C222.077 37.4667 222.274 36.8587 222.274 36.048V34.144C222.029 34.656 221.666 35.056 221.186 35.344C220.717 35.6213 220.157 35.76 219.506 35.76C218.802 35.76 218.173 35.5947 217.618 35.264C217.074 34.9333 216.653 34.464 216.354 33.856C216.056 33.248 215.906 32.5493 215.906 31.76C215.906 30.9707 216.056 30.272 216.354 29.664C216.653 29.056 217.074 28.5867 217.618 28.256C218.173 27.9253 218.802 27.76 219.506 27.76C220.146 27.76 220.701 27.8987 221.17 28.176C221.65 28.4533 222.013 28.8427 222.258 29.344V27.952H223.554ZM219.762 34.672C220.541 34.672 221.149 34.416 221.586 33.904C222.034 33.3813 222.258 32.6667 222.258 31.76C222.258 30.8533 222.034 30.144 221.586 29.632C221.149 29.1093 220.541 28.848 219.762 28.848C218.973 28.848 218.349 29.1093 217.89 29.632C217.442 30.144 217.218 30.8533 217.218 31.76C217.218 32.6667 217.442 33.3813 217.89 33.904C218.349 34.416 218.973 34.672 219.762 34.672ZM232.278 31.936H226.374C226.385 32.96 226.62 33.7333 227.078 34.256C227.548 34.7787 228.225 35.04 229.11 35.04C230.049 35.04 230.913 34.7253 231.702 34.096L232.134 35.04C231.782 35.3707 231.329 35.632 230.774 35.824C230.23 36.016 229.67 36.112 229.094 36.112C227.836 36.112 226.849 35.744 226.134 35.008C225.42 34.2613 225.062 33.2427 225.062 31.952C225.062 31.1307 225.222 30.4053 225.542 29.776C225.862 29.136 226.31 28.64 226.886 28.288C227.462 27.936 228.118 27.76 228.854 27.76C229.921 27.76 230.758 28.112 231.366 28.816C231.974 29.5093 232.278 30.4693 232.278 31.696V31.936ZM228.87 28.768C228.198 28.768 227.649 28.9707 227.222 29.376C226.806 29.7813 226.54 30.352 226.422 31.088H231.11C231.046 30.3307 230.822 29.7547 230.438 29.36C230.065 28.9653 229.542 28.768 228.87 28.768ZM236.465 36.112C235.111 36.112 234.039 35.7653 233.249 35.072L233.681 34.112C234.119 34.4533 234.561 34.6987 235.009 34.848C235.457 34.9973 235.959 35.072 236.513 35.072C237.121 35.072 237.58 34.9707 237.889 34.768C238.209 34.5547 238.369 34.2507 238.369 33.856C238.369 33.536 238.263 33.28 238.049 33.088C237.836 32.896 237.484 32.7467 236.993 32.64L235.633 32.32C234.961 32.1707 234.439 31.904 234.065 31.52C233.703 31.136 233.521 30.6773 233.521 30.144C233.521 29.44 233.804 28.8693 234.369 28.432C234.935 27.984 235.681 27.76 236.609 27.76C237.175 27.76 237.708 27.8507 238.209 28.032C238.711 28.2133 239.132 28.4747 239.473 28.816L239.041 29.76C238.284 29.1307 237.473 28.816 236.609 28.816C236.033 28.816 235.585 28.928 235.265 29.152C234.956 29.3653 234.801 29.6693 234.801 30.064C234.801 30.3947 234.897 30.656 235.089 30.848C235.292 31.04 235.612 31.1893 236.049 31.296L237.409 31.632C238.156 31.8027 238.711 32.0693 239.073 32.432C239.436 32.784 239.617 33.248 239.617 33.824C239.617 34.5173 239.335 35.072 238.769 35.488C238.204 35.904 237.436 36.112 236.465 36.112ZM242.529 34.352V36H240.881V34.352H242.529Z" fill="#696871"/>
</svg>
