<svg width="425" height="47" viewBox="0 0 425 47" fill="none" xmlns="http://www.w3.org/2000/svg">
<path d="M13.35 36.6C10.7833 36.6 8.51667 36.1667 6.55 35.3C4.58333 34.4 3.03333 33.1333 1.9 31.5C0.766667 29.8333 0.183333 27.8167 0.15 25.45H6.9C6.96667 27.0833 7.55 28.4667 8.65 29.6C9.78333 30.7 11.3333 31.25 13.3 31.25C15 31.25 16.35 30.85 17.35 30.05C18.35 29.2167 18.85 28.1167 18.85 26.75C18.85 25.3167 18.4 24.2 17.5 23.4C16.6333 22.6 15.4667 21.95 14 21.45C12.5333 20.95 10.9667 20.4167 9.3 19.85C6.6 18.9167 4.53333 17.7167 3.1 16.25C1.7 14.7833 1 12.8333 1 10.4C0.966667 8.33333 1.45 6.56667 2.45 5.1C3.48333 3.6 4.88333 2.45 6.65 1.65C8.41667 0.816666 10.45 0.399999 12.75 0.399999C15.0833 0.399999 17.1333 0.816666 18.9 1.65C20.7 2.48333 22.1 3.65 23.1 5.15C24.1333 6.65 24.6833 8.43333 24.75 10.5H17.9C17.8667 9.26666 17.3833 8.18333 16.45 7.25C15.55 6.28333 14.2833 5.8 12.65 5.8C11.25 5.76667 10.0667 6.11667 9.1 6.85C8.16667 7.55 7.7 8.58333 7.7 9.95C7.7 11.1167 8.06667 12.05 8.8 12.75C9.53333 13.4167 10.5333 13.9833 11.8 14.45C13.0667 14.9167 14.5167 15.4167 16.15 15.95C17.8833 16.55 19.4667 17.25 20.9 18.05C22.3333 18.85 23.4833 19.9167 24.35 21.25C25.2167 22.55 25.65 24.2333 25.65 26.3C25.65 28.1333 25.1833 29.8333 24.25 31.4C23.3167 32.9667 21.9333 34.2333 20.1 35.2C18.2667 36.1333 16.0167 36.6 13.35 36.6ZM38.8208 36.6C35.7208 36.6 33.3208 35.6333 31.6208 33.7C29.9542 31.7667 29.1208 28.9333 29.1208 25.2V11.2H35.4708V24.6C35.4708 26.7333 35.9042 28.3667 36.7708 29.5C37.6375 30.6333 39.0042 31.2 40.8708 31.2C42.6375 31.2 44.0875 30.5667 45.2208 29.3C46.3875 28.0333 46.9708 26.2667 46.9708 24V11.2H53.3708V36H47.7208L47.2208 31.8C46.4542 33.2667 45.3375 34.4333 43.8708 35.3C42.4375 36.1667 40.7542 36.6 38.8208 36.6ZM73.0776 36.6C71.2109 36.6 69.5776 36.25 68.1776 35.55C66.7776 34.85 65.6443 33.8667 64.7776 32.6L64.0776 36H58.3776V-1.43051e-06H64.7776V14.75C65.5776 13.65 66.6276 12.6833 67.9276 11.85C69.2609 11.0167 70.9776 10.6 73.0776 10.6C75.4109 10.6 77.4943 11.1667 79.3276 12.3C81.1609 13.4333 82.6109 14.9833 83.6776 16.95C84.7443 18.9167 85.2776 21.15 85.2776 23.65C85.2776 26.15 84.7443 28.3833 83.6776 30.35C82.6109 32.2833 81.1609 33.8167 79.3276 34.95C77.4943 36.05 75.4109 36.6 73.0776 36.6ZM71.7276 31C73.7609 31 75.4443 30.3167 76.7776 28.95C78.1109 27.5833 78.7776 25.8167 78.7776 23.65C78.7776 21.4833 78.1109 19.7 76.7776 18.3C75.4443 16.9 73.7609 16.2 71.7276 16.2C69.6609 16.2 67.9609 16.9 66.6276 18.3C65.3276 19.6667 64.6776 21.4333 64.6776 23.6C64.6776 25.7667 65.3276 27.55 66.6276 28.95C67.9609 30.3167 69.6609 31 71.7276 31ZM99.6816 36.6C97.4816 36.6 95.5483 36.25 93.8816 35.55C92.215 34.8167 90.8816 33.8167 89.8816 32.55C88.8816 31.2833 88.2816 29.8167 88.0816 28.15H94.5316C94.7316 29.1167 95.265 29.95 96.1316 30.65C97.0316 31.3167 98.1816 31.65 99.5816 31.65C100.982 31.65 101.998 31.3667 102.632 30.8C103.298 30.2333 103.632 29.5833 103.632 28.85C103.632 27.7833 103.165 27.0667 102.232 26.7C101.298 26.3 99.9983 25.9167 98.3316 25.55C97.265 25.3167 96.1816 25.0333 95.0816 24.7C93.9816 24.3667 92.965 23.95 92.0316 23.45C91.1316 22.9167 90.3983 22.25 89.8316 21.45C89.265 20.6167 88.9816 19.6 88.9816 18.4C88.9816 16.2 89.8483 14.35 91.5816 12.85C93.3483 11.35 95.815 10.6 98.9816 10.6C101.915 10.6 104.248 11.2833 105.982 12.65C107.748 14.0167 108.798 15.9 109.132 18.3H103.082C102.715 16.4667 101.332 15.55 98.9316 15.55C97.7316 15.55 96.7983 15.7833 96.1316 16.25C95.4983 16.7167 95.1816 17.3 95.1816 18C95.1816 18.7333 95.665 19.3167 96.6316 19.75C97.5983 20.1833 98.8816 20.5833 100.482 20.95C102.215 21.35 103.798 21.8 105.232 22.3C106.698 22.7667 107.865 23.4833 108.732 24.45C109.598 25.3833 110.032 26.7333 110.032 28.5C110.065 30.0333 109.665 31.4167 108.832 32.65C107.998 33.8833 106.798 34.85 105.232 35.55C103.665 36.25 101.815 36.6 99.6816 36.6ZM126.288 36.6C123.755 36.6 121.521 36.05 119.588 34.95C117.655 33.85 116.121 32.3167 114.988 30.35C113.888 28.3833 113.338 26.1333 113.338 23.6C113.338 21.0667 113.888 18.8167 114.988 16.85C116.121 14.8833 117.655 13.35 119.588 12.25C121.521 11.15 123.755 10.6 126.288 10.6C129.455 10.6 132.121 11.4333 134.288 13.1C136.455 14.7333 137.838 17 138.438 19.9H131.688C131.355 18.7 130.688 17.7667 129.688 17.1C128.721 16.4 127.571 16.05 126.238 16.05C124.471 16.05 122.971 16.7167 121.738 18.05C120.505 19.3833 119.888 21.2333 119.888 23.6C119.888 25.9667 120.505 27.8167 121.738 29.15C122.971 30.4833 124.471 31.15 126.238 31.15C127.571 31.15 128.721 30.8167 129.688 30.15C130.688 29.4833 131.355 28.5333 131.688 27.3H138.438C137.838 30.1 136.455 32.35 134.288 34.05C132.121 35.75 129.455 36.6 126.288 36.6ZM142.555 36V11.2H148.255L148.855 15.85C149.755 14.25 150.972 12.9833 152.505 12.05C154.072 11.0833 155.905 10.6 158.005 10.6V17.35H156.205C154.805 17.35 153.555 17.5667 152.455 18C151.355 18.4333 150.489 19.1833 149.855 20.25C149.255 21.3167 148.955 22.8 148.955 24.7V36H142.555ZM164.266 7.35C163.1 7.35 162.133 7 161.366 6.3C160.633 5.6 160.266 4.71667 160.266 3.65C160.266 2.58333 160.633 1.71666 161.366 1.05C162.133 0.349998 163.1 -1.43051e-06 164.266 -1.43051e-06C165.433 -1.43051e-06 166.383 0.349998 167.116 1.05C167.883 1.71666 168.266 2.58333 168.266 3.65C168.266 4.71667 167.883 5.6 167.116 6.3C166.383 7 165.433 7.35 164.266 7.35ZM161.066 36V11.2H167.466V36H161.066ZM172.583 47V11.2H178.283L178.983 14.75C179.783 13.65 180.833 12.6833 182.133 11.85C183.467 11.0167 185.183 10.6 187.283 10.6C189.617 10.6 191.7 11.1667 193.533 12.3C195.367 13.4333 196.817 14.9833 197.883 16.95C198.95 18.9167 199.483 21.15 199.483 23.65C199.483 26.15 198.95 28.3833 197.883 30.35C196.817 32.2833 195.367 33.8167 193.533 34.95C191.7 36.05 189.617 36.6 187.283 36.6C185.417 36.6 183.783 36.25 182.383 35.55C180.983 34.85 179.85 33.8667 178.983 32.6V47H172.583ZM185.933 31C187.967 31 189.65 30.3167 190.983 28.95C192.317 27.5833 192.983 25.8167 192.983 23.65C192.983 21.4833 192.317 19.7 190.983 18.3C189.65 16.9 187.967 16.2 185.933 16.2C183.867 16.2 182.167 16.9 180.833 18.3C179.533 19.6667 178.883 21.4333 178.883 23.6C178.883 25.7667 179.533 27.55 180.833 28.95C182.167 30.3167 183.867 31 185.933 31ZM213.711 36C211.111 36 209.027 35.3667 207.461 34.1C205.894 32.8333 205.111 30.5833 205.111 27.35V16.55H200.861V11.2H205.111L205.861 4.55H211.511V11.2H218.211V16.55H211.511V27.4C211.511 28.6 211.761 29.4333 212.261 29.9C212.794 30.3333 213.694 30.55 214.961 30.55H218.061V36H213.711ZM225.593 7.35C224.426 7.35 223.459 7 222.693 6.3C221.959 5.6 221.593 4.71667 221.593 3.65C221.593 2.58333 221.959 1.71666 222.693 1.05C223.459 0.349998 224.426 -1.43051e-06 225.593 -1.43051e-06C226.759 -1.43051e-06 227.709 0.349998 228.443 1.05C229.209 1.71666 229.593 2.58333 229.593 3.65C229.593 4.71667 229.209 5.6 228.443 6.3C227.709 7 226.759 7.35 225.593 7.35ZM222.393 36V11.2H228.793V36H222.393ZM245.809 36.6C243.409 36.6 241.243 36.05 239.309 34.95C237.409 33.85 235.893 32.3333 234.759 30.4C233.659 28.4333 233.109 26.1667 233.109 23.6C233.109 21.0333 233.676 18.7833 234.809 16.85C235.943 14.8833 237.459 13.35 239.359 12.25C241.293 11.15 243.459 10.6 245.859 10.6C248.226 10.6 250.359 11.15 252.259 12.25C254.193 13.35 255.709 14.8833 256.809 16.85C257.943 18.7833 258.509 21.0333 258.509 23.6C258.509 26.1667 257.943 28.4333 256.809 30.4C255.709 32.3333 254.193 33.85 252.259 34.95C250.326 36.05 248.176 36.6 245.809 36.6ZM245.809 31.05C247.476 31.05 248.926 30.4333 250.159 29.2C251.393 27.9333 252.009 26.0667 252.009 23.6C252.009 21.1333 251.393 19.2833 250.159 18.05C248.926 16.7833 247.493 16.15 245.859 16.15C244.159 16.15 242.693 16.7833 241.459 18.05C240.259 19.2833 239.659 21.1333 239.659 23.6C239.659 26.0667 240.259 27.9333 241.459 29.2C242.693 30.4333 244.143 31.05 245.809 31.05ZM262.669 36V11.2H268.319L268.819 15.4C269.585 13.9333 270.685 12.7667 272.119 11.9C273.585 11.0333 275.302 10.6 277.269 10.6C280.335 10.6 282.719 11.5667 284.419 13.5C286.119 15.4333 286.969 18.2667 286.969 22V36H280.569V22.6C280.569 20.4667 280.135 18.8333 279.269 17.7C278.402 16.5667 277.052 16 275.219 16C273.419 16 271.935 16.6333 270.769 17.9C269.635 19.1667 269.069 20.9333 269.069 23.2V36H262.669ZM305.326 7.35C304.16 7.35 303.193 7 302.426 6.3C301.693 5.6 301.326 4.71667 301.326 3.65C301.326 2.58333 301.693 1.71666 302.426 1.05C303.193 0.349998 304.16 -1.43051e-06 305.326 -1.43051e-06C306.493 -1.43051e-06 307.443 0.349998 308.176 1.05C308.943 1.71666 309.326 2.58333 309.326 3.65C309.326 4.71667 308.943 5.6 308.176 6.3C307.443 7 306.493 7.35 305.326 7.35ZM302.126 36V11.2H308.526V36H302.126ZM313.643 36V11.2H319.293L319.793 15.4C320.56 13.9333 321.66 12.7667 323.093 11.9C324.56 11.0333 326.276 10.6 328.243 10.6C331.31 10.6 333.693 11.5667 335.393 13.5C337.093 15.4333 337.943 18.2667 337.943 22V36H331.543V22.6C331.543 20.4667 331.11 18.8333 330.243 17.7C329.376 16.5667 328.026 16 326.193 16C324.393 16 322.91 16.6333 321.743 17.9C320.61 19.1667 320.043 20.9333 320.043 23.2V36H313.643ZM353.9 36.6C351.567 36.6 349.483 36.0333 347.65 34.9C345.817 33.7667 344.367 32.2167 343.3 30.25C342.233 28.2833 341.7 26.05 341.7 23.55C341.7 21.05 342.233 18.8333 343.3 16.9C344.367 14.9333 345.817 13.4 347.65 12.3C349.483 11.1667 351.567 10.6 353.9 10.6C355.767 10.6 357.4 10.95 358.8 11.65C360.2 12.35 361.333 13.3333 362.2 14.6V-1.43051e-06H368.6V36H362.9L362.2 32.45C361.4 33.55 360.333 34.5167 359 35.35C357.7 36.1833 356 36.6 353.9 36.6ZM355.25 31C357.317 31 359 30.3167 360.3 28.95C361.633 27.55 362.3 25.7667 362.3 23.6C362.3 21.4333 361.633 19.6667 360.3 18.3C359 16.9 357.317 16.2 355.25 16.2C353.217 16.2 351.533 16.8833 350.2 18.25C348.867 19.6167 348.2 21.3833 348.2 23.55C348.2 25.7167 348.867 27.5 350.2 28.9C351.533 30.3 353.217 31 355.25 31ZM385.604 36.6C383.104 36.6 380.887 36.0667 378.954 35C377.021 33.9333 375.504 32.4333 374.404 30.5C373.304 28.5667 372.754 26.3333 372.754 23.8C372.754 21.2333 373.287 18.95 374.354 16.95C375.454 14.95 376.954 13.4 378.854 12.3C380.787 11.1667 383.054 10.6 385.654 10.6C388.087 10.6 390.237 11.1333 392.104 12.2C393.971 13.2667 395.421 14.7333 396.454 16.6C397.521 18.4333 398.054 20.4833 398.054 22.75C398.054 23.1167 398.037 23.5 398.004 23.9C398.004 24.3 397.987 24.7167 397.954 25.15H379.104C379.237 27.0833 379.904 28.6 381.104 29.7C382.337 30.8 383.821 31.35 385.554 31.35C386.854 31.35 387.937 31.0667 388.804 30.5C389.704 29.9 390.371 29.1333 390.804 28.2H397.304C396.837 29.7667 396.054 31.2 394.954 32.5C393.887 33.7667 392.554 34.7667 390.954 35.5C389.387 36.2333 387.604 36.6 385.604 36.6ZM385.654 15.8C384.087 15.8 382.704 16.25 381.504 17.15C380.304 18.0167 379.537 19.35 379.204 21.15H391.554C391.454 19.5167 390.854 18.2167 389.754 17.25C388.654 16.2833 387.287 15.8 385.654 15.8ZM397.815 36L406.815 23.6L397.815 11.2H404.665L410.965 20L417.215 11.2H424.115L415.065 23.6L424.115 36H417.215L410.965 27.2L404.665 36H397.815Z" fill="#19191B"/>
</svg>
